<svg xmlns="http://www.w3.org/2000/svg" xml:space="preserve" fill="#000" version="1.1" viewBox="0 0 512 512">
  <path d="m483.104 430.583-.148-.04-29.801-7.739c-2.526-.744-4.522-2.051-4.952-2.735l-.02-16.209.076-.086c10.219-12.214 15.847-28.039 15.847-44.562V347.14c10.195-33.211 3.01-62.007-.677-70.389l-.045-.089q-.1-.212-.209-.417-.08-.157-.167-.311c-.063-.107-.132-.21-.199-.313q-.12-.19-.249-.371-.072-.093-.146-.185a8 8 0 0 0-.364-.441l-.065-.067a8 8 0 0 0-3.087-2.076l-.1-.034a8 8 0 0 0-.628-.199c-.052-.014-.105-.023-.157-.036a8 8 0 0 0-.599-.127q-.09-.013-.182-.024a8 8 0 0 0-.597-.066q-.096-.005-.194-.006a8 8 0 0 0-.596-.007c-.075.002-.15.01-.225.014a8 8 0 0 0-.56.05l-.087.008c-7.71 1.104-17.111-1.15-27.064-3.532-17.606-4.216-37.465-8.959-54.863 3.583-16.823 1.446-28.752 15.584-28.752 34.692 0 13.896 6.447 38.713 7.925 44.221v6.679c0 17.245 5.968 33.186 15.534 45.077l-.022 17.315c-.43.685-2.426 1.991-4.952 2.735l-29.802 7.74-.147.04c-18.971 5.314-28.896 23.912-28.896 39.537v8.638c0 9.456 8.276 17.149 18.45 17.149l85.4-.009c.062.001.121.009.183.009s.122-.008.184-.009l85.4-.009c10.173 0 18.449-7.693 18.449-17.149v-8.639c0-15.626-9.926-34.224-28.896-39.539M408 446.624l-27.734-16.64c2.115-2.676 3.466-5.926 3.466-9.779l.004-3.432c7.398 4.36 15.665 6.836 24.319 6.836 8.495 0 16.694-2.199 24.143-6.361l.004 2.929c0 3.966 1.43 7.292 3.649 10.011zm-39.781-91.661c0-7.949 3.364-19.574 5.878-26.928 36.238.832 63.58 9.534 74.007 13.393v17.784c0 14.103-5.305 27.023-13.579 35.963l-.039.041c-7.113 7.665-16.41 12.395-26.431 12.395-21.221 0-39.836-23.325-39.836-49.915zm7.693-66.992c.045 0 .089-.006.134-.007q.326-.003.65-.033c.093-.009.183-.026.276-.039.167-.022.335-.043.501-.077.111-.022.218-.052.327-.079.144-.035.289-.068.431-.111.118-.036.232-.08.347-.121.13-.046.26-.089.388-.142.123-.051.241-.11.361-.167.116-.055.232-.106.346-.167.134-.072.263-.153.392-.232.093-.057.189-.109.28-.17.163-.108.317-.227.471-.347.051-.04.106-.073.156-.115 11.769-9.616 27.041-5.959 43.209-2.088 8.704 2.084 17.641 4.219 26.319 4.251 2.085 7.705 4.136 21.357 1.934 37.619-13.019-4.742-43.564-13.985-83.907-13.985l-.059.003c-.183.001-.364.014-.546.027-.089.007-.179.01-.268.02-.148.016-.294.042-.441.067-.119.02-.24.036-.358.061-.099.021-.196.051-.294.076-.158.04-.317.079-.472.128-.053.017-.105.04-.158.058a8 8 0 0 0-.569.214l-.097.047q-.301.132-.589.288c-.068.037-.131.081-.198.12-.151.089-.303.177-.447.275-.137.093-.267.196-.398.298-.068.053-.139.101-.206.155a8 8 0 0 0-.478.434l-.086.079a8 8 0 0 0-.407.448l-.113.127c-.103.125-.196.258-.292.391-.06.082-.123.162-.18.247-.067.101-.126.207-.189.311-.076.126-.154.252-.224.383-.042.08-.079.165-.119.247-.05.103-.103.205-.149.31-.553-3.771-.9-7.235-.9-9.981.004-8.683 4.094-18.823 15.622-18.823m-53.529 191.955c-1.632 0-2.449-.93-2.449-1.149v-8.638c0-9.576 5.889-20.92 17.146-24.111l27.097-7.038 35.79 21.473v19.455zM496 478.758c0 .22-.816 1.149-2.45 1.149l-77.583.008V460.5l36.269-21.406 26.619 6.913C490.112 449.202 496 460.545 496 470.12zM104.033 247.98c.062 0 .122-.008.184-.009l85.4-.009c10.173 0 18.449-7.693 18.449-17.149v-8.638c0-15.625-9.926-34.223-28.896-39.537l-.147-.04-29.802-7.74c-2.526-.744-4.522-2.051-4.952-2.735l-.02-16.209.076-.086c10.219-12.214 15.847-28.039 15.847-44.562V99.192c10.196-33.213 3.01-62.007-.678-70.388l-.036-.071a8 8 0 0 0-.248-.495q-.059-.113-.12-.225a9 9 0 0 0-.274-.431c-.055-.082-.107-.166-.165-.246-.086-.119-.179-.231-.271-.345-.075-.092-.148-.187-.226-.276-.084-.094-.174-.182-.262-.272-.094-.096-.186-.194-.284-.286-.088-.082-.182-.156-.273-.233-.104-.088-.206-.178-.314-.26-.104-.079-.214-.151-.321-.225-.101-.069-.2-.142-.304-.207-.13-.081-.266-.153-.401-.227-.087-.047-.171-.098-.259-.142-.156-.078-.317-.145-.478-.212-.073-.031-.145-.065-.219-.094a8 8 0 0 0-.511-.171c-.073-.023-.146-.049-.22-.07a8 8 0 0 0-.489-.113q-.138-.032-.277-.059c-.139-.024-.28-.039-.421-.056-.125-.015-.249-.032-.374-.041-.112-.008-.225-.008-.338-.012a8 8 0 0 0-.474-.004c-.092.003-.184.012-.276.018a8 8 0 0 0-.532.049c-.028.004-.056.004-.084.008-7.707 1.102-17.109-1.15-27.063-3.533-17.607-4.214-37.466-8.958-54.865 3.584C52.288 25.603 40.36 39.74 40.36 58.848c0 13.896 6.447 38.713 7.926 44.221v6.679c0 17.245 5.968 33.186 15.534 45.077l-.021 17.315c-.43.685-2.427 1.992-4.953 2.735l-29.801 7.74-.147.04C9.926 187.97 0 206.568 0 222.193v8.639c0 9.456 8.276 17.148 18.45 17.148l85.4-.009c.061.001.121.009.183.009M64.286 107.016c0-7.949 3.364-19.574 5.878-26.928 36.238.832 63.58 9.534 74.007 13.393v17.784c0 14.103-5.305 27.023-13.579 35.963l-.039.041c-7.113 7.665-16.41 12.395-26.431 12.395-21.221 0-39.835-23.325-39.835-49.915v-2.733zm15.516 61.81c7.398 4.36 15.665 6.837 24.319 6.837 8.495 0 16.694-2.199 24.143-6.361l.004 2.929c0 3.966 1.43 7.292 3.649 10.011l-27.85 16.437-27.735-16.64c2.115-2.676 3.466-5.926 3.466-9.779zm112.264 53.348v8.638c0 .22-.816 1.149-2.45 1.149l-77.583.008v-19.415l36.269-21.405 26.619 6.914c11.256 3.192 17.145 14.535 17.145 24.111M71.978 40.026c.044 0 .088-.006.132-.007q.327-.003.653-.033c.091-.009.18-.026.271-.038.169-.022.338-.044.507-.077.108-.021.213-.051.32-.077.147-.035.294-.069.439-.113.115-.035.225-.078.337-.117.134-.047.267-.092.399-.146.118-.049.231-.106.346-.16.121-.057.242-.11.361-.174.127-.068.249-.145.372-.22.1-.061.202-.117.3-.182.151-.101.294-.212.438-.322.062-.048.127-.088.188-.138 11.769-9.617 27.041-5.96 43.21-2.088 8.704 2.084 17.64 4.219 26.318 4.251 2.085 7.705 4.135 21.356 1.933 37.618-13.019-4.742-43.564-13.985-83.907-13.985l-.051.002a8 8 0 0 0-.587.03c-.075.006-.152.008-.227.016-.164.018-.325.046-.487.074-.104.018-.21.031-.313.053-.116.024-.229.059-.344.088-.142.037-.285.07-.424.115-.07.022-.138.052-.208.076-.176.062-.351.123-.521.196-.049.021-.096.048-.145.07a8 8 0 0 0-.542.265c-.079.043-.153.094-.231.14-.14.083-.281.164-.416.255-.14.095-.272.2-.406.304-.066.051-.135.097-.199.15a8 8 0 0 0-.465.423c-.032.031-.068.06-.099.092a8 8 0 0 0-.397.437c-.04.047-.084.09-.124.138-.1.123-.192.253-.286.382-.062.085-.127.167-.186.255-.066.099-.124.203-.185.305-.078.128-.157.256-.227.389-.042.079-.078.163-.117.244q-.078.154-.151.313c-.553-3.771-.9-7.235-.9-9.981.003-8.683 4.093-18.823 15.621-18.823M18.449 231.98c-1.633 0-2.449-.929-2.449-1.148v-8.639c0-9.576 5.89-20.919 17.146-24.111l27.098-7.038 35.79 21.473v19.455zM194.631 98.537c19.644-6.943 40.273-10.464 61.315-10.464 86.407 0 160.492 60.228 179.334 142.812l-20.985-14.536a8 8 0 0 0-9.111 13.153l37.193 25.764a7.96 7.96 0 0 0 4.549 1.425 7.99 7.99 0 0 0 6.583-3.445l25.765-37.192a8 8 0 0 0-13.153-9.111l-14.96 21.596c-20.029-90.401-100.87-156.463-195.215-156.463-22.863 0-45.286 3.828-66.647 11.378a8 8 0 0 0-4.877 10.209 8.005 8.005 0 0 0 10.209 4.874m84.323 356.028a187 187 0 0 1-23.008 1.424c-95.265 0-173.844-72.791-183.051-165.674l20.697 16.694a8 8 0 0 0 11.249-1.204 8 8 0 0 0-1.204-11.249l-32.59-26.288a8 8 0 0 0-7.059-4.237 7.95 7.95 0 0 0-4.326 1.277 8 8 0 0 0-2.491 2.046l-28.406 35.217a8 8 0 0 0 6.223 13.022 7.99 7.99 0 0 0 6.232-2.978l15.861-19.665c10.493 100.461 95.673 179.038 198.866 179.038 8.351 0 16.758-.521 24.988-1.547a8 8 0 0 0 6.948-8.929 7.993 7.993 0 0 0-8.929-6.947"/>
</svg>
