<svg xmlns="http://www.w3.org/2000/svg" fill="#000" viewBox="0 0 24 24">
  <path d="M21 10.77V6c0-1.37-2.85-2-5.5-2a15 15 0 0 0-2.5.2V4c0-1.37-2.85-2-5.5-2S2 2.63 2 4v15c0 1.37 2.85 2 5.5 2a14.7 14.7 0 0 0 2.83-.27A7.49 7.49 0 0 0 21 10.77m-3.11-2.95A7.3 7.3 0 0 0 20 7.21v2.21a7.6 7.6 0 0 0-2.11-1.6M7.5 6a10.9 10.9 0 0 0 4.5-.79V7c-.08.28-1.58 1-4.5 1S3.08 7.27 3 7V5.21A10.9 10.9 0 0 0 7.5 6m-.06 6A7 7 0 0 0 7 14c-2.6-.08-3.95-.73-4-1v-1.79a11 11 0 0 0 4.44.79M3 16v-1.79A10.2 10.2 0 0 0 7 15a7.5 7.5 0 0 0 .42 2c-2.86 0-4.34-.73-4.42-1m4.88-5H7.5c-2.92 0-4.42-.73-4.5-1V8.21A10.9 10.9 0 0 0 7.5 9a15.5 15.5 0 0 0 2.06-.13A7.5 7.5 0 0 0 7.88 11m7.62-6c2.93 0 4.43.73 4.5 1s-1.57 1-4.5 1a14.6 14.6 0 0 1-2.5-.21V5.21A14.6 14.6 0 0 1 15.5 5m-8-2c2.9 0 4.4.72 4.5 1-.1.27-1.5.94-4.19 1H7.5C4.58 5 3.08 4.27 3 4c.08-.27 1.58-1 4.5-1m0 17c-2.92 0-4.42-.73-4.5-1v-1.79a10.9 10.9 0 0 0 4.5.79h.37a7.5 7.5 0 0 0 1.42 1.89A15 15 0 0 1 7.5 20m7 1a6.5 6.5 0 1 1 6.5-6.5 6.51 6.51 0 0 1-6.5 6.5"/>
  <path d="M15 14v-2.3a1.29 1.29 0 0 1 1 .88.5.5 0 0 0 1-.24 2.38 2.38 0 0 0-2-1.62v-.22a.5.5 0 0 0-1 0v.21a2.27 2.27 0 0 0-2 2.12 2.3 2.3 0 0 0 .05.46A2.39 2.39 0 0 0 14 15v2.31a1.29 1.29 0 0 1-1-.88.5.5 0 1 0-1 .24 2.36 2.36 0 0 0 2 1.61v.22a.5.5 0 0 0 1 0v-.22a2.36 2.36 0 0 0 2-1.67 2.3 2.3 0 0 0 .05-.44A2.28 2.28 0 0 0 15 14m-2-1a.8.8 0 0 1 0-.22 1.23 1.23 0 0 1 1-1.09v2.19a1.3 1.3 0 0 1-1-.83Zm3 3.38a1.29 1.29 0 0 1-1 .88v-2.19a1.23 1.23 0 0 1 1 1.1.8.8 0 0 1 0 .21"/>
</svg>
