<svg xmlns="http://www.w3.org/2000/svg" fill="#000" version="1.1" viewBox="0 0 32 32">
  <path d="M9.072 14.75h13.856a.75.75 0 0 0 .648-1.129l.002.004-6.929-12a.78.78 0 0 0-1.297-.003l-.002.003-6.928 12a.75.75 0 0 0 .65 1.125M16 3.5l5.629 9.75H10.371zM7.838 17.25l-.164-.002a6.752 6.752 0 0 0 0 13.504l.173-.002h-.008l.164.002a6.752 6.752 0 0 0 0-13.504l-.173.002zm0 12q-.074.003-.159.002a5.252 5.252 0 1 1 .168-10.501h-.008q.073-.002.159-.002A5.252 5.252 0 1 1 7.83 29.25zM28 17.25h-8A2.754 2.754 0 0 0 17.25 20v8A2.754 2.754 0 0 0 20 30.75h8A2.754 2.754 0 0 0 30.75 28v-8A2.754 2.754 0 0 0 28 17.25M29.25 28A1.25 1.25 0 0 1 28 29.25h-8A1.25 1.25 0 0 1 18.75 28v-8c.001-.69.56-1.249 1.25-1.25h8c.69.001 1.249.56 1.25 1.25z"/>
</svg>
