<svg xmlns="http://www.w3.org/2000/svg" xmlns:xlink="http://www.w3.org/1999/xlink" fill="none" viewBox="0 0 269 60">
  <path fill="#fff" d="M84.394 39.582a9.12 9.12 0 0 0 7.462-3.863l4.194 4.19a15.19 15.19 0 0 1-11.558 5.315c-8.408 0-15.224-6.816-15.224-15.224s6.816-15.224 15.224-15.224c4.107 0 7.834 1.626 10.573 4.27l-4.59 4.585a9.134 9.134 0 1 0-6.08 15.951Zm15.715-24.806v29.8h5.519v-29.8z"/>
  <path fill="#fff" fill-rule="evenodd" d="M114.957 43.704q2.495 1.48 5.802 1.48 3.287 0 5.783-1.46a10.3 10.3 0 0 0 3.915-4.075q1.42-2.615 1.42-6.02 0-3.385-1.399-5.98-1.4-2.616-3.916-4.095-2.496-1.48-5.803-1.48-3.246 0-5.741 1.46-2.496 1.458-3.916 4.074-1.42 2.595-1.42 6.02 0 3.387 1.379 6.001 1.4 2.595 3.896 4.075m9.759-5.453q-1.299 1.784-3.957 1.784-2.577 0-3.915-1.724-1.32-1.743-1.319-4.682 0-1.906.548-3.345.567-1.44 1.724-2.25c1.157-.81 1.758-.811 2.962-.811q2.617 0 3.936 1.743 1.34 1.744 1.339 4.663 0 2.817-1.318 4.622" clip-rule="evenodd"/>
  <path fill="#fff" d="M143.684 45.224q-2.577 0-4.2-.872-1.624-.87-2.536-2.21a9.4 9.4 0 0 1-1.278-2.777q-.386-1.46-.467-2.655a29 29 0 0 1-.081-1.743V22.682h5.599V33.02q0 .75.082 1.926.081 1.156.507 2.332a4.5 4.5 0 0 0 1.379 1.966q.975.79 2.739.79a5.8 5.8 0 0 0 1.522-.222q.811-.224 1.522-.852.71-.648 1.156-1.885.467-1.257.467-3.284V22.682h5.559v21.893h-4.869v-2.257a9 9 0 0 1-1.765 1.507q-2.11 1.4-5.336 1.399"/>
  <path fill="#fff" fill-rule="evenodd" d="M164.104 43.663q2.272 1.52 5.295 1.52 3.267 0 5.458-1.52.24-.166.467-.346v1.258h4.869v-29.19h-5.559v8.003q-2.046-1.314-4.951-1.314-3.144 0-5.478 1.5t-3.631 4.115q-1.28 2.595-1.279 5.94 0 3.283 1.258 5.899 1.278 2.615 3.551 4.135m11.22-10.034q0 1.986-.487 3.486t-1.603 2.332q-1.096.83-2.942.83-1.785 0-2.922-.891-1.135-.892-1.684-2.392-.547-1.521-.547-3.365 0-1.825.568-3.325.567-1.52 1.744-2.412 1.198-.912 3.044-.912 1.724 0 2.779.83 1.076.832 1.563 2.332t.487 3.487" clip-rule="evenodd"/>
  <path fill="#fff" d="M184.656 33.913v-4.258h12.174v4.258zm17.04-18.529v29.191h5.518v-29.19z"/>
  <path fill="#fff" fill-rule="evenodd" d="m210.456 44.575 8.927-29.19h8.237l8.928 29.19h-5.681l-1.879-6.081h-11.001l-1.85 6.081zm12.989-24.024 3.952 12.794h-7.844z" clip-rule="evenodd"/>
  <path fill="#fff" d="M239.372 15.384v29.191h5.154V27.142l8.48 17.433h1.948l8.481-17.433v17.433h5.153v-29.19h-4.95l-9.658 19.379-9.657-19.38z"/>
  <path fill="#216BFF" d="M29.77 50.532 12.92 36.491l-2.716-24.448L0 10.909l3.938 35.455L20.302 60z"/>
  <path fill="#0E5AF0" d="M10.204 12.043 12.92 36.49l16.85 14.04L20.302 60 3.938 46.364l-2.803-25.24 8.127-9.186z"/>
  <path fill="url(#a)" d="M10.204 12.043 12.92 36.49l16.85 14.04L20.302 60 3.938 46.364l-2.803-25.24 8.127-9.186z" opacity=".52"/>
  <path fill="#6EDEFF" d="M21.719 6.588 11.515 5.455l3.332 30L31.211 49.09l9.468-9.468-16.85-14.041-2.11-18.994Z"/>
  <path fill="#5CCDF0" d="m12.648 15.656 8.116-9.174.955.106 2.11 18.994 16.85 14.041-9.468 9.468-16.364-13.636z"/>
  <path fill="url(#b)" d="m12.648 15.656 8.116-9.174.955.106 2.11 18.994 16.85 14.041-9.468 9.468-16.364-13.636z"/>
  <path fill="#E3EBFF" d="m23.03 0 24.545 2.727 5.454 24.546L42.12 38.182 25.757 24.545 23.028 0Z"/>
  <mask id="d" width="31" height="39" x="23" y="0" maskUnits="userSpaceOnUse" style="mask-type:alpha">
    <path fill="#fff" d="m23.03 0 24.545 2.727 5.454 24.546L42.12 38.182 25.757 24.545 23.028 0Z"/>
  </mask>
  <g filter="url(#c)" mask="url(#d)">
    <path fill="#fff" d="m29.119-13.194 24.545 2.727L59.12 14.08 48.21 24.989 31.846 11.35l-2.727-24.545Z"/>
  </g>
  <defs>
    <linearGradient id="a" x1="4.886" x2="27.704" y1="46.687" y2="51.771" gradientUnits="userSpaceOnUse">
      <stop stop-color="#0037D2" stop-opacity="0"/>
      <stop offset=".75" stop-color="#0037D2"/>
    </linearGradient>
    <linearGradient id="b" x1="15.731" x2="40.09" y1="35.523" y2="40.09" gradientUnits="userSpaceOnUse">
      <stop stop-color="#2EA1CA" stop-opacity="0"/>
      <stop offset=".75" stop-color="#2EA1CA"/>
    </linearGradient>
    <filter id="c" width="68" height="76.182" x="10.119" y="-32.194" color-interpolation-filters="sRGB" filterUnits="userSpaceOnUse">
      <feFlood flood-opacity="0" result="BackgroundImageFix"/>
      <feBlend in="SourceGraphic" in2="BackgroundImageFix" result="shape"/>
      <feGaussianBlur result="effect1_foregroundBlur_347_1896" stdDeviation="9.5"/>
    </filter>
  </defs>
</svg>
