<?xml version="1.0" encoding="UTF-8" standalone="no"?>
<!DOCTYPE svg PUBLIC "-//W3C//DTD SVG 1.1//EN" "http://www.w3.org/Graphics/SVG/1.1/DTD/svg11.dtd">
<svg width="100%" height="100%" viewBox="0 0 149 149" version="1.1" xmlns="http://www.w3.org/2000/svg" xmlns:xlink="http://www.w3.org/1999/xlink" xml:space="preserve" xmlns:serif="http://www.serif.com/" style="fill-rule:evenodd;clip-rule:evenodd;stroke-linejoin:round;stroke-miterlimit:2;">
    <g transform="matrix(1,0,0,1,-494.298,-1398.08)">
        <g id="Plan-de-travail2" serif:id="Plan de travail2" transform="matrix(1.33292,0,0,1.67487,139.18,1299.7)">
            <rect x="192.615" y="0" width="259.067" height="206.175" style="fill:none;"/>
            <g>
                <g transform="matrix(0.750232,0,0,0.597061,-104.417,-776.002)">
                    <rect x="503.546" y="1408.18" width="128.579" height="124.457" style="fill:white;"/>
                </g>
                <g transform="matrix(8.91136e-17,-1.15821,1.45534,7.09197e-17,-1160.21,524.045)">
                    <path d="M385.6,980.274C389.883,980.274 393.99,981.975 397.018,985.003C400.047,988.031 401.748,992.139 401.748,996.421L401.748,1040.71C401.748,1044.99 400.047,1049.1 397.018,1052.13C393.99,1055.16 389.883,1056.86 385.6,1056.86L325.165,1056.86L325.165,996.421C325.165,992.139 326.866,988.031 329.894,985.003C332.922,981.975 337.03,980.274 341.312,980.274L385.6,980.274ZM386.237,1006.97L386.238,1006.89C386.265,1005.16 385.594,1003.49 384.375,1002.26C383.156,1001.03 381.493,1000.34 379.762,1000.35L343.985,1000.58C341.081,1000.59 338.725,1002.93 338.679,1005.83L338.678,1005.92C338.651,1007.65 339.323,1009.32 340.542,1010.55C341.76,1011.78 343.423,1012.46 345.155,1012.45L380.932,1012.23C383.835,1012.21 386.192,1009.88 386.237,1006.97ZM393.505,1019.99L393.505,1019.99C393.5,1018.51 392.91,1017.1 391.864,1016.07C390.819,1015.03 389.404,1014.45 387.931,1014.46L352.972,1014.62C349.995,1014.63 347.592,1017.05 347.602,1020.03L347.602,1020.04C347.607,1021.51 348.198,1022.92 349.243,1023.96C350.289,1025 351.704,1025.57 353.176,1025.57L388.135,1025.41C391.112,1025.39 393.515,1022.97 393.505,1019.99ZM371.368,1032.51L371.368,1032.48C371.368,1031.38 370.929,1030.33 370.148,1029.55C369.367,1028.78 368.309,1028.35 367.209,1028.36L337.484,1028.59C335.228,1028.61 333.408,1030.44 333.408,1032.7L333.408,1032.73C333.408,1033.83 334.628,1035.66 334.628,1035.66C334.628,1035.66 336.466,1036.86 337.566,1036.86L367.291,1036.62C369.548,1036.6 371.368,1034.77 371.368,1032.51ZM365.257,993.742L365.257,993.704C365.257,992.264 364.679,990.885 363.652,989.875C362.625,988.866 361.236,988.311 359.797,988.335L351.951,988.468C349.527,988.509 347.584,990.485 347.584,992.909L347.584,992.947C347.584,994.387 348.162,995.767 349.189,996.776C350.215,997.785 351.604,998.34 353.044,998.316L360.89,998.183C363.313,998.142 365.257,996.166 365.257,993.742ZM378.635,1043.72C378.635,1042.42 378.118,1041.18 377.199,1040.27C376.279,1039.36 375.034,1038.86 373.741,1038.87L352.195,1039.08C349.641,1039.1 347.584,1041.18 347.584,1043.73L347.584,1043.74C347.584,1045.1 348.134,1046.41 349.108,1047.36C350.083,1048.31 351.401,1048.83 352.763,1048.79L360.02,1048.62L373.732,1048.62C375.032,1048.62 376.279,1048.1 377.199,1047.18C378.119,1046.26 378.635,1045.02 378.635,1043.72Z" style="fill:url(#_Linear1);"/>
                </g>
            </g>
        </g>
    </g>
    <defs>
        <linearGradient id="_Linear1" x1="0" y1="0" x2="1" y2="0" gradientUnits="userSpaceOnUse" gradientTransform="matrix(76.583,-76.583,76.583,76.583,325.165,1056.86)"><stop offset="0" style="stop-color:rgb(158,101,9);stop-opacity:1"/><stop offset="1" style="stop-color:rgb(255,196,0);stop-opacity:1"/></linearGradient>
    </defs>
</svg>
