<svg xmlns="http://www.w3.org/2000/svg" viewBox="0 0 1365 1024">
  <path fill="#fff" d="M0 0h1363.83c2.17 3.79 1.17 11.8 1.17 16.225l.01 794.091-.01 159.597c0 7.66 1.16 47.957-.41 52.627-.17.51-.5 1.01-.76 1.46H0V0z"/>
  <path fill="#1CBB83" d="M96.112 881.752c.718 2.064 1.654 2.928 3.29 4.338l-.068 1.588c-1.166-.064-.74.017-1.828-.258-3.674-.931-5.89-2.036-7.851-5.344 2.217.136 4.26-.065 6.457-.324zm-2.778 27.173c2.154.251 3.532.046 5.164 1.61.294 1.808.319 1.833-.57 3.428-1.693.911-1.898 1.06-3.912.895-1.725-1.508-1.99-2.371-2.53-4.641l1.848-1.292z"/>
  <path fill="#1CBB83" d="M99.403 886.09c1.55-1.337 2.547-1.933 4.583-2.245 1.385.664 2.098 1 2.497 2.59.453 1.804.009 3.514-.725 5.156l-1.206 1.044c-1.452-.148-1.487-.044-2.463-1.104l.954-2.777c-1.224-1.216-2.026-.953-3.71-1.076l.07-1.588zm164.52-648.714c.863.174 2.534.235 3.086.936 2.025 2.571.716 9.068.419 12.229-.966.137-1.521-.013-2.441-.316-2.032-3.286-1.162-9.108-1.064-12.849zm.275-21.725l2.369.659c2.617 3.268 1.183 9.698.79 13.666l-2.416-.14c-.508-.485-.573-.479-.938-1.215-1.366-2.762-.741-10.121.195-12.97zm5.129 15.856c3.556-.196 10.723-1.496 13.751.419 1.012.64 1.041 2.16 1.321 3.288-3.591.264-10.905 1.548-13.931-.448-.814-.537-.922-2.328-1.141-3.259zm-20.808-.16c3.587-.167 10.596-1.635 13.522.549.833.622.755 2.675.887 3.693-3.474-.088-9.486 1.41-12.499-.368-1.475-.87-1.48-2.332-1.91-3.874zM103.096 895.944c1.644 1.219 3.953 2.734 4.992 4.526.864 1.489.537 2.344.087 3.902-1.715 2.092-3.962 2.719-6.407 3.666l-1.733-.039-1.458-1.557c.32-3.229 3.847-1.688 5.208-4.429-.655-2.206-1.138-3.752-.689-6.069zm-11.609 14.273c-1.064-.323-2.119-.675-3.242-.528-.226.03-.449.079-.674.115-2.578.404-8.122-1.048-10.166-2.839-.887-.778-1.272-2.169-1.293-3.32-.03-1.574.843-3.606 2.108-4.575 1.33-1.019 2.288-.783 3.805-.612.755 2.079-1.365 3.43-1.678 5.653 3.818 1.835 8.058 4.876 12.36 4.839.209-.002.418-.017.627-.025l-1.847 1.292zm-1.832-28.141c-3.005 7.839-5.339 3.66-8.2 7.24l.876 2.821-.551.871c-1.605-.075-2.397-.116-3.495-1.408-1.192-1.402-1.287-2.81-1.171-4.556 1.013-1.545 1.033-1.728 2.853-2.411 1.74.435 3.168.757 4.966.642 2.513-1.52 2.487-3.938 4.347-5.848.807-.829 1.867-1.198 3.023-.992 1.983.355 2.72 1.839 3.81 3.317-2.198.259-4.24.46-6.458.324zm309.268-610.438c.288.099.59.164.866.295 1.526.722 1.831 1.658 2.175 3.174-1.757 5.255-7.618 10.314-11.639 14.071-12.827 11.984-27.264 17.442-44.683 16.824-1.66-1.079-2.443-1.251-3.145-3.147 2.582-2.699 11.617-1.769 15.498-2.343 3.392-.502 6.941-1.648 10.113-2.935 13.598-5.52 20.822-16.007 30.815-25.939zm-228.904 43.465c1.548.691 2.186 1.488 2.794 2.994-.147.402-.223.698-.447 1.051-3.462 5.459-18.82 10.128-24.845 11.566-14.42 3.441-27.564 2.237-40.271-5.582l-2.007-1.799c-.55-1.816-.622-1.992-.036-3.912 1.049-.552 1.373-.863 2.593-.52 4.466 1.258 7.929 6.221 15.532 7.823 15.999 3.371 33.463-2.859 46.687-11.621z"/>
  <path fill="#050505" d="M990.512 652.78c1.743.646 3.739.811 5.574 1.117 2.113 1.893 3.906 3.864 4.894 6.578 1.23 3.389 1.27 7.066-.41 10.307-2.023 3.9-5.23 5.315-9.153 6.633-1.811-.247-3.646-.667-5.278-1.522-2.957-1.55-5.166-4.685-5.958-7.888-.801-3.241-.287-6.864 1.517-9.69 2.252-3.527 4.951-4.664 8.814-5.535z"/>
  <path fill="#fff" d="M988.523 659.888c1.806-.09 3.65-.254 5.179.894q.213.158.409.336.196.179.373.377.176.198.332.414.155.215.287.445.132.23.24.472.108.243.19.495t.138.512q.055.259.084.523c.308 2.735-.784 4.507-2.452 6.546-1.993-.108-3.815-.174-5.471-1.419-1.399-1.052-1.971-2.383-2.075-4.08-.146-2.386 1.256-3.854 2.766-5.515z"/>
  <path fill="#050505" d="M990.397 548.634c1.735.45 3.646.867 5.235 1.714 2.771 1.476 4.848 4.282 5.778 7.243q.19.618.32 1.254.13.635.2 1.28.06.645.06 1.294-.01.648-.08 1.292-.07.645-.21 1.279-.13.633-.34 1.249-.2.616-.46 1.209-.27.591-.59 1.153c-1.975 3.478-4.773 4.828-8.435 5.852-2.314-.087-4.898-.497-6.889-1.743-4.24-2.654-4.748-8.148-5.636-12.607.502-1.195 1.009-2.39 1.593-3.547 2.083-4.132 5.322-5.562 9.454-6.922z"/>
  <path fill="#fff" d="M989.8 555.066c.239.031.48.048.717.093 1.903.36 3.326 1.234 4.439 2.836 1.058 1.524 1.315 3.215.898 5.012-.514 2.22-1.883 3.171-3.713 4.348-1.925-.451-3.595-.833-4.969-2.355-1.03-1.141-1.518-2.393-1.404-3.937.209-2.844 1.951-4.298 4.032-5.997z"/>
  <path fill="#050505" d="M987.827 618.599c1.439.096 2.94.158 4.358.422 3.551.663 6.351 2.616 8.295 5.66 1.63 2.541 2.1 5.792 1.36 8.706-1.08 4.293-4.02 6.954-7.675 9.089-1.891.507-3.796.748-5.741.356-2.981-.6-5.582-2.736-7.047-5.355-1.765-3.155-2.04-7.053-1.018-10.493 1.227-4.129 3.73-6.485 7.468-8.385z"/>
  <path fill="#fff" d="M988.33 625.305c1.97.049 3.83-.074 5.522 1.115 1.344.946 2.091 2.225 2.282 3.835.284 2.393-1.196 4.16-2.655 5.859-2.125.287-4.013.65-5.82-.729-.926-.707-1.546-1.929-1.715-3.065-.421-2.813.728-4.87 2.386-7.015z"/>
  <path fill="#050505" d="M988.605 584.019c1.802-.1 3.727-.134 5.471.394 2.896.878 5.46 3.075 6.774 5.799 1.54 3.206 1.51 6.858.34 10.17-1.602 4.543-4.672 6.174-8.765 8.065-1.908-.135-4.278-.369-6.062-1.099-2.772-1.134-4.859-3.841-5.912-6.571q-.236-.617-.409-1.253-.173-.637-.282-1.288-.11-.651-.154-1.31-.044-.658-.023-1.318.021-.66.107-1.314t.237-1.297q.15-.643.363-1.267.214-.625.488-1.225c1.694-3.732 4.166-5.182 7.827-6.486z"/>
  <path fill="#fff" d="M988.431 590.541c.234-.003.468-.016.703-.011 1.984.043 4.151.282 5.51 1.915 1.128 1.356 1.546 2.782 1.302 4.529-.291 2.091-1.616 3.394-3.125 4.719-1.731.146-3.48.376-5.002-.647-1.113-.749-1.74-1.934-1.924-3.227-.44-3.093.794-4.884 2.536-7.278z"/>
  <path fill="#1CBB83" d="M215.512 280.137c2.09.116 4.198.351 6.143 1.166 3.52 1.476 6.33 4.298 7.568 7.93q.21.611.358 1.24.147.629.232 1.27.084.64.104 1.286.02.646-.025 1.291-.044.644-.153 1.281-.109.637-.28 1.26-.172.623-.405 1.226-.233.603-.525 1.179c-2.127 4.298-5.612 5.823-9.83 7.4-2.51.05-4.812-.19-7.111-1.282q-.596-.277-1.16-.614-.564-.337-1.09-.73-.526-.394-1.009-.84-.483-.446-.917-.939-.434-.493-.814-1.029-.381-.536-.704-1.108-.323-.572-.585-1.175-.263-.603-.461-1.229-.217-.696-.36-1.411-.142-.714-.21-1.44-.067-.726-.057-1.455.009-.729.095-1.453.086-.723.247-1.434.162-.711.396-1.401.235-.69.541-1.352.306-.661.68-1.287c2.216-3.749 5.314-5.275 9.332-6.35z"/>
  <path fill="#fff" d="M214.348 286.002c.61-.067 1.219-.128 1.833-.14 2.418-.047 5.041.695 6.695 2.548 1.225 1.372 1.687 3.133 1.535 4.943-.3 3.545-2.463 5.593-4.97 7.774-1.131.177-2.333.392-3.481.353-1.923-.065-4.158-1.39-5.305-2.902-1.276-1.683-1.477-3.844-1.224-5.88.42-3.386 2.452-4.651 4.917-6.696z"/>
  <path fill="#1CBB83" d="M204.822 258.849q3.415-.335 6.844-.184 3.428.151 6.801.786c6.888 1.228 23.283 5.583 27.529 11.672.018 1.86-.04 1.779-1.274 3.193-.484.163-.942.458-1.451.49-1.519.094-11.597-5.32-13.929-6.254q-5.624-2.283-11.559-3.549c-33.843-6.894-41.914 25.528-64.324 40.445-2.701 1.482-5.591 2.827-8.412 4.072-7.502 3.309-20.08 4.514-27.786 1.226-1.926-.822-4.417-2.309-5.075-4.437-.346-1.122-.057-1.13.457-2.092 5.258-1.342 13.323 6.836 30.349.346 26.342-10.041 29.891-40.873 61.83-45.714zm309.498-36.003c.49 3.746 1.055 7.435 1.813 11.137-.176.071-.351.145-.528.215-5.327 2.107-11.101 3.192-16.581 4.868-9.793 2.995-41.477 14.591-50.451 10.106-1.243-.621-1.267-1.082-1.659-2.306 2.303-2.886 19.199-3.461 23.79-4.48 4.812-1.069 9.193-2.617 13.656-4.695-14.784-.9-28.341-7.215-43.008-8.313-39.44-2.953-43.596 28.319-67.117 48.342-12.336 10.502-25.791 14.229-41.756 11.32-6.495-1.184-13.09-2.979-19.68-3.427-29.189-1.986-40.655 17.117-59.713 33.501-7.586 6.522-20.389 14.162-30.856 13.01-1.801-.198-3.015-.548-4.197-1.937l.172-1.43c1.897-1.578 19.215-5.173 25.803-9.557 15.041-10.006 24.809-25.441 41.407-33.72 28.919-14.427 49.779 7.868 75.655-5.449 26.164-13.466 30.208-45.213 60.369-53.861q.795-.228 1.595-.435.816-.211 1.638-.4c26.998-6.235 58.26 15.254 81.376 4.562 3.332-1.541 6.912-3.463 8.272-7.051z"/>
  <path fill="#050505" d="M975.169 35.723c21.225-2.656 49.791 1.967 70.521 7.24 8.21 2.087 16.49 5.823 24.98 6.457 11.88.889 37.77-5.012 46.97-2.324 1.14 5.968 5.63 35.8 3.96 39.532 9.22 1.28 35.43 5.895 42.02 11.19 3.95-2.447 22.6-28.279 24.83-33.23 5.74 2.184 39.77 23.414 43.85 27.959-.55 2.605-18.65 30.705-21.36 33.092 1.43.682 2.69 1.616 3.86 2.664 5.11 4.54 23.18 24.056 23.56 29.978q17.92-5.024 35.63-10.752c.56.419 1.03.78 1.46 1.345 3.22 4.264 19.01 42.001 18.27 46.427-1.65 2.548-30.34 13.738-35.21 15.68.34.348.5.466.73.966 2.26 4.96 5.02 25.858 2.96 30.692 9.78 1.398 28.18 4.531 36.72 8.598.29.727.54 1.29.58 2.084.46 7.421-2.81 39.799-7.19 44.993-12.79-.626-25.63-1.184-38.39-2.249.04.333.13.663.12.998-.18 6.334-15.71 32.823-20.98 37.402.3.24.88.668 1.18.972 3.09 3.122 19.75 27.705 19.96 31.127-1.26 3.634-23.18 23.968-27.5 26.128-1.75-3.344-8.21-6.979-11.56-8.718.12.752.11 1.325-.13 2.057-1.42 4.388-4.33 8.729-6.64 12.733-15.3 26.503-36 48.127-60.53 66.248-5.4 3.992-11.16 8.612-17.23 11.518-3.57 3.979-10.97 7.128-15.64 9.66-27.51 14.906-54.99 25.999-85.57 32.715-7.87 1.728-22.03 1.762-28.5 4.442.09 2.856.19 5.811-.49 8.609-.624 2.538-2.074 4.862-4.352 6.214-2.393 1.422-6.095 1.932-8.778 1.178-2.543-.714-4.546-2.665-5.705-4.992-1.42-2.85-1.752-6.267-.709-9.284.044-.128.454-1.166.463-1.355.091-1.861-3.977-1.472-5.418-1.525q-10.215-.329-20.36-1.561-10.146-1.232-20.143-3.356c-40.883-8.7-81.708-31-112.372-59.326-50.311-46.476-78.169-107.443-80.894-175.799-2.408-60.409 21.134-124.99 62.236-169.294 44.701-48.183 105.317-74.691 170.791-77.133z"/>
  <path fill="#fff" d="M988.128 523.824c1.618-.01 3.543-.024 4.963.881 1.326.845 2.087 1.948 2.196 3.528.134 1.945-1.393 3.531-2.541 4.916-1.644.255-2.53.161-4.14-.266-.841-.787-1.552-1.218-1.913-2.347-.806-2.515.234-4.541 1.435-6.712zm210.032-152.16c.8-.009 1.55-.042 2.31.246 2.68 1.016 7.6 5.392 9.01 7.862.38 3.444-2.59 7.916-4.62 10.564l-.12.331-.75-.049c-3.86-4.811-6.37-10.566-10.01-15.565 1.74-.976 2.93-1.828 4.18-3.389z"/>
  <path fill="#1CBB83" d="M1102.35 53.667l8.77-.542c5.32 7.275 1.23 30.395 5.71 38.022 1.27 2.176 6.94 2.6 9.3 3.005 5.99 1.03 12.06 1.714 17.9 3.457 6.53 1.95 12.89 4.859 19.45 6.601 1.68.448 2.25.625 3.77-.387 5.38-3.595 21.1-25.046 22.47-31.193 4.15 1.895 31.2 18.709 33.31 21.238.41 5.694-13.45 20.873-16.38 26.737-1.29 2.577-1.83 5.176-.56 7.868 1.85 3.908 7.14 7.474 10.22 10.529 5.37 5.336 17.35 19.22 19.36 25.96.07.238.13.48.19.719 9.77-1.124 25.54-7.309 34.97-10.865 2.06 1.93 15.27 33.63 15.55 37.003-2.87 3.041-29.24 12.783-34.95 15.136.53.869.87 1.654 1.2 2.619 2.24 6.571 6.37 32.37 3.6 38.155 11.62 2.932 23.59 4.976 35.35 7.327.38.631.63 1.235.77 1.961.95 5.25-2.4 30.195-5.41 34.341-12.57-.111-25.16-1.527-37.7-2.335.05.346.16.924.15 1.307-.41 9.378-17.97 38.102-24.89 44.56 3.58 2.38 20.46 27.203 21.28 30.866-.63 2.328-16.32 16.986-18.85 18.501-2.42-3.591-24.21-20.044-28.46-21.981-1.69 3.551-9.13 8.534-12.53 10.593 2.81 3.663 13.59 21.148 13.7 24.966-.06.132-.09.272-.16.396-1.53 2.666-16.74 12.047-19.93 13.07-.04-.289-.07-.778-.15-1.085-1.24-4.472-13.37-23.279-17.14-25.352-5.81 4.013-19.39 7.878-26.48 9.813-2.7.74-5.62.943-8.26 1.875-7.34 2.595-2.22 17.614-5.7 23.593-.17.291-.37.565-.55.848.34.567.39.606.64 1.333.55 1.621.75 3.103 0 4.652-9.24 1.375-19.82.34-29.21.315.27-.592.61-1.171.77-1.806.98-3.874-.8-24.681-2.83-27.895-3.7-2.087-10.81-2.317-15.11-3.171-9.1-1.807-17.87-4.84-26.94-6.685-.37 2.401-12.9 24.829-15.19 26.844-2.38-3.01-17.45-10.33-21.71-12.747 3.96-9.277 8.54-19.165 11.11-28.918-10.12-7.625-19.88-14.09-29.135-22.872-9.127 3.714-17.888 9.283-26.494 14.087-5.693-7.636-11.066-15.548-16.719-23.224 7.893-6.857 15.682-13.801 22.941-21.332-1.944-4.088-10.642-25.957-12.691-27.626-3.932-3.203-26.659-.168-33.102.209q-2.667-15.684-5.083-31.408c10.316-3.127 21.518-5.818 31.201-10.526.777-13.776 1.472-26.873 4.963-40.316-9.725-5.464-20.319-9.991-30.454-14.665 5.109-11.165 8.117-23.194 13.543-34.188 10.3 2.981 21.229 4.617 31.748 6.731 8.494-14.342 18.466-25.63 29.212-38.188-5.992-11.179-13.993-21.985-21.092-32.53q15.916-10.406 31.352-21.51c4.36 6.055 22.37 26.762 23.58 31.742 9.05-2.879 17.75-6.865 26.9-9.719 2.09-.653 11.1-3.119 11.68-4.888.83-2.584-1.84-34.678-3.3-37.201 10.17-.312 20.38-.759 30.5-1.824z"/>
  <path fill="#050505" d="M1102.21 116.333q.61-.03 1.22-.03 1.57-.018 3.14.003 1.57.021 3.14.082 1.57.06 3.14.16t3.13.239q1.57.139 3.13.317 1.56.179 3.12.396 1.55.217 3.1.474 1.55.256 3.09.551 1.55.295 3.08.629 1.54.334 3.06.706 1.53.372 3.05.782 1.51.41 3.02.858t3 .934q1.49.486 2.98 1.009 1.48.523 2.94 1.083 1.47.56 2.93 1.156 1.45.597 2.89 1.23 1.44.633 2.86 1.301 1.42.669 2.82 1.373 1.41.704 2.79 1.443 1.39.739 2.76 1.513 1.37.774 2.71 1.581 1.35.808 2.68 1.649 1.32.841 2.63 1.716 1.31.874 2.59 1.78 1.28.907 2.54 1.846 1.26.938 2.5 1.908 1.23.97 2.45 1.97 1.21 1.001 2.39 2.031 1.19 1.031 2.35 2.091 1.16 1.06 2.29 2.149 1.13 1.088 2.24 2.205c22.94 22.776 35.61 55.819 35.71 87.92.1 32.97-14.36 66.824-37.64 90.187-23.88 23.974-54.48 37.861-88.48 37.915-30.45-1.029-59.58-11.154-82.7-31.327q-1.15-1.002-2.28-2.033t-2.23-2.089q-1.1-1.059-2.18-2.144-1.07-1.086-2.12-2.198-1.05-1.112-2.07-2.25-1.02-1.137-2.01-2.3-.99-1.163-1.95-2.35t-1.9-2.398q-.93-1.211-1.83-2.444-.9-1.234-1.77-2.489-.872-1.256-1.711-2.533-.839-1.277-1.646-2.574-.807-1.297-1.582-2.614-.774-1.317-1.516-2.653-.741-1.336-1.449-2.69-.708-1.354-1.383-2.725-.674-1.372-1.313-2.759-.64-1.388-1.245-2.791-.605-1.403-1.175-2.821-.57-1.417-1.105-2.849-.534-1.431-1.033-2.875-.499-1.445-.962-2.901-.462-1.456-.888-2.924-.427-1.467-.816-2.944-.39-1.478-.743-2.965-.352-1.486-.668-2.981-.316-1.496-.594-2.998-.278-1.502-.519-3.011-.241-1.509-.444-3.024-.203-1.514-.369-3.033-.165-1.519-.293-3.042-.127-1.523-.217-3.048-.097-1.613-.155-3.227-.058-1.615-.076-3.231-.018-1.615.003-3.231.021-1.615.082-3.23.06-1.614.16-3.227.101-1.612.24-3.222.139-1.61.318-3.215.178-1.606.396-3.207.218-1.601.474-3.196.257-1.595.553-3.184.295-1.588.63-3.169.334-1.58.706-3.152.373-1.573.784-3.135.411-1.562.86-3.114.449-1.552.936-3.093.487-1.541 1.011-3.069.524-1.528 1.085-3.043.562-1.515 1.16-3.016.598-1.5 1.233-2.986.634-1.486 1.305-2.956.671-1.47 1.377-2.923t1.448-2.888q.742-1.435 1.518-2.852.777-1.417 1.587-2.814.811-1.397 1.656-2.775.844-1.377 1.723-2.733.877-1.356 1.787-2.69.91-1.335 1.86-2.646.94-1.312 1.91-2.6.98-1.288 1.98-2.552 1.01-1.264 2.05-2.504 1.03-1.239 2.1-2.452c24.69-27.918 54.16-38.792 90.66-41.048z"/>
  <path fill="#BAE0C8" d="M1090.88 176.072c.14.052.29.109.44.156 5.19 1.661 11.16-2.107 15.43 2.017.37 1.757.59 2.18-.06 3.907-3.56 2.593-9.49 3.046-13.81 3.863.11-2.104-1.85-4.222-2.17-6.528l-.06-.442-1.36-.805 1.26-.595.33-1.573z"/>
  <path fill="#1CBB83" d="M988.714 213.061c3.913 2.699 7.787 4.938 12.366 6.284-2.885 4.283-5.58 8.434-7.8 13.115-.407.857-.98 1.69-1.463 2.51-2.2 1.299-4.684.988-7.163.97q1.201-11.587 4.06-22.879z"/>
  <path fill="#BAE0C8" d="M1072.91 157.876c2.26-2.221 3.82-5.004 5.98-7.341.42-.455.29-.232.47-.728 2.64 1.108 5.42 2.08 7.62 3.963.33 3.376-2.38 6.928-3.17 10.183l-.12.998c2.18 3.008 6.63 7.964 7.25 11.608l-1.66.868c-4.33-1.975-3.86-8.925-8.56-10.146l-.94.718c-4.33-4.631-10.94-5.467-16.84-6.578-.31-2.141-1.12-3.475-2.31-5.253 4.2.123 8.17.892 12.28 1.708z"/>
  <defs>
    <linearGradient id="WXSgh6DrE2raa" gradientUnits="userSpaceOnUse" x1="1177.7" y1="289.087" x2="1216.429" y2="288.924">
      <stop offset="0" stop-color="#BAE0C8"/>
      <stop offset="1" stop-color="#1CBB83"/>
    </linearGradient>
  </defs>
  <path fill="url(#WXSgh6DrE2raa)" d="M1200.76 262.331c.51-.029.7-.069 1.18 0 4.43.629 13.15 8.21 15.67 11.897.76 6.796-13.97 31.82-18.37 38.014-2.07 2.911-8.01 11.303-11.35 11.85-.57-1.467-.38-1.573.12-3.091 1.48-.592 3.73-1.441 4.64-2.752 1.86-2.676.38-13.8-.47-16.99-3.67-4.48-11.86-3.59-15.64-8.901-.18-1.972 0-2.132.94-3.778 3.42-1.846 13.03.03 17.17.431 2.35-2.287 3.32-5.81 5.7-8.215.81-.82 1.31-1.421 1.85-2.439-.36-4.152-3.39-7.606-3.63-11.717-.13-2.325.68-2.781 2.19-4.309z"/>
  <defs>
    <linearGradient id="WXSgh6DrE2rab" gradientUnits="userSpaceOnUse" x1="1072.22" y1="159.653" x2="1044.406" y2="221.647">
      <stop offset="0" stop-color="#fff"/>
      <stop offset="1" stop-color="#BAE0C8"/>
    </linearGradient>
  </defs>
  <path fill="url(#WXSgh6DrE2rab)" d="M1045.23 159.342c-.74-2.27-1.94-5.042-2.05-7.421-.1-1.928.38-3.578 1.66-4.998 1.9-.075 3.03.456 4.42 1.837 1.97 1.955 3.39 6.197 3.53 8.922 2.63-.194 5.26-.944 7.84-1.514 1.19 1.778 2 3.112 2.31 5.253-9.24 1.721-14.82 3.344-20.38 11.373-3.56 5.141-5.32 11.147-4.15 17.367q.11.583.26 1.159.14.577.31 1.146.17.568.37 1.128.2.56.42 1.109.23.549.48 1.086.26.537.54 1.061.27.525.58 1.034.3.51.63 1.004t.69.971q.35.477.73.936.37.459.77.899t.82.86q.42.42.86.818.44.399.9.775t.94.729q.48.353.97.682c5.85 3.956 12.76 4.995 19.63 3.618 6.2-1.243 11.78-4.511 15.28-9.853 3.6-5.481 4.99-12.924 3.6-19.328-1.03-4.712-3.55-9.075-7.41-11.996l.94-.718c4.7 1.221 4.23 8.171 8.56 10.146l1.66-.868c-.62-3.644-5.07-8.6-7.25-11.608l.12-.998c3.28 2.369 5.58 6.414 7.16 10.079l-.09 2.04-.33 1.573-1.26.595 1.36.805.06.442c.32 2.306 2.28 4.424 2.17 6.528.16.464.24.625.25 1.177.08 5-2.55 12.764-5.89 16.453 2.43 2.73 5.92 6.478 7.26 9.836-1.25 2.634-5.08 4.422-7.6 5.688-.05-.187-.07-.386-.15-.562-1.34-2.881-5.03-6.372-7.82-7.846-3.06 3.419-9.66 4.528-13.92 5.297.9 3.689.63 9.925-.87 13.428l-9.44-.216c1.28-2.132 2.2-6.739 1.7-9.197-.96-4.799-12.06-10.594-16.25-13.378-3.72 2.03-7.4 4.126-11.34 5.716-.01-.25 0-.5-.02-.749-.15-2.491-2.39-4.455-4.14-5.962 3.38-1.097 8.46-2.787 10.52-5.815.67-2.949-1.67-13.285-3.12-15.962-2.15-3.222-9.45-5.618-12.97-7.837 1.17-1.992 2.43-3.937 3.66-5.895 3.52 1.215 7.22 2.016 10.83 2.931 4.55-2.635 8.03-9.74 11.66-13.78z"/>
  <path fill="#050505" d="M1062.94 161.421c5.9 1.111 12.51 1.947 16.84 6.578 3.86 2.921 6.38 7.284 7.41 11.996 1.39 6.404 0 13.847-3.6 19.328-3.5 5.342-9.08 8.61-15.28 9.853-6.87 1.377-13.78.338-19.63-3.618q-.49-.329-.97-.682-.48-.353-.94-.729-.46-.376-.9-.775-.44-.398-.86-.818-.42-.42-.82-.86-.4-.44-.77-.899-.38-.459-.73-.936-.36-.477-.69-.971-.33-.494-.63-1.004-.31-.509-.58-1.034-.28-.524-.54-1.061-.25-.537-.48-1.086-.22-.549-.42-1.109-.2-.56-.37-1.128-.17-.569-.31-1.146-.15-.576-.26-1.159c-1.17-6.22.59-12.226 4.15-17.367 5.56-8.029 11.14-9.652 20.38-11.373z"/>
  <path fill="#fff" d="M1062.65 167.663c4.29-.245 9.77 1.769 13.05 4.595q.64.552 1.22 1.164.58.613 1.1 1.279.52.667.97 1.382.45.715.83 1.471.38.756.68 1.546.3.79.52 1.605.22.816.36 1.649.14.834.2 1.677c.33 5.112-1.59 10.281-4.99 14.071-4.12 4.582-9.14 5.808-15.02 5.995-3.14.052-6.38-1.35-9.02-2.985-4.05-2.508-6.76-6.332-7.73-11.013q-.18-.882-.27-1.778-.09-.895-.09-1.795 0-.9.09-1.796t.27-1.778q.18-.882.44-1.742.27-.86.62-1.689.35-.829.78-1.619.43-.789.94-1.532c3.8-5.647 8.61-7.463 15.05-8.707z"/>
  <path fill="#1CBB83" d="M1047.76 234.985c2.87-.285 6.11.124 9 .251 3.07 2.718 5.69 10.031 6.32 13.974 7.98 1.288 15.86 2.478 23.7 4.483 6.21-3.009 8.08-11.108 13.68-14.439 1.35-.803 3.02-1.285 4.54-.659 1.78.729 2.53 1.739 3.38 3.361-.52 4.945-1.54 15.585-4.27 19.568 5.08 2.65 15.17 10.971 17.59 16.281 9.13-.642 18.22-6.225 27.02-6.231 1.69-.001 2.03.641 3.09 1.855.34 1.823.35 1.832-.52 3.465-7.04 3.351-13.99 8.209-18.85 14.359l-.32.419c2.04 4.751 6.21 19.426 5.14 24.266 8.22 2.074 16.46 2.337 24.85 3.158.31.536.57.989.7 1.6.71 3.232.61 8.632-1.03 11.494-8.99-.885-18.04-1.541-27.07-.971.06.602.11.712-.04 1.395-1.73 8.362-13.24 25.565-20.95 30.031-9.6.866-18.65.471-28.25-.305 2.32-.65 4.67-1.387 6.89-2.337 4.43-1.905 14.59-6.968 16.44-11.672 1.18-.607 2.02-1.385 2.94-2.333 7.04-7.23 10.25-17.257 10.11-27.222-.18-13.612-5.53-25.563-15.31-35.017-12.85-12.426-31.26-18.713-49-18.232-14.44.391-28.83 6.217-38.77 16.851-9.26 9.906-11.19 19.861-10.81 32.917-7.24-11.996-13.174-21.247-17.579-34.729l9.919-3.024c3.89-4.526 7.56-9.233 11.27-13.902-1.36-5.537-4.93-14.947-3.46-20.53l1.15-.533c5.2 1.667 11.14 9.924 14.49 14.243 6.34-2.039 13-3.253 19.24-5.517.27-.269.58-.557.8-.874 1.93-2.787 4.47-12.153 3.97-15.444z"/>
  <path fill="#fff" d="M1054.05 271.663c15.32-.652 30.68 2.723 43.09 12.085 9.97 7.518 17.11 18.385 18.79 30.883 1.22 9.127-1.64 18.772-7.34 25.965-8.1 10.242-21.51 16.687-34.35 18.296-10.14-.353-33.08-13.295-41.74-19.512-8.98-6.445-16.95-13.201-18.72-24.671-1.39-8.949 1.25-17.629 6.6-24.828 8.29-11.161 20.21-16.312 33.67-18.218z"/>
  <path fill="#fff" d="M1098.34 122.999q1.44-.075 2.88-.115 1.44-.039 2.88-.044 1.44-.005 2.88.025 1.44.031 2.87.096 1.44.065 2.88.165t2.87.235q1.43.135 2.86.305 1.43.17 2.86.374 1.42.205 2.84.444 1.42.239 2.84.512 1.41.274 2.82.582 1.4.308 2.8.65 1.4.341 2.79.717 1.39.376 2.77.785 1.38.41 2.75.853t2.73.919q1.36.476 2.71.985 1.35.509 2.68 1.05 1.34.542 2.66 1.116 1.32.573 2.62 1.179 1.31.606 2.6 1.243 1.29.638 2.57 1.306 1.27.669 2.53 1.368 1.26.699 2.5 1.429 1.24.73 2.47 1.489 1.22.76 2.43 1.549 1.2.789 2.39 1.607 1.18.819 2.35 1.665 1.16.847 2.3 1.722 1.15.875 2.27 1.777 1.12.902 2.22 1.832 1.1.929 2.18 1.885c24.96 22.15 38.05 51.477 39.92 84.571.44 7.939 1.06 24.04-4.28 30.018-3.86-5.392-12.21-10.258-18.52-12.073-2.6 3.275-6.11 5.247-9.79 7.103.29.315.53.543.76.891 1.72 2.594 4.34 10.545 3.79 13.387-.05.24-.09.483-.16.72-.6 2.4-2.72 4.203-4.71 5.478q-8.62-.499-17.25-.78c.94 4.334-2.81 8.792-1.88 13.007.91 4.122 11.25 7.497 14.74 9.916.12.087.25.177.37.266.87 2.612 1.97 5.832 1.08 8.53-.89 2.566-4.11 5.23-6.21 6.85.12.119.25.225.36.356 1.28 1.582 2.84 6.663 2.75 8.704-11.26 15.078-42.67 28.518-61.03 31.85 1.62-1.096 3.17-2.224 4.5-3.671 4.09-4.477 11.08-14.259 10.78-20.618 8.98.166 19.25.209 27.95 2.617.88-1.593 1.5-3.031 1.8-4.823.79-4.664 3.58-16.172.42-20.123-3.4-4.25-14.36-2.162-19.42-2.726-9.87-1.101-6.32-13.204-11.08-19.341.74-.413.55-.268 1.09-.672 5.53-4.11 17.84-8.815 20.92-14.236.04-.546.09-.687-.06-1.296-.93-3.775-5.11-11.301-8.35-13.635-8.38 3.131-19.18 7.157-28 8.121-2.41-3.962-8.87-10.151-12.87-12.6 2.38-3.205 5.27-15.445 6.69-19.825-2.66-3.437-12.89-6.633-17.22-7.188-.4-.051-1.73-.139-2.09.029-2.68 1.27-7.9 12.114-12.53 15.347-.17.12-.35.235-.52.352-4.7-2.101-12.51-2.499-17.64-2.884.33-2.095-.86-4.716-1.48-6.73.64-1.692 1.77-1.066 2.9-2.583.39-.451.59-.633.86-1.132 1.68-3.161 1.01-9.591-.17-12.799 2.75-.731 5.87-2.126 7.99-4.021 3.1 1.66 7.14 6.379 8.48 9.601 3.85-1.463 10.33-5.748 12.83-9.026 1.26-1.646 2.09-3.511 1.76-5.615-.45-2.92-4.69-6.487-6.99-8.092.45-.444.58-.532.96-1.145 1.58-2.546 4.12-8.872 3.25-11.671 4.44-.651 9.35-1.416 13.57-2.945.4-.722.77-1.371.91-2.201.55-3.282.54-10.654-1.79-13.142-2.72-2.901-11.23-1.792-15.11-1.744-1.14-3.013-2.9-6.413-5.08-8.788 1.51-3.469 3.05-6.962 2.22-10.805-.04-.131-.06-.27-.12-.393-1.53-3.056-11.49-7.818-14.82-9.024-.71 3.135-5.21 8.013-7.87 9.719-4.26-1.418-9.02-.759-13.38-.315-.18-2.135-1.09-3.886-2.19-5.681-1.5-2.439-3.45-3.64-6.24-4.189-2.88-.566-6.57.033-8.97 1.789-4.82 3.528-.12 8.595-1.04 13.288-.07.321-.15.638-.22.957-.5 3.066-4.3 7.431-6.82 9.279-2.75-1.585-7.76-3.171-10.83-2.461-4.08 2.658-5.03 9.209-6.84 13.61 4.22 3.795 8.43 5.344 13.12 8.172l.62.38c.83 3.699 2.42 8.242 1.57 11.971-2.24 2.511-6.2 2.724-8.06 5.739-.86 5.228 4.59 9.229 6.68 13.635.13.269.25.54.38.811 3.77-1.01 8.5-3.153 11.35-5.859 4.26 1.661 8.33 4.672 11.76 7.663.74 1.858.94 3.584.71 5.569-1.19 1.036-1.9.927-3.39 1.134-1.05.146-2.82.367-3.64 1.066-2.37 2.029-3.15 14.1-6.09 17.99-4.23 1.88-9.29 2.676-13.84 3.418-.95-3.873-5.87-5.852-6.93-9.71.82-.366 1.65-.726 2.44-1.162 1.43-.803 2.06-1.041 2.49-2.626-.33-.607-.65-1.247-1.15-1.737-1.25-1.218-3.37-1.977-5.1-1.869-3.95.247-10.73 2.97-13.08 6.132-3.613 4.869.58 17.564 1.54 23.374q-3.75 4.879-7.281 9.914l-8.991 2.648c-1.554-7.281-3.171-14.708-3.809-22.133-1.455-16.924 6.477-6.85 11.581-13.589 2.561-3.383 11.84-18.763 11.44-22.211-2.77-4.146-12.371-6.907-16.911-8.847q.909-3.036 1.974-6.022 1.066-2.985 2.284-5.911 1.219-2.926 2.588-5.784 1.369-2.859 2.885-5.642 1.52-2.784 3.17-5.485 1.66-2.701 3.46-5.313 1.79-2.611 3.72-5.125 1.93-2.515 3.99-4.926c14.91-17.366 35.81-31.926 58.3-37.373 8.22-1.992 16.93-2.736 25.34-3.36z"/>
  <path fill="#050505" d="M1158.89 172.997c3.82-.831 9.69.719 13.17 2.434 2.69 1.326 5.43 3.772 6.19 6.787.7 2.818-.89 6.913-2.37 9.224 3.09 1.859 8.04 6.314 9.9 9.365 2.93-.196 5.78-.87 8.69-1.199 1.98-.226 2.99-.432 4.58.803 2.35 4.741 4.55 12.733 3.49 17.962-3.19 3.104-9.06 3.315-13.33 3.983.13.614.23 1.057.16 1.69-.46 3.938-2.62 9.659-5.63 12.33 2.25 1.509 5.24 4.743 6.12 7.312.63 1.831.26 3.995-.71 5.641-2.8 4.743-10.74 8.804-15.87 10.212-3.64-.655-5.66-7.04-8.36-9.585-.13-.122-.26-.237-.39-.355-3.81 1.543-9.04 1.161-13.12 1.221.22.586.25.591.34 1.321.36 3.069-.55 6.629-2.5 8.985l-2.73.186c-2.85-2.437-.42-7.465-1.63-10.862-2.41-2.637-6.03-4.186-9.39-5.217-1.45 1.66-3.93 3.669-5.8 4.825-1.15.717-2.49.99-3.79.571-2.19-.707-3.7-2.53-4.76-4.487-.79-1.465-1.6-2.67-2.65-3.966l-.39-.48q.99-.733 1.93-1.524c1.79-1.531 2.88-2.837 3.09-5.214.13-.443.21-.634.26-1.07.31-3.093-1.83-7.909-3.88-10.194-3.49-3.008-9.45-4.881-13.68-6.813 1.37-3.256 3.24-10.412 2.43-13.817q7.7.512 15.42.715c.18-.138.38-.267.56-.412 2.21-1.773 4.62-4.407 4.86-7.323.36-2.932-2.83-5.137-2.6-8.143.18-2.317 2.08-4.345 3.83-5.686 2.43-1.863 4.7-2.892 7.77-2.436 2.39 1.405 5.57 3.692 6.87 6.19 2.88-.317 5.43-.78 8.19-1.654 2.85-2.393 4.44-7.907 5.73-11.32z"/>
  <path fill="#BAE0C8" d="M1161.77 178.998c3.12.106 7.22 1.001 9.95 2.505.66 2.795-.37 9.459-1.4 12.132 3.8 2.102 11.79 10.295 13.34 14.192 3.84-.632 7.68-1.972 11.43-3.033.33.308.5.421.73.877 1.21 2.404 1.25 6.569.46 9.069-3.97 1.964-9 3.244-13.27 4.443 2.96 5.611-4.31 11.835-4.3 17.156.01 4.548 4.46 5.989 5.2 9.696.05.257.08.519.12.778-2.79 2.585-6.59 4.723-9.92 6.579-.01-.215 0-.434-.03-.646-.48-2.665-4.5-8.205-6.63-9.827-7.73 2.213-14.25 3.998-22.18 1.546-1.21-1.546-4.11-3.911-5.88-4.73-5.26-2.432-11.85 4.516-16.79 6.078l-.69.211c3.62-2.677 6.98-6.505 7.6-11.094.59-4.388-1.83-11.26-4.53-14.752-2.41-3.372-8.63-3.359-11.69-6.443-.62-1.676-.9-1.856-.28-3.602 3.29-2.212 9.08-.484 12.78.153.94-.558 1.86-1.185 2.63-1.974 2.54-2.621 6.36-7.715 6.25-11.505.66-3.21-2.69-6.466-1.86-11.186.78-.392 1.56-1.075 2.41-.759 3.23 1.186 6.77 4.231 8.13 7.37 4.86-.253 9.35-1.969 14.32-1.848 2.13-3.198 3.25-7.654 4.1-11.386z"/>
  <path fill="#050505" d="M1152.01 194.332l.79-.087c6.36-.66 12.71 1.01 17.68 5.113q.44.363.86.748.43.385.83.791.4.405.78.83.38.425.75.868.36.444.69.904.34.461.66.938.31.477.6.969t.56.998q.26.506.5 1.025.24.518.46 1.048.21.53.4 1.07.19.539.35 1.088.16.548.29 1.104.14.556.24 1.117.11.562.18 1.128.08.567.13 1.136c.56 6.155-1.27 12.634-5.27 17.38-4.49 5.319-10.21 7.175-16.95 7.673-3.76.696-8.12-.367-11.54-1.992-5.58-2.649-10.01-7.95-11.99-13.763q-.18-.517-.33-1.042-.15-.525-.28-1.057-.12-.533-.22-1.071-.1-.537-.17-1.08-.07-.542-.11-1.087-.04-.545-.05-1.091-.02-.547-.01-1.093.02-.547.06-1.092.04-.545.11-1.087.07-.543.17-1.081.09-.538.22-1.07.12-.533.27-1.058.15-.525.33-1.042.18-.517.38-1.025.21-.507.44-1.003.23-.496.48-.98c3.83-7.418 10.07-10.671 17.71-13.127z"/>
  <path fill="#fff" d="M1152.54 200.332c4.62-.174 8.77.277 12.75 2.924q.36.241.71.5t.69.536q.34.277.66.57.32.294.63.604.31.309.6.634t.56.665q.28.339.53.692.26.353.49.719.24.365.46.743.22.377.42.765.2.388.38.785.17.398.33.804.16.407.3.82.14.414.25.834.12.421.21.846.1.426.17.856c.79 4.545-.26 9.404-3.06 13.097-3.39 4.475-7.76 5.981-13.07 6.592-3 .508-7.05-.555-9.64-1.997-4.17-2.324-7.03-6.744-8.16-11.323q-.2-.807-.32-1.63-.12-.823-.15-1.654-.04-.83.01-1.66.05-.831.18-1.652t.34-1.624q.22-.804.51-1.583.29-.778.66-1.523.37-.745.81-1.45c2.73-4.38 6.86-6.741 11.75-7.89zM964.359 42.376c.196-.024.39-.051.586-.071 28.309-2.902 57.655 1.271 85.055 8.268 4.59 1.172 11.87 2.437 15.5 5.313.06.1.11.201.17.3.15.259.31.51.46.773 1.42 2.614 2.45 29.465 1.36 32.873-3.5 1.34-7.47 2.16-11.08 3.332-5.82 1.889-11.52 4.105-17.29 6.117-.27-1.052-.06-.745-.71-1.49-8.53-9.688-16.01-20.332-23.73-30.67-5.2 3.495-38.412 24.32-39.762 26.148-.443.6-.755 2.27-1.011 3.04-5.119.687-10.731-.066-15.888-.36-33.68-1.924-69.989 6.416-95.646 29.564-20.446 18.447-49.728 56.679-51.875 84.912-.689 9.063 4.245 17.051 3.702 25.743-.912 14.59-21.54 28.29-31.801 37.226-1.468 1.279-3.589 3.042-3.669 5.07-.371 9.434 18.459 14.432 23.815 21.05 4.93 6.091-2.887 8.887-3.22 14.296-.282 4.574 4.782 7.683 7.553 10.671.086 2.763-1.682 4.391-2.736 6.788-3.216 7.31 7.807 12.516 8.497 19.538 1.083 11.023-8.55 17.842-3.892 29.79 2.166 5.557 6.475 9.542 11.921 11.81 20.597 8.579 60.218-4.964 80.066-12.968 11.898 22.188 17.459 51.064 13.038 76.017-.959 5.412-4.679 13.067-3.642 18.358 1.245 1.327 1.525 1.921 3.336 2.332 1.83-1.194 2.418-2.647 3.122-4.678 1.573-4.536 2.285-9.511 3.067-14.24 4.586-27.727-.789-55.405-12.784-80.546 11.517-5.459 26.094-14.805 33.727-25.256 1.285-1.76 1.985-3.009 1.644-5.198-1.226-1.392-1.361-1.473-3.156-1.94-2.144.721-3.539 3.146-5.014 4.805-18.83 21.188-47.935 30.855-74.834 36.679-5.943 1.287-12.468 3.144-18.519 3.447-7.278.363-18.047-1.143-23.473-6.487-9.258-9.118 2.614-22.501 1.877-32.88-.499-7.023-8.478-11.21-8.761-18.135.593-1.736 1.059-2.792 2.342-4.116q.559.098 1.121.18c9.756 1.436 30.196 1.322 38.545-4.865.877-1.588 1.008-1.572.646-3.325-4.611-1.94-19.636 2.425-25.294 2.793-6.123.397-14.577.341-19.291-4.302-4.082-4.021 2.67-10.175 2.582-14.909-.175-9.525-20.031-18.354-26.194-23.976q6.986-4.744 13.377-10.264c10.912-9.456 25.461-24.353 21.926-40.232-1.496-6.717-3.965-12.75-3.41-19.778 1.807-22.886 33.205-64.546 50.23-79.133 21.26-18.215 49.201-27.479 77.036-28.01 11.581-.221 23.003 1.013 34.526 1.903l16.127 25.289c-10.191 9.151-16.419 21.835-25.368 31.974-10.247-2.706-20.826-4.068-31.125-6.615-7.073 14.107-11.23 29.451-17.58 43.851 9.62 5.789 20.237 10.284 30.364 15.131-1.413 11.003-2.655 21.962-3.36 33.037-10.67 2.181-21.801 6.433-32.161 9.9 1.701 14.187 5.312 28.258 6.467 42.499 11.589-.18 23.334-2.256 34.911-1.087 2.645 7.108 5.512 14.048 8.601 20.974-5.686 5.447-16.775 14.387-20.813 20.251-.62.902-.723.753-.472 1.911 1.196 5.512 16.33 27.723 21.432 30.783 7.549-2.162 19.46-10.155 27.242-13.798 6.879 6.656 14.281 12.783 22.461 17.773-3.51 9.624-7.28 19.402-11.77 28.61 5.22 3.6 24.28 15.398 29.49 15.707 1.03.062 1.81-.033 2.67.63 2.5 1.932 3.5 16.495 4.15 20.233.49 2.837.8 6.623 3.33 8.396l1.6-.334c.76-.8 1.44-1.27 1.72-2.374.81-3.3-3.89-28.571-5.98-31.747 3.85-3.251 9.61-15.153 11.14-20.103 5.55 1.461 10.93 3.263 16.56 4.57 5.47 1.269 11.24 1.934 16.56 3.725.12.213.25.422.36.64 1.93 3.752 3.41 25.457 2.04 29.777l.54.028c5.74.286 37.49 1.808 40.43-.86 1.21-5.355 2.65-25.25.73-29.858 10.43-1.811 21.91-5.23 31.37-9.939 4.36 3.318 15.96 22.271 17.1 27.468 4.5-1.264 11.62-5.613 14.12-9.557-.18 3.558-2.96 6.309-5.15 8.936-44.04 52.901-114.63 89.876-183.02 95.977-63.683 5.682-123.115-17.6-171.5-58.205-48.092-40.36-77.507-101.459-82.92-163.608-5.326-61.144 16.227-124.529 55.497-171.264 39.759-47.316 99.025-74.769 160.062-80.028z"/>
  <path fill="#050505" d="M833.606 205.313c2.031-.182 4.175-.24 6.21-.049 12.794 1.197 29.156 9.555 37.193 19.627 1.692 2.119 2.232 3.378 1.923 6.107-6.412-.941-13.306-8.503-19.013-11.814-9.401-5.455-16.778-5.467-25.458-9.143-1.002-1.728-.818-2.756-.855-4.728zm9.024 25.438c1.658-.277 3.269-.383 4.943-.145 3.385.483 6.67 2.519 8.572 5.361 1.925 2.876 2.419 6.384 1.608 9.722-1.147 4.722-4.297 6.855-8.226 9.13-2.169.447-4.205.349-6.36-.146-2.932-.674-5.56-2.473-7.114-5.063-1.82-3.032-2.138-6.692-1.231-10.078 1.188-4.435 4.049-6.625 7.808-8.781z"/>
  <path fill="#fff" d="M843.658 237.224c.603-.027 1.205-.05 1.81-.038 1.984.038 3.521.63 4.84 2.177.962 1.13 1.413 2.523 1.251 3.999-.278 2.543-1.555 3.801-3.524 5.254-2.083-.268-3.986-.523-5.608-1.978-1.035-.928-1.728-2.175-1.744-3.586-.027-2.481 1.369-4.118 2.975-5.828z"/>
  <path fill="#050505" d="M514.32 222.846c-1.307-5.398-4.441-14.212-1.94-19.35 1.647-1.31 3.146-2.389 5.292-2.617 7.156-.761 15.713.495 22.942.852q24.927 1.173 49.838 2.643c17.506 1.032 35.521.776 52.892 2.618 1.617.172 3.127.272 4.466 1.298 4.462 7.852 10.462 41.469 13.186 52.813 1.359 5.654 3.303 11.138 4.464 16.849.55 2.71 1.536 6.601.928 9.363-.104.469-.233.708-.427 1.171-6.196 3.156-52.197-.868-63.054-1.253l17.254 89.339c13.575 1.307 64.037 1.099 71.92 5.491 3.07 3.975 20.958 73.371 20.022 79.167-.209 1.292-.694 1.972-1.555 2.919-6.652 2.065-57.788-2.31-69.575-2.704 6.64 29.909 12.466 60.138 19.752 89.882l52.342 2.657c6.504.351 13.523.006 19.935.783 1.301.157 3.405.534 4.291 1.598 1.664 1.999 2.459 5.795 3.114 8.269 1.998 7.55 16.176 67.303 15.72 70.419-.281 1.925-1.008 2.525-2.341 3.75-9.487 2.877-50.498-1.759-63.016-2.142 4.202 21.873 8.309 43.807 12.917 65.597 2.824 13.356 6.141 26.585 8.854 39.974 5.781 28.533 10.774 57.303 17.192 85.701 6.235.212 11.992 1.497 16.438 6.226 2.753 2.928 3.969 6.06 4.79 9.898l41.687.001q.127-26.534-.161-53.066c-.047-8.885-.707-18.431.319-27.253.282-2.422.655-4.836 2.407-6.674 6.72-7.047 23.613-3.089 32.88-4.31-.001-10.274-1.596-48.697 1.171-55.435 9.025-1.906 19.777-.972 28.986-.982l51.725.053q43.043-.32 86.086-.163c47.269.407 94.879 1.421 142.119-.207q.94-.53 1.88-1.037.95-.506 1.91-.99.96-.483 1.93-.942.98-.459 1.96-.895.98-.435 1.97-.846 1-.41 2-.796 1-.387 2.02-.748 1.01-.361 2.03-.697 1.02-.336 2.05-.647 1.03-.311 2.07-.597 1.03-.285 2.08-.545 1.04-.259 2.09-.493 1.05-.234 2.1-.442 1.06-.208 2.12-.39 1.05-.182 2.12-.337 1.06-.156 2.13-.285 1.07-.13 2.14-.232 1.07-.103 2.14-.18 1.07-.076 2.14-.126 1.08-.05 2.15-.074 1.08-.023 2.15-.02 1.08.003 2.15.032 1.08.03 2.15.086 1.07.056 2.14.139 1.08.082 2.15.191 1.06.109 2.13.245 1.07.135 2.13.297 1.06.161 2.12.349 1.06.188 2.11.402 1.06.214 2.1.454 1.05.239 2.09.505 1.05.266 2.08.557 1.03.292 2.06.61 1.02.318 2.04.661t2.03.711q1.01.368 2.01.762.99.393 1.98.811.99.417 1.97.86.98.442 1.95.908.96.467 1.92.957.95.49 1.9 1.004.94.514 1.87 1.051.93.537 1.84 1.097.92.56 1.82 1.143.9.582 1.79 1.187.89.605 1.76 1.232.87.626 1.73 1.274.85.648 1.69 1.317.84.67 1.67 1.359.82.69 1.63 1.4.8.71 1.59 1.44t1.56 1.479q.77.749 1.52 1.517.75.768 1.48 1.554t1.44 1.591q.71.804 1.4 1.626.69.821 1.36 1.66.68.838 1.33 1.693.65.855 1.27 1.726.63.871 1.24 1.757.6.886 1.19 1.787.58.901 1.14 1.816.57.915 1.11 1.844.53.929 1.05 1.871.54.968 1.06 1.949.52.981 1.01 1.975.49.993.96 1.999.47 1.005.91 2.022.44 1.016.86 2.044.42 1.027.81 2.064.39 1.037.76 2.084.37 1.047.71 2.102.34 1.055.66 2.119.31 1.063.6 2.134t.55 2.149q.26 1.077.5 2.161.23 1.084.44 2.173t.39 2.183q.18 1.094.34 2.193.15 1.098.28 2.2.13 1.101.23 2.206.1 1.104.17 2.211.08 1.107.12 2.215.05 1.108.07 2.217.01 1.109.01 2.218-.01 1.109-.05 2.217-.03 1.109-.1 2.216-.06 1.107-.15 2.213-.09 1.105-.21 2.208-.12 1.103-.26 2.202-.15 1.1-.32 2.195-.17 1.096-.37 2.187-.2 1.091-.43 2.177-.22 1.086-.47 2.166-.26 1.08-.54 2.153-.27 1.074-.58 2.14c-6.33 21.817-22.72 41.181-42.53 52.011-8.96 4.894-19.53 8.785-29.64 10.423 1.73 4.26 1.52 99.555-.01 103.056-.73 1.675-2.11 3.246-3.54 4.376l90.79.087 26.72.049c4.64-.025 9.68-.463 14.28-.061 2.07.182 2.59.459 4.06 1.899l.23 1.658c-1.54 1.979-2.98 2.439-5.48 2.758-8.3 1.061-17.56.046-25.95-.026l-49.12-.036-183.31-.006-619.084.065-293.538-.177c-34.825-.043-69.821.98-104.61.455-1.39-.021-3.064-.18-4.162-1.121-.779-.667-.678-1.161-.885-2.115.692-1.945.666-2.187 2.447-3.417 14.566-1.208 30.034-.174 44.684-.159l90.203.047c-.111-7.105.756-13.256 5.756-18.666 5.816-6.293 13.288-6.914 21.364-7.02 23.849-.316 47.719.449 71.565.115-3.656-20.457-8.507-40.649-12.523-61.032-22.932-.15-46.439-1.205-69.313-.047-11.609.587-22.211 4.625-34.065 3.462-5.249-.515-10.312-2.537-14.018-6.372-3.445-3.565-5.016-7.685-6.125-12.444-3.542-15.19-6.054-30.706-8.931-46.032l-11.784-61.422-27.74-141.669-19.004-95.2c-2.07-10.821-6.277-24.929-6.053-35.807.119-5.789 1.778-10.35 6.008-14.367 6.227-5.913 25.955-16.007 34.383-18.125 3.273-.822 6.626-.717 9.968-.609q29.007 1.098 57.998 2.558c9.689.427 19.391.416 29.07 1.037-4.194-20.067-7.731-40.256-11.551-60.396-1.84-9.698-6.574-27.415-5.998-36.589 1.757-1.257 3.488-1.433 5.617-1.41 7.115.079 14.347.976 21.478 1.298l56.848 2.316q83.945 2.75 167.842 6.686c3.595 14.053 5.645 28.436 9.06 42.514 38.048 2.56 76.369 3.759 114.485 4.977-1.62-7-8.914-33.878-7.315-39.371 3.011-2.928 7.397-3.176 11.403-3.137 9.388.092 18.877 1.013 28.249 1.595 6.622.411 13.522.344 20.064 1.401-2.91-16.575-6.406-33.022-9.493-49.561-2.478-13.272-4.452-26.8-7.62-39.917-15.078-2.091-30.853-1.813-46.082-2.361-5.304-.191-10.821-.078-16.069-.842-2-.291-5.539-.915-6.78-2.61-2.965-4.049-10.044-39.73-11.126-47.092-.758-3.702-1.323-7.391-1.813-11.137z"/>
  <path fill="#fff" d="M804.187 759.456c7.91.409 15.843.366 23.763.41l-.488 13.791c-7.953-4.009-15.76-9.393-23.275-14.201zM201.668 948.952l3.554-.046c.977 1.144-.14 2.49-.647 3.846-2.236 5.972-2.197 9.494-.485 15.651l-13.137-.306c-2.073.059-4.68.39-6.409-.94-1.158-.89-1.91-2.005-2.049-3.493-.262-2.801 1.904-6.084 3.679-8.104 4.5-5.119 8.877-6.242 15.494-6.608z"/>
  <path fill="#1CBB83" d="M729.683 834.873c2.042-.076 3.949-.077 5.913.569 3.451 1.134 6.516 3.328 8.096 6.663 1.321 2.791 1.312 5.944.245 8.814-1.761 4.734-5.502 7.481-9.946 9.373-3.198.319-6.282.392-9.171-1.246-4.083-2.315-5.394-6.849-6.646-11.037q.642-2.564 1.674-4.996c1.981-4.569 5.45-6.449 9.835-8.14z"/>
  <path fill="#fff" d="M269.693 881.531c5.931-.125 11.877-.065 17.81-.08 2.361 10.167 12.624 55.206 11.666 60.943-5.533.182-11.093.055-16.629.041-2.668-10.464-4.518-21.251-6.73-31.832-2.024-9.674-4.46-19.331-6.117-29.072z"/>
  <path fill="#1CBB83" d="M732.989 564.834c1.873 2.524 13.104 53.799 15.626 62.803-5.968-4.648-11.49-9.929-17.092-15.013-9.542-9.214-20.043-17.647-29.831-26.647 10.57-6.737 21.567-13.227 31.297-21.143zM518.001 210.151c5.392 2.122 10.791 6.031 15.823 8.957q13.86 8.017 27.89 15.732l-17.351 21.212c-4.371 5.57-8.963 10.94-13.564 16.32-5.086-20.486-7.433-41.817-12.798-62.221zm85.472 348.686c5.561 1.402 36.169 20.012 43.376 23.991q-8.166 11.274-15.878 22.864l-12.165 17.44c-4.696-21.531-10.476-42.807-15.333-64.295zm38.988-341.713l.915.539c4.351 11.098 6.022 23.503 8.756 35.09 2.039 8.638 4.98 17.12 6.307 25.905l-18.845-15.301c-9.798-8.244-21.12-15.673-30.26-24.52q16.683-10.675 33.127-21.713zm45.727 172.395c4.642 21.492 11.207 42.867 16.535 64.238-5.467-4.898-11.218-9.524-16.853-14.228q-15.975-13.645-32.393-26.752c10.531-8.224 21.901-15.397 32.711-23.258zm-127.333-5.492c7.096 1.975 36.215 20.734 45.805 26.121-5.886 5.968-11.349 12.459-16.941 18.708q-7.786 8.57-15.445 17.253c-5.191-20.399-9.202-41.451-13.419-62.082z"/>
  <path fill="#fff" d="M461.619 491.828c5.02.504 9.927 1.116 14.89 2.056q4.877 21.736 9.455 43.537c3.143 15.755 5.863 31.649 9.714 47.251-5.114-.438-10.255-.645-15.38-.924-7.987-30.173-11.23-61.614-18.679-91.92z"/>
  <path fill="#1CBB83" d="M529.025 207.939l107.407 5.556c-5.529 3.852-11.454 7.274-17.177 10.838-7.806 5.055-19.614 14.317-28.123 17.045-4.567-.625-56.333-29.098-62.107-33.439zm40.117 172.833c10.288-1.042 21.636.614 31.978 1.089 27.069 1.243 54.098 3.167 81.179 4.137l-20.196 13.414c-9.136 6.11-18.032 12.63-27.065 18.897-8.425-3.217-16.543-9.415-24.344-14.038-13.618-8.069-27.582-16.071-41.552-23.499zm43.595 174.68c17.27-.293 35.221 1.813 52.509 2.704 20.609 1.063 41.493 1.135 62.023 3.117-6.692 4.83-13.869 9.078-20.85 13.48-9.977 5.901-19.338 12.842-29.164 19.003-21.556-12.681-42.684-26.089-64.518-38.304z"/>
  <path fill="#fff" d="M457.105 467.827c10.78 2.242 25.169-1.284 34.629 5.134 2.741 1.859 4.959 4.294 6.189 7.394 4.285 10.797 7.432 33.12 9.806 45.486 3.809 19.848 8.086 39.627 12.151 59.425q-8.777-.05-17.544-.452c-2.604-13.869-16.727-90.313-21.001-95.553-3.572-4.38-15.432-3.812-20.659-4.082-1.95-5.634-2.8-11.47-3.571-17.352zm24.33 122.532l15.252.71c3.521 12.883 5.596 26.587 8.233 39.692 5.98 29.722 11.513 59.549 17.816 89.203 2.051 9.653 3.563 19.469 6.238 28.973-5.055.236-10.19-.148-15.246-.336-4.691-19.028-7.798-38.555-11.816-57.745-6.992-33.397-14.501-66.912-20.477-100.497zm22.415.932c5.547-.029 10.979.015 16.506.56 7.334 29.005 12.599 58.606 18.621 87.906 4.773 23.221 10.525 46.489 14.588 69.817q-8.909-.071-17.817-.266L503.85 591.291z"/>
  <path fill="#1CBB83" d="M568.346 237.888c6.339 4.181 13.471 7.619 20.156 11.221 5.474-1.313 9.723-3.667 14.525-6.536 17.99 11.517 32.484 28.438 50.246 40.181-8.216-.065-16.394-.141-24.593-.743q-46.835-2.747-93.712-4.647c11.626-12.73 22.265-26.3 33.378-39.476zm43.952 175.466c5.846 3.523 13.819 9.966 20.601 10.762 6.742.792 11.959-4.054 16.852-7.925 6.768 6.499 14.334 12.359 21.53 18.381 9.294 7.777 18.5 15.803 28.236 23.023q-12.595-.332-25.181-.932-47.757-2.67-95.541-4.805c10.289-13.519 23.122-25.006 33.503-38.504zm40.117 172.968c8.521 4.421 15.465 11.318 24.702 14.558 6.493-2.424 12.45-7.062 18.185-10.882 8.325 6.16 15.877 13.441 23.553 20.375 8.067 7.287 16.344 14.429 23.86 22.288-4.547-.051-9.104-.294-13.65-.46-9.494-2.322-26.242-1.402-36.754-1.877q-33.229-1.766-66.42-4.126c7.763-13.75 17.665-26.784 26.524-39.876z"/>
  <path fill="#fff" d="M217.308 949.373c16.339-.973 33.223-.123 49.608-.128l98.598-.036 87.917-.01c15.499.005 31.535-.782 46.969.403 3.249.25 5.921.952 8.437 3.189 4.558 4.053 4.529 10.022 4.767 15.632l-7.677.191-211.778-.09-52.984-.362c-7.755-.006-16.912 1.357-24.448-.064-2.649-.5-5.193-1.551-6.676-3.93-.939-1.508-1.59-3.706-1.114-5.468 1.128-4.167 4.864-7.21 8.381-9.327zM88.693 468.08l.375.458c-1.37 5.047-1.49 10.2-.808 15.384.793 6.03 2.873 12.356 4.117 18.373l9.016 45.376 30.935 159.539 19.364 99.119 6.249 33.787c1.297 7.014 2.286 14.419 4.496 21.209 2.344 7.2 7.201 12.12 13.053 16.674q-7.405.063-14.795.532c-1.224-.203-2.503-.395-3.697-.744-4.4-1.286-7.702-4.171-9.819-8.211-3.44-6.566-9.25-43.402-11.123-53.309L117.454 719 85.13 556.355c-4.137-21.107-8.885-42.282-12.444-63.484-.652-3.885-1.142-7.687.145-11.519 2.369-7.055 9.775-10.127 15.862-13.272zM294.51 881.618l136.432-.033c3.254 20.429 7.902 40.754 11.997 61.036l-136.075-.1c-2.021-6.96-3.003-14.498-4.377-21.622q-3.679-19.704-7.977-39.281zm800.06-87.954c2.11.501 2.39 3.548 3.01 5.403 5.56 16.474 13.75 29.473 26.63 41.153 17.08 15.497 39.62 21.969 62.35 20.959.16.264.32.521.46.793 1.54 3.02 1.29 94.072-.36 98.344-2.27-2.957-48.47-29.757-54.69-32.754-3.56-4.166-24.25-15.429-29.73-18.703q-31.41-19.094-62.44-38.787c-10.44-6.539-23.78-13.539-32.87-21.391q28.82-18.781 58.26-36.577c7.87-4.821 22.99-12.689 29.38-18.44zm-295.273-29.946l92.819 57.855c14.57 9.201 29.619 17.939 43.72 27.83-19.211 17.173-40.535 32.001-60.369 48.457-16.347 13.849-33.735 26.777-50.635 39.964-8.676 6.769-17.636 13.329-25.602 20.94q-.635-97.523.067-195.046z"/>
  <path fill="#fff" d="M108.495 459.406c9.126-.576 18.764.448 27.929.817 22.651.912 45.428 2.527 68.088 2.507 1.312 6.246 2.376 12.478 3.302 18.792-21.24-1.511-42.565-1.989-63.841-2.71-9.08-.307-18.282-1.457-27.355-1.227-1.722.043-3.103.022-4.548 1.007-.039.304-.084.607-.115.912-.416 4.118 2.119 10.947 2.924 15.247l18.354 93.326 35.744 186.337 9.331 48.46c1.672 8.859 2.97 17.94 5.068 26.703.344 1.439.75 2.801 1.746 3.943.142.162.302.308.45.465.144.154.276.319.425.467 2.181 2.18 8.004 1.982 10.934 2.087 19.393.693 39.042-.012 58.456-.027l124.26-.252 112.869-.117c19.074.017 38.467.818 57.51.105 2.456-.092 4.257-.407 6.105-2.137 1.58-4.807-8.981-49.16-10.734-57.556l-8.418-41.144c5.998.383 11.895.362 17.9.208 1.294 8.692 3.461 17.387 5.18 26.013l9.988 50.299c1.818 8.972 4.708 18.67 5.445 27.758.194 2.383-.223 4.609-1.225 6.791-1.603 3.49-4.676 6.426-8.346 7.619-8.48 2.757-51.852 1.125-63.107 1.154l-191.634-.206q-43.87.236-87.74-.036c-10.985-.011-22.063.701-33.032.273-4.114-.161-7.683-1.025-11.337-2.946-5.955-3.131-8.067-6.387-10.011-12.716-4.357-14.187-7.495-37.567-10.474-52.985l-20.972-107.603-27.466-141.493-9.998-50.254c-1.679-8.349-3.913-16.728-5.11-25.153-.7-4.921-.517-10.084 1.956-14.526 2.712-4.871 6.464-6.638 11.499-8.202zm339.081-42.497c10.65 1.243 21.702 1.376 32.422 1.954l82.119 3.783c1.537 6.175 4.857 29.498 8.446 32.833 1.819 1.689 5.079 2.248 7.484 2.596 8.207 1.189 17.058.811 25.373 1.155 10.248.424 20.439 1.362 30.704 1.607 4.22 17.96 8.441 36.117 12.174 54.184 2.504 12.119 4.526 24.305 7.45 36.338-14.879-1.156-29.724-1.672-44.611-2.549-2.523-.084-5.533-.443-8.008.022-1.632.307-3.625 1.112-4.487 2.616-2.386 4.16 5.413 31.456 6.791 37.353-25.501-.028-50.98-2.977-76.476-3.125-2.327-8.437-3.661-17.216-5.43-25.789q-5.248-24.469-9.947-49.05c-1.993-10.271-3.48-21.51-6.809-31.414q-.36-1.074-.83-2.104t-1.046-2.005q-.575-.976-1.249-1.886-.674-.91-1.439-1.744c-10.515-11.688-30.036-9.599-44.445-10.379-1.806-9.327-8.678-36.567-8.186-44.396zM528.07 591.61c25.602 2.108 51.536 2.72 77.205 3.957 2.201 7.597 5.677 29.865 10.573 34.88 1.471 1.506 5.125 1.982 7.176 2.263 7.919 1.086 16.311.926 24.311 1.297q17.994.845 35.958 2.196c4.554 14.027 6.517 29.722 9.413 44.215q7.269 37.86 15.796 75.456c-20.638-.497-41.305-1.72-61.936-2.558l-86.334-3.357c-7.3-34.107-13.918-68.393-20.765-102.593-3.725-18.61-8.028-37.072-11.397-55.756zm642.33 100.055c21.36-2.26 41.34 2.903 58.66 15.645q.8.599 1.59 1.217.79.619 1.56 1.257.78.637 1.54 1.294.75.656 1.49 1.331.75.674 1.47 1.367.72.692 1.43 1.402t1.4 1.438q.69.727 1.36 1.471.67.743 1.33 1.503.65.76 1.28 1.536.64.776 1.26 1.567.61.791 1.21 1.597.59.806 1.17 1.626.58.82 1.13 1.654.56.834 1.09 1.682.54.847 1.05 1.707.52.861 1.01 1.733.49.873.97 1.757.47.884.92 1.78.45.896.88 1.802t.83 1.823q.41.917.79 1.843.38.926.74 1.861.37.936.7 1.879.34.944.66 1.896.31.952.6 1.911.29.959.56 1.925.27.966.51 1.939.25.972.47 1.95.22.978.41 1.961.2.983.37 1.971.17.987.32 1.979.14.978.26 1.959.12.981.22 1.965.1.984.17 1.97t.12 1.973q.05.988.07 1.976.02.988.02 1.977 0 .988-.02 1.976-.03.988-.08 1.976-.05.987-.12 1.973-.08.986-.17 1.969-.1.984-.22 1.965-.12.981-.27 1.959-.15.977-.32 1.951-.17.974-.36 1.943-.2.969-.41 1.934-.22.964-.46 1.923-.24.958-.51 1.911-.26.952-.55 1.898-.29.945-.6 1.883-.31.939-.65 1.869-.33.93-.69 1.852-.35.922-.73 1.834-.38.913-.79 1.816-.4.903-.82 1.796-.43.893-.87 1.775-.45.883-.91 1.754-.47.871-.96 1.73t-1 1.706q-.51.847-1.04 1.682-.53.834-1.08 1.655-.55.821-1.12 1.628-.57.807-1.16 1.6c-14.02 18.894-33.06 30.27-56.26 33.774-18.51 2.577-37.47-2.483-52.96-12.782q-.86-.578-1.71-1.178-.84-.599-1.68-1.22-.83-.62-1.64-1.261-.82-.641-1.62-1.302-.8-.661-1.58-1.341-.78-.681-1.55-1.38-.77-.7-1.51-1.418-.75-.719-1.48-1.456t-1.45-1.491q-.71-.755-1.4-1.527-.69-.772-1.37-1.561-.67-.789-1.32-1.595-.66-.805-1.29-1.627-.63-.821-1.25-1.658-.61-.837-1.2-1.689-.6-.852-1.17-1.718-.57-.867-1.12-1.747-.55-.88-1.07-1.774-.53-.893-1.03-1.8-.51-.906-.99-1.825-.48-.918-.94-1.848-.46-.931-.9-1.872-.43-.942-.85-1.894-.41-.952-.8-1.913-.39-.962-.75-1.933-.37-.972-.71-1.952-.34-.98-.66-1.968-.31-.988-.6-1.983-.3-.996-.56-1.999-.27-1.002-.51-2.011-.24-1.009-.46-2.024-.22-1.014-.41-2.034c-4.05-21.003 1.3-44.003 13.34-61.591 13.75-20.082 32.32-30.029 55.75-34.484z"/>
  <path fill="#050505" d="M1132.13 736.332c10.29-.701 91.56-1.163 97.58.466 1.52.411 2.97.761 3.65 2.291 1.86 4.241 2.61 67.877.62 71.79-1.26 2.469-4.32 3.516-6.79 4.188-4.73.995-87.31.983-94.3.049-2.11-.281-4.26-1.676-5.4-3.477-1.39-2.222-1.92-5.107-2.16-7.69-.63-6.572-.68-56.809.55-61.144 1.06-3.7 3.07-4.813 6.25-6.473z"/>
  <path fill="#BAE0C8" d="M1132.72 742.331c10.21-1.378 21.79-.154 32.15-.14l62.31-.194c.87 1.254 1.14 2.117 1.27 3.637.83 9.137.08 18.964.16 28.166.07 8.906 1.36 22.731 0 31.191-.36 2.279-.93 2.693-2.63 4.012l-.67.493c-16.36.544-32.93-.128-49.32-.14-12.3-.009-24.86.747-37.12.246-1.73-.071-3.95-.182-5.46-1.1-1.03-.631-1.27-1.796-1.5-2.933-1.02-5.01-1.03-54.308-.31-60.682.13-1.097.49-1.678 1.12-2.556z"/>
  <path fill="#050505" d="M1215.71 751.665c.51-.004.99-.038 1.5.112 1.42.425 2.12 1.456 2.89 2.606l-.31 1.55c-6.15 5.497-33.29 24.711-40.16 26.891-7.85-4.967-27.34-20.899-33.74-23.511-1.66-1.991-3.06-2.802-3.41-5.468.64-.745.49-.898 1.56-.977 4.81-.354 31.16 18.778 35.88 23.155 7.21-2.242 28.29-18.939 35.79-24.358z"/>
  <path fill="#fff" d="M257.523 701.95c25.146-.064 50.378 1.826 75.497 2.868q57.297 2.45 114.623 4.111c17.221.588 34.415 1.618 51.647 1.952 2.317 14.427 5.786 28.638 8.811 42.928q5.336 25.986 10.089 52.085c-21.599.107-43.253-1.272-64.854-1.719l-177.283-4.37c-3.707-16.811-6.5-33.904-9.749-50.818-3-15.62-6.551-31.295-8.781-47.037z"/>
  <path fill="#050505" d="M434.033 775.286c18.34-.605 37.279.037 55.628.748 3.331.129 6.438-.211 8.815 2.356.166 2.075.12 2.383-.851 4.219-13.97-.811-28.071-.83-42.064-.957-6.165-.057-12.967.473-19.045-.313-1.072-.139-1.581-.472-2.374-1.161-.868-1.849-.549-2.946-.109-4.892zm-3.231-27.358c12.238-.392 24.886.724 37.155 1.04 7.377.19 15.655-.573 22.917.516 1.83.275 2.232.696 3.346 2.136.131 2.071.08 2.497-.832 4.353-13.668-.006-27.341-.635-41.004-.984-6.855-.175-15.24.537-21.896-.956-.786-.177-1.002-1.004-1.415-1.662.085-1.943.648-2.853 1.729-4.443zm-5.583-27.847c13.637-.411 27.39.619 41.023.994 6.656.183 15.352-.85 21.662.795 1.658.432 2.094 1.081 2.831 2.531-.377 2.025-.681 2.17-2.077 3.576-12.961.232-25.97-.733-38.931-1.024-7.2-.161-15.937.808-22.884-.674-1.85-.395-2.255-.732-3.281-2.297.24-2.001.514-2.336 1.657-3.901zm-151.08-7.165c25.392.068 50.847 1.598 76.214 2.7 19.305.838 38.642 1.273 57.956 1.873 1.179 2.08 2.216 4.106 2.851 6.422 1.92 6.994 10.82 49.801 10.256 54.672-.208 1.79-.871 2.356-2.204 3.441-20.014.874-40.818-.79-60.888-1.269l-41.14-1.283c-8.619-.251-17.569-.022-26.134-.981-2.929-.327-6.014-.869-8.357-2.767-1.778-5.873-12.691-57.345-11.6-60.493.497-1.431 1.789-1.693 3.046-2.315z"/>
  <path fill="#1CBB83" d="M278.259 718.97c26.761.695 53.45 1.945 80.19 3.052 15.389.638 30.838 1.581 46.243 1.392 4.715 17.053 7.028 35.235 10.421 52.636-42.437-.112-84.78-2.987-127.19-3.478-1.849-8.7-10.662-48.043-9.664-53.602z"/>
  <path fill="#fff" d="M299.681 733.977c11.579-.725 79.679-.872 88.582 1.455 1.593.416 1.84 1.181 2.526 2.573-.071 2.091-.593 3.386-1.493 5.261-14.321.483-28.896-.835-43.242-1.078-11.619-.196-34.219.726-44.435-1.118-1.575-.285-1.956-.866-2.894-2.103-.282-1.957.244-3.178.956-4.99zm5.061 18.734c12.128-.049 81.341-.116 87.955 2.414 1.036 1.18 1.781 1.9 1.592 3.584-.21 1.874-1.203 2.545-2.513 3.656-16.98.542-34.209-.633-51.2-.909-11.118-.181-23.045.714-34.067-.554-2.131-.246-2.712-.366-4.313-1.779-.142-.626-.305-1.238-.252-1.887.164-1.996 1.39-3.26 2.798-4.525zm659.516 86.691c5.277-.35 10.448-.184 15.483 1.571 9.56 3.332 27.299 16.402 36.929 22.477l59.66 36.956c19.07 11.901 38.23 23.905 57.52 35.438 16.44 9.828 33.44 19.201 49.28 29.972.98.67 1.25.981 1.74 2.023-6.89.796-14.12.448-21.05.423l-33.88-.129-106.36-.002c-71.759.058-143.574.637-215.33-.214l-5.557-3.776c6.131-6.574 13.868-12.048 20.886-17.643 15.006-11.964 30.378-23.445 45.433-35.338l58.06-46.284c8.535-6.764 16.844-14.222 25.803-20.391 3.644-2.508 7.155-3.861 11.383-5.083z"/>
  <path fill="#fff" d="M834.153 702.713c28.121-.88 56.501-.127 84.646-.106l138.961-.069c22.83.053 45.83.995 68.63.243-.7 2.07-13.53 14.736-15.89 17.927-4.77 6.438-8.34 13.598-11.22 21.056q-1.04 2.664-1.86 5.401-.83 2.736-1.44 5.529-.61 2.793-1 5.625-.39 2.831-.56 5.685c-.4 5.991 1.38 17.707-.85 22.658-1.65 3.153-19.1 12.509-23.01 14.006-1.67 2.553-61.76 38.55-71.162 44.822-7.513-5.389-14.903-10.649-24.307-11.974-13.401-1.887-23.711 3.651-34.073 11.411-8.546-5.988-17.521-11.18-26.304-16.79l-80.575-50.472c-.736-13.277-.29-26.735-.302-40.037-.01-11.574-.563-23.384.316-34.915zM119.256 484.536c29.901 1.346 59.864 2.101 89.783 2.958 5.05 22.92 8.917 46.011 13.44 69.027l28.954 148.413c2.695 14.036 16.233 93.471 20.412 99.871 2.076 1.25 5.293 1.171 7.666 1.269 15.272.631 30.576.669 45.855 1.124l140.049 3.625q16.929.356 33.852.96c7.088.292 15.621 1.744 22.548.572.772-.131 1.717-.186 2.104-.939 2.764-5.373-7.211-47.875-9.092-56.535 4.904.275 9.773.49 14.689.465 3.27 11.855 5.449 24.317 7.865 36.383 3.876 19.011 9.774 38.811 11.568 58.082-32.531.632-65.16.093-97.703.099l-260.739.071c-4.098-12.591-5.678-26.917-8.016-39.958-2.959-16.508-6.419-32.869-9.641-49.322l-32.952-172.473q-6.265-33.526-13.104-66.94c-2.46-12.263-4.543-24.602-7.538-36.752z"/>
  <path fill="#fff" d="M561.734 756.682c11.036-.19 22.275.551 33.314.959l71.664 2.855c14.237.589 28.521 1.581 42.772 1.401 1.894 6.972 2.987 14.291 4.516 21.367 3.391 15.696 6.804 31.379 9.434 47.226-3.665 2.131-6.751 4.547-8.92 8.257q-.237.398-.453.808-.216.411-.411.831-.194.421-.367.851-.172.431-.322.869-.15.439-.277.885-.127.446-.231.897-.103.452-.184.909-.08.456-.136.917-.056.46-.089.922-.032.463-.04.926-.009.464.007.927.015.463.055.925t.103.921q.064.459.151.915.087.455.198.905.111.45.245.894c1.523 5.1 5.373 9.353 10.114 11.689q.446.216.903.408.456.193.922.362.465.169.939.314.474.146.954.266.481.121.967.218.486.096.976.167.49.072.983.118.494.046.989.067.495.022.99.018.495-.005.99-.034.494-.029.987-.084.492-.054.981-.134.489-.079.974-.183.484-.105.962-.233.479-.129.95-.282.471-.153.934-.33c7.128-2.731 10.104-8.12 13.115-14.741q20.697-.12 41.383.558-.321 37.21.051 74.42c.076 11.205-1.013 23.926 1.052 34.945.518 2.764 1.996 5.193 3.38 7.606l-119.774.207-157.52-.302.013-1.493c.033-6.907-1.027-12.789-6.132-17.809q-1.026-.998-2.176-1.85-1.15-.852-2.403-1.541-1.254-.69-2.589-1.206-1.335-.515-2.727-.847c-9.635-2.339-41.718-.679-54.013-.696-2.373-8.084-3.572-16.693-5.097-24.976q-3.159-18.093-7.526-35.934c10.846-.659 21.97-.054 32.857-.036l61.559-.002c10.162.023 25.117 1.535 34.743-1.026 5.497-1.463 10.561-5.335 13.362-10.292 2.062-3.648 2.643-7.339 2.359-11.464-.715-10.398-4.594-21.347-6.575-31.652-4.314-22.449-7.803-48.913-13.886-70.583zM191.81 364.718c80.041 4.599 160.348 5.051 240.389 9.878 11.178 52.457 20.305 105.416 30.728 158.027l35.163 171.464c-22.938.03-46.021-1.582-68.958-2.372l-173.247-6.393-39.914-205.587c-7.991-41.651-15.228-83.562-24.161-125.017z"/>
  <path fill="#050505" d="M405.283 631.363c7.68-.352 57.635.148 61.961 2.525 1.063 1.864.954 2.578.982 4.677-6.88 1.083-58.328-.437-61.87-2.261-1.16-1.922-1.018-2.739-1.073-4.941zm5.117 27.785c6.686.156 57.683.571 60.253 1.794.494.236.86.678 1.291 1.016.621 1.942.37 3.046-.13 4.996-6.938.981-15.568-.36-22.652-.6-11.886-.402-24.053-.183-35.894-1.138-.84-.067-1.368-.36-2.029-.855-1.002-1.731-.859-3.257-.839-5.213zm-27.949-161.705c13.711.962 27.603 1.283 41.346 1.695 5.909.178 12.317-.216 18.163.542 1.975.256 2.518.523 3.741 2.077-.059 1.945.004 2.123-1.236 3.755l-41.365-1.111c-6.118-.142-13.642.562-19.59-.597-1.609-.313-2.005-.86-2.893-2.17.249-2.123.518-2.479 1.834-4.191zm18.929 106.632c9.747-.37 19.754.694 29.517.977 9.158.265 18.867-.374 27.94.7 1.306.154 1.928.402 2.891 1.265.664 1.862.469 2.852-.007 4.746-6.789.353-56.331-.31-59.23-1.924-.591-.329-1.053-.848-1.58-1.272-.508-1.833-.187-2.737.469-4.492zm-15.099-79.603q27.37 1.208 54.763 1.606c2.621.041 6.895-.423 8.764 1.506.312 1.946.125 3.133-.529 4.986-8.438.084-58.417-.741-62.008-2.198-.55-.224-.96-.701-1.44-1.052-.558-2.048-.117-2.838.45-4.848zm4.585 27.452c12.621-.289 25.435.8 38.058 1.245 7.842.276 15.946-.209 23.74.45 2.04.173 2.575.131 3.886 1.679.168 1.787-.068 2.666-.819 4.285-8.258.202-60.436.314-64.822-2.695-1.009-2.049-.506-2.777-.043-4.964zM367.728 442.14c6.97-.135 61.482 1.226 64.795 2.721 1.063.48 1.187 1.178 1.645 2.168-.402 1.833-.598 2.083-1.799 3.403-13.581-.243-27.134-.872-40.709-1.269-7.046-.206-14.937.369-21.827-.783-1.79-.299-2.318-.607-3.411-2.032.013-2.092.29-2.464 1.306-4.208zm-9.828-54.267c2.286-.102 4.601-.018 6.89.013 7.117.095 53.81.822 56.804 2.359.431.221 1.116 1.146 1.486 1.527.157 2.083-.143 2.415-1.09 4.201-6.82.314-59.946-1.109-62.741-2.026-.436-.143-1.239-.943-1.641-1.25-.597-2.042-.218-2.797.292-4.824zm5.299 27.523c13.713-.331 27.622.679 41.327 1.216 7.315.287 15.54-.121 22.746 1.035 1.724.276 2.144.722 3.164 2.091-.045 2.109-.077 2.27-1.364 3.935-.91.115-1.833.222-2.751.248-5.941.169-59.057-1.266-62.341-2.808-.468-.22-1.166-1.054-1.579-1.427-.25-1.919.11-2.522.798-4.29zM208.147 378.66c17.84-.371 125.656 2.599 134.763 5.88 1.177 1.582 1.883 3.174 2.392 5.074 2.402 8.963 3.29 18.406 5.021 27.515 1.522 8.008 4.181 16.51 4.791 24.606.207 2.738-.555 3.575-2.181 5.596l-90.387-2.786c-14.113-.427-29.85.893-43.601-2.032-2.41-1.971-9.521-43.345-11.006-50.235-.956-4.437-2.394-9.578.208-13.618z"/>
  <path fill="#1CBB83" d="M212.88 384.516c42.003-.139 84.038 4.51 126.011 4.894 3.437 17.306 5.848 34.822 10.113 51.965-15.585.02-31.288-1.125-46.872-1.675l-78.541-2.565c-3.991-17.41-6.998-35.131-10.711-52.619z"/>
  <path fill="#fff" d="M236.27 399.4c20.215-.577 40.641.56 60.863 1.079 6.569.169 19.441-.592 25.188 1.061 1.512.435 1.911 1.49 2.545 2.785.067 2.129-.364 3.151-1.392 4.997-28.821-.182-58.006-.551-86.784-2.193-1.571-1.016-1.617-1.081-2.281-2.832.135-2.126.603-3.189 1.861-4.897zm1.89 17.88c19.895-.603 40.126 1.227 60.01 2.02 8.161.326 19.992-.636 27.703 1.267 1.769.436 2.012 1.315 2.741 2.786.05 2.186-.119 3.399-1.271 5.276-15.594.224-31.543-1.122-47.172-1.614-13.43-.423-28.098.419-41.278-1.783-1.42-1.06-1.645-1.306-2.361-2.922.037-2.121.573-3.21 1.628-5.03z"/>
  <path fill="#050505" d="M229.666 490.555c16.097 1.308 132.798 3.536 136.568 5.831 3.615 2.201 7.363 30.814 8.446 36.147 1.229 6.052 3.058 12.065 3.919 18.174.504 3.576.813 5.777-1.487 8.799-31.323-1.657-62.917-1.988-94.285-2.827-12.517-.334-30.222.915-42.028-2.081-.563-.558-.918-1.062-1.204-1.807-3.525-9.195-4.578-23.673-6.417-33.558-1.41-7.575-3.803-15.03-4.421-22.736-.176-2.193-.023-3.902.909-5.942z"/>
  <path fill="#1CBB83" d="M235.284 497.271c42.334.001 84.599 3.933 126.942 4.213 3.187 17.276 7.33 34.513 9.854 51.887-13.367.086-26.721-.906-40.081-1.288q-43.226-1.445-86.466-2.389c-2.858-17.444-6.049-35.255-10.249-52.423z"/>
  <path fill="#fff" d="M256.899 512.02c8.868-.098 82.229.777 87.974 2.561 1.599.496 1.862 1.332 2.494 2.765-.255 2.165-.295 2.613-1.618 4.313-18.127.271-36.401-.61-54.531-.995-10.352-.221-21.854.552-32.049-1.044-1.966-.307-2.531-1.058-3.63-2.631-.177-2.175.269-3.107 1.36-4.969zm2.424 18.67c8.712-.387 85.839 1.703 89.702 2.892 1.512.465 1.661 1.503 2.207 2.782-.106 2.257-.651 3.391-1.949 5.222-5.998.548-86.123-2.323-88.599-3.06-1.586-.473-1.962-1.527-2.67-2.895-.113-2.119.172-3.151 1.309-4.941z"/>
  <path fill="#050505" d="M248.639 598.153c8.312-1.169 17.85.114 26.287.424l52.172 1.953c18.945.754 39.067-.278 57.784 2.453 1.925 1.813 2.738 4.067 3.424 6.565 2.52 9.182 3.626 19.023 5.418 28.387 1.553 8.116 4.465 16.746 4.562 25.018.019 1.659-.721 3.016-1.517 4.423-23.084.663-49.138-1.283-72.501-1.959-14.709-.426-52.047.374-64.439-3.079-.543-.574-.92-1.119-1.221-1.854-1.722-4.204-10.606-50.796-10.936-57.032-.104-1.966.246-3.479.967-5.299z"/>
  <path fill="#1CBB83" d="M254.138 604.493c42.499-.471 85.281 3.36 127.789 4.336 2.631 17.432 6.364 34.949 9.604 52.3-16.937.89-34.744-.498-51.709-1.219-25.08-1.066-50.424-1.975-75.52-1.925q-5.256-26.713-10.164-53.492z"/>
  <path fill="#fff" d="M276.575 619.535c11.636.121 82.91.939 87.503 2.964 1.174 1.531 1.367 1.916 1.648 3.819-.689 1.876-.589 2.175-2.377 3.237-13.664-.297-82.088-.513-88.478-3.184-.975-1.099-1.554-1.477-1.371-3.071.213-1.857 1.744-2.756 3.075-3.765zm3.494 20.061c19.245-.628 38.803.404 58.077.855 10.003.234 20.717-.467 30.576 1.01 1.037.865 1.614 1.512 1.854 2.9.302 1.748-.687 3.277-1.583 4.674-8.296.519-86.577-.746-88.86-2.019q-.182-.103-.349-.228-.168-.125-.319-.269-.152-.144-.284-.305-.133-.162-.245-.338-.112-.176-.202-.365-.089-.189-.156-.387-.066-.198-.107-.403-.042-.205-.058-.413c-.146-2.099.496-3.136 1.656-4.712z"/>
</svg>
