<svg xmlns="http://www.w3.org/2000/svg" viewBox="0 0 1365 1024">
  <path fill="#FEFEFE" d="M0 0h1363.83c2.17 3.79 1.17 11.8 1.17 16.225l.01 794.091-.01 159.597c0 7.66 1.16 47.957-.41 52.627-.17.51-.5 1.01-.76 1.46H0V0z"/>
  <path d="M430.879 68.621c1.53.026 2.077-.205 3.276.801-.04.171-.055.35-.12.514-1.01 2.53-5.656 4.343-7.95 5.495-1.279.02-1.777-.143-2.855-.829l.193-1.08c2.116-2.175 4.821-3.452 7.456-4.9zM394.905 91.2l.636 1.484c-.588 3.848-6.069 6.943-9.089 9.185l-.934-2.239c1.4-3.936 6.064-6.254 9.387-8.43zm101.347-46.441c1.095-.137 2.344-.015 3.457-.013l.379.884-1.023.977.521.044c-2.575 2.014-4.849 2.56-7.97 3.275-1.748-.027-2.678.19-4.169-.773l.479-1.109c2.616-2.046 5.153-2.576 8.326-3.285zm-84.089 34.365c1.2.22 1.422.477 2.368 1.279-.914 3.452-4.707 5.25-7.572 7.066-1.389-.094-1.589-.19-2.74-.983l.205-1.183c2.032-2.612 5.037-4.331 7.739-6.179zM298.737 198.93c1.409.983 1.718.925 2.113 2.666-.793 3.455-3.398 6.453-5.438 9.294-1.419-.776-1.463-.673-1.981-2.186.646-3.735 3.12-6.781 5.306-9.774zM451.38 58.59c.056-.004.112-.012.168-.011 1.529.012 2.371-.212 3.516.832-.08.197-.133.407-.238.592-1.467 2.591-5.438 3.945-8.088 4.968-1.158.436-2.28.484-3.499.573-.178-.58-.267-.547-.032-1.163 1.122-2.936 5.531-4.57 8.173-5.791zm-75.663 47.89l1.311 1.29-.067 1.453c-1.873 2.937-5.212 5.001-7.971 7.073-.894-.499-1.115-.838-1.705-1.646l.249-1.49c2.001-2.859 5.332-4.737 8.183-6.68zm-48.682 51.933l1.302 1.35c-.009 4.22-4.11 7.521-6.856 10.456-1.126-.984-1.164-1.051-1.502-2.508 1.249-3.797 4.297-6.546 7.056-9.298zm-68.867 130.619c1.392.777 1.526.896 2.277 2.299.108 4.122-1.539 7.104-3.535 10.539-.915-.426-1.732-.477-2.114-1.472-1.084-2.824 2.19-8.66 3.372-11.366zm17.913-47.259c1.402.895 1.466.902 2.031 2.456-.492 3.756-2.731 7.405-4.406 10.772l-2.039-1.352c-.87-4.001 2.507-8.508 4.414-11.876zm36.296-64.223c.756.355 1.272.805 1.915 1.33.317 4.053-3.615 7.75-6.021 10.804-.635-.532-1.771-1.139-1.81-2.01-.146-3.197 4.028-7.624 5.916-10.124zm-25.138 42.137c1.27 1.016 1.402 1.095 1.868 2.641-.841 3.767-2.757 7.456-5.615 10.087l-1.505-1.406c-.736-4.048 3.038-8.109 5.252-11.322zM474.745 50.748c1.421-.09 2.144-.092 3.496.48l-.743 1.582c-2.902 1.975-5.986 2.782-9.32 3.742-1.549-.162-2.342.074-3.413-1.108.08-.173.134-.36.238-.52 1.673-2.555 6.988-3.49 9.742-4.176zm-133.423 89.541c.705.123 1.352.489 2.005.778l.138 1.37c-1.536 3.449-4.573 6.312-7.078 9.101-.995-.121-1.305-.362-2.128-.894l-.093-1.55c1.63-3.356 4.625-6.098 7.156-8.805zm16.496-17.258l1.712 1.018.145 1.499c-1.574 3.195-4.736 5.723-7.284 8.17l-1.854-.473-.565-1.19c1.169-3.747 4.982-6.514 7.846-9.024zm-90.526 142.033c.931.782 1.598 1.333 1.732 2.611.378 3.61-2.345 8.583-4.361 11.409-.608-.528-1.47-1.009-1.7-1.818-1.032-3.622 2.506-9.176 4.329-12.202zM616.559 43.412c3.699.528 11.191.888 13.973 3.42.855.777.526 1.392.527 2.48-3.481-.444-11.4-.739-13.906-3.147-.821-.79-.563-1.672-.594-2.753zm26.449 5.86c3.744.337 10.259 1.614 13.023 4.301.962.936.666 1.164.679 2.42-.404-.029-.81-.046-1.212-.102-3.812-.524-10.571-1.738-12.873-4.892l.383-1.727zm26.24 7.793c3.809.735 9.371 1.92 12.468 4.32 1.426 1.103 1.256 1.775 1.51 3.423-3.527-.397-10.023-1.998-12.871-4.217-1.297-1.011-1.007-2.02-1.107-3.526zM523.368 40.28c.436.006 1.244.354 1.671.491l.532 1.625-.733 1.008c-3.233 1.357-7.315 1.424-10.804 1.809-1.262-.075-1.976-.128-3.052-.816l.312-.587c.202-.12 1.008-.581 1.154-.735.178-.189.274-.441.411-.662 3.545-1.37 6.731-1.825 10.509-2.132zm39.807-2.142c3.502-.068 11.618-1.04 14.41 1.041.904.675.641 1.33.741 2.383-3.926.519-11.469 1.204-14.83-.976l-.321-2.448zm27.154 1.182c4.229.43 12.084.077 14.929 3.336l-.362 1.685c-3.529-.005-10.993.167-13.665-2.179-.874-.767-.744-1.742-.902-2.843zM695.39 67.333c3.922.596 9.136 2.66 12.467 4.852 1.99 1.31 2.189 1.665 2.729 3.866-4.24-.499-11.335-2.925-14.452-6.026-.999-.993-.699-1.36-.744-2.692zM548.215 38.322c1.107-.087 2.134-.24 3.215.097l.523 1.15-.667 1.06c-3.142 1.778-6.408 1.677-9.921 1.815-.508.05-1.339.194-1.863.092-1.553-.304-1.668-.541-2.395-1.82l.729-1.237c2.912-1.322 7.178-1.024 10.379-1.157zM721.496 80c3.165.44 6.795 2.238 9.542 3.84 2.905 1.693 4.32 2.654 5.16 5.958-3.85-.762-11.861-4.036-14.419-7.142-.822-.998-.429-1.443-.283-2.657z"/>
  <path fill="#BAE0C8" d="M1266.85 835.665c3.74 1.803 4.22 7.829 7.31 10.583 2.32 2.066 5.89 2.594 8.18 4.681.2.179.39.365.58.548-2 2.435-7.46 4.174-10.42 5.5 0 .175.01.351-.02.525-.35 2.706-3.19 8.694-5.23 10.379-.65-2.125-1.76-4.339-2.78-6.317-3.04-5.951-8.58-8.242-14.59-10.17 2.74-.694 5.37-1.669 7.84-3.073 5.04-2.876 7.66-7.198 9.13-12.656zM111.728 195.899c.991 1.241 1.464 3.349 2.162 4.823 3.761 7.943 7.967 9.782 15.88 12.474-1.871.815-3.754 1.627-5.6 2.499-6.732 3.179-9.74 7.992-12.211 14.754-5.075-10.533-8.166-14.026-19.29-18.073 2.925-.819 6.084-1.667 8.836-2.949 6.023-2.806 8.009-7.739 10.223-13.528zM1185.94 812.995c3.27 1.184 4.87 7.754 7.39 10.518 2.9 3.188 8.46 3.791 11.29 7.071-1.67 1.383-4.11 2.202-6.07 3.172-6.34 3.134-7.61 7.568-11.04 13.157-1.74-.842-4.24-11.333-19.08-17.15 3.63-1.23 7.53-2.397 10.68-4.651 4.17-2.996 6-7.175 6.83-12.117zM190.165 173.122c1.742 1.624 3.087 5.898 4.182 8.086 3.361 6.715 9.318 8.051 16.017 10.267-2.456.917-4.929 1.828-7.341 2.857-7.137 3.044-9.316 8.627-12.011 15.309l-.589.116c-1.775-2.918-2.382-6.374-4.094-9.308-3.176-5.445-9.329-7.219-14.964-8.754 2.584-.913 5.258-1.795 7.758-2.917 6.818-3.06 8.628-9.274 11.042-15.656zM1232.15 764.331c3.21 1.236 6.08 9.699 8.9 12.874 4.57 5.149 9.87 7.335 15.6 10.677l.73.436c-2.83 3.648-10 5.427-13.69 8.974-4.9 4.721-6.6 11.574-10.82 16.712-.09.112-.19.222-.28.333l-.33.41c-1.39-2.036-2.29-4.404-3.37-6.618-4.25-8.715-11.95-15.142-21.07-18.257.22-.103.45-.196.67-.31 9.1-4.817 21.05-14.907 23.66-25.231zM140.908 125.628c1.445 1.039 2.177 3.114 2.95 4.688 7.353 14.968 9.197 15.317 24.791 20.94-1.956.708-3.916 1.429-5.806 2.304-12.377 5.733-16.475 13.019-21.045 25.33-1.548-1.901-2.596-4.865-3.867-7.038-1.762-3.012-3.058-6.92-5.082-9.659-3.666-4.964-13.859-8.555-19.355-11.11q3.803-1.251 7.538-2.695c11.272-4.479 15.313-12.104 19.876-22.76zM1163.37 85.609c10.23-3.966 97.04-38.534 101.13-42.198.15.93.25 1.927.02 2.854-1.88 7.832-30.99 92.561-32.57 94.546-.52.648-1.13 1.218-1.74 1.769.75-3.924-9.6-37.234-11.93-41.131-.34-.561-.74-.926-1.22-1.356.27-1.857.42-4.216-.73-5.83-1.06-1.487-1.84-1.256-3.48-1.455-16.09-3.09-33.2-5.47-49.48-7.2z"/>
  <path fill="#1CBB83" d="M110.644 461.731c-1.476-2.222-3.754-5.133-3.787-7.819q1.266-1.37 2.809-2.417c4.323-2.959 28.266-15.478 32.882-14.59 1.899 1.912 2.374 4.678 3.117 7.202l14.019-.339c.648-.912 1.349-1.99 2.245-2.673 1.763-1.342 4.629-.948 6.675-.696 4.601.566 15.633 2.488 18.469 6.591 1.811 2.62-.191 8.663-.809 11.564 4.677 3.285 8.783 6.953 12.961 10.831 2.685-2.248 5.656-4.145 8.552-6.107 5.656 2.751 14.061 20.308 17.581 26.164-.329 2.479-.57 3.577-2.661 5.233-2.397 1.9-5.267 3.225-7.58 5.2.063.189.129.377.19.568 2.251 7.054-1.587 18.841 5.491 22.713 1.593.872 3.343 1.834 5.097 2.282q.121 18.812-.092 37.623c-.049 7.849.272 15.95-.392 23.767-1.402-17.413-.065-37.983.065-55.711-3.477 5.923-7.135 17.603-13.847 20.036-2.61.129-4.49-.977-6.777-2.074-4.569 7.312-10.725 12.506-17.607 17.519q1.645 6.396 3.363 12.772c-8.497 4.068-19.01 6.507-28.315 7.817-1.738-3.87-3.033-8.011-4.472-12.004-4.876-.454-9.856-.442-14.753-.613-1.148 2.519-2.085 4.951-4.718 6.063-5.739-1.036-15.374-4.524-19.687-8.357-.204-2.477.822-4.465 1.732-6.711l-3.04-1.835-7.282-5.363c-3.205 2.752-7.266 7.156-11.492 8.066-.219-.141-.443-.276-.657-.425-4.19-2.913-15.207-20.583-16.189-25.686 1.94-3.047 8.207-4.522 11.595-5.716-2.104-7.14-3.633-14.073-4.214-21.525-3.68-.411-7.707-.707-11.24-1.878-1.695-.562-3.003-1.088-3.885-2.726-.869-7.26 4.762-24.713 8.496-31.118 4.619.802 9.213 2.502 13.698 3.867 5.415-6.056 8.655-13.542 14.459-19.495z"/>
  <path fill="#BAE0C8" d="M198.511 474.529c2.8-.404 6.572-4.704 8.816-6.666 4.304 7.275 8.333 15.614 13.641 22.177-3.414 1.761-9.277 3.904-10.512 7.849-1.073 3.427 1.738 8.153 2.122 11.725.408 3.792-.056 8.382-.835 12.116 2.356 2.614 5.857 4.856 8.98 6.461q-3.962 9.805-8.552 19.333l-10.867-4.021c-4.306 10.291-10.919 14.435-19.413 21.001 1.28 4.01 2.42 7.926 3.204 12.065-6.737 1.964-13.55 3.799-20.223 5.965-1.042-3.74-1.908-9.772-5.634-11.684-2.206-1.132-14.297-1.084-18.514-1.738l-3.305 6.631-14.476-5.609c1.211-1.908 2.709-3.714 2.772-6.04l-.887-1.627c2.709-3.949 6.211-7.646 9.264-11.356 3.534 1.773 7.428 3.331 11.246 4.361 11.159 3.009 23.798-.53 33.488-6.288q.955-.57 1.88-1.187.926-.616 1.82-1.277.894-.661 1.754-1.366.861-.704 1.686-1.45.825-.745 1.612-1.531.787-.785 1.535-1.608.748-.823 1.455-1.682.706-.858 1.37-1.751.663-.892 1.282-1.816t1.192-1.877q.573-.953 1.098-1.934.526-.98 1.002-1.984.477-1.005.904-2.032.426-1.027.802-2.074.376-1.047.7-2.111.324-1.063.595-2.142c3.322-13.194.032-26.527-6.739-37.993 1.463-3.248 2.92-6.551 5.737-8.84z"/>
  <path fill="#FEFEFE" d="M140.839 441.854l2.559 7.093c6.413-.864 12.383-1.145 18.839-.519l4.113-4.441c5.544 1.965 11.279 3.125 16.797 5.24q-.444 5.556-.73 11.123c5.595 4.461 11.369 8.774 16.094 14.179-2.817 2.289-4.274 5.592-5.737 8.84-8.869-10.924-18.844-18.912-33.26-20.331-12.838-1.264-25.056 2.575-34.907 10.899q-.857.737-1.676 1.516-.82.778-1.601 1.595-.781.818-1.521 1.672-.74.854-1.438 1.743-.697.89-1.351 1.812t-1.262 1.875q-.608.953-1.169 1.934t-1.074 1.989q-.512 1.007-.976 2.038-.463 1.031-.875 2.084-.412 1.052-.773 2.124-.361 1.071-.669 2.159-.308 1.087-.563 2.188-.255 1.102-.456 2.214-.201 1.113-.348 2.233-.147 1.121-.239 2.248c-1.015 12.807 3.405 25.274 11.857 34.905 3.899 4.443 8.483 7.951 13.619 10.845-3.053 3.71-6.555 7.407-9.264 11.356l-1.51.403c-4.396-3.368-8.476-6.914-12.318-10.908-3.812 3.26-7.541 6.614-11.827 9.249-4.18-6.006-8.27-12.411-11.322-19.07 3.957-2.043 8.083-3.71 11.767-6.247-4.047-8.966-5.557-17.336-6.184-27.057-4.998-.298-9.802-1.404-14.643-2.611 1.452-8.159 3.643-16.061 6.238-23.922 4.816 1.757 9.602 3.437 14.53 4.863 4.6-8.576 8.784-17.125 16.498-23.361l-4.402-7.712c9.015-5.498 19.176-10.827 29.184-14.24z"/>
  <path fill="#1CBB83" d="M134.092 551.111c-5.136-2.894-9.72-6.402-13.619-10.845-8.452-9.631-12.872-22.098-11.857-34.905q.092-1.127.239-2.248.147-1.12.348-2.233.201-1.112.456-2.214.255-1.101.563-2.188.308-1.088.669-2.159.361-1.072.773-2.124.412-1.053.876-2.084.463-1.031.975-2.038.513-1.008 1.074-1.989.561-.981 1.169-1.934t1.262-1.875q.654-.922 1.351-1.812.698-.889 1.438-1.743.74-.854 1.521-1.672.781-.817 1.601-1.595.819-.779 1.676-1.516c9.851-8.324 22.069-12.163 34.907-10.899 14.416 1.419 24.391 9.407 33.26 20.331 6.771 11.466 10.061 24.799 6.739 37.993q-.271 1.079-.595 2.142-.324 1.064-.7 2.111-.376 1.047-.802 2.074-.427 1.027-.904 2.032-.476 1.004-1.002 1.985-.525.98-1.098 1.933-.573.953-1.192 1.877t-1.282 1.816q-.664.893-1.37 1.751-.707.859-1.455 1.682-.748.823-1.535 1.608-.787.786-1.612 1.531-.825.746-1.686 1.45-.86.705-1.754 1.366-.894.661-1.82 1.277-.925.617-1.88 1.187c-9.69 5.758-22.329 9.297-33.488 6.288-3.818-1.03-7.712-2.588-11.246-4.361z"/>
  <path fill="#BAE0C8" d="M188.904 486.224c6.489 10.106 8.998 21.363 6.455 33.213-2.251 10.484-8.425 19.022-17.444 24.748-9.817 6.233-20.969 8.848-32.403 6.229-2.603-.596-5.194-1.622-7.666-2.628 4.578-4.476 8.454-9.781 13.032-14.355 2.489.021 4.856-.062 7.298-.589 7.331-1.582 14.076-5.618 18.165-12.009 4.45-6.954 4.728-14.131 2.979-21.962 3.503-4.088 6.722-8.065 9.584-12.647z"/>
  <path fill="#FEFEFE" d="M137.846 547.786c-6.922-3.24-12.971-8.632-17.189-14.986q-.589-.9-1.133-1.828t-1.042-1.881q-.499-.953-.95-1.929-.452-.976-.856-1.973-.403-.997-.758-2.012-.355-1.016-.659-2.047-.305-1.032-.56-2.077-.254-1.045-.457-2.101-.204-1.056-.355-2.121-.152-1.065-.252-2.136-.1-1.071-.148-2.146-.047-1.074-.043-2.15.005-1.075.062-2.149t.166-2.145q.109-1.07.27-2.133.161-1.064.373-2.118.196-.983.442-1.955.245-.972.539-1.931.294-.958.636-1.9.342-.943.731-1.867.389-.924.823-1.827.435-.903.915-1.784.48-.88 1.003-1.735.524-.855 1.09-1.682.565-.828 1.172-1.626.607-.798 1.253-1.564.646-.766 1.33-1.499.684-.733 1.404-1.431.72-.697 1.474-1.358.754-.66 1.54-1.282.787-.621 1.603-1.202.817-.582 1.662-1.121.882-.562 1.791-1.08.909-.517 1.842-.99.933-.472 1.889-.897.955-.426 1.93-.804.975-.377 1.968-.706.993-.33 2.001-.609 1.007-.28 2.028-.509 1.02-.23 2.05-.409 1.031-.179 2.069-.306 1.038-.128 2.081-.204 1.043-.077 2.089-.101 1.045-.025 2.091.002 1.045.027 2.088.106 1.043.078 2.08.209 1.038.13 2.068.311t2.05.413c10.531 2.356 19.061 8.7 24.857 17.708-2.862 4.582-6.081 8.559-9.584 12.647-2.717-6.839-5.915-11.878-12.89-14.92-6.645-2.898-14.364-3.443-21.151-.703q-.594.245-1.175.518-.581.274-1.148.576-.566.301-1.118.63-.551.33-1.086.686-.534.355-1.051.737-.516.382-1.013.788-.497.407-.974.837-.476.431-.931.884-.455.453-.887.929-.432.475-.841.97-.408.496-.791 1.011-.384.516-.742 1.049-.357.533-.688 1.084-.332.55-.635 1.116-.304.566-.58 1.146-.275.58-.522 1.173-.252.591-.476 1.193-.223.603-.416 1.216-.193.612-.355 1.234-.163.621-.295 1.25-.131.629-.232 1.264-.1.634-.169 1.273-.07.639-.107 1.28-.038.641-.044 1.284-.005.642.02 1.284.026.642.084 1.282.057.64.146 1.276t.21 1.268q.12.631.271 1.255.151.624.333 1.241.182.616.394 1.222.212.607.454 1.202c2.71 6.612 8.227 11.778 14.851 14.387q2.51.963 5.112 1.638c-4.578 4.574-8.454 9.879-13.032 14.355z"/>
  <path fill="#1CBB83" d="M150.878 533.431q-2.602-.675-5.112-1.638c-6.624-2.609-12.141-7.775-14.851-14.387q-.242-.595-.454-1.202-.212-.606-.394-1.222-.182-.617-.333-1.241-.151-.624-.271-1.255-.121-.632-.21-1.268t-.146-1.276q-.058-.64-.084-1.282-.025-.642-.02-1.284.006-.643.044-1.284.037-.641.107-1.28.069-.639.169-1.273.101-.635.232-1.264.132-.629.295-1.25.162-.622.355-1.234.193-.613.416-1.216.224-.602.476-1.193.247-.593.522-1.173.276-.58.58-1.146.303-.566.635-1.116.331-.551.688-1.084.358-.533.742-1.049.383-.515.791-1.011.409-.495.841-.97.432-.476.887-.929.455-.453.931-.884.477-.43.974-.837.497-.406 1.013-.788.517-.382 1.051-.737.535-.356 1.086-.686.552-.329 1.118-.63.567-.302 1.148-.576.581-.273 1.175-.518c6.787-2.74 14.506-2.195 21.151.703 6.975 3.042 10.173 8.081 12.89 14.92 1.749 7.831 1.471 15.008-2.979 21.962-4.089 6.391-10.834 10.427-18.165 12.009-2.442.527-4.809.61-7.298.589z"/>
  <path fill="#BAE0C8" d="M176.588 500.654c1.075 7.046-.183 13.478-4.439 19.33-3.669 5.045-9.427 8.671-15.642 9.518a22.38 22.38 0 01-4.569.159c8.794-8.609 17.16-19.2 24.65-29.007z"/>
  <path fill="#FEFEFE" d="M151.938 529.661q-1.854-.546-3.676-1.19c-5.843-2.069-11.558-6.164-14.149-11.959-2.201-4.925-2.262-10.775-.391-15.813 2.207-5.944 7.025-10.972 12.812-13.537q.506-.219 1.022-.413.515-.195 1.04-.363.525-.169 1.057-.312.532-.144 1.071-.261.538-.117 1.082-.207.543-.091 1.091-.155.547-.064 1.097-.102.55-.037 1.101-.048.551-.011 1.102.006.551.016 1.1.059.55.043 1.096.113.547.069 1.09.166.542.096 1.08.218.537.123 1.068.272.53.148 1.053.322.523.175 1.037.374c6.618 2.566 10.132 7.524 12.867 13.823-7.49 9.807-15.856 20.398-24.65 29.007z"/>
  <path fill="#BAE0C8" d="M204.852 549.079c2.287 1.097 4.167 2.203 6.777 2.074 6.712-2.433 10.37-14.113 13.847-20.036-.13 17.728-1.467 38.298-.065 55.711l.078 4.143-.07 12.008-.083 80.227c.001 8.445-1.104 25.015.25 32.584l-.531.709c-6.636 8.777-15.405 15.729-22.735 23.895-22.337 24.885-39.91 52.67-51.272 84.177-8.418 24.29-14.048 48.595-16.988 74.172-.916 7.969-1.125 15.998-1.985 23.968-21.644 4.385-43.432 9.221-64.887 14.452-2.989.73-5.972 1.547-9.03 1.926 1.513-57.824 22.705-110.75 44.962-163.149-2.252-5.703-6.96-11.501-10.007-16.946-8.785-15.705-14.39-32.198-17.479-49.909-9.183-52.663 11.946-102.918 41.721-145.355l3.04 1.835c-.91 2.246-1.936 4.234-1.732 6.711 4.313 3.833 13.948 7.321 19.687 8.357 2.633-1.112 3.57-3.544 4.718-6.063 4.897.171 9.877.159 14.753.613 1.439 3.993 2.734 8.134 4.472 12.004 9.305-1.31 19.818-3.749 28.315-7.817q-1.718-6.376-3.363-12.772c6.882-5.013 13.038-10.207 17.607-17.519z"/>
  <path fill="#1CBB83" d="M225.489 590.971l-.07 12.008c-50.902 50.795-85.753 115.233-116.549 179.586-19.665 42.807-35.008 87.828-40.905 134.649-.58 4.599-2.903 14.794-1.21 19.011.128.32.275.632.433.938-2.989.73-5.972 1.547-9.03 1.926 1.513-57.824 22.705-110.75 44.962-163.149 31.618-65.898 68.44-134.443 122.369-184.969z"/>
  <path fill="#FEFEFE" d="M108.87 782.565c13.041 15.102 25.551 30.65 42.178 42.006-8.418 24.29-14.048 48.595-16.988 74.172-.916 7.969-1.125 15.998-1.985 23.968-21.644 4.385-43.432 9.221-64.887 14.452a10.818 10.818 0 01-.434-.938c-1.692-4.217.631-14.412 1.21-19.011 5.898-46.821 21.241-91.842 40.906-134.649z"/>
  <path fill="#BAE0C8" d="M108.87 782.565c30.796-64.353 65.647-128.791 116.549-179.586l-.083 80.227c.001 8.445-1.104 25.015.25 32.584l-.531.709c-6.636 8.777-15.405 15.729-22.735 23.895-22.337 24.885-39.91 52.67-51.272 84.177-16.627-11.356-29.137-26.904-42.178-42.006zm487.2-538.285c5.04-8.436 31.626-27.751 40.384-35.109 13.881-11.662 27.833-23.334 41.433-35.321 15.783-13.912 31.398-28.305 48.055-41.174 23.781-18.372 52.877-36.275 80.064-49.21 58.551-27.854 130.052-30.747 192.372-15.402 8.352 2.057 16.732 4.04 24.842 6.95 40.33 14.477 73.24 33.197 104.53 62.708 5.21 4.916 12.85 11.26 15.9 17.742-2.09 6.861-83.06 60.312-95.18 67.236-.49.284-1 .466-1.54.664-.47-4.738-3.64-10.504-5.76-14.785-10.72-21.606-24.9-42.222-43.668-57.589-27.116-22.2-60.449-30.909-95.131-27.387q-3.912.434-7.798 1.055-3.886.62-7.739 1.426-3.852.805-7.661 1.793-3.81.989-7.568 2.158-3.758 1.169-7.456 2.516-3.698 1.347-7.327 2.869-3.63 1.522-7.182 3.216-3.553 1.694-7.021 3.555c-4 2.147-7.678 4.776-11.6 7.038-2.668 1.54-5.794.353-6.933 1.769-7.898 9.81-20.117 16.584-29.755 24.907-13.141 11.348-24.892 23.798-36.673 36.509-8.572 2.331-17.494 3.759-26.211 5.479q-23.521 4.704-47.117 9.02c-29.464 5.548-58.746 12.063-88.26 17.367z"/>
  <path d="M775.225 111.096c3.866 1.07 13.121 7.569 15.576 10.685l-.294 1.736c-.301-.044-.604-.079-.903-.132-3.43-.611-12.713-6.819-14.394-9.679-.649-1.105-.264-1.43.015-2.61z"/>
  <path fill="#1CBB83" d="M1048.81 231.323c11.87-4.483 91.81-60.089 100.79-69.998 20.36 25.927 36.53 54.586 46.8 86.049 2.75 8.426 5.1 17.02 7.56 25.538.85 2.971 1.45 6.95 2.79 9.667 1.29-1.477 1.99-2.697 3.93-3.288 6.23 2.702 37.82 17.608 40.2 21.417-.54 3.359-11.9 16.933-15.12 19.496 8.72 5.225 19.14 17.528 21.6 27.558.2.792.2 1.402.19 2.212 2.67-.826 36.67-22.373 37.73-24.202 5.23 7.055 1.25 45.392-.16 54.875-1.37 9.116-8.12 45.544-13.23 51.472-3.31-2.435-6.51-4.852-9.5-7.683-2.96-2.8-6.35-7.638-9.67-9.582-.13 7.065-13.59 27.289-18.63 32.207-.67.656-1.32 1.113-2.09 1.637 4.12 2.108 15.66 10.721 17.17 14.905.08.219.11.453.17.679-.87 2.888-32.11 29.994-36.58 33.031-1.07-3.807-3.58-7.704-5.42-11.239l-.66.153-1.25 3.121c3.39 6.794-10.66 54.937-13.82 64.451q-2.41 7.353-5.15 14.591-2.73 7.238-5.78 14.347-3.06 7.11-6.42 14.077-3.37 6.966-7.04 13.777-3.68 6.81-7.65 13.451-3.97 6.64-8.23 13.098-4.26 6.457-8.81 12.719-4.54 6.261-9.36 12.315c-6 7.532-12.64 14.637-18.99 21.873-5.54 3.115-30.68 7.76-38.04 8.764-1.66-1.093-.12-8.738.1-10.828 1.98-18.128 2.19-36.592 2.77-54.814q2.12-53.512.6-107.045c-.13-6.277.81-21.533-1.59-26.476 1.21-3.525.94-12.349-.34-15.718 1.99-4.325.3-30.504-1.33-35.841.29-3.34.44-6.798.06-10.132-.93-11.074-3.22-57.281-6.13-63.894.03-.164.07-.328.1-.493.41-3.009-.17-7.843-1.95-10.325 1.93-7.037-8.06-60.209-11.43-68.544.03-.153.08-.304.09-.458.19-2.152-.62-4.656-1.95-6.322.09-.551.14-.71.1-1.341-.5-7.519-11.21-44.587-16.43-49.257z"/>
  <path fill="#FEFEFE" d="M1226.39 403.766c3.99 1.221 26.86 11.107 30.02 13.48-.34 6.35-12.07 22.341-16.95 26.563-.79.683-1.42 1.12-2.35 1.572-2.52-4.5-9.97-9.28-14.85-10.77-2.35-4.969 2.72-11.924.54-17.312 1.89-2.368 4.39-9.384 3.93-12.493-.05-.358-.21-.709-.34-1.04zm-5.69 42.131c1.21-1.416 2.36-2.863 3.5-4.336 4.2.979 26.08 18.577 28.09 22.269.1.179.14.383.21.574-1.32 3.588-23.11 22.373-27.69 24.396-.31.136-.63.255-.94.382-.1-3.052-3.26-8.471-5.5-10.508-.35-.317-.54-.424-.96-.701.08-.16.17-.315.24-.48 1.55-3.944 4.51-28.34 3.05-31.596z"/>
  <path fill="#BAE0C8" d="M1165.17 479.666l13.99-.249c.26.471.55.917.72 1.431 1.25 3.657 1.07 30.632-.66 33.696-16.1.221-32.22.117-48.33.164l-14.69.077c.35-.599.67-1.14.83-1.822 1-4.318.99-29.521-.79-32.824 16.3-.059 32.64.092 48.93-.473z"/>
  <path fill="#1CBB83" d="M1162.15 486.333c2.86-.079 5.48-.578 7.96.918.48 1.48.7 1.53.05 2.913-6.21 3.599-33.7 2.193-41.94 2.295-1.94.056-3.77.031-5.7-.224-.9-1.383-.82-1.554-.75-3.229 5.35-3.027 32.85-2.454 40.38-2.673z"/>
  <path fill="#FEFEFE" d="M1211.19 285.412c7.32 2.801 26.16 11.495 31.79 16.569-.17 3.65-10.3 15.579-13.3 18.163q-.72.63-1.51 1.183c9.94 4.855 20.34 16.038 24.05 26.536.59 1.656 1.12 3.135.84 4.911-2.99 3.721-22.95 15.403-27.54 16.981 4.46 3.643 35.76 42.402 35.91 43.935.02.172-.01.344-.02.516-10.11-4.073-24.86-12.768-33.94-15.417 1.94-4.781.13-21.814-1.95-26.589-.28-.648-.44-.845-.84-1.485.45-.921.96-1.933 1.07-2.963.72-6.79-14.35-72.18-17.47-75.805 1.29-1.66 3.03-3.875 2.97-6.1 0-.147-.04-.29-.06-.435z"/>
  <path fill="#FEFEFE" d="M1291.37 334.333l1.22.812c1.57 6.824.83 15.146.55 22.105-.45 11.414-7.57 61.679-14.77 68.351-.74-3.508-17.36-20.661-21.13-23.492-.67-2.693-21.49-28.538-24.34-30.784 7.77-3.196 15.34-9.109 22.34-13.748 11.95-7.921 23.79-15.929 36.13-23.244z"/>
  <path fill="#BAE0C8" d="M1116.64 272.712c15.63-.885 31.28-2.302 46.92-2.742 1.68 3.732-.61 19.444-2.33 23.326-.25.569-.43.789-.75 1.265 8.86.964 34.05 4.811 39.72 11.017.11.118.19.261.28.391 3.02-2.617 6.94-10.098 7.8-14.022 3.12 3.625 18.19 69.015 17.47 75.805-.11 1.03-.62 2.042-1.07 2.963.31-2.705-1.15-5.768-2.28-8.19q-.82-1.723-1.72-3.403-.9-1.681-1.89-3.315-.98-1.635-2.04-3.219-1.07-1.585-2.2-3.116-1.14-1.531-2.35-3.004-1.21-1.473-2.5-2.886-1.28-1.413-2.63-2.761-1.35-1.348-2.76-2.629-1.41-1.281-2.89-2.491-1.47-1.21-3-2.347-1.54-1.137-3.12-2.198-1.59-1.061-3.22-2.043-1.64-.982-3.32-1.883t-3.4-1.719q-1.72-.818-3.48-1.551-1.77-.733-3.56-1.379c-29.82-10.725-64.99-3.069-87.07 19.881-2.03 2.113-10.2 13.788-12 14.497-.27.107-.55.191-.82.286 1.93-7.037-8.06-60.209-11.43-68.544.12-.073.25-.144.37-.219 1.54-.964 3.49-3.3 5.03-3.848 2.49 4.821 9.47 22.324 9.51 27.339l.58-.259c14.39-6.621 16.45-9.6 33.4-13.552 2.33-.544 5.78-.957 7.83-2.152.63-3.497-4.18-19.188-6.17-22.241-.22-.336-.66-.788-.91-1.057z"/>
  <path fill="#BAE0C8" d="M1048.81 231.323c11.87-4.483 91.81-60.089 100.79-69.998 20.36 25.927 36.53 54.586 46.8 86.049 2.75 8.426 5.1 17.02 7.56 25.538.85 2.971 1.45 6.95 2.79 9.667.01.329.01.659-.02.987-.18 2.673-6.77 13.606-9.01 15.609-5.43-5.415-23.55-8.176-31.3-8.975.15-.266.3-.528.44-.797 1.58-3.051 4.11-22.273 3.25-25.091-20.23 1.074-40.63 2.811-60.88 2.966.24.274.46.554.67.845 2.31 3.205 7.76 20.494 7.26 23.856-3.7 2.049-9.59 2.879-13.74 4.277-6.59 2.222-12.89 4.934-19.25 7.762.99-4.931-6.92-25.087-9.68-29.414-2.23 2.771-5.96 6.229-9.35 7.317.09-.551.14-.71.1-1.341-.5-7.519-11.21-44.587-16.43-49.257zm31.47 136.74c.25-.22.5-.435.74-.662 3.34-3.135 6.84-12.055 9.79-16.185 13.17-18.461 37.21-28.255 59.4-28.329 19.48-.065 38.94 7.254 52.81 21.085 13.78 13.742 20.14 29.258 20.13 48.737 0 17.669-8.8 34.494-21.17 46.788-14.51 14.415-33.73 21.451-54.06 21.358-22.99-.105-40.85-7.517-56.68-24.019-1.38-1.44-3.07-4.036-4.83-4.879-.93-11.074-3.22-57.281-6.13-63.894z"/>
  <path fill="#1CBB83" d="M1147.88 348.333c13.68-.314 25.33 3.469 35.45 12.94 8.53 7.986 12.61 18.533 12.88 30.142.27 11.769-4.43 22.708-12.59 31.114q-.83.86-1.69 1.678-.87.818-1.78 1.592-.9.774-1.85 1.503-.94.728-1.92 1.41-.98.681-1.99 1.312-1.01.632-2.05 1.213-1.04.582-2.11 1.111-1.07.529-2.16 1.004-1.09.476-2.21.897-1.12.421-2.25.787-1.13.365-2.29.674-1.15.309-2.31.561-1.17.252-2.34.446-1.18.194-2.36.329-1.19.136-2.38.213-1.19.077-2.38.095-1.03.023-2.07 0-1.03-.023-2.07-.091-1.03-.069-2.06-.183-1.02-.115-2.05-.274-1.02-.16-2.03-.365-1.02-.205-2.02-.454-1-.25-2-.543-.99-.294-1.97-.632-.97-.337-1.94-.717-.96-.381-1.9-.803-.95-.423-1.87-.887-.93-.464-1.83-.969-.9-.504-1.78-1.048t-1.74-1.127q-.85-.583-1.68-1.202-.83-.62-1.63-1.276c-9.01-7.34-15.51-18.482-16.54-30.144-1.01-11.367 3.34-22.843 10.66-31.459 8.68-10.209 21.66-15.816 34.85-16.847z"/>
  <path fill="#BAE0C8" d="M1142.56 353.665c12.45-1.157 23.09.246 33.32 7.978q.77.581 1.51 1.198.74.618 1.45 1.272t1.38 1.342q.68.688 1.32 1.409.64.72 1.24 1.472.61.751 1.18 1.532.56.78 1.09 1.588.53.807 1.01 1.64.49.833.93 1.688.45.856.85 1.733.4.876.76 1.772.36.895.67 1.807.31.912.58 1.839.27.926.49 1.865.22.938.4 1.887.17.948.3 1.904.12.92.19 1.845.07.925.1 1.852.02.928 0 1.855-.02.927-.09 1.853-.06.925-.18 1.846-.11.92-.27 1.834-.16.914-.36 1.819-.21.905-.46 1.799-.24.893-.54 1.773-.29.88-.63 1.745-.33.864-.71 1.71-.38.847-.81 1.673-.42.827-.88 1.631t-.96 1.585q-.5.78-1.04 1.534-.54.755-1.12 1.481c-7.17 9.106-17.51 14.595-28.94 15.916-9.06 1.279-18.45-.136-26.45-4.64q-.85-.481-1.68-1.003-.82-.522-1.63-1.084-.8-.561-1.57-1.161t-1.51-1.237q-.74-.637-1.45-1.31-.71-.672-1.39-1.378-.68-.706-1.32-1.444t-1.25-1.507q-.6-.769-1.17-1.566-.56-.797-1.09-1.621-.53-.823-1.01-1.672-.49-.848-.93-1.72-.45-.871-.85-1.763-.4-.891-.76-1.802-.36-.91-.67-1.837-.31-.926-.58-1.867c-2.73-9.909-.91-20.088 4.27-28.874 6.55-11.101 17.09-17.012 29.26-20.191z"/>
  <path fill="#BAE0C8" d="M1086.35 442.089l.98-.763c3.86 3.009 7.29 6.597 11.14 9.669 9.27 7.405 21.95 12.097 33.58 14.015 22.09 3.644 46.46-1.008 64.62-14.281 7.88-5.755 24.58-23.154 26.13-33.43 2.18 5.388-2.89 12.343-.54 17.312-5.13 11.923-16.02 22.05-26.81 28.919-2.63 1.677-6.06 2.815-8.5 4.638-2.67 2.001 1.14 3.941-1.04 5.508-10.14 1.115-20.65.835-30.84.91-14.85.109-29.63.268-44.47.781 1.73 3.042 2.09 39.272.91 43.386-.11.393-.4.941-.56 1.28 23.25.238 49.92.476 73.13-.726 2.36-4.22 2.47-38.582 1.3-44.474 11.48-4.946 30.54-17.046 35.28-28.779.02-.05.03-.105.04-.157 1.46 3.256-1.5 27.652-3.05 31.596-.07.165-.16.32-.24.48l-1.09-1.12c-3.11.089-4.88 3.3-7.57 4.695 2.54 2.061 4.98 5.009 6.68 7.8 3.39 6.794-10.66 54.937-13.82 64.451q-2.41 7.353-5.15 14.591-2.73 7.238-5.78 14.347-3.06 7.11-6.42 14.077-3.37 6.966-7.04 13.777-3.68 6.81-7.65 13.451-3.97 6.64-8.23 13.098-4.26 6.457-8.81 12.719-4.54 6.261-9.36 12.315c-6 7.532-12.64 14.637-18.99 21.873-5.54 3.115-30.68 7.76-38.04 8.764-1.66-1.093-.12-8.738.1-10.828 1.98-18.128 2.19-36.592 2.77-54.814q2.12-53.512.6-107.045c-.13-6.277.81-21.533-1.59-26.476 1.21-3.525.94-12.349-.34-15.718 1.99-4.325.3-30.504-1.33-35.841z"/>
  <path fill="#1CBB83" d="M1087.68 477.93c6.02 2.684 12.08 5.607 18.52 7.137 1.21 1.643.91 2.251.85 4.241l-.67 1.136c-6.08.811-12.68-4.741-18.6-6.013 1.46 2.964 1.6 5.318.52 8.46-.09.255-.19.504-.28.757 1.21-3.525.94-12.349-.34-15.718z"/>
  <path fill="#BAE0C8" d="M1212.85 92.808c1.64.199 2.42-.032 3.48 1.454 1.15 1.615 1 3.974.73 5.831-4.52 7.347-61.11 57.782-67.46 61.232-8.98 9.909-88.92 65.515-100.79 69.998 5.22 4.67 15.93 41.738 16.43 49.257.04.631-.01.79-.1 1.341 1.33 1.666 2.14 4.17 1.95 6.322-.01.154-.06.305-.09.458 3.37 8.335 13.36 61.507 11.43 68.544 1.78 2.482 2.36 7.316 1.95 10.325-.03.165-.07.329-.1.493 2.91 6.613 5.2 52.82 6.13 63.894.38 3.334.23 6.792-.06 10.132 1.63 5.337 3.32 31.516 1.33 35.841 1.28 3.369 1.55 12.193.34 15.718 2.4 4.943 1.46 20.199 1.59 26.476q1.52 53.533-.6 107.045c-.58 18.222-.79 36.686-2.77 54.814-.22 2.09-1.76 9.735-.1 10.828-3.22 1.61-7.64 2.321-11.23 2.547-2.28 1.812-124.619 29.075-140.567 32.99l2.113-435.876c-.044-2.798.042-5.609.078-8.408.464-20.317-.02-40.712.167-61.043.13-14.057 1.642-30.194-.236-43.971l-1.49-1.112c-5.572-.084-12.184 2.118-17.746 3.2q-22.794 4.312-45.515 8.995c-32.809 6.757-65.826 12.574-98.603 19.464-5.124 1.17-10.263 2.008-15.453 2.817 11.781-12.711 23.532-25.161 36.673-36.509 9.638-8.323 21.857-15.097 29.755-24.907 1.139-1.416 4.265-.229 6.933-1.769 3.922-2.262 7.6-4.891 11.6-7.038q3.468-1.861 7.021-3.555 3.552-1.694 7.182-3.216 3.629-1.522 7.327-2.869 3.698-1.347 7.456-2.516 3.758-1.169 7.568-2.158 3.809-.988 7.661-1.793 3.853-.806 7.739-1.426 3.886-.621 7.798-1.055c34.682-3.522 68.015 5.187 95.131 27.387 18.768 15.367 32.948 35.983 43.668 57.589 2.12 4.281 5.29 10.047 5.76 14.785.54-.198 1.05-.38 1.54-.664 12.12-6.924 93.09-60.375 95.18-67.236 1.35-.502 2.59-1.262 3.72-2.142 9.12-7.075 64.67-54.163 65.48-60.514z"/>
  <path fill="#1CBB83" d="M1063.66 318.059c1.89 2.301 2.14 6.933 2.09 9.838l-.24-.104c-2.51 1.39-4.4 7.546-6.56 9.934-.34-.194-.86-.476-1.19-.731-6.06-4.634 6.5-13.341 5.9-18.937zm-31.14 75.056c6.92-.605 32.52-5.744 37-2.929.83 1.512.87 1.705.76 3.428-6.96 2.714-23.18 3.404-31.14 3.878 2.42 3.773 4.6 16.961 6.84 22.574 1.78 4.449 7.98 10.64 8 15.022-2.79 3.136-15.61 9.42-19.79 11.129 1.81 1.662 14.94 24.198 15.32 26.542 5.47-1.655 14.29-6.683 18.04-11.14 2.86 1.579 4.82 4.452 7 6.846 1.26 1.385 2.53 3.021 4.45 3.124.57-1.88-.07-3.723-.5-5.585 1.93 3.042 1.66 8.26.91 11.681-.15.655-.42 1.146-.74 1.726-2.75-3.784-8.11-7.855-12.09-10.367-3.28 4.413-13.32 9.761-18.64 11.464-.01-.233-.01-.466-.03-.699-.08-1.242-19.05-33.681-20.97-35.346 4.18-1.802 16.56-7.96 19.5-11.093.07-3.547-4.43-9.442-6.03-12.799-3.36-7.081-4.38-22.498-7.89-27.456zm.96-88.134c.44.18.92.273 1.32.54 2.04 1.383 28.69 55.006 31.28 61.072 1.42 3.338 3.65 7.735 2.22 11.332-6.88 1.551-14.58 1.669-21.63 2.146q-17.72 1.101-35.42 2.448c-11.17.567-22.278 2.076-33.471 2.296 4.56-8.34 10.587-16.151 16.142-23.864l24.299-33.478c5.21-7.108 11.44-14.572 15.26-22.492z"/>
  <path fill="#BAE0C8" d="M1033.4 314.308c.68.424.5.257 1.12.91 1.17 1.214 26.06 50.384 27.83 54.882.43 1.086.41 1.976.35 3.118-10.67 2.591-33.71 2.819-45.78 3.615-9.52.956-19.172 1.399-28.722 2.006 5.545-10.067 13.512-19.311 20.292-28.59q12.82-17.72 24.91-35.941z"/>
  <path fill="#1CBB83" d="M1212.85 92.808c1.64.199 2.42-.032 3.48 1.454 1.15 1.615 1 3.974.73 5.831-4.52 7.347-61.11 57.782-67.46 61.232-8.98 9.909-88.92 65.515-100.79 69.998 5.22 4.67 15.93 41.738 16.43 49.257.04.631-.01.79-.1 1.341 1.33 1.666 2.14 4.17 1.95 6.322-.01.154-.06.305-.09.458 3.37 8.335 13.36 61.507 11.43 68.544 1.78 2.482 2.36 7.316 1.95 10.325-.03.165-.07.329-.1.493 2.91 6.613 5.2 52.82 6.13 63.894.38 3.334.23 6.792-.06 10.132 1.63 5.337 3.32 31.516 1.33 35.841 1.28 3.369 1.55 12.193.34 15.718 2.4 4.943 1.46 20.199 1.59 26.476q1.52 53.533-.6 107.045c-.58 18.222-.79 36.686-2.77 54.814-.22 2.09-1.76 9.735-.1 10.828-3.22 1.61-7.64 2.321-11.23 2.547.61-.553 1-1.03 1.21-1.839 4.42-16.462 7.61-204.34 2.55-214.108.32-.58.59-1.071.74-1.726.75-3.421 1.02-8.639-.91-11.681 3.53-10.561-8.49-128.973-12.75-138.107.05-2.905-.2-7.537-2.09-9.838.08-.416.24-1.078.26-1.535.24-4.483-2.22-19.972-5.12-23.235-1.59 2.157-2.93 3.576-5.17 5.103-.7-2.319-3.01-3.574-4.96-4.752 3.06-1.667 7.37-4.463 8.85-7.682 1.42-4.585-10.74-44.223-13.56-49.367-.36-.661-.85-1.245-1.34-1.813-6.49 7.449-91.657 52.687-106.164 57.694-.044-2.798.042-5.609.078-8.408 5.224-.549 95.506-48.892 103.786-56.28.35-11.744-23.77-45.736-32.19-55.286-21.993-24.961-51.085-39.571-84.363-41.588-25.885-1.569-63.232 8.256-84.353 23.375-2.32 1.66-4.205 4.134-6.364 6.044a10.255 10.255 0 01-1.9-.097c-.22-.031-.439-.069-.658-.104-20.226 12.972-43.193 29.893-57.381 49.469-5.124 1.17-10.263 2.008-15.453 2.817 11.781-12.711 23.532-25.161 36.673-36.509 9.638-8.323 21.857-15.097 29.755-24.907 1.139-1.416 4.265-.229 6.933-1.769 3.922-2.262 7.6-4.891 11.6-7.038q3.468-1.861 7.021-3.555 3.552-1.694 7.182-3.216 3.629-1.522 7.327-2.869 3.698-1.347 7.456-2.516 3.758-1.169 7.568-2.158 3.809-.988 7.661-1.793 3.853-.806 7.739-1.426 3.886-.621 7.798-1.055c34.682-3.522 68.015 5.187 95.131 27.387 18.768 15.367 32.948 35.983 43.668 57.589 2.12 4.281 5.29 10.047 5.76 14.785.54-.198 1.05-.38 1.54-.664 12.12-6.924 93.09-60.375 95.18-67.236 1.35-.502 2.59-1.262 3.72-2.142 9.12-7.075 64.67-54.163 65.48-60.514z"/>
  <path fill="#BAE0C8" d="M773.111 209.597c14.188-19.576 37.155-36.497 57.381-49.469.219.035.438.073.658.104.666.095 1.233.12 1.9.097 2.159-1.91 4.044-4.384 6.364-6.044 21.121-15.119 58.468-24.944 84.353-23.375 33.278 2.017 62.37 16.627 84.363 41.588 8.42 9.55 32.54 43.542 32.19 55.286-8.28 7.388-98.562 55.731-103.786 56.28.464-20.317-.02-40.712.167-61.043.13-14.057 1.642-30.194-.236-43.971l-1.49-1.112c-5.572-.084-12.184 2.118-17.746 3.2q-22.794 4.312-45.515 8.995c-32.809 6.757-65.826 12.574-98.603 19.464z"/>
  <path d="M841.052 166.339c4.031 1.19 8.934 5.99 11.375 9.405 1.324 1.852 1.246 2.344.847 4.432-.965-.17-1.57-.306-2.344-.949-3.45-2.864-9.53-8.374-9.878-12.888zm-67.941 43.258c32.777-6.89 65.794-12.707 98.603-19.464q22.721-4.683 45.515-8.995c5.562-1.082 12.174-3.284 17.746-3.2l1.49 1.112c1.878 13.777.366 29.914.236 43.971-.187 20.331.297 40.726-.167 61.043-.036 2.799-.122 5.61-.078 8.408l-2.113 435.876c15.948-3.915 138.287-31.178 140.567-32.99 3.59-.226 8.01-.937 11.23-2.547 7.36-1.004 32.5-5.649 38.04-8.764.21-.02.42-.038.63-.061 12.56-1.382 32.87-7.449 45.86-10.551L1277 648.248q13.94-3.254 27.8-6.855c5-1.303 10.25-3.134 15.32-3.947 2.29-.367 5.63-.487 7.49 1.087.16.136.29.31.43.465-.13 1.187-.01 1.334-.93 2.105-1.52 1.277-3.28 2.111-5.16 2.705-9.32 2.938-19.37 4.486-28.87 6.881q-45.07 11.445-90.47 21.496l-130.87 31.129c-45.78 10.443-91.965 19.766-137.373 31.736-.174 2.555-.028 5.326-1.465 7.523-2.794 2.383-72.244 16.183-82.139 18.32-46.764 10.102-93.237 21.723-139.951 32.084-17.083 3.789-34.401 8.828-51.692 11.415-4.987 14.016-10.97 27.741-15.666 41.835 8.051-2.119 30.02-9.921 36.897-10.061 7.363-.148 37.481 8.165 47.287 10.305l55.279 11.71c12.231 2.52 25.035 4.542 36.889 8.48.141 3.188 1.081 8.817-1.214 11.256-2.804 2.98-234.669 79.606-253.592 84.594-2.163.57-5.18-.307-7.315-.817-13.651-3.262-27.198-7.495-40.737-11.228l-49.762-13.251c-12.512-3.422-34.044-7.773-45.226-12.802q-.084-6.19.003-12.38c29.772-8.222 59.418-17.426 89.031-26.238 17.598-5.238 35.979-11.309 54.013-14.652 5.659-15.93 12.111-32.543 19.481-47.757l-181.891 44.406-241.629 55.041q-44.852 10.215-89.827 19.878c-11.474 2.491-23.165 6.054-34.698 7.893-2.377.379-4.406.595-6.635-.485-.65-1.408-.543-1.744-.36-3.309 4.41-4.073 22.078-5.955 28.71-7.721 3.058-.379 6.041-1.196 9.03-1.926 21.455-5.231 43.243-10.067 64.887-14.452.86-7.97 1.069-15.999 1.985-23.968 2.94-25.577 8.57-49.882 16.988-74.172 11.362-31.507 28.935-59.292 51.272-84.177 7.33-8.166 16.099-15.118 22.735-23.895l.531-.709c-1.354-7.569-.249-24.139-.25-32.584l.083-80.227.07-12.008-.078-4.143c.664-7.817.343-15.918.392-23.767q.213-18.811.092-37.623c-1.754-.448-3.504-1.41-5.097-2.282-7.078-3.872-3.24-15.659-5.491-22.713-.061-.191-.127-.379-.19-.568 2.313-1.975 5.183-3.3 7.58-5.2 2.091-1.656 2.332-2.754 2.661-5.233-3.52-5.856-11.925-23.413-17.581-26.164 4.862-5.646 11.698-10.687 17.292-15.693-.055-3.456.07-6.834.323-10.28.499-9.949.051-20.119.018-30.093l-.107-56.262c-.011-9.967-1.254-21.95.633-31.719 1.354-1.561 4.454-2.167 6.417-2.636 11.358-2.711 22.999-4.702 34.454-6.989l75.765-14.929q126.624-25.836 253.498-50.397c29.514-5.304 58.796-11.819 88.26-17.367q23.596-4.316 47.117-9.02c8.717-1.72 17.639-3.148 26.211-5.479 5.19-.809 10.329-1.647 15.453-2.817z"/>
  <path fill="#BAE0C8" d="M225.392 437.305c1.033 17.135.462 34.601.451 51.772q.229 18.18.052 36.361c-1.754-.448-3.504-1.41-5.097-2.282-7.078-3.872-3.24-15.659-5.491-22.713-.061-.191-.127-.379-.19-.568 2.313-1.975 5.183-3.3 7.58-5.2 2.091-1.656 2.332-2.754 2.661-5.233-3.52-5.856-11.925-23.413-17.581-26.164 4.862-5.646 11.698-10.687 17.292-15.693-.055-3.456.07-6.834.323-10.28z"/>
  <path fill="#1CBB83" d="M815.169 871.441l.742.306.556 1.595-.739 1.432c-9.975 5.015-21.916 8-32.563 11.489l-47.924 16.038q-55.564 18.689-111.334 36.756c-18.317 6.007-36.64 12.775-55.145 18.13-2.198.636-4.393 1.114-6.702.977-10.533-.624-28.658-7.806-39.64-10.841-14.694-4.061-29.54-7.575-44.262-11.543-17.031-4.591-34.019-9.614-51.198-13.614-.258-.152-.554-.254-.775-.456-1.265-1.163-.825-2.863-.777-4.392.861-.77.472-.829 1.72-.487q50.811 14.44 101.943 27.699c9.31 2.38 25.77 7.734 34.959 7.904 8.5.157 37.601-11.002 47.922-14.304q60.06-18.931 119.752-38.995l52.091-17.275c10.446-3.489 20.772-7.423 31.374-10.419zM652.122 805.44c.901.049.455-.101 1.27.618a38.16 38.16 0 01-.676 2.447c-3.264 10.109-7.605 19.971-11.286 29.943-4.177 11.313-6.932 24.545-13.559 34.723q-.594.929-1.248 1.817-.654.888-1.367 1.73-.712.842-1.478 1.635-.767.793-1.585 1.532-.818.74-1.683 1.424-.866.683-1.775 1.308-.909.624-1.857 1.186-.949.562-1.933 1.06c-12.449 6.386-28.953 6.639-42.096 2.517-.176-.088-.355-.168-.527-.263-2.063-1.145-4.404-2.673-5.016-5.102-1.664-6.597 19.28-53.252 23.495-61.096 7.715-3.479 17.192-4.924 25.432-6.86l35.889-8.619z"/>
  <path fill="#BAE0C8" d="M225.586 715.79c.759 10.883.344 22 .298 32.909l-.103 52.041.094 52.756c.018 8.977.574 18.288-.097 27.216-.099 4.509-1.312 13.723 1.851 17.233 1.057 1.172 2.426 1.682 3.983 1.684 3.139.003 9.786-4.149 11.878-2.585-4.146 2.042-9.335 2.533-13.807 3.772-21.276 5.894-43.326 9.913-64.898 14.629-8.106 1.771-16.623 3.19-24.551 5.592l-8.159 1.674c.86-7.97 1.069-15.999 1.985-23.968 2.94-25.577 8.57-49.882 16.988-74.172 11.362-31.507 28.935-59.292 51.272-84.177 7.33-8.166 16.099-15.118 22.735-23.895l.531-.709z"/>
  <path fill="#1CBB83" d="M225.586 715.79c.759 10.883.344 22 .298 32.909l-.103 52.041.094 52.756c.018 8.977.574 18.288-.097 27.216-.316-3.999-.194-8.105-.252-12.121-.725-15.847-.115-31.999-.128-47.874l.113-92.931c-33.864 34.438-50.024 58.114-68.265 102.927-10.369 28.866-15.568 59.717-17.012 90.324l-8.159 1.674c.86-7.97 1.069-15.999 1.985-23.968 2.94-25.577 8.57-49.882 16.988-74.172 11.362-31.507 28.935-59.292 51.272-84.177 7.33-8.166 16.099-15.118 22.735-23.895l.531-.709z"/>
  <path fill="#FEFEFE" d="M157.246 830.713c23.641 18.053 42.772 24.95 68.28 37.878.058 4.016-.064 8.122.252 12.121-.099 4.509-1.312 13.723 1.851 17.233 1.057 1.172 2.426 1.682 3.983 1.684 3.139.003 9.786-4.149 11.878-2.585-4.146 2.042-9.335 2.533-13.807 3.772-21.276 5.894-43.326 9.913-64.898 14.629-8.106 1.771-16.623 3.19-24.551 5.592 1.444-30.607 6.643-61.458 17.012-90.324zm523.511 9.365c6.854.775 13.986 3.016 20.749 4.516l42.403 9.302q16.229 3.656 32.507 7.088c11.031 2.246 22.073 3.984 32.765 7.622-24.305 9.212-49.574 16.732-74.26 24.934q-58.479 19.889-117.411 38.394c-12.859 3.963-39.739 14.225-51.431 15.875-6.463.912-14.102-1.976-20.325-3.567-38.468-9.119-77.222-19.248-115.088-30.656 44.543-12.007 88.453-26.509 133.073-38.374-.479 2.723-.997 5.657.032 8.319 1.507 3.898 5.089 6.651 8.864 8.159 12.42 4.96 31.066 3.039 43.083-2.335 16.189-7.239 20.224-22.885 26.014-38.179 13.029-3.571 25.925-7.836 39.025-11.098z"/>
  <path fill="#1CBB83" d="M929.31 185.504l.655.064c1.651 2.685.599 37.736.656 44.776-11.59 1.885-23.038 4.786-34.567 7.033l-76.862 15.019-147.303 28.416Q538.534 305.49 405.666 332.68c-53.429 10.387-107.181 19.733-160.375 31.24.81 17.331.166 34.83.082 52.181l.065 75.335-.002 271.297-.097 69.709c-.033 9.806-1.544 29.453.786 38.19 2.663 1.731 9.653.204 12.646-.409 34.496-7.057 68.791-15.492 103.07-23.54l118.168-27.271q223.558-52.613 448.254-100.111l-.279 18.49c-3.835 1.016-7.787 1.704-11.674 2.502L359.857 868.417c-19.489 4.438-39.094 9.292-58.76 12.838-23.111 4.168-46.988 7.133-69.807 12.519l-.053-400.614c-.079-56.825.854-113.807-.441-170.613 33.911-4.734 67.711-13.054 101.302-19.793l180.308-36.069 416.904-81.181z"/>
  <path d="M896.92 203.372c1.571.121 3.239.383 4.713.946 3.163 1.207 5.769 3.42 6.973 6.636 1.4 3.736.816 7.983-.963 11.486-2.292 4.515-5.585 6.765-10.223 8.306-2.111-.044-4.316-.116-6.266-.999q-.526-.235-1.027-.521-.5-.286-.97-.62-.47-.333-.905-.712-.434-.378-.83-.797-.395-.42-.748-.876-.352-.456-.658-.945-.305-.488-.562-1.005-.256-.516-.46-1.055c-1.413-3.819-.96-8.137.887-11.724 2.506-4.87 6.111-6.545 11.039-8.12z"/>
  <path fill="#FEFEFE" d="M894.11 208.753c.848-.117 1.688-.23 2.542-.288 2.362-.158 4.436.32 6.174 2.018 1.574 1.538 2.144 3.647 1.982 5.803-.319 4.239-2.49 6.577-5.56 9.127-1.256.216-2.581.475-3.859.372-2.201-.177-4.41-1.341-5.681-3.166-1.27-1.823-1.57-4.099-1.221-6.254.599-3.7 2.705-5.577 5.623-7.612z"/>
  <path d="M823.858 217.398c2.028-.13 4.278-.39 6.277.031 2.869.604 5.483 2.596 6.927 5.131 1.766 3.101 1.912 6.889.98 10.279-1.461 5.313-4.667 8.37-9.391 10.908-2.235.13-4.967.459-7.136-.191-3.038-.911-5.737-3.391-7.032-6.268-1.514-3.363-1.419-7.401-.13-10.813 1.821-4.817 4.999-7.129 9.505-9.077z"/>
  <path fill="#FEFEFE" d="M824.495 221.338c.779-.015 1.539-.031 2.316.045 2.598.258 4.822 1.181 6.372 3.362 1.457 2.05 1.697 4.471 1.1 6.876-.965 3.89-3.277 5.672-6.471 7.674-1.326.112-2.742.279-4.066.103-1.948-.259-3.71-1.515-4.783-3.137-1.356-2.05-1.527-4.562-.948-6.904 1.001-4.046 3.104-5.942 6.48-8.019z"/>
  <path d="M859.819 210.104c1.7-.03 3.5-.113 5.15.351 2.94.827 5.633 2.844 7.117 5.524 1.865 3.369 1.938 7.648.772 11.257-1.809 5.597-5.342 8.169-10.338 10.592-2.054.144-4.321.216-6.274-.505q-.527-.196-1.031-.443-.505-.247-.983-.542-.478-.296-.924-.638-.447-.341-.857-.725-.41-.384-.781-.807-.37-.422-.697-.88-.327-.457-.607-.944-.28-.487-.51-1c-1.676-3.707-1.417-8.242.065-11.967 1.991-5.004 5.159-7.274 9.898-9.273z"/>
  <path fill="#FEFEFE" d="M860.773 214.706c1.021-.035 2.001-.074 3.007.145 2.083.454 3.965 1.641 4.986 3.552 1.217 2.277.989 4.856.181 7.231-1.393 4.099-3.719 5.864-7.362 7.755-1.024-.033-2.106-.054-3.108-.285-2.006-.461-4.009-2.061-4.986-3.857-1.363-2.504-1.096-5.248-.113-7.839 1.4-3.694 4.025-5.158 7.395-6.702zm65.278 23.508c1.839-.198 3.222-.69 4.862.282.703 7.494.312 15.194.277 22.724l-.25 37.758-.809 112.506-1.656 301.101c-19.267 5.157-39.194 8.145-58.659 12.526l-158.938 35.531-455.217 104.374c-1.246.234-2.013.28-3.251-.008-.546-.731-.856-1.226-.899-2.165-.858-18.687.219-37.956.256-56.695l.006-117.641c-.065-106.509-1.232-213.086-.109-319.587 14.409-3.239 29.099-5.661 43.599-8.498q51.57-10.427 103.295-20.055 139.783-28.231 279.932-54.576l149.272-28.929c32.642-6.465 65.406-13.562 98.289-18.648z"/>
  <path d="M662.781 308.131c.083.012.172.003.249.036 1.197.514 1.736.799 2.168 2.063 1.699 4.957.569 87.953.578 101.723l-.026 76.93c-.033 8.346.394 16.791.155 25.116-.066 2.268-.288 4.283-1.214 6.383-1.752 1.296-3.799 1.797-5.89 2.299-17.793 4.274-36.269 7.006-54.238 10.624q-56.87 11.924-113.935 22.875c-1.162-.475-2.216-1.159-2.696-2.352-.81-2.014-.745-4.686-.772-6.825-.226-18.181-.122-197.631 1.42-201.075 1.683-1.438 3.429-2.249 5.541-2.855 19.918-5.718 45.294-9.77 65.969-13.866l102.691-21.076z"/>
  <path fill="#FEFEFE" d="M656.872 314.842c1.608-.217 1.775-.415 3.123.436 1.513 5.203.577 50.109.567 58.643l.295 143.035c-19.615 2.6-39.491 7.608-58.928 11.499L496.908 549.49c-.999.176-2.028.266-3.035.394-1.135-1.275-.94-2.63-1.006-4.289-.916-22.91-.09-46.092.005-69.034l.045-127.866c18.497-3.497 36.896-7.732 55.328-11.572l108.627-22.281z"/>
  <path d="M567.551 509.505c.859-.131 1.654-.291 2.522-.149 1.504.245 1.473.516 2.311 1.715l-.288 1.251c-3.553 3.129-38.794 9.293-46.742 11.146-.449.108-1.36.402-1.857.348-1.571-.173-2.108-1.091-3.109-2.152l.136-1.295c4.465-3.749 39.381-9.329 47.027-10.864zm10.754-12.7l1.687.364.885 1.463-.411 1.656c-3.799 3.353-48.057 11.025-55.792 12.46l-2.127-.154c-1.213-1.144-1.454-1.256-1.807-2.859 3.478-3.234 49.763-11.277 57.565-12.93zm4.349-145.893c2.683.174 5.112.405 7.582 1.589 7.399 3.547 7.061 7.79 9.416 14.611 1.303.614 2.783 1.211 3.635 2.432 5.272 7.553-4.526 8.972-6.148 17.108-.743 3.726-2.084 5.817-4.276 8.928-.69.978-.811 1.035-.921 2.275 8.898 2.377 18.149 3.783 25.517 9.71 13.543 10.894 20.76 30.478 22.678 47.231-12.802 4.871-39.85 8.914-54.425 11.856-8.587 1.585-41.514 9.688-47.74 7.443-.352-.906-.49-1.575-.53-2.559-.472-11.581 8.249-50.452 16.669-57.985 5.497-4.917 14.282-6.811 19.143-12.153 1.048-1.152 1.05-1.385.966-2.845-4.733-4.94-11.58-12.306-12.806-19.202-.997-5.61.753-14.952 4.126-19.463 3.941-5.273 10.78-8.095 17.114-8.976z"/>
  <path fill="#1CBB83" d="M581.562 355.413c.406-.006.671-.02 1.061.006 2.44.161 6.323.747 7.859 2.782.544.72.222 1.282.105 2.104-1.647 1.912-3.723 2.643-5.978 3.634-3.568.222-5.483-.143-8.616-1.901-1.028-1.504-1.035-1.413-.782-3.212 1.534-2.024 4.04-2.579 6.351-3.413z"/>
  <path fill="#FEFEFE" d="M588.683 398.981l.419.2c2.438 5.329 3.26 3.588 7.142 6.743.256 1.799.364 2.607-.782 4.117-3.503 4.615-11.076 6.888-16.547 7.352-2.515-.592-6.34-1.138-8.01-3.282-3.132-4.021 5.798-6.537 6.92-13.159.042-.251.079-.503.118-.754 3.632-.148 7.151-.664 10.74-1.217zm-18.823-37.959c.975.859 1.604 1.667 2.378 2.71 2.133 2.873 5.895 4.818 9.461 5.153 4.776.449 9.134-2.472 12.639-5.339.177 9.365 1.265 18.461-3.225 26.997-2.097 2.586-4.629 4.817-8.056 5.281-2.76.374-5.226-.585-7.375-2.281-5.462-4.307-7.14-11.576-8.045-18.113-.766-5.537-1.286-9.772 2.223-14.408z"/>
  <path fill="#BAE0C8" d="M542.138 469.786c1.331-13.942 6.07-45.753 16.864-55.067 1.404-1.212 3.274-2.167 5.157-2.22l.592 1.487-.15-.883c3.033 4.618 5.057 6.892 10.673 8.021 5.762 1.158 13.474.401 18.465-2.892 5.508-3.633 4.434-13.459 10.499-12.366 8.335 1.503 13.787 7.421 18.308 14.213 6.373 9.575 9.909 20.139 12.982 31.104l-17.478 3.56c-.831-6.328-2.271-24.554-6.297-29.135-1.463-.248-1.587-.121-2.944.527-.279.698-.413 1.221-.264 1.975 1.882 9.484 3.847 18.259 4.823 27.924-6.783 1.429-51.165 11.261-54.484 9.902-1.216.721-1.728 1.005-3.198.955l-.846-1.413c-.71 1.554-.625 1.796-2.323 2.352-3.226 1.055-7.014 1.413-10.379 1.956z"/>
  <path d="M554.84 465.478c.539-5.257 1.409-22.414 4.291-25.867l1.497-.298c1.163 1.231.972 2.343.913 3.983-.271 7.503-1.972 15.141-2.657 22.64-1.216.721-1.728 1.005-3.198.955l-.846-1.413zm108.475 69.382l.764.114c.544.483 1.242.848 1.408 1.574 1.366 5.969.131 30.417.142 38.406l.012 124.249c-.009 6.145 1.044 44.425-.954 47.615-8.562 2.936-17.63 4.603-26.451 6.603l-44.402 9.908c-34.645 7.705-69.078 16.402-103.782 23.836-1.378-.787-2.251-1.185-2.646-2.833-1.157-4.829-.182-10.862-.18-15.827l.009-38.356-.016-100.889c-.009-17.024-.443-34.152-.003-51.168.066-2.538-.089-5.035 1.303-7.183 1.96-1.232 3.943-1.964 6.176-2.503 5.753-1.39 11.764-2.092 17.589-3.176 11.76-2.189 23.535-4.704 35.263-7.084q57.778-12.17 115.768-23.286z"/>
  <path fill="#FEFEFE" d="M659.495 540.861l.441.05c.785 1.024.758 1.72.803 2.966.705 19.838-.157 39.993-.128 59.878l.036 138.606c-20.857 6.051-42.828 10.018-64.048 14.761q-51.353 11.522-102.574 23.624l-1.216-.529c-1.161-5.294-.303-12.009-.291-17.475l.037-36.008.054-151.939c18.493-4.333 37.275-7.712 55.879-11.559q55.378-11.811 111.007-22.375z"/>
  <path fill="#BAE0C8" d="M642.32 597.563c-3.552 6.313-9.747 16.804-16.2 20.202-1.729-.468-2.586-1.883-3.666-3.21l.13-.655c7.024-4.648 13.067-11.148 19.736-16.337zm-73.582 66.934c-1.308-.158-2.67-.309-3.868-.905-1.92-.955-3.505-2.891-4.047-4.962-.624-2.388.029-4.973 1.284-7.046 1.235-2.038 3.247-3.853 5.653-4.282 1.437-.255 2.743.161 3.921.989 2.393 1.683 2.62 4.263 3.15 6.932-2.783 1.906-5.241 3.578-5.991 7.114-.156.735-.164 1.416-.102 2.16z"/>
  <path d="M622.885 596.352c.207-1.308.372-2.811.857-4.041.635-1.611 1.411-2.144 2.942-2.687 1.461 1.235 1.52 1.763 2.121 3.527l4.088 1.097c2.793.384 6.589.103 8.86 1.779l.567 1.536c-6.669 5.189-12.712 11.689-19.736 16.337l-.784-.43.121-.817c1.713-1.252 3.206-2.674 4.743-4.128-1.021-.005-1.975-.12-2.985-.267l-.829-1.34c-.219-4.433 2.271-10.303 3.455-14.701-1.188-.006-1.959 3.072-3.42 4.135z"/>
  <path fill="#BAE0C8" d="M628.805 593.151l4.088 1.097-.778 2.246c.631 1.194.827 1.833.806 3.186-2.31 3.121-6.186 5.5-9.274 7.85 1.147-5.208 2.746-9.605 5.158-14.379z"/>
  <path d="M571.541 738.039l1.71.341c1.166 1.267 1.197 1.177 1.207 2.886-2.678 3.806-47.255 12.659-55.111 14.741l-1.807.176c-1.518-.713-1.634-.58-2.241-2.114.118-.213.219-.438.356-.64 2.799-4.123 48.348-13.447 55.886-15.39zm-.639-10.008c1.594-.058 2.895.075 4.453.407l.354.704c-.249.534-.505 1.053-.836 1.543-1.52 2.247-6.616 3.869-9.156 4.578-2.846.794-5.898.983-8.799 1.672l-36.887 8.521-2.435-.23c-1.255-1.217-1.368-1.11-1.444-2.831 2.91-3.284 46.909-12.101 54.75-14.364zm51.983-131.679c1.461-1.063 2.232-4.141 3.42-4.135-1.184 4.398-3.674 10.268-3.455 14.701l.829 1.34c1.01.147 1.964.262 2.985.267-1.537 1.454-3.03 2.876-4.743 4.128l-.121.817.784.43-.13.655-37.35 36.435c-3.93 3.782-7.611 8.151-11.786 11.634-1.12.934-2.137 1.858-3.674 1.895-.302.007-.604-.015-.906-.022-.062-.744-.054-1.425.102-2.16.75-3.536 3.208-5.208 5.991-7.114 14.478-14.649 29.547-28.709 44.145-43.245.561-5.572 1.698-10.476 3.909-15.626z"/>
  <path fill="#BAE0C8" d="M570.536 619.458c9.702-.767 15.21.418 23.468 5.516-2.02 1.956-4.499 4.464-6.972 5.774-2.375 1.258-4.743-.5-7.176-1.23-7.907-2.373-14.52-.519-21.636 3.357-7.393 4.028-13.374 10.742-15.719 18.917-1.762 6.143-1.073 12.387 2.128 17.928 2.562 4.433 6.847 7.952 11.885 9.125 4.151.967 9.248.355 13.36-.587 10.419-2.387 16.566-8.689 19.647-18.816.564-1.854.873-5.291 2.033-6.791.716-.927 2.092-1.684 3.082-2.297l.695-.425c.928-.673 1.953-1.158 2.972-1.677 1.263.652 1.556.722 2.041 2.153 1.721 5.069-.696 13.607-3.233 18.173-4.993 8.987-14.025 14.947-23.772 17.675-9.501 2.659-19.737 2.587-28.496-2.379-6.033-3.421-10.332-8.812-12.052-15.558-2.38-9.331-.397-18.736 4.497-26.912 7.404-12.368 19.673-18.561 33.248-21.946z"/>
  <path fill="#BAE0C8" d="M572.358 596.886c1.286-.207 2.699-.2 4.002-.269 12.64-.671 26.06 2.402 35.694 11.049l-6.846 6.761c-9.885-5.263-18.635-9.51-30.148-8.962-16.291.774-32.378 9.6-43.201 21.532-10.071 11.103-16.152 24.639-15.37 39.82.511 9.898 4.319 18.765 11.783 25.387 8.888 7.887 21.453 11.094 33.137 10.282 16.393-1.14 32.809-9.368 43.441-21.912 8.269-9.754 11.577-21.18 10.451-33.827-.688-3.6-1.602-6.705-3.042-10.075 2.973-2.49 5.533-5.497 8.152-8.352 2.631 4.562 4.413 8.901 5.253 14.132 2.211 13.768-2.077 28.06-10.258 39.17-12.035 16.344-30.543 26.174-50.46 29.038-14.343 2.062-29.074-.855-40.683-9.785-9.564-7.357-15.424-17.817-16.934-29.773-2.096-16.606 4.089-32.246 14.119-45.23 12.042-15.589 31.344-26.459 50.91-28.986z"/>
  <path d="M467.981 348.178c.525.12.743.15 1.281.383 1.177.509 2.036 1.133 2.44 2.386 1.961 6.091.551 76.754.553 90.049.005 36.694.988 73.528.266 110.203-.047 2.368.137 4.984-.912 7.155-1.702 1.136-3.501 1.723-5.477 2.198-18.723 4.502-38.184 7.361-57.101 11.113q-64.122 12.808-128.406 24.771c-.553-.361-.383-.199-.808-.661-1.259-1.37-1.396-2.213-1.581-4.069-.62-6.205.047-13.253.049-19.53l-.219-41.927c-.268-47.705-1.025-95.816.555-143.481 8.555-2.827 18.066-4.092 26.916-5.824l45.681-8.964c38.958-7.656 77.756-16.483 116.763-23.802z"/>
  <path fill="#FEFEFE" d="M463.676 354.829c1.38-.202 1.487-.275 2.705.371 1.622 4.947.646 37.039.68 44.681l.191 154.95c-38.494 8.091-77.329 15.447-115.98 22.765-21.304 4.034-42.675 7.756-63.863 12.37-1.64.281-1.675.447-3.055-.432-1.548-4.257-.438-46.908-.441-54.294l-.126-144.528q90.068-17.321 179.889-35.883z"/>
  <path d="M353.621 542.797l1.978-.116c1.371.68 1.591.883 2.461 2.144l-.313 1.118c-5.118 4.386-40.512 8.793-49.363 10.463-.589.087-1.527.3-2.145.231-1.587-.178-1.859-.586-2.878-1.698l.344-1.421c.438-.422.773-.986 1.314-1.265 1.303-.674 42.95-8.234 48.602-9.456zm-.618 10.02l2.654-.313c1.559.661 1.687.818 2.648 2.222l-.363 1.238c-3.796 3.125-42.883 9.271-51.344 11.035-.485.061-1.228.172-1.7.145-1.738-.097-2.185-.843-3.332-1.964l.076-1.416c3.522-3.122 43.356-9.358 51.361-10.947zm18.142-156.554c12.542-.953 25.011 1.289 35.594 8.393 11.518 7.731 19.393 20.621 21.93 34.165 3.499 18.677-1.384 37.65-12.18 53.089q-1.044 1.503-2.161 2.952-1.117 1.45-2.304 2.842-1.187 1.392-2.442 2.724-1.255 1.332-2.574 2.6-1.319 1.267-2.7 2.468-1.38 1.201-2.819 2.332-1.438 1.131-2.93 2.19-1.493 1.058-3.036 2.041-1.543.983-3.133 1.889-1.59.905-3.223 1.731-1.633.825-3.304 1.568-1.672.744-3.379 1.404-1.706.66-3.443 1.234t-3.501 1.062q-1.763.487-3.549.887-1.785.399-3.588.71c-14.548 1.372-28.591-1.271-40.29-10.476-11.529-9.071-18.198-23.166-19.85-37.57-2.143-18.698 4.802-38.01 16.531-52.497 11.57-14.292 28.113-23.73 46.351-25.738z"/>
  <path fill="#FEFEFE" d="M372.957 400.935c10.811-1.387 23.388 2.101 32.179 8.451 10.544 7.614 17.398 20.046 19.424 32.774 2.698 16.95-2.514 34.783-12.561 48.524-10.943 14.967-27.025 24.512-45.253 27.335-12.773 1.119-25.345-1.55-35.541-9.632-10.634-8.428-16.876-21.328-18.313-34.695-1.894-17.627 4.463-35.845 15.644-49.404 11.261-13.655 26.865-21.745 44.421-23.353z"/>
  <path d="M367.838 405.516c11.159-1.43 23.305.422 32.908 6.485 10.071 6.357 16.607 16.931 19.127 28.45 3.368 15.401-.9 31.596-9.301 44.692-9.33 14.546-24.116 24.397-40.904 28.088-11.422 1.743-22.771.26-32.599-6.133-10.431-6.783-17.252-18.147-19.655-30.238-3.128-15.734 1.455-32.015 10.435-45.076q.858-1.274 1.777-2.504.92-1.229 1.899-2.412.98-1.183 2.017-2.315 1.037-1.133 2.129-2.213 1.092-1.079 2.236-2.103 1.144-1.025 2.338-1.991 1.193-.966 2.433-1.871 1.24-.906 2.523-1.749 1.284-.843 2.607-1.622 1.324-.778 2.685-1.489 1.36-.712 2.754-1.355 1.395-.644 2.819-1.217 1.425-.573 2.876-1.075 1.451-.502 2.925-.931 1.474-.429 2.968-.785 1.494-.355 3.003-.636z"/>
  <path fill="#FEFEFE" d="M373.326 409.589c8.486-.162 17.599 1.867 24.823 6.432q.839.534 1.649 1.111.811.576 1.591 1.192.781.616 1.529 1.271.748.655 1.463 1.347.714.691 1.393 1.418t1.32 1.488q.641.76 1.243 1.551.602.792 1.163 1.613t1.08 1.669q.519.849.995 1.722.476.874.907 1.77.431.896.816 1.813.385.917.724 1.852.338.935.629 1.886.291.951.534 1.916.242.964.436 1.94c3.058 14.718-1.489 30.344-9.7 42.653-9.357 14.025-23.306 21.787-39.485 25.132-10.67.542-20.64-1.163-29.238-7.909-9.235-7.246-14.492-18.287-15.797-29.818-1.648-14.569 3.507-29.631 12.63-40.957 9.762-12.12 23.916-19.491 39.295-21.092z"/>
  <path fill="#BAE0C8" d="M365.022 428.193c2.351-.258 4.868-.817 7.148-.051.263.855.468 1.661.579 2.548l.1.845c3.268 1.714 8.256 1.786 11.966 2.969l-5.339 9.099c-1.958-.135-3.923-.272-5.885-.306-3.854-.065-7.299.272-10.099 3.255-1.084 1.155-1.476 1.807-1.472 3.349 2.995 4.349 14.874 3.756 19.898 6.861 2.281 1.411 4.22 3.48 4.785 6.167 2.388 11.356-11.706 18.168-15.534 24.571-.17.285-.319.582-.504.857-1.355 2.008-3.086 1.961-5.258 2.422-2.256-1.254-.851-3.064-2.228-4.304-1.815-1.634-8.549-2.425-11.51-5.164a4.039 4.039 0 01-.435-.462c-.687-.881-.975-1.759-.864-2.87.341-3.41 4.184-5.893 6.61-7.938 2.022 1.626 4.204 3.096 6.674 3.953 2.718.943 4.923.912 7.514-.385 1.91-.956 2.829-2.082 3.493-4.071-1.181-6.565-16.571-5.683-21.973-11.248-1.465-1.509-2.312-3.282-2.221-5.415.321-7.505 6.747-14.532 12.085-19.163 1.15-.998.949-3.778 2.47-5.519z"/>
  <path d="M468.173 573.517l1.78.202c1.039.975 1.537 1.369 1.919 2.796 1.991 7.425.392 29.753.375 39.287l-.06 102.993.286 45.433c.037 7.689.523 15.73-.182 23.386-.094 1.019-.209 1.995-.777 2.874-.87 1.345-2.39 1.837-3.855 2.294-13.987 4.368-29.069 6.69-43.348 10.142-46.629 11.274-93.726 20.694-140.235 32.391-1.027.156-2.098.146-3.137.193-.908-.605-1.129-.541-1.523-1.636-2.006-5.573-.752-45.223-.775-54.322-.136-53.088-.943-106.405.229-159.473.059-2.636-.113-5.641.944-8.089 7.906-3.54 17.301-4.634 25.759-6.311l33.844-6.685q64.297-13.149 128.756-25.475z"/>
  <path fill="#FEFEFE" d="M464.935 579.501l1.527.088c.837 1.114.797 2.369.85 3.706.831 20.99-.081 42.431-.088 63.477l.073 140.899q-90.39 20.07-180.527 41.254c-1.074.166-.939.101-1.837-.323-1.699-6.513-.537-47.467-.542-57.73q-.648-77.813.049-155.621l180.495-35.75z"/>
  <path d="M352.242 786.083c.289.035.591.012.867.103 1.529.508 1.704 1.069 2.169 2.438l-.741 1.472c-4.68 3.596-37.918 9.361-46.46 11.36-1.231.083-1.677-.175-2.706-.828-.647-1.497-.706-1.422-.174-2.95 4.142-3.502 38.779-9.667 47.045-11.595zm5.848-11.954l2.073.032c1.265 1.139 1.384 1.146 1.683 2.803-.902 1.355-1.9 1.796-3.407 2.367-4.52 1.716-9.932 2.422-14.692 3.489-11.49 2.576-23.01 4.941-34.459 7.711l-2.693.307-1.361-1.12c-.213-.906-.566-1.284-.034-2.123 2.075-3.275 45.219-11.668 52.89-13.466z"/>
  <path fill="#BAE0C8" d="M328.588 702.797l1.164.023c.241.255.611.432.723.765.825 2.448.158 48.848.188 56.478-6.8 1.83-13.661 3.194-20.592 4.415l-1.049-.111c-2.247-2.921-1.211-49.791-1.157-56.814l20.723-4.756zm37.169-32.59l.804.115c2.079 3.617.817 70.853.759 81.148-7.69 1.87-15.373 3.846-23.17 5.221-2.013-7.347-.819-28.977-.85-38.182q-.122-21.711-.618-43.416c7.672-1.752 15.327-3.498 23.075-4.886zm33.325-32.698c.935-.166 1.392-.097 2.309.063 2.407 4.165.791 94.404.655 106.706-6.351 1.755-12.897 3.047-19.323 4.52l-1.741-.16c-2.209-3.531-2.138-95.548-1.788-106.696l19.888-4.433zm38.788-32.696l.595.382c1.816 4.507.648 116.838.541 130.82q-11.803 2.456-23.502 5.367c-1.986-11.457-.937-34.803-.977-47.491l-.614-83.815 23.957-5.263z"/>
  <path d="M896.681 260.152c1.217.148 1.496.426 2.504 1.161 1.95 5.354-.301 153.839-.406 173.541l-.431 149.913c-.036 36.396.237 72.873-.766 109.256-6.932 2.854-15.251 4.045-22.588 5.697l-39.565 8.886L685.9 742.318c-.86-.336-1.485-.875-2.23-1.42-1.032-2.32-1.042-4.716-1.054-7.216l.914-285.58.121-85.5c-.073-19.472-.661-39.138.269-58.577 8.907-2.762 18.522-4.346 27.662-6.237l49.663-10.025 135.436-27.611z"/>
  <path fill="#FEFEFE" d="M891.4 266.839c1.296-.187 1.447-.182 2.637.357 1.632 5.131-.194 78.592-.238 91.439l-.992 331.554-202.491 45.68c-.669.111-1.381-.075-2.051-.166-.67-1.494-.744-2.781-.786-4.391-.408-15.642.128-31.411.161-47.065l.067-89.337.341-286.548c19.232-4.652 38.83-8 58.204-12.029L891.4 266.839z"/>
  <path fill="#BAE0C8" d="M739.852 357.197c1.197.482 2.085 1.063 3.135 1.795 2.57 5.807-9.05 9.611-8.566 19.738.252 5.26 2.999 8.044 6.628 11.378-.181.061-.358.134-.542.185-2.186.6-4.268.652-6.253-.692-1.615-1.093-2.279-3.494-2.599-5.292-1.667-9.389 2.797-19.669 8.197-27.112zm104.499-10.237c2.832-2.475 5.127-4.053 9.127-3.722 3.047.252 5.74 2.049 7.583 4.426 1.783 2.299 3.438 5.672 3.039 8.646-.156 1.161-.441 1.902-1.188 2.823l-1.415.513c-3.573-3.434-1.579-13.51-9.026-12.899-2.62.215-4.634 1.647-6.593 3.249-2.599 4.061-6.505 14.892-10.589 16.626-.176-.397-.254-.493-.276-.99-.25-5.608 5.929-14.565 9.338-18.672zm-48.587 4.845c4.466 1.054 9.973 5.388 12.612 9.118 1.6 2.261 3.262 5.193 2.766 8.018l-1.057.719c-2.617-.973-5.8-7.706-8.08-10.037-1.608-1.644-3.716-3.127-6.022-3.138-2.187 1.49-3.287 3.645-4.632 5.859-1.085 3.336-1.972 6.974-1.694 10.513.253 3.215 1.524 4.5 3.915 6.404.912.727.824 1.015 1.168 2.091-.935.571-1.098.673-2.203.647-1.864-.044-3.242-.557-4.462-2.017-2.21-2.646-2.342-6.745-2.008-10.036.79-7.8 3.605-13.24 9.697-18.141z"/>
  <path d="M758.321 378.912c1.408.547 1.718 1.119 2.514 2.329.105 1.038.173 1.849-.213 2.844-2.111 5.441-9.016 10.398-14.093 12.86-7.403 3.59-13.871 3.355-21.481.697-1.069-.954-1.94-1.844-2.205-3.299-.243-1.327-.094-1.096.615-2.09 3.005-.726 8.725 3.407 14.917 2.495 9.118-1.343 14.857-8.899 19.946-15.836zm53.203-5.924c.869.393 1.585.952 2.36 1.503.325 1.162.64 1.57.27 2.772-1.332 4.314-7.97 8.196-11.758 10.047-7.745 3.787-14.618 3.408-22.581.576-.487-.295-1.298-.715-1.686-1.17-1.059-1.245-1.088-2.508-1.085-4.037 2.68-2.637 9.283 2.61 14.762 2.354 8.422-.393 14.322-6.258 19.718-12.045zm53.823-13.377c1.03.182 1.919.534 2.894.896l.741 1.653c-.185 1.943-.716 3.345-1.722 5.021-3.48 5.798-10.413 11.08-16.997 12.691-5.855 1.433-10.074-.08-15.032-3.052-.798-.759-1.49-1.653-2.208-2.489-.423-1.669-.584-2.732-.255-4.433l1.228-.536c2.609.286 3.924 2.47 5.966 3.895 2.452 1.71 6.527 1.772 9.335 1.108 7.497-1.773 12.293-8.585 16.05-14.754zm4.596 304.509l1.225-.066c1.452.691 1.562.797 2.391 2.176l-.433 1.125c-5.03 3.94-113.93 25.256-131.038 29.139-1.6-.485-1.638-.556-2.64-1.904l.252-1.485c1.303-1.331 3.055-1.735 4.818-2.172 10.788-2.673 21.899-4.272 32.764-6.636l92.661-20.177zm.183-277.957c.714.119.336-.005 1.188.596.996.703.754.758.947 1.881-1.608 1.749-3.298 2.016-5.547 2.592-12.383 3.169-25.356 4.543-37.92 6.923L722.636 417.36c-.645.022-1.411-.17-2.053-.268-.847-1.266-.869-1.206-.665-2.709 1.616-1.326 3.451-1.656 5.453-2.105 14.584-3.27 29.743-5.318 44.475-7.961q50.204-8.727 100.28-18.154zm-.474 258.028c.14-.009.28-.036.42-.026 1.772.119 1.932.221 3.115 1.455l-.108 2.192c-3.85 2.987-137.044 29.923-153.772 33.41-1.721-.043-1.937-.352-3.296-1.322l-.118-1.318c1.636-1.811 3.891-2.389 6.171-3.02 18.156-5.022 37.444-8.002 55.918-11.85l91.67-19.521zm-1.434-176.74c1.539-.177 2.091.105 3.418.778.827 1.53.765 1.419.29 3.103-3.728 3.076-131.272 25.672-147.29 28.648-.673.131-1.453.331-2.151.262-2.129-.21-2.716-.845-3.926-2.404l1.422 1.682-1-2.351c1.96-1.703 4.456-2.303 6.925-2.913 13.193-3.262 27.039-5.065 40.44-7.451l58.468-10.901c14.462-2.695 29.091-5.052 43.404-8.453zm-1.551 21.336c1.074-.152 2.401-.457 3.448-.101 1.306.443 1.338.994 1.874 2.156l-.63 1.391c-1.027.795-1.809 1.253-3.07 1.615-14.889 4.281-31.195 5.959-46.429 8.836l-96.883 18.457c-.503.128-.802.223-1.289.292-1.871.265-3.112-.633-4.499-1.72-.141-.579-.224-.459.142-1.016 1.197-1.818 3.583-2.45 5.568-3 12.671-3.504 26.555-5.097 39.499-7.492l55.98-10.632c15.416-2.835 31.011-5.282 46.289-8.786zm.941-62.645c1.648-.331 2.825-.657 4.464-.036.893 1.288 1.121 1.415 1.088 2.956-1.094 1.49-2.613 1.991-4.363 2.424-4.146 1.027-8.417 1.23-12.593 2.033-11.581 2.227-23.12 4.432-34.749 6.466-31.972 5.589-64.099 11.101-95.901 17.573a19.07 19.07 0 01-4.733.347c-1.32-.986-1.32-.926-1.665-2.531.109-.167.199-.348.327-.499 1.445-1.705 4.611-2.42 6.727-2.96 12.947-3.301 26.776-5.014 39.954-7.388 33.775-6.086 67.845-11.415 101.444-18.385zm2.935 20.036c1.527.479 1.484.73 2.363 2.103l-.485 1.674c-1.8 1.648-3.908 2.181-6.227 2.728-19.656 4.633-40.173 7.273-60.079 10.764-27.906 4.893-55.724 10.442-83.574 15.661l-2.606-1.004-.548-2.037c1.302-1.719 3.585-2.305 5.584-2.85 13.666-3.724 28.282-5.503 42.214-8.136l103.358-18.903z"/>
  <path fill="#BAE0C8" d="M840.198 569.426c1.096-1.967 2.352-3.58 3.822-5.282l-.456-.614c-1.596.162-4.85.967-6.125.137 1.304-3.91 14.889-11.855 18.722-14.992 2.09-1.711 3.966-3.759 5.811-5.723l1.274-.181c.518 1.617.166 2.618-.364 4.198-1.716 5.112-4.777 9.857-6.914 14.817-1.289 2.994-1.924 6.384-3.32 9.293-.377.786-.878 1.278-1.47 1.9l-.916-.085c-.717-2.178-.935-5.022-2.565-6.584-2.551.84-4.242 4.489-6.125 6.43-3.099 5.135-7.559 9.864-11.273 14.618q-12.005 15.223-23.572 30.781c-14.734-4.426-35.41-13.461-49.172-20.484-6.115 8.183-36.4 55.627-40.603 57.987l-.453-.689c.223-2.176.733-4.143 1.819-6.053 3.929-6.906 10.254-14.682 14.838-21.399 7.691-11.271 14.871-22.9 22.816-33.993q24.817 9.796 49.228 20.564c5.757-7.057 10.975-14.556 16.612-21.712 6.073-7.709 12.517-15.05 18.386-22.934z"/>
  <path fill="#FEFEFE" d="M854.466 553.828l.929.606c-.382 2.959-2.102 6-3.679 8.499l-.642-.229a57.07 57.07 0 01-2.947-2.612l.206-1.61c1.823-1.826 4.014-3.197 6.133-4.654z"/>
  <path d="M865.521 299.461c1.854-.124 3.352-.34 5.075.448 1.113 1.213 1.576 2.116 2.056 3.706 1.094 3.626 1.031 8.04-.88 11.392-.722 1.267-1.45 2.017-2.853 2.509-9.839 3.452-23.228 4.859-33.628 6.795q-30.382 5.919-60.871 11.255c-15.866 2.787-32.302 4.847-47.753 9.459-1.148.265-1.935.126-3.08-.015-2.425-1.553-3.547-3.819-4.179-6.599q-.111-.474-.174-.956-.062-.483-.074-.969-.012-.486.026-.971t.126-.964q.087-.478.224-.945.136-.467.32-.918.184-.45.413-.88.229-.429.501-.832c1.664-2.487 4.249-3.897 7.038-4.788 5.47-1.749 11.61-2.05 17.264-3.092 6.565-1.211 13.084-2.821 19.641-4.108 33.58-6.589 67.339-12.385 100.808-19.527z"/>
  <path fill="#1CBB83" d="M866.2 304.14l1.087.325c1.031 2.539.471 5.849.358 8.556-15.041 3.671-30.715 5.917-45.952 8.695-31.741 5.786-63.699 11.346-95.25 18.045-.523-.211-1.065-.663-1.536-.98-.471-1.862-1.145-4.176-.11-5.973.772-1.342 1.956-1.578 3.382-1.978 13.705-3.853 28.902-5.613 42.955-8.272q47.636-8.674 95.066-18.418z"/>
</svg>
