<svg xmlns="http://www.w3.org/2000/svg" viewBox="0 0 1024 768">
  <path fill="#1CBB83" d="M0 0h1023.122c1.628 2.843.878 8.85.878 12.169l.007 595.568-.007 119.698c0 5.745.87 35.967-.308 39.47-.127.382-.375.757-.57 1.095H0V0z"/>
  <path fill="#fff" d="M761.098 628.268c-2.04 4.254-3.9 9.125-8.192 11.602l-1.155-1.097c.63-3.443 2.31-6.433 4.058-9.427l5.29-1.078zM212.413 136.8c2.334-3.166 5.979-8.078 10.055-8.73l1.087.476c.412 1.368.32 2.273-.397 3.571-1.042 1.887-5.188 5.27-7.267 5.816l-3.478-1.134zm401.636 13.117c.223.091.448.177.668.273 2.682 1.17 9.555 7.204 10.406 10.053.328 1.097-.37 1.747-.908 2.65-.081-.012-.163-.027-.245-.039-.628-.091-1.094-.126-1.651-.457-2.572-1.527-8.747-6.82-9.465-9.719-.292-1.177.556-1.857 1.195-2.76zm37.786 39.736c.115.025.232.041.343.077 3.538 1.134 8.508 7.352 9.825 10.869.585 1.564-.155 2.614-.757 4.03-.239-.018-.48-.015-.716-.056-1.935-.33-7.81-9.104-8.851-11.152-.771-1.517-.324-2.265.156-3.768zM285.845 81.415c1.369.134 2.087.225 3.156 1.121l.091 1.075c-1.932 3.514-8.356 6.094-11.866 7.776-1.242-.237-1.65-.425-2.56-1.302l-.01-1.124c2.026-3.457 7.73-5.692 11.189-7.546zm307.049 50.743c.105.014.21.023.313.04 3.702.642 9.812 6.466 12.023 9.394.292 1.563.107 1.717-.54 3.101-.126-.014-.253-.02-.379-.04-3.523-.577-10.159-5.96-11.967-9.07-.676-1.16.114-2.325.55-3.425zm40.025 36.532c3.542 1.343 10.292 7.948 11.67 11.473.557 1.43-.213 2.31-.852 3.537-.096-.038-.192-.074-.286-.117-2.894-1.309-10.515-9.146-11.486-12.13-.35-1.077.436-1.862.954-2.763zM264.364 94.344c1.293.865 1.745 1.25 2.172 2.75-1.499 3.891-8.206 6.733-11.733 8.778-.479-.054-.277.014-.753-.267-1.027-.609-1.232-.587-1.552-1.744 1.418-3.822 8.464-7.527 11.866-9.517zm-21.733 15.519c.212.09.434.158.635.27 1.062.589 1.335 1.248 1.585 2.356-1.41 3.92-7.788 7.681-11.02 10.184-.236-.055-.483-.075-.707-.163-1.13-.446-1.482-1.343-1.733-2.396 1.076-3.801 8.027-7.915 11.24-10.251zm327.583 5.777c.116.013.233.022.35.04 3.883.607 10.72 5.88 12.998 8.989.305 1.614-.064 1.91-.779 3.344-.293 0-.809.022-1.126-.05-3.064-.7-9.509-5.954-11.255-8.588-.907-1.368-.5-2.264-.188-3.736zm-9.142 600.246c4.484.247 11.914 1.054 15.497 3.895.59 1.494.24 2.072-.12 3.605-3.43.026-12.31-1.38-14.742-3.822-1.079-1.083-.714-2.3-.635-3.678zm68.298 3.332c.753-.154.839.022 1.514.329.598 1.271.886 1.493.571 2.903-2.753 2.698-10.294 2.436-14.078 2.693l-1.769-.307c-.786-.982-.68-1.087-.666-2.366 2.222-2.777 10.842-2.844 14.428-3.252zm-94.482-12.992c4.548.829 11.875 3.628 15.608 6.261.394 1.384-.202 2.428-.637 3.765-.194-.042-.391-.072-.582-.127-3.323-.945-12.931-3.552-14.611-6.56-.645-1.156-.085-2.14.222-3.34zM310.622 69.887c.901.311 1.819.85 2.295 1.692.368.653.056 1-.142 1.666-3.15 3.32-8.906 4.98-13.087 6.69l-.988-.149c-.69-.944-1.154-1.485-1.117-2.719 2.27-3.396 9.363-5.543 13.04-7.18zm199.872 623.037c4.197 1.615 10.666 5.073 13.43 8.611.395 1.632.071 1.975-.537 3.495-4.035-1.641-12.168-5.102-14.219-9.074.077-1.534.447-1.816 1.326-3.032zM445.502 61.445c2.89.365 5.83.863 8.687 1.44 2.257.457 5.064 1.082 6.386 3.102.132 1.389-.118 2.012-.769 3.23-4.101-.805-11.924-1.355-14.76-4.534-.393-1.605-.17-1.774.456-3.238zm25.801 5.885c4.338.278 11.168 2.533 14.47 5.366.715 1.593.409 1.857-.056 3.485-4.11-.32-11.81-2.091-14.63-5.272-.505-1.617-.247-1.995.216-3.58zm51.036 19.876c3.342.893 12.265 4.494 14.045 7.378.735 1.192.34 1.936 0 3.158-.556-.016-1.07-.039-1.615-.155-3.502-.747-10.952-3.213-12.774-6.523-.796-1.446-.144-2.441.344-3.858zm135.195 624.83c.93.35 1.499 1.059 2.203 1.742.024.72-.005.949-.446 1.551-2.16 2.947-11.047 4.47-14.491 5.058-.414-.118-.66-.17-1.063-.373-.993-.5-1.153-1.014-1.378-2.03 1.71-2.89 11.78-4.923 15.175-5.948zm-69.314 8.488c3.608.017 7.302-.098 10.895.196 1.91.157 3.829.284 5.129 1.83.18 1.574-.056 1.846-.728 3.227-3.936.38-12.168.546-15.336-1.707-.639-1.562-.352-1.948.04-3.546zM418.81 58.023c3.786.243 7.718.217 11.466.786 1.858.281 3.525.661 4.688 2.212.228 1.431-.135 2.192-.724 3.49-4.413-.48-11.478-.33-15.092-3.101-.704-1.524-.58-1.788-.339-3.387zm78.645 17.659c4.442 2.051 11.552 3.558 14.78 7.207.383 1.53.154 1.875-.327 3.332-.29-.038-.581-.068-.868-.126-4.324-.876-11.537-2.997-14.12-6.693-.442-1.439.025-2.355.535-3.72zm-10.54 601.011c3.779 1.048 11.276 6.62 13.384 10.084.586.965.51 1.26.374 2.326-.728.42-.589.517-1.513.309-4.003-.9-12.865-7.778-14.92-11.304-.08-.14-.167-.277-.247-.417-.048-.084-.093-.171-.138-.256l3.06-.742zm59.046-576.776c4.067 1.54 12.517 5.163 14.642 9.014.743 1.35.145 2.652-.188 4.029-4.076-1.418-12.888-5.95-15.086-9.539-.208-1.573.073-2.054.632-3.504zm137.052 600.958c.727.332 1.74.915 2.182 1.586.574.871.33 1.196.105 2.144-3.216 3.725-10.036 5.595-14.506 7.429-.54-.221-.951-.406-1.352-.847-.82-.903-.775-.962-.7-2.202 2.658-3.546 10.302-6.2 14.271-8.11zm44.98-35.549c.736.096 1.487.165 2.124.576.924.593.92.803 1.173 1.806-1.31 4.369-8.062 9.307-11.47 12.295-.68-.02-1.3.015-1.91-.325-.941-.526-.909-.737-1.184-1.713 1.184-4.12 8.134-9.484 11.267-12.64zm-20.666 19.109c.517.298.982.554 1.365 1.025.788.975.605 1.182.495 2.387-2.458 4.278-9.066 8.359-13.526 10.364-1.214-.946-1.796-1.36-2.055-2.891 2.14-4.265 9.802-8.113 13.72-10.885zm38.693-39.139c.456.034 1.042.038 1.482.2 1.097.407 1.321.962 1.68 1.993-.882 4.52-7.068 10.066-10.29 13.252-.72.045-1.491.136-2.163-.172-.969-.444-.941-.67-1.248-1.612 1.038-4.736 7.133-10.219 10.54-13.66zm179.33-72.047c1.734-.296 3.212-.533 4.87.21 2.385 1.069 4.035 3.215 4.89 5.64 1.306 3.684 1.05 8.175-.795 11.63-1.237 2.322-2.67 3.747-5.198 4.522-.488.242-.833.316-1.38.31-2.034-.021-3.444-.481-4.794-2.05-2.348-2.718-3.099-7.252-2.746-10.747.413-4.116 1.943-6.922 5.154-9.515z"/>
  <path fill="#1CBB83" d="M926.514 576.75c.96-.052 2.003-.136 2.91.224 1.336.53 2.153 1.859 2.648 3.14 1.096 2.835.84 6.085-.442 8.82-.818 1.724-1.71 2.345-3.481 2.95l-1.62.037c-.69-.367-1.448-.765-1.943-1.377-1.47-1.8-1.628-4.82-1.433-7.054.262-3.037 1.028-4.784 3.36-6.74z"/>
  <path fill="#fff" d="M924.316 478.746c.832-.003 1.192.042 1.898.503 1.14 2.527 3.998 10.51 4.035 13.103 2.311 1.09 7.195 2.671 8.628 4.677.51.71.3.87.195 1.684-1.943 2.284-6.04 3.537-8.747 4.796.007.236.06.474.03.708-.218 1.6-3.466 10.062-4.314 11.36-.195.3-1.133.806-1.463 1.044-3.038-3.49-2.145-9.858-5.889-13.49-1.013-1.45-3.976-2.297-5.559-3.005-1.5-.671-2.865-1.206-3.48-2.8.997-1.594 3.953-2.134 5.61-3 6.287-3.288 7.18-9.398 9.056-15.58z"/>
  <path fill="#1CBB83" d="M924.616 486.748c1.838 1.256 2.243 5.17 3.668 7.003 1.328 1.7 3.638 2.94 5.311 4.326-.427.353-.847.727-1.29 1.06-4.779 3.602-5.596 7.801-8.14 9.845.038-.45.076-.593-.022-1.096-.495-2.719-2.236-6.176-4.374-7.936-1.605-1.382-3.668-1.881-5.64-2.507 2.25-.648 5.025-1.355 6.773-2.961 2.19-2.013 3.196-4.889 3.714-7.734z"/>
  <path fill="#fff" d="M111.023 68.985c1.503-.095 3.024-.21 4.474.285 2.948 1.005 5.018 3.434 6.306 6.184 2.27 4.845 2.355 11.284.535 16.276-1.403 3.85-3.453 6.368-7.212 8.105-1.307.056-2.752.181-4.037-.105-2.847-.635-5.225-2.986-6.564-5.486-2.429-4.537-2.776-10.749-1.281-15.631 1.368-4.467 3.61-7.437 7.779-9.628z"/>
  <path fill="#1CBB83" d="M112.03 72.407c.659-.006 1.329-.01 1.983.082 1.802.254 3.26 1.803 4.184 3.27 2.264 3.59 2.47 8.73 1.574 12.79-.791 3.579-2.306 6.208-5.438 8.238-.701-.04-1.416-.085-2.106-.229-2.198-.459-3.738-2.228-4.79-4.108-2.024-3.614-2.224-8.608-1.17-12.56.964-3.616 2.608-5.645 5.762-7.483z"/>
  <path fill="#fff" d="M174.482 28.136c.562.167 1.3.335 1.729.767 1.246 1.256 3.553 11.145 5.663 14.152 2.003 2.857 7.33 5.13 10.294 7.173.596 1.752-6.657 4.974-8.175 6.407-4.74 4.472-5.587 10.486-8.22 16.133-.84-.419-1.584-.772-2.014-1.66-.713-1.473-.951-3.363-1.569-4.926-2.017-5.107-5.134-8.646-8.963-12.436-1.356-.277-3.234-.462-4.43-1.145-.882-.504-.836-.878-1.05-1.791 1.647-2.182 8.12-3.98 11.533-8.56 3.342-4.486 2.518-10.396 5.202-14.114z"/>
  <path fill="#1CBB83" d="M175.363 38.896c.737.77 1.24 2.12 1.792 3.071 2.19 3.774 4.163 6.282 7.622 8.951-4.087 3.743-7.054 7.118-9.254 12.246-2.888-4.654-5.417-8.313-9.717-11.848 4.296-3.792 7.289-7.112 9.557-12.42z"/>
  <path fill="#fff" d="M868.3 530.249c2.512-.394 4.883-.505 7.119.891 3.518 2.2 5.408 6.078 6.234 10.018 1.147 5.519.555 12.081-2.679 16.837-1.747 2.576-3.788 4.075-6.856 4.637-.668.212-1.546.213-2.236.136-2.633-.294-4.583-1.866-6.054-3.977-3.21-4.597-4.223-11.754-3.143-17.179.998-5.027 3.39-8.503 7.614-11.363z"/>
  <path fill="#1CBB83" d="M868.584 533.249c1.823-.34 3.489-.513 5.177.415 2.363 1.298 3.796 3.776 4.576 6.272 1.448 4.643 1.11 11.222-1.298 15.509-1.283 2.286-2.416 3.344-4.936 4.083-.495.282-.945.32-1.508.322-1.35.008-2.506-.64-3.413-1.608-2.896-3.099-4.164-8.647-4.044-12.803.15-5.004 1.868-8.739 5.446-12.19z"/>
  <path fill="#BAE0C8" d="M688.108 641.57c1.619-.377 3.309-.58 4.95-.853-13.256 23.493-37.984 41.158-63.775 48.309-29.872 8.282-57.675 1.212-84.04-13.722-2.087-1.182-8.226-4.21-9.085-6.308-.046-.114-.06-.24-.09-.359q2.83-.547 5.65-1.141c2.285 2.927 6 4.881 9.206 6.632 24.639 13.46 52.308 18.507 79.622 10.387 18.709-5.561 34.686-16.687 47.957-30.813 3.485-3.71 7.17-7.635 9.605-12.133zm143.17-581.43c-4.029.545-22.858 3.757-25.619 2.098-.337-1.315-.413-1.378.113-2.618 2.048-1.146 29.782-4.825 32.738-4.385 1.17 1.306 1.17 2.968 1.095 4.646-.218 5.241-2.956 29.81-5.964 32.422-.128.113-.27.212-.405.318-.48-.296-.855-.336-.99-.906-1.86-7.662 4.47-24.04 2.438-29.46-.818 2.746-10.488 10.339-12.986 12.787-9.317 9.128-18.642 18.522-26.984 28.553q-15.889 19.24-30.645 39.361-14.75 20.122-28.322 41.059-6.983 10.466-13.725 21.089c-2.815 4.505-5.38 9.289-8.411 13.64l-3.773-.568c22.679-39.637 51.583-81.484 81.103-116.394 9.37-11.089 19.317-21.936 29.992-31.784 1.995-1.843 9.715-7.565 10.345-9.857z"/>
  <path fill="#fff" d="M336.618 65.817c-3.768 1.338-10.003 4.888-14.059 3.156-.348-.148-.484-.264-.819-.485-.013-.485-.156-.725.194-1.093 2.612-2.755 11.426-5.93 15.213-5.984.853-.012 1.125.478 1.68 1.054.339.354.656.735.977 1.107 4.143-1.4 7.979-3.523 12.031-5.152 11.804-4.742 24.18-6.135 36.806-4.476 6.802.894 13.493 2.852 20.34 3.289.081.122.158.246.242.366 2.263 3.276 15.543 9.087 20.144 12.313 24.119 16.906 38.51 51.711 33.786 80.622-1.493 9.129-5.147 17.712-8.692 26.198l-4.155-.546c8.974-16.998 12.178-35.033 8.297-53.95-4.506-21.969-18.26-40.773-36.94-52.903-16.748-10.874-39.106-14.462-58.553-10.265q-.856.18-1.706.38t-1.695.421q-.845.222-1.684.464-.839.242-1.672.506-.833.263-1.659.547-.826.283-1.644.588-.82.304-1.63.628-.811.325-1.614.67-.803.344-1.596.709-.794.364-1.579.748-.784.385-1.559.788-.775.404-1.54.826-.763.423-1.517.865-.754.441-1.496.901t-1.473.94q-.73.478-1.45.974-.718.497-1.424 1.011-.706.514-1.399 1.046-.693.532-1.373 1.08-.68.55-1.345 1.115-.666.565-1.317 1.147-.651.582-1.288 1.18t-1.26 1.211q-.62.614-1.227 1.243-.606.628-1.197 1.272-.59.644-1.164 1.302t-1.132 1.331q-.557.672-1.098 1.358t-1.065 1.385q-.523.7-1.03 1.411-.505.713-.993 1.437-.488.724-.958 1.46c-9.066 14.283-12.956 31.307-8.76 47.88 1.332 5.258 3.88 10.26 4.99 15.528.024.113.045.226.067.34l-4.337-.885c-6.957-22.095-9.555-38.037 1.668-59.659 5.955-11.472 14.294-19.872 24.664-27.4zM981.81 48.31c-6.174-1.073-22.611-2.097-27.097-4.968l-.023-.87c1.396-1.217 3.151-1.065 4.9-.938 5.018.367 9.97 1.547 14.965 2.16 3.391.417 6.977.29 10.323.955 1.305.26 2.385.667 3.51 1.384.533.865.886 1.142.683 2.199-.75 3.891-12.295 27.463-15.093 30.15l-.908.252c-.683-1.17-.578-1.709-.225-3.047 1.485-5.724 10.72-19.549 10.067-24.087-.09.055-.18.112-.27.165-6.054 3.497-13.578 5.854-20.06 8.574-11.762 4.94-23.083 10.101-34.298 16.227-56.241 30.725-103.675 72.86-143.96 122.446-7.48 9.203-15.041 18.489-21.868 28.188l-3.93-.592c10.907-16.074 23.652-31.448 36.518-45.986 37.157-41.981 79.414-78.629 128.829-105.54 8.56-4.662 17.27-9.342 26.174-13.322 5.611-2.512 28.657-10.81 31.763-13.35z"/>
  <path fill="#BAE0C8" d="M953.948 353.971l1.523-.767-.18-.489c-6.122-2.481-18.365.096-22.986-3.528-.338-1.242-.353-1.16.263-2.292 1.252-.643 2.295-.828 3.705-.827 2.814.003 28.035 2.712 30.398 3.436.142.043.277.101.42.152.06.744.075 1.26-.173 1.981-1.117 3.272-11.657 28.687-12.843 30.233-.495.646-.735.646-1.478.783-.975-.883-1.41-1.58-1.432-2.962-.083-5.01 8.95-18.321 8.297-24.062-1.426 1.07-2.934 1.335-4.629 1.742-.18.123-.36.25-.54.37-4.396 2.924-14.959 6.069-20.458 8.617q-3.563 1.678-7.059 3.496-3.496 1.819-6.917 3.774-3.42 1.956-6.759 4.046-3.338 2.09-6.594 4.31-3.256 2.22-6.421 4.568-3.159 2.348-6.227 4.82-3.068 2.472-6.039 5.063-2.963 2.591-5.829 5.298c-17.292 16.478-31.53 36.905-43.188 57.7-6.474 11.562-12.183 23.624-17.72 35.664-5.19 11.308-30.081 72.384-35.805 76.416.382-3.513 2.37-7.068 2.228-10.55 3.023-1.88 29.354-66.244 33.84-75.62 30.15-62.928 64.876-107.52 132.603-131.372z"/>
  <path fill="#fff" d="M781.316 615.425l.277-.234c4.021-3.407 7.502-7.272 11.77-10.423 11.613-8.573 27.975-12.13 42.146-11.04 16.879 1.299 33.773 9.434 44.733 22.447 10.69 12.685 15.627 30.423 14.066 46.827-1.718 18.026-11.5 35.154-25.438 46.536q-.623.51-1.253 1.004-.63.495-1.276.974-.645.478-1.305.941-.653.463-1.32.91-.668.445-1.35.875-.676.43-1.366.842-.69.413-1.388.808-.697.395-1.41.773-.705.378-1.425.738-.72.361-1.448.703-.728.343-1.456.667-.735.325-1.478.63-.742.306-1.492.594-.75.287-1.508.556-.758.269-1.523.519-.765.25-1.53.48-.773.231-1.546.444-.773.211-1.553.404-.78.192-1.568.365-.78.173-1.568.327-.787.154-1.582.288-.796.134-1.59.248-.796.115-1.591.21-.795.094-1.598.17-.795.074-1.598.129-.803.055-1.605.09-.803.035-1.606.051-.802.015-1.605.01-.803-.004-1.606-.029-.802-.025-1.605-.069-.803-.044-1.605-.109-.803-.064-1.598-.148c-15.784-1.648-31.388-10.17-41.305-22.527q-.51-.638-.998-1.29-.488-.65-.968-1.313-.472-.662-.93-1.336-.458-.674-.9-1.36-.443-.685-.863-1.381-.428-.696-.833-1.403-.405-.705-.795-1.422-.39-.716-.757-1.442-.376-.725-.728-1.46-.353-.734-.683-1.478-.337-.743-.652-1.494-.316-.751-.616-1.51-.3-.76-.577-1.525-.278-.766-.533-1.539-.262-.773-.503-1.551-.24-.78-.465-1.564-.217-.784-.42-1.574-.202-.79-.382-1.584-.18-.795-.345-1.594-.158-.798-.3-1.601-.143-.802-.263-1.608-.128-.806-.225-1.615-.105-.808-.188-1.619-.082-.81-.142-1.624-.06-.812-.105-1.626-.038-.814-.06-1.629-.023-.815-.023-1.63-.007-.815.015-1.63.015-.814.06-1.628.038-.815.098-1.628.06-.812.135-1.623.082-.811.18-1.62c.585-4.978 1.868-10.036 3.473-14.786.983-2.914 4.959-9.472 4.449-12.22 1.635-.397 3.278-.717 4.929-1.044.06.272.405 1.319.352 1.523-.848 3.132-3.833 7.61-5.191 10.91q-.51 1.245-.96 2.511-.458 1.265-.856 2.55-.405 1.283-.75 2.583-.345 1.3-.637 2.613-.286 1.313-.518 2.638-.233 1.324-.413 2.658-.172 1.333-.292 2.673t-.188 2.683q-.06 1.343-.067 2.688 0 1.345.052 2.689.053 1.343.158 2.684.112 1.34.277 2.675.165 1.335.39 2.66.225 1.327.503 2.642.278 1.316.615 2.619.338 1.302.728 2.589c4.816 15.42 15.131 27.528 29.445 34.95q.645.338 1.297.659.653.32 1.32.625.66.305 1.329.594.667.288 1.342.559.683.272 1.366.526.682.254 1.365.492.69.238 1.388.457.69.22 1.395.424.698.203 1.403.389.705.185 1.41.353.713.168 1.426.318.712.15 1.425.283.72.132 1.44.246.72.115 1.44.212.72.097 1.449.175.72.079 1.447.14.728.06 1.456.103.728.042 1.455.067.728.024 1.456.03.727.007 1.455-.004.735-.012 1.463-.042.727-.03 1.455-.078.72-.048 1.448-.114t1.448-.15q.727-.084 1.448-.186.72-.102 1.44-.222.72-.12 1.433-.258.72-.138 1.425-.293.713-.155 1.426-.328.705-.174 1.41-.364.698-.191 1.403-.4.697-.207 1.388-.433c15.993-5.235 29.917-17.613 37.471-32.581 7.337-14.525 9.415-31.262 4.261-46.86-4.816-14.602-14.486-26.96-28.402-33.85-20.847-10.322-49.19-9.372-67.389 6.077-2.378 2.018-8.222 9.68-10.375 10.253-.225.06-.457.1-.682.15.765-1.967.495-3.595-.165-5.537z"/>
  <path fill="#BAE0C8" d="M977.24 128.278c-4.688-.94-26.428.138-28.416-2.48.233-.943.195-1.297 1.073-1.846 2.663-1.669 32.52.148 36.414 1.162.48.601.54.43.442 1.299-.172 1.635-13.203 32.212-14.163 32.98-1.26-.097-1.17-.06-1.996-1.016-1.072-7.379 9.813-20.832 9.033-26.914-.158.148-.316.298-.48.443-3.189 2.803-14.884 7.884-19.445 10.402-7.892 4.359-15.32 9.246-22.686 14.429-49.174 34.587-83.39 80.943-108.296 135.243q-20.12 44.368-36.527 90.237-5.258 15.291-10.18 30.693c-1.523 4.845-2.678 10.186-4.568 14.868-.345.856-.735 1.239-1.516 1.694.818-3.115.706-11.083-.052-14.298 2.535-2.413 12.235-33.785 14.088-38.953 20.203-56.229 44.764-116.676 81.943-163.975 14.763-18.775 34.043-37.558 53.158-52.008 16.609-12.553 34.073-21.974 52.175-31.96z"/>
  <path fill="#fff" d="M988.981 204.172c-4.936.118-22.183 1.506-25.693-.423-.353-1.132-.36-1.112.097-2.2.36-.268.653-.523 1.11-.594 3.091-.474 6.932.022 10.09-.028 7.84-.125 16.204-.946 23.999-.312.037.169.09.335.12.506.532 2.77-6.812 28.06-8.973 31.107-.307.426-.555.327-1.042.407-3.759-4.629 5.919-20.321 5.281-26.359-.022-.199-.06-.397-.082-.595-3.189 2.355-6.73 4.377-10 6.636q-9.25 6.494-17.69 14.007c-17.592 15.885-32.79 33.976-47.029 52.859C873.476 339.796 840.955 408.68 815 479.707q-9.242 24.936-17.45 50.23c-3.263 10.07-5.888 20.856-9.88 30.627l-.164.399c.142 3.483-1.846 7.038-2.228 10.55.262 3.368-2.964 7.53-3.519 11.11l-.622.271c-.338-.862-.556-1.35-.435-2.294l-.728-1.146c.825-2.023.6-3.76.045-5.825 2.453-1.964 6.571-22.086 8.004-26.626 10.923-34.68 22.978-69.606 36.842-103.241 28.364-68.859 63.278-137.336 112.955-193.485 12.468-14.09 25.911-27.989 41.41-38.75 2.476-1.716 7.84-4.508 9.407-6.822.12-.174.233-.355.345-.533z"/>
  <path fill="#1CBB83" d="M541.718 667.495c23.324-4.784 46.887-8.511 70.35-12.55l76.04-13.376c-2.435 4.498-6.12 8.424-9.605 12.133-13.27 14.127-29.248 25.252-47.957 30.813-27.314 8.12-54.983 3.072-79.622-10.386-3.206-1.752-6.921-3.706-9.206-6.633zm239.762-46.533c.226-.05.458-.09.683-.15 2.153-.573 7.997-8.235 10.375-10.254 18.2-15.448 46.542-16.398 67.39-6.076 13.915 6.89 23.585 19.248 28.401 33.85 5.154 15.597 3.076 32.335-4.26 46.86-7.555 14.968-21.479 27.345-37.472 32.581q-.69.226-1.388.434-.705.207-1.403.399-.705.19-1.41.363-.713.174-1.426.329-.705.155-1.425.293-.713.138-1.433.258-.72.12-1.44.221-.72.102-1.448.186-.72.084-1.448.15-.728.066-1.448.114-.728.048-1.455.078-.728.03-1.463.042-.728.012-1.455.006-.728-.007-1.456-.031-.727-.025-1.455-.068-.728-.042-1.456-.102-.727-.061-1.447-.14-.728-.079-1.448-.175-.72-.097-1.44-.212-.72-.114-1.44-.247-.714-.132-1.426-.282-.713-.15-1.426-.318-.705-.168-1.41-.354-.705-.186-1.403-.388-.705-.203-1.395-.424-.698-.22-1.388-.457-.683-.238-1.365-.492-.683-.255-1.366-.526-.675-.271-1.342-.56-.668-.288-1.328-.593-.668-.304-1.32-.625-.653-.321-1.298-.659c-14.314-7.422-24.629-19.53-29.445-34.95q-.39-1.287-.728-2.59-.337-1.302-.615-2.618-.278-1.315-.503-2.641-.225-1.326-.39-2.661-.165-1.334-.277-2.675-.105-1.34-.158-2.684-.052-1.344-.052-2.689.007-1.345.067-2.688.068-1.344.188-2.683.12-1.34.292-2.673.18-1.334.413-2.658.232-1.325.518-2.638.292-1.313.637-2.613.345-1.3.75-2.584.398-1.284.856-2.549.45-1.266.96-2.511c1.358-3.3 4.343-7.778 5.191-10.91.053-.204-.292-1.25-.352-1.523.817-.178 1.582-.454 2.37-.724.795-1.231.608-1.374.413-2.77z"/>
  <path fill="#fff" d="M839.32 620.746c2.738-.223 6.376 1.82 8.65 3.275.457 1.732-.886 6.472-1.764 8.043 2.281 1.644 5.14 3.671 6.43 6.2 1.74-.565 3.818-2.11 5.633-2.068.75.018 1.268.298 1.756.865 1.335 1.552 3.128 5.732 2.948 7.74-.953 2.08-4.869 4.525-6.864 5.711.623.86.863 1.851 1.065 2.88.743 3.783 1.275 10.518-.953 13.871.188.098.376.193.563.295 1.966 1.075 5.334 3.032 5.987 5.271.03.551.06 1.06-.045 1.606-.436 2.23-2.199 5.534-4.014 6.896l-7.337-1.43c-.375 2.662-4.756 5.813-6.751 7.402.547 2.769 1.627 6.385.712 9.132-2.43 1.522-6.676 2.392-9.505 2.875-.127-2.613-1.905-5.402-3.66-7.263-3.804.208-7.525-.124-11.313-.44-.908 1.625-2.19 4.705-3.886 5.576-1.636.84-2.746.203-4.366-.275-1.283-1.439-4.074-2.312-5.852-3.068.083-.072.165-.137.24-.215 1.56-1.635 3.196-5.757 3.196-7.98-.645-2.275-5.439-7.221-7.442-8.607-3.375.611-6.796.903-10.21 1.25.195-.454.255-.533.315-1.098.256-2.449-.862-6.953-2.228-8.92 2.776-.634 5.552-1.818 8.245-2.763l.27-.427c.053-3.222 1.328-7.042.758-10.083-1.208-2.572-5.454-5.599-7.907-6.994.105-.082.225-.155.322-.245 1.74-1.55 3.331-4.808 3.526-7.115 2.918.722 5.942 1.883 8.627 3.252 2.356-1.66 6.73-5.91 7.637-8.58.098-.463.12-.468.135-1.024.083-2.391-.87-4.969-2.415-6.763 3.045-1.3 6.024-3.27 8.732-5.164.465.414.892.838 1.305 1.31 1.365 1.556 2.753 3.402 2.648 5.56 3.819-.599 7.6-1.291 11.486-1.165 2.22-1.647 4.696-4.585 5.326-7.323z"/>
  <path fill="#1CBB83" d="M840.01 624.747c.473-.014.63-.039 1.148.053 1.395.252 1.95.661 2.798 1.73.458 2.464-.803 4.714-1.996 6.797 3.661 1.749 7.787 5.053 9.213 8.973 1.448-.42 2.73-1.191 4.11-1.774 1.284-.54 1.846-1.007 3.136-.477.646 1.113.946 2.274.743 3.579-.36 2.387-4.073 4.122-5.986 5.328.247.369.472.678.585 1.117 1.178 4.35 1.238 15.263-1.268 19.043 1.898 1.09 4.569 2.304 5.821 4.158.75 1.105.893 1.524.646 2.804-.3.234-.473.39-.788.565-2.513 1.37-5.844-.2-8.29-1.043.045.424.083.482-.015.965-.772 3.811-6.099 7.295-9.047 9.485.533 1.477 1.403 3.337 1.546 4.889.142 1.556-.676 2.866-1.658 3.977-.585.235-.96.556-1.598.353-2.206-.701-3.046-4.6-4.216-6.457a7.476 7.476 0 00-.21-.326c-5.297.983-10.218.166-15.462-.702-.007.184.008.373-.037.553-.488 1.972-2.446 4.218-4.111 5.27-1.028-.379-1.786-.794-2.7-1.406-.69-2.538 1.545-4.199 1.26-6.631a9.051 9.051 0 00-.098-.63c-.015-.115-.022-.233-.06-.345-.443-1.401-7.757-10.17-9.235-11.136q-1.868.382-3.743.725c-1.92.341-2.79.413-4.426-.736-.525-1.169-.705-1.804-.563-3.086 1.666-1.435 4.966-2 7.082-2.818.285-.509.375-.808.315-1.395-.443-4.479 1.163-9.42.225-13.636-.653-1.979-4.224-3.449-5.589-5.374.308-1.173.233-1.112 1.275-1.729 2.446-.116 5.154 1.474 7.315 2.533.465-.33 9.324-10.484 9.887-11.33.42-2.498-1.035-5.192-2.063-7.394 1.35-.76 2.588-1.43 3.684-2.565 1.492 1.78 3.03 4.317 3.533 6.601 5.154-1.307 9.422-2.258 14.801-1.716 1.778-1.471 2.978-4.717 4.036-6.792z"/>
  <path fill="#fff" d="M828.622 633.746c.945-.08 1.396-.048 2.25.357-.112 1.9-4.635 4.671-5.88 6.451-1.509 2.15-1.411 5.648-.848 8.12.802 3.514 2.985 7.371 6.159 9.228 3.023 1.77 7.929 2.852 11.32 1.856 6.016-1.766 6.226-7.409 8.807-11.96.578-1.012.72-1.041 1.778-1.359.705.498 1.125 1.111 1.275 1.99.218 1.281-.457 1.905-1.17 2.816.12.48.143.845.045 1.335-.743 3.662-4.119 6.962-7.232 8.844q-.337.205-.682.393-.346.188-.706.358-.352.17-.72.322-.36.151-.735.284-.368.133-.75.247-.375.114-.758.209-.382.095-.773.17-.382.075-.772.13-.39.055-.788.09-.39.037-.788.052-.39.016-.787.011-.39-.004-.788-.03-.39-.023-.788-.068-.39-.044-.78-.109-.39-.064-.773-.148-.382-.084-.765-.187c-4.493-1.199-8.192-4.374-10.427-8.405-2.138-3.862-3.061-8.508-1.666-12.786 1.298-3.978 4.096-6.41 7.742-8.21z"/>
  <path fill="#1CBB83" d="M314.623 153.76c-.022-.114-.043-.227-.067-.34-1.11-5.268-3.658-10.27-4.99-15.528-4.196-16.573-.306-33.597 8.76-47.88q.47-.736.958-1.46t.994-1.437q.506-.711 1.03-1.411.523-.699 1.064-1.384.54-.687 1.098-1.359.558-.672 1.132-1.331.574-.658 1.164-1.302t1.197-1.272q.607-.63 1.228-1.243.622-.613 1.259-1.211.637-.598 1.288-1.18.65-.582 1.317-1.147.665-.566 1.345-1.115.68-.548 1.373-1.08t1.4-1.046q.705-.514 1.424-1.01.718-.497 1.449-.976.73-.478 1.473-.939.742-.46 1.496-.901.753-.442 1.518-.865.764-.422 1.54-.826.774-.403 1.558-.787.785-.385 1.579-.75.793-.364 1.596-.708.803-.345 1.614-.67.81-.324 1.63-.628.818-.305 1.644-.588.826-.284 1.66-.547.832-.264 1.67-.506.84-.242 1.685-.464.846-.221 1.695-.422.85-.2 1.706-.379c19.447-4.197 41.805-.61 58.552 10.265 18.68 12.13 32.435 30.935 36.941 52.903 3.881 18.917.677 36.952-8.297 53.95L360.864 161.4c-15.338-2.54-30.813-5.819-46.24-7.64z"/>
  <path fill="#fff" d="M378.993 78.709c.946.531 1.518 1.016 2.087 1.955 2.95 4.864 4.864 10.906 6.999 16.178q5.445 13.432 11.031 26.806c3.439-5.882 6.758-12.094 10.997-17.44 3.351 6.04 5.879 12.643 8.692 18.952 1.775 3.98 3.924 7.834 5.339 11.958q-9.104 3.304-18.266 6.444c-3.298.938-7.234 2.893-10.622 3.126-1.231.086-1.703-.156-2.56-.983.392-1.335 1.014-1.704 2.013-2.645-.796-.872-2.122-.799-3.275-1.002-7.632-1.344-15.275-3.148-22.885-4.663-5.347-1.066-11.184-1.764-16.369-3.395-1.205-.38-1.754-.484-2.491-1.534 1.105-6.525 24.41-45.557 29.31-53.757z"/>
  <path fill="#1CBB83" d="M379.25 85.872c1.831 2.456 2.992 6.667 4.193 9.533 5.04 12.018 9.179 24.783 14.86 36.464 4.296-5.333 7.65-12.295 11.196-18.21 3.287 6.971 6.502 14.008 9.2 21.228-3.62 1.276-7.335 2.375-10.99 3.555-1.665.724-5.157 2.394-6.903 2.276-2.214-.15-4.73-1.728-7.004-2.199-13.158-2.723-26.363-5.67-39.638-7.737 7.737-15.287 17.184-29.697 25.085-44.91z"/>
  <path fill="#00785C" d="M55.702 110.81c13.384 3.152 27.644 4.6 41.26 6.835l76.613 12.692 24.185 3.744c4.795.738 10.062 1.169 14.653 2.718l3.478 1.133c9.245-.13 20.632 2.815 29.833 4.345 21.494 3.573 42.995 7.497 64.562 10.599l4.337.884c15.428 1.82 30.903 5.098 46.241 7.639l89.442 14.787 4.155.546 255.377 41.444 3.773.568c15.03 2.243 29.939 5.19 44.914 7.764l3.931.592c2.176.284 4.501.407 6.564 1.19 1.77 2.294 1.53 6.183 1.68 8.986.803 15.553.976 31.155 1.388 46.723l2.236 82.866q.435 15.763 1.14 31.515c.225 5.095 1.23 11.206.525 16.184-.03.205-.075.406-.112.61.758 3.215.87 11.183.052 14.298.33.955.525 1.833.578 2.84 1.433 28.636 1.41 57.469 2.363 86.144q.638 18.873 1.035 37.753c.128 5.557.87 11.964.113 17.42.555 2.065.78 3.802-.045 5.825 1.223 5.283 2.228 31.185 1.343 35.971.66 1.942.93 3.57.165 5.537.195 1.395.382 1.538-.413 2.77-.788.269-1.553.545-2.37.723-1.65.326-3.294.647-4.93 1.044-4.193 1.088-8.416 1.937-12.67 2.768l-5.289 1.079c-20.805 4.314-41.965 6.93-62.75 11.371-1.642.273-3.332.476-4.951.852l-76.04 13.377c-23.463 4.038-47.026 7.765-70.35 12.55q-2.82.594-5.65 1.141c-16.38 1.46-32.984 5.08-49.153 8.056l-3.06.741-253.709 42.414q-50.473 8.742-101.07 16.742c-19.699 3.242-39.394 6.877-59.162 9.651-5.367-3.293-10.913-6.295-16.414-9.356-1.393-36.354-1.488-72.856-2.346-109.236l-5.598-235.077Q41.292 256.006 38.405 119.4c5.803-2.79 11.45-5.887 17.297-8.59z"/>
  <path fill="#fff" d="M57.026 116.83c10.052.739 20.679 3.475 30.669 5.206q27.742 4.76 55.55 9.127l220.252 36.496 283.414 45.86q36.256 6.226 72.589 11.977c15.041 2.457 30.65 4.412 45.387 8.235.975 9.36 1.02 19.043 1.207 28.455-18.29-2.22-36.455-5.401-54.704-7.906l-168.358-23.816L58.568 160.16l-1.542-43.33z"/>
  <path fill="#00785C" d="M102.86 142.74c1.627.104 2.732.192 4.035 1.299 1.09.926 1.63 2.022 1.666 3.456.047 1.877-.83 2.783-2.103 4.046-1.214-.038-2.256-.137-3.306-.808-.985-.63-1.648-1.559-1.867-2.71-.402-2.122.458-3.557 1.574-5.284zm-20.453-2.765c1.711-.25 3.81-.328 5.26.786.942.726 1.326 1.516 1.533 2.656.342 1.884-.638 3.332-1.62 4.844-1.133.188-2.394.366-3.474-.117q-.224-.1-.437-.222t-.411-.267q-.2-.145-.38-.31-.183-.165-.347-.348-.162-.184-.306-.383-.142-.2-.263-.414-.12-.214-.218-.44-.097-.225-.17-.46c-.645-2.058-.096-3.469.833-5.325zm40.425 5.445c2.097.011 3.87.221 5.557 1.585 1 .807 1.703 1.936 1.75 3.242.07 1.919-.816 3.116-2.008 4.513-1.795-.089-3.393-.32-4.895-1.386-1.11-.786-1.943-1.795-2.147-3.174-.286-1.938.585-3.33 1.743-4.78zm547.141 78.993c8.363-.119 26.52 4.106 35.8 5.545l34.39 5.102c6.877 1.004 13.876 1.761 20.643 3.338.525 4.142 2.318 11.683-.128 15.172-.06.012-.127.022-.187.035-1.006.202-1.98.304-3.001.182-17.215-2.04-34.39-5.111-51.561-7.537-9.623-1.359-26.67-2.691-35.353-5.539-.353-.534-.68-1.024-.899-1.631-1.235-3.436-1.29-11.35.296-14.667z"/>
  <path fill="#fff" d="M674.873 231.341c6.313 1.296 12.856 2.012 19.243 2.947l43.133 6.118c6.08.903 12.31 1.539 18.305 2.903.968 1.333.773 2.523.848 4.123-13.236-.937-26.568-3.565-39.715-5.389-12.84-1.781-28.901-3.206-41.267-6.231-.807-1.059-.534-3.164-.547-4.47zm-89.307 29.022l181.091 22.887c1.088 19.226 1.118 38.617 1.726 57.873l3.653 137.571 2.566 95.84c.397 13.62 1.2 27.282 1.327 40.904.015 1.585.083 2.72-.69 4.151-5.581 2.798-18.724 4.4-25.325 5.64-8.47 1.875-17.175 3.113-25.719 4.655q-29.355 5.35-58.79 10.243c-22.116 3.767-44.09 8.544-66.307 11.646-.865-41.086-2.753-82.23-4.315-123.298l-6.656-191.356c-.82-25.583-1.983-51.167-2.561-76.756z"/>
  <path fill="#8E8E8E" d="M656.965 319.915c6.34-.125 42.584 2.01 46.501 3.322.94 1.278.828 1.688.903 3.232-6.53.429-40.877-1.433-46.506-2.927-1.096-1.35-.863-1.927-.898-3.627zm2.762 116.645c7.438-.353 42.083-1.276 47.24.193.89 1.215.744 1.79.812 3.267-6.713.516-42.704 1.405-47.46.008-.92-1.334-.667-1.883-.592-3.467zm49.528 167.674c.748-.09.895.112 1.55.437.569 1.276.601 1.244.207 2.577-2.667 2.002-38.188 5.226-44.522 5.977l-1.73-.174c-.858-.686-.986-.874-1.412-1.889l.534-.852c3.152-2.012 39.29-5.555 45.373-6.076zm-18.836-112.007c4.13-.178 14.272-1.31 17.695.051.795 1.009.94 1.01.894 2.271-2.672 2.379-23.517 1.953-28.132 2.122-3.108.197-16.017 1.11-18.234.25-.975-.377-.979-.863-1.319-1.761l.606-1.048c4.172-2.357 22.357-1.701 28.49-1.885zm15.593 56.493c1.159-.127 1.793-.099 2.906.241.887 1.022 1.126 1.13 1.255 2.526-2.49 2.498-36.98 3.623-42.983 4.02-.738.02-1.446.05-2.177-.06-1.409-.214-1.35-.434-2.124-1.495l.177-1.006c3.304-2.844 36.322-3.751 42.946-4.226zm-48.026-170.696c7.444-.013 42.389.305 47.12 2.285.876 1.312.558 1.677.32 3.193-6.83.12-43.726-.213-47.092-2.123-.796-1.408-.555-1.793-.348-3.355zm-1.885-75.525c6.592-.123 77.108 5.812 79.404 6.952.827 1.278.686 1.965.734 3.465-8.95.252-23.639-1.986-33.083-2.74l-30.921-2.386c-5.003-.385-10.551-.341-15.431-1.48-.87-1.36-.686-2.26-.703-3.811zm80.272 171.732c1.403-.111 2.512-.086 3.893.194.985.855 1.066.876 1.339 2.14l-.717.83c-4.403 1.942-64.343 2.574-75.013 2.807-1.256.05-2.77.258-3.876-.467-1.056-.692-1.618-1.434-1.758-2.634 1.01-.852 2.303-.847 3.564-.95 9.04-.747 18.404-.477 27.486-.673l45.082-1.247zm-76.811-54.539c7.72.075 77.315.333 79.504 1.532.568 1.296.317 1.867.108 3.244-8.628.087-76.182.402-78.837-.648-.384-.152-.667-.485-1.001-.727-.346-1.4-.253-2.05.226-3.4zm77.225 111.018l3.563-.154c1.285.542 1.655.801 2.387 1.99l-.342 1.017c-1.245.799-2.434 1-3.875 1.162-8.527.957-17.386.967-25.964 1.412q-22.216 1.186-44.416 2.638c-1.224.063-3.043.29-4.163-.333-1.057-.588-1.32-1.2-1.633-2.304l.615-.872c3.467-1.624 64.558-4.013 73.828-4.555zm-78.759-169.68c8.006.615 76.562 2.209 78.896 3.358.412.202.714.577 1.07.866.386 1.336.325 1.772-.15 3.078-9.88-.523-77.852-2.056-80.115-3.524-.325-1.463-.107-2.351.299-3.778zm83.049 224.193c1.06-.094 1.496.07 2.43.564.594 1.148.614 1.062.248 2.295-1.02.942-1.746 1.224-3.117 1.447-7.896 1.292-16.283 1.454-24.276 2.193l-49.741 4.702c-1.537-.056-1.876.159-3.021-.938-.299-1.287-.384-1.307.206-2.472 2.291-1.561 68.889-7.127 77.271-7.791zM623.821 465.569c3.705-.224 6.767-.155 10.256 1.24q.445.18.881.383t.86.427q.426.224.84.469.412.244.814.509.4.265.788.549.387.284.76.588.372.303.73.624.357.321.699.66.34.338.664.693.324.355.63.725t.593.756q.287.385.555.784.268.399.516.81.247.413.474.836.228.423.433.857.206.434.39.878c2.318 5.535 2.465 12.256.064 17.786-2.575 5.93-7.08 9.273-12.955 11.551q-.712.135-1.433.212-.722.077-1.447.096-.725.018-1.45-.024-.723-.041-1.442-.14-.718-.1-1.426-.258-.708-.157-1.4-.373-.693-.214-1.366-.485-.673-.27-1.322-.595c-5.108-2.535-8.6-7.39-10.359-12.72-1.818-5.506-1.595-11.387 1.043-16.594 2.726-5.382 7.015-8.364 12.61-10.244z"/>
  <path fill="#fff" d="M625.323 469.05c3.183-.181 6.117.353 8.927 1.878 3.91 2.123 6.713 5.82 7.964 10.064 1.37 4.641.975 9.887-1.4 14.137-2.388 4.273-5.94 6.474-10.532 7.801-2.996.142-5.621-.036-8.349-1.368-4.146-2.024-7.122-5.807-8.555-10.149-1.514-4.587-1.279-9.824 1.011-14.118 2.439-4.572 6.143-6.741 10.934-8.246z"/>
  <path fill="#1CBB83" d="M623.912 408.618q.721-.066 1.446-.076.725-.009 1.447.04.723.046 1.44.151t1.423.266q.707.16 1.399.376.691.216 1.364.486.673.27 1.322.591.65.322 1.271.694.452.27.89.563.44.292.862.606.424.313.832.647.407.334.798.688.39.353.763.726.373.372.727.763.354.39.688.797.335.407.648.83.315.423.607.861.294.438.565.89.27.452.519.917.248.465.473.941.225.476.427.963.2.487.379.983.177.497.329 1 .153.505.28 1.016.124.52.223 1.047.097.526.17 1.056.071.53.117 1.064.046.532.065 1.067.02.535.013 1.07-.007.535-.04 1.069-.033.534-.092 1.066-.06.532-.145 1.06-.085.528-.197 1.052-.111.523-.248 1.04-.137.518-.3 1.028-.162.51-.349 1.01-.187.502-.399.994-.211.49-.447.972-.235.48-.494.948-.259.468-.54.924c-2.937 4.699-6.971 7.011-12.268 8.209-4.855.132-9.22-.393-13.415-3.043-4.643-2.934-7.721-7.67-8.825-13.023-1.115-5.41-.484-11.565 2.615-16.242 3.22-4.857 8.12-7.01 13.657-8.087z"/>
  <path fill="#fff" d="M624.572 412.115c3.15.008 5.915.584 8.655 2.192 4.084 2.397 7.165 6.634 8.273 11.229q.098.415.174.835.078.42.133.843.056.422.09.847.035.425.048.852.013.427.005.853-.01.427-.04.852-.03.426-.08.85-.052.423-.124.843-.073.421-.167.837-.093.416-.208.827-.115.411-.25.816-.135.405-.29.802-.156.397-.331.786-.175.39-.37.769-.194.38-.408.75-.213.368-.445.727c-2.395 3.719-5.936 5.748-10.194 6.62-3.908.007-7.282-.338-10.657-2.448-3.823-2.39-6.402-6.258-7.376-10.641-1-4.493-.322-9.506 2.244-13.376 2.77-4.18 6.547-5.814 11.318-6.665z"/>
  <path fill="#D3D4D3" d="M619.751 348.518c3.596-.25 6.739-.071 10.104 1.33 5.594 2.326 9.699 7.192 11.91 12.752 2.138 5.38 2.478 11.587.088 16.947-2.441 5.471-6.677 8.256-12.077 10.377-3.952.185-7.137.117-10.82-1.446-5.438-2.31-9.549-7.055-11.65-12.513-2.098-5.45-2.08-11.68.378-17.013 2.493-5.406 6.607-8.42 12.067-10.434z"/>
  <path fill="#fff" d="M621.837 352.068c2.655-.011 5.003.302 7.434 1.433 4.548 2.116 7.861 6.182 9.47 10.888 1.547 4.525 1.565 9.844-.665 14.152-2.164 4.179-5.53 6.168-9.852 7.508-3.134.196-5.792-.003-8.618-1.508-4.543-2.418-7.76-6.854-9.162-11.76-1.277-4.47-.981-9.525 1.375-13.598 2.3-3.98 5.673-5.978 10.018-7.115z"/>
  <path fill="#D3D4D3" d="M623.535 373.855c.638 0 1.383-.038 2.004.112.735.18 1.303.643 1.699 1.266 1.007 1.589.475 3.894.067 5.599-.487-.078-.83-.115-1.314-.278-1.023-.345-1.684-.993-2.159-1.954-.754-1.528-.812-3.157-.297-4.745zm-2.13-14.541c2.24.06 4.411.552 6.265 1.888 1.151.83 1.992 2.267 2.092 3.688.151 2.145-1.23 3.641-2.565 5.121-.956.118-1.858.339-2.789.575l-.472.036c-1.982-1.628-2.793-3.313-4.181-5.377l-1.324 1.042-.569-.32-.23-1.463c.688-1.962 2.443-3.616 3.773-5.19z"/>
  <path fill="#fff" d="M621.824 360.752c1.41.067 2.879.322 3.883 1.417 1.525 1.661 1.17 4.12 1.042 6.186-.144.016-.286.048-.43.046-.943-.005-1.999-.487-2.681-1.133-1.721-1.627-1.784-4.315-1.814-6.516z"/>
  <path fill="#1CBB83" d="M629.139 524.142q.694-.036 1.39-.014.695.02 1.385.1.692.078 1.374.213.683.136 1.351.327.67.19 1.32.436.65.245 1.279.544.628.298 1.23.646.602.349 1.173.747c4.736 3.282 7.755 8.87 8.662 14.488q.088.538.15 1.08t.097 1.086q.035.544.043 1.089.007.545-.012 1.09-.02.545-.066 1.088-.048.544-.121 1.084-.074.54-.174 1.076-.1.536-.228 1.066-.126.53-.28 1.054-.153.523-.332 1.038-.18.515-.384 1.02-.204.506-.433 1-.23.495-.484.978-.253.482-.53.952-.278.47-.578.924-.301.455-.624.895c-3.475 4.69-7.92 6.756-13.58 7.581-4.372-.031-7.95-.616-11.567-3.198-4.568-3.26-7.652-8.823-8.533-14.316q-.08-.528-.134-1.059-.054-.53-.081-1.064-.027-.532-.029-1.066-.001-.534.023-1.068.026-.533.077-1.064.052-.532.129-1.06.077-.528.18-1.051.104-.524.233-1.042t.283-1.029q.155-.511.334-1.014.18-.502.383-.996.204-.493.432-.976t.48-.954q.25-.47.525-.928.274-.458.57-.902.297-.444.615-.873c3.72-5.001 8.417-7.089 14.452-7.928z"/>
  <path fill="#fff" d="M626.683 528.083c3.212-.275 6.147-.22 9.138 1.157 3.956 1.82 6.818 5.162 8.32 9.223q.16.422.3.85.139.43.257.865.117.435.214.875.096.441.17.886.075.445.127.892.052.448.082.898.03.45.038.9t-.007.901q-.014.451-.05.9-.037.45-.096.897-.058.447-.14.89-.08.444-.182.883-.103.44-.227.873-.124.433-.27.86-.145.427-.311.846-.166.42-.353.83c-2.355 5.054-6.256 7.647-11.34 9.487-2.939.487-5.637.202-8.36-1.043-4.233-1.935-7.36-5.637-8.946-9.978-1.609-4.406-1.517-9.269.475-13.539 2.318-4.965 6.158-7.539 11.161-9.353z"/>
  <path fill="#1CBB83" d="M631.456 537.607c.345.048.792.094 1.116.205 1.312.449 2.009 1.499 2.546 2.747.469 1.09.103 1.798-.318 2.815-1.078-.275-1.8-.515-2.897-.124.177 1.061 1.03 1.34 1.873 1.953-.33.608-.696 1.184-1.07 1.765l1.037-.6c1.354.473 2.655 1.1 3.94 1.734-.07.131-.132.267-.212.392-.84 1.314-2.455 2.992-4.009 3.358l-.723-.597 1.069-1.344-.35-.862c-1.516-.684-2.17-.439-3.782-.048-1.764.428-1.877 1.023-2.807 2.495l-.02.62-.482-.007c-.906-4.664-2.567-2.408-4.952-4.82-.48-.486-.625-1.111-.62-1.774.009-1.425.866-3.023 1.918-3.948l.622.366c.074 1.185.056 2.352.026 3.539.875 1.365 1.854 1.621 3.26 2.308l.573-.441-1.234-.935c.072-.862 4.288-2.591 5.278-3.736-.277-1.707-.347-2.943.097-4.63.038-.144.08-.287.121-.43z"/>
  <path fill="#D3D4D3" d="M617.978 288.05c3.38-.372 6.9.28 9.985 1.696 5.592 2.569 9.638 7.633 11.658 13.369 2.008 5.7 2.065 12.14-.649 17.625-2.575 5.205-6.664 8.03-12.053 9.83-4.425.176-8.118-.14-12.075-2.32-5.405-2.977-9.328-8.434-11-14.318-1.606-5.65-1.252-12.13 1.749-17.269 2.836-4.857 7.085-7.252 12.385-8.613z"/>
  <path fill="#fff" d="M617.047 292.096c2.702-.282 5.248-.34 7.834.626 4.785 1.786 8.473 5.723 10.544 10.33 2.062 4.587 2.637 10.242.672 14.966-1.759 4.225-4.717 6.722-8.82 8.503-2.433.483-4.733.572-7.134-.147-4.882-1.462-8.857-5.133-11.154-9.632-2.308-4.523-2.91-10.038-1.239-14.872 1.667-4.824 4.851-7.558 9.297-9.774z"/>
  <path fill="#D3D4D3" d="M622.354 298.364c.636.544.673.629.942 1.372-1.274 2.762-3.341 5.354-5.331 7.644-.91-.426-.97-.519-1.501-1.378.299-3.202 3.657-5.578 5.89-7.638zm1.704 6.912c.499.423.924 1.097 1.337 1.612 1.974.995 4.125 1.048 6.293 1.265-1.788 3.893-5.552 8.924-8.909 11.597l-.795-.266c-.718-1.43-1.394-2.613-1.408-4.262l.703-.488c.67.86.874 1.409 1.94 1.72 1.935-1.465 3.306-4.138 4.629-6.174-1.93-.22-3.732-.23-5.135-1.65-.029-1.47.528-2.171 1.345-3.354z"/>
  <path fill="#1CBB83" d="M628.45 583.078c4.386-.542 8.58-.113 12.488 2.076 4.426 2.48 7.52 6.76 8.83 11.626q.146.549.265 1.104.118.555.21 1.115.09.56.154 1.124.064.564.101 1.13.036.567.045 1.134.008.568-.01 1.135-.02.567-.067 1.132-.047.566-.121 1.13-.074.562-.176 1.12-.102.559-.23 1.111-.129.553-.285 1.098-.155.546-.338 1.084-.182.537-.39 1.066-.208.528-.441 1.044-.234.518-.493 1.023-.258.505-.541.997c-3.216 5.53-7.665 8.363-13.708 10.021-4.06.379-7.876-.004-11.543-1.88-4.754-2.432-8.048-6.968-9.56-12.023q-.159-.518-.292-1.044-.133-.525-.24-1.056-.106-.53-.187-1.066-.08-.536-.133-1.075-.053-.54-.08-1.08-.026-.541-.026-1.083 0-.541.029-1.083.027-.54.081-1.08.055-.538.136-1.074.081-.536.19-1.066.106-.531.24-1.056.135-.525.295-1.043.16-.517.346-1.026.185-.51.396-1.008.21-.5.446-.987.235-.488.494-.964c3.181-5.819 7.889-8.808 14.115-10.576z"/>
  <path fill="#fff" d="M628.683 586.617c3.528-.413 6.708-.279 9.928 1.36 3.802 1.937 6.45 5.437 7.684 9.484 1.5 4.91.845 10.385-1.556 14.898-2.43 4.568-5.93 7.166-10.816 8.69-3.112.152-5.937.023-8.835-1.212q-.384-.16-.76-.34-.376-.179-.742-.377t-.722-.414q-.355-.217-.7-.451-.344-.234-.676-.485-.332-.252-.65-.52-.319-.268-.624-.551-.305-.284-.594-.582-.29-.3-.565-.612-.275-.314-.533-.64t-.5-.666q-.241-.339-.465-.69-.223-.351-.43-.713-.205-.362-.392-.734-.187-.372-.355-.753-.168-.38-.317-.77c-1.696-4.388-1.458-9.519.493-13.786 2.482-5.428 6.728-8.107 12.127-10.136z"/>
  <path fill="#fff" d="M58.766 165.604c53.786 8.347 107.778 15.543 161.636 23.406l342.633 49.672 115.133 16.374c29.427 4.055 59.015 7.628 88.294 12.646l.188 10.393c-9.79-1.677-19.967-2.446-29.839-3.655q-31.497-3.662-62.933-7.82l-58.361-7.606c-11.528-1.51-23.249-3.532-34.855-4.19 4.03 93.445 5.55 187.002 9.818 280.44.732 39.122 3.129 78.255 4.018 117.384Q334.296 698.1 73.59 740.577q-1.524-94.774-4.546-189.513l-5.602-218.27-3.33-120.264c-.405-15.64-1.207-31.28-1.347-46.925z"/>
  <path fill="#00785C" d="M83.153 393.224c11.843.848 23.806 1.076 35.672 1.577l71.57 2.833 150.471 5.913c1.682 14.149 1.442 29.058 1.965 43.312.65 17.746 1.889 35.722 1.714 53.471-2.58.182-5.21.149-7.8.211l-154.48 5.044-60.148 1.705c-11.962.345-24.02.371-35.95 1.291q-.806-38.145-2.025-76.279c-.35-13.012-.327-26.083-.99-39.078z"/>
  <path fill="#fff" d="M88.482 398.8c40.033 2.11 80.182 3.225 120.245 4.766q63.863 2.64 127.753 4.507c2.36 29.03 1.823 58.345 3.426 87.428l-6.391.395c-80.784 2.063-161.59 5.731-242.38 7.181q-1.69-52.129-2.653-104.277z"/>
  <path fill="#BAE0C8" d="M111.179 422.803q49.983 1.04 99.976 1.197l.08 9.465-99.691-.469-.365-10.193zm176.131 41.434l11.194-.253.191 8.394-174.07 4.135c-3.85-.006-7.714.248-11.56.412-.058-3.06-.33-6.124-.538-9.176l174.783-3.512zm-27.323-19.498c12.642-.478 25.351-.252 38.002-.206l.472 8.202c-48.933.932-97.912.854-146.836 2.058l-39.428.906-.222-9.67 84.295-.822q31.86.053 63.717-.468z"/>
  <path fill="#00785C" d="M555.743 468.774c6.404-.278 12.837-.299 19.247-.435l5.536 157.493c-66.22 9.14-132.247 19.7-198.512 28.484-5.417.744-10.818 1.467-16.266 1.95-.634-15.663-6.258-182.998-5.019-185.478 2.853-1.344 177.533-1.638 195.014-2.014z"/>
  <path fill="#fff" d="M568.946 473.243c.923.013.84.065 1.554.528 1.683 15.411 1.349 33.288 1.908 48.981l3.234 98.5c-24.157 3.073-48.279 7.15-72.396 10.6l-131.68 18.897-.994-.217c-.943-1.86-4.965-158.139-5.58-175.498l203.954-1.79z"/>
  <path fill="#D3D4D3" d="M478.953 568.717c1.112-.158 1.82-.288 2.888.196 1.032 4.658.795 9.954 1.026 14.73q.581 13.683 1.536 27.345-8.86 1.343-17.78 2.193c-.776.142-1.566.134-2.353.164-1.464-1.687-2.53-38.237-2.79-43.225 5.826-.274 11.663-.897 17.473-1.403zm26.411-8.02c1.396-.271 3-.246 4.428-.357q.642 23.49 2.169 46.94c-5.08 1.256-10.676 1.54-15.88 2.264l-4.274.487c-.68-15.807-.848-31.818-2.34-47.563l15.897-1.771zm-81.644 11.032l1.19-.027c1.223 1.714 2.361 40.989 2.585 46.125q-9.534 1.341-19.11 2.348c-.966.005-1.067.06-1.838-.5-1.819-14.218-1.408-31.453-2.059-46.071q9.599-1.117 19.232-1.875zm105.176-32.025c1.806-.268 3.721-.273 5.547-.392.303 9.1 1.155 18.24 1.633 27.34.654 12.418.994 24.874 1.916 37.273-4.236.233-8.42.97-12.607 1.618l-5.95.906q-2.41-32.667-3.57-65.403c4.322-.558 8.694-.905 13.031-1.342zm-80.187 15.501c1.435-.223 3.108-.422 4.344.358 1.205 6.253.937 13.333 1.223 19.742q.976 19.615 1.403 39.248c-5.067.664-10.168 1.13-15.24 1.786-1.445.16-2.886.269-4.335.37-2.081-2.634-3.362-52.424-3.622-60.149 5.39-.574 10.822-.917 16.227-1.355zm84.805-48.445l.227.245c.434 3.123-6.503 18.318-8.366 21.807-1.426-1.875-2.582-3.938-3.791-5.956-17.336 8.907-34.276 19.022-51.319 28.515-10.644-5.884-21.733-10.968-32.246-17.088-5.797 3.663-24.576 16.773-29.768 17.935l-.916-.915c-1.199-2.088-2.648-4.083-3.986-6.086 11.42-6.983 22.932-14.31 33.966-21.884 11.121 4.926 21.68 11.472 32.587 16.905 15.524-7.252 30.94-15.751 45.712-24.427-2.028-1.777-3.75-3.521-5.389-5.665 7.686-1.515 15.524-2.365 23.289-3.387z"/>
  <path fill="#00785C" d="M332.47 519.284c4.31-.279 8.623-.316 12.942-.377.907 9.442.825 19.218 1.199 28.714q1.283 29.982 2.105 59.981.722 22.226 1.72 44.442c.348 7.828 1.053 15.703 1.02 23.537-7.025 1.654-14.44 2.458-21.576 3.592l-45.76 7.153q-90.59 14.15-181.028 29.256c-2.546.47-5.174 1.088-7.756 1.304-1.581.132-2.58-.072-3.79-1.037-1.59-9.468-1.07-20.155-1.356-29.778q-.967-35.996-1.374-72.004l-1.474-56.182c-.271-9.53-1.207-19.564-.558-29.06l245.685-9.542z"/>
  <path fill="#fff" d="M326.845 524.291c4.643-.445 9.43-.371 14.099-.496.143 12.666.97 25.384 1.503 38.04l2.247 61.337c.647 16.172 1.633 32.358 1.774 48.544-10.54.911-21.194 3.069-31.645 4.777l-50.748 8.201q-76.952 11.777-153.76 24.465l-14.382 2.104c-.95-19.973-.833-40.001-1.33-59.987q-1.736-58.628-2.703-117.275c78.27-3.986 156.676-5.665 234.945-9.71z"/>
  <path fill="#D3D4D3" d="M294.616 560.33a20.73 20.73 0 012.706 1.394c3.507 2.13 28 18.84 28.904 20.53.198.369.213.81.319 1.215-.685 1.209-.702 1.263-1.97 1.816-3.037-.475-24.295-17.023-29.193-20.071-8.089 6.878-16.193 16-23.865 23.535-7.828-2.786-16.24-4.431-24.32-6.354-6.828 11.644-14.202 23.17-21.498 34.532-10.155-1.619-20.066-4.831-30.163-6.84l-26.958 31.116c-8.095-4.898-16.123-9.849-24.366-14.5l-4.842 5.18c-5.405 5.677-10.5 11.836-15.571 17.817-2.483 2.929-4.944 6.446-7.884 8.888-1.306-.137-1.3-.22-2.246-1.152-.096-.48-.196-.913-.122-1.405.209-1.4 1.364-2.894 2.243-3.981 3.125-3.86 7.005-7.253 10.317-10.979 5.663-6.372 10.55-13.959 17.399-19.104 8.391 3.061 16.34 9.491 24.326 13.683 9.236-9.506 17.184-20.193 26.287-29.816 10.055 1.171 20.316 4.578 30.186 6.977q9.917-17.889 21.267-34.904 12.912 2.798 25.693 6.143c7.468-8.207 15.655-15.724 23.35-23.72z"/>
  <path fill="#00785C" d="M293.574 580.134c.57.224 1.063.491 1.576.826 4.557 2.974 34.416 31.135 35.11 35.456.155.962-.015.89-.516 1.633l-1.447.182c-3.078-1.718-5.67-4.884-8.243-7.308-8.129-7.658-16.073-16.37-24.744-23.36l-.524-.417c-3.344 5.313-6.783 10.593-9.979 15.996-1.856 3.137-3.38 6.678-5.54 9.607-.969 1.313-1.724 1.808-3.322 2.039-4.37-.864-17.537-12.687-21.797-15.89-5.44 9.916-10.567 20.075-15.702 30.153-2.58 5.064-4.944 10.658-8.045 15.406-.871 1.333-1.73 2.603-3.25 3.216-2.945-1.584-5.831-4.508-8.477-6.593q-8.177-6.542-16.705-12.619c-10.78 13.54-19.546 28.81-30.657 41.992-6.898-4.897-12.958-11.703-19.215-17.404-1.617-1.474-4.528-4.55-6.762-4.447l-1.24 1.566c-3.903 5.52-24.225 34.1-27.916 36.391-1.156.718-1.675.856-2.965.575l-.27-1.003c.314-1.737.944-3.195 1.884-4.676 5.21-8.21 11.879-16.045 17.759-23.81 4.084-5.395 7.98-11.794 12.774-16.54 6.083 3.474 19.321 17.17 25.255 22.705 6.336-8.743 12.445-17.66 18.656-26.49 3.68-5.231 7.244-10.697 11.5-15.477 9.06 4.982 17.718 12.97 25.882 19.335 4.091-7.521 22.297-45.078 26.555-48.445 2.274-.112 18.822 14.262 22.535 16.666 5.52-9.664 11.076-20.43 17.83-29.265zM77.519 184.812c7.221.563 14.667 2.213 21.877 3.19l52.19 7.033 182.008 25.696c.624 7.188.7 14.5 1.048 21.711l2.352 57.733c.46 10.702 4.717 80.805 3.212 85.842-16.901-.573-33.788-1.68-50.683-2.44L149.75 377.01q-33.494-1.89-67.019-3.118c-1.017-18.525-1.292-37.15-1.812-55.695q-1.436-42.322-2.399-84.657c-.208-7.652-2.486-44.298-1.001-48.728z"/>
  <path fill="#fff" d="M82.151 191.33c8.54.251 17.264 1.86 25.745 2.97l49.108 6.696L260.96 215.66q33.986 5.077 68.044 9.638c.687 6.517.658 13.215.93 19.77l1.574 36.402c1.53 33.118 3.617 66.33 4.219 99.471q-41.565-1.808-83.11-4.039l-165.51-7.957-4.955-177.615z"/>
  <path fill="#00785C" d="M212.273 269.657c1.51.308 3.77.462 4.926 1.507.392 1.03.824 2.548 1.538 3.39 1.189 1.404 5.136 2.44 6.885 3.458 1.312.763 2.504 1.878 3.653 2.865l-4.629 3.386-.32-.222c-3.12-2.166-6.894-4.562-10.926-3.612-1.394.327-1.972 1.334-2.626 2.501.343 5.351 13.566 8.157 17.337 12.848 1.865 2.32 2.537 5.119 2.047 8.045-.985 5.879-7.08 4.875-10.925 7.727-.192 1.25-.4 2.152-1.008 3.265-1.51-.264-2.614-.485-3.92-1.305-1.853-5.251-7.58-6.124-11.952-8.976l2.656-5.046c3.712 2.367 7.302 4.587 11.744 5.224 1.61.231 3.607.273 4.907-.875.744-.656 1.285-1.933 1.234-2.923-.193-3.803-13.924-8.148-17.068-11.469-2.073-2.188-2.697-4.813-2.525-7.756.37-6.313 5.544-5.097 8.695-8.418.76-.801.346-2.548.277-3.614zm36.151 24.753c9.154.416 18.208 1.826 27.243 3.28q.046 1.35.065 2.7c.213 15.713-4.695 28.92-15.633 40.225-1.682 1.676-3.61 3.088-5.475 4.551-5.62-9.26-12.057-18.2-17.939-27.315 7.524-7.043 10.644-13.27 11.739-23.442z"/>
  <path fill="#1CBB83" d="M216.235 231.968c12.047 2.185 23.11 6.896 32.761 14.475 14.125 11.09 24.128 28.998 26.288 46.74-8.74-2.39-18.437-3.175-27.447-3.944-1.038-3.896-2.547-7.741-4.576-11.229-5.966-10.252-14.334-15.17-25.47-18.134q-.619-13.963-1.556-27.908zm-17.403-.306c4.195-.382 8.299-.354 12.503-.266l1.133 28.45c-1.361.096-2.721.179-4.078.339-7.387.867-14.44 4.678-19.014 10.566-5.23 6.731-6.26 14.86-5.202 23.102-7.024.643-13.903 1.557-20.796 3.075-3.68 1.065-7.326 2.284-10.979 3.44q-.308-1.529-.512-3.074c-2.294-16.105 1.103-32.331 11.044-45.397 8.949-11.764 21.404-18.203 35.901-20.235z"/>
  <path fill="#00785C" d="M177.901 300.208c2.392-.297 4.91-.285 7.323-.411 3.42 9.194 9.54 16.398 18.43 20.718 10.03 4.871 18.592 3.983 28.749.427 5.818 6.64 12.785 18.947 18.091 26.798-6.6 3.604-13.153 6.133-20.52 7.63-12.547 2.022-25.74-.316-37.11-5.863-18.856-9.196-32.46-24.819-39.244-44.637 8.207-2.207 15.813-3.88 24.281-4.662zm171.967-77.029c12.782 1.078 25.614 3.253 38.334 4.972l75.996 10.375 63.944 8.465c13.05 1.723 26.426 3.04 39.321 5.706q2.786 70.26 4.608 140.551l1.576 38.55c.25 6.374 1.09 13.457.306 19.77-16.392.596-32.878.328-49.282.376l-99.977-.06-43.185-.017c-6.984-.009-15.55.855-22.377-.594-.93-1.18-.91-2.306-.99-3.79-.67-12.404-.792-24.883-1.194-37.303l-2.356-66.424c-1.473-40.187-3.716-80.38-4.724-120.577z"/>
  <path fill="#fff" d="M354.614 228.995c16.85 2.733 33.954 4.409 50.88 6.65l103.299 13.956c17.918 2.446 36.373 3.854 54.064 7.517q1.292 26.72 2.107 53.459c-23.378-1.4-46.864-4.351-70.163-6.804l-83.59-8.351c-18.077-1.832-36.141-4.037-54.248-5.551q-.86-30.45-2.35-60.876z"/>
  <path fill="#D3D4D3" d="M374.681 246.858c8.107.174 16.531 1.747 24.61 2.697 22.292 2.62 44.637 6.155 66.99 8.035l.427 8.586c-8.447-.456-17.054-2.146-25.466-3.211-12.584-1.594-25.237-2.574-37.833-4.056-9.472-1.114-18.959-2.845-28.475-3.472-.239-2.845-.209-5.725-.253-8.579zm.629 20.152c15.886.932 31.646 3.458 47.459 5.15l94.425 9.907.241 8.625c-10.546-.693-21.148-2.178-31.666-3.293l-58.552-6.404c-17.11-1.993-34.39-2.969-51.43-5.423-.24-2.843-.326-5.712-.477-8.562z"/>
  <path fill="#fff" d="M357.468 294.914c19.948.834 40.19 4.169 60.072 6.086l147.424 14.916 3.042 85.477c.515 15.044 1.387 30.09 1.59 45.141q-51.18.861-102.364.469-52.082.229-104.164-.178l-3.642-98.644c-.633-17.744-1.667-35.517-1.958-53.267z"/>
  <path fill="#00E690" d="M550.685 329.252c1.153.627 1.733.946 2.283 2.163-.463 3.948-6.457 9.518-8.957 12.88-2.316-.828-4.692-1.556-7.163-1.01-2.247.496-4.153 1.853-5.302 3.852-1.497 2.604-1.664 5.848-.918 8.709.881 3.38 3.127 6.704 6.243 8.39 11.837 6.404 16.85-9.819 21.544-11.257l.723.522c.227 1.695-.265 3.07-1.057 4.557-2.606 4.889-6.87 9.251-12.324 10.773-4.842 1.352-8.631.13-12.779-2.27-9.548 11.246-19.429 22.187-28.97 33.44 1.918 3.719 2.913 7.815 2.42 12.005q-.046.403-.114.804-.066.4-.153.798-.087.397-.194.788-.107.392-.233.779-.126.385-.271.765-.146.379-.31.75-.164.372-.347.735-.182.363-.383.716-.2.354-.418.697-.218.342-.453.674-.235.331-.486.65-.251.32-.518.626t-.549.599q-.281.292-.577.57-.297.278-.606.541-.31.264-.632.51-.332.26-.675.504-.344.243-.7.47-.354.226-.72.434-.367.209-.742.399-.376.19-.761.362-.385.171-.777.324-.393.152-.792.285-.4.132-.806.246-.406.113-.817.206-.41.093-.825.166-.415.072-.833.124-.419.052-.838.083-.42.033-.842.043-.42.01-.841 0-.422-.009-.842-.04-.42-.03-.838-.081-.453-.06-.902-.143-.45-.082-.895-.186t-.885-.23q-.44-.125-.872-.272-.433-.146-.858-.314t-.842-.355q-.417-.189-.823-.397-.407-.208-.803-.436-.397-.228-.78-.475-.386-.246-.758-.512-.372-.265-.731-.548-.359-.283-.703-.583-.345-.3-.675-.617-.33-.317-.643-.649-.314-.332-.612-.68-.297-.346-.577-.707c-3.762-4.899-4.41-10.406-3.61-16.354-9.61-6.685-19.7-12.647-29.3-19.355-2.038 2.83-4.21 5.247-7.321 6.918-3.981 2.138-8.592 2.421-12.88 1.071-7.243-2.28-11.38-7.917-14.746-14.357-8.997 7.352-14.396 15.024-20.066 25.044 2.048 1.593 3.23 3.118 4.331 5.425.534 2.57.153 5.02-.826 7.435-.685 1.689-1.71 2.864-3.449 3.486-2.439.873-5.274.407-7.52-.788-2.491-1.325-4.544-3.817-5.262-6.561-.468-1.791-.299-3.583.742-5.142 1.964-2.938 5.486-4.414 8.814-5.016 3.25-7.136 7.804-13.051 12.542-19.233-16.057 5.373-7.231 7.23-11.728 13.418l-.805.001c-.251-.297-.41-.45-.595-.775-1.046-1.847-1.05-4.518-.432-6.495 2.297-7.351 8.959-8.3 15.158-10.869 2.787-1.155 5.482-2.647 8.142-4.07q.046-3.11.564-6.176c.767-4.646 3.162-9.015 7.05-11.759q.37-.255.751-.492.382-.236.775-.453.394-.216.797-.414.404-.196.817-.372.413-.177.834-.332.422-.156.851-.29.428-.134.863-.245.436-.113.875-.203.44-.09.884-.159.444-.067.891-.113.446-.046.895-.07.449-.022.898-.022.45-.001.898.02.449.023.895.067.447.045.891.112t.885.156c5.495 1.057 10.35 4.599 13.441 9.21 3.936 5.869 4.11 12.26 2.736 18.992 9.946 6.006 19.61 12.509 29.332 18.872.966-1.554 1.946-3.04 3.225-4.36 2.936-3.033 7.018-5.034 11.273-5.087 5.901-.074 10.086 3.19 14.075 7.134 9.737-11.088 19.07-22.567 28.75-33.708-2.699-4.053-4.608-8.237-4.01-13.231.414-3.462 2.086-6.777 4.92-8.878 3.339-2.477 6.773-2.818 10.757-2.129 2.954-3.268 5.807-6.545 8.507-10.03z"/>
  <path fill="#fff" d="M381.48 404.873a14.8 14.8 0 011.537 0c1.78.119 3.304.79 4.41 2.232a5.095 5.095 0 011.002 3.858c-.305 2.157-1.555 3.478-3.18 4.792-.126-.003-.252-.003-.377-.01-2.235-.12-4.028-.385-5.562-2.185-.913-1.073-1.326-2.356-1.16-3.76.272-2.306 1.623-3.556 3.33-4.927zm106.255-11.205c2.934.195 5.685 1.033 8.102 2.738q.339.24.665.496.326.258.638.53.313.272.612.56.3.288.583.59.285.303.553.618.269.317.522.646.252.328.489.67.236.341.455.693.218.353.42.716.2.363.384.735.183.373.346.754.164.38.31.77.144.388.27.784.125.396.23.797.106.401.192.807.085.407.15.816c.575 3.74-.266 7.637-2.582 10.666-2.469 3.226-5.797 4.687-9.695 5.196-2.872-.156-5.348-.575-7.848-2.092q-.347-.208-.683-.432-.336-.225-.661-.466-.324-.241-.636-.498-.312-.258-.61-.53-.299-.273-.583-.56-.284-.287-.554-.589-.27-.301-.523-.616-.255-.314-.492-.64-.239-.327-.46-.665-.22-.339-.425-.687-.204-.35-.39-.708-.187-.36-.355-.727-.167-.368-.316-.743-.15-.376-.28-.759-.13-.382-.241-.771-.111-.389-.202-.783c-.86-3.78-.302-7.733 1.884-10.98 2.617-3.885 6.27-5.523 10.73-6.337zm-64.871-38.053c3.576-.13 6.834.622 9.859 2.556 4.038 2.581 6.872 6.884 7.84 11.562.896 4.321.329 9.004-2.136 12.731-2.562 3.872-6.056 5.648-10.52 6.504-3.31-.231-6.12-.861-8.953-2.637-4.386-2.749-7.761-7.426-8.815-12.513-.835-4.034-.084-8.422 2.25-11.845 2.554-3.745 6.126-5.584 10.475-6.358z"/>
</svg>
