<svg xmlns="http://www.w3.org/2000/svg" viewBox="0 0 1365 1024">
  <path fill="#FEFEFE" d="M0 0h1363.83c2.17 3.79 1.17 11.8 1.17 16.225l.01 794.091-.01 159.597c0 7.66 1.16 47.957-.41 52.627-.17.51-.5 1.01-.76 1.46H0V0z"/>
  <path fill="#6CD0BB" d="M707.24 182.186c16.9 4.578 31.378 13.864 40.275 29.308q1.399 2.429 2.575 4.974 1.177 2.545 2.121 5.185.945 2.639 1.65 5.353.704 2.713 1.164 5.479c1.188 7.074 1.946 59.11.394 65.23-.398 1.571-.697 2.497-1.91 3.539-1.627-.2-2.305-.749-3.376-2.04-1.656-1.996-.992-7.242-.986-9.798l.054-31.174c.022-22.536-.554-41.719-19.346-57.522-6.304-5.301-14.522-9.484-22.612-11.131.399-2.632.784-4.781-.003-7.403zm-238.77 35.072c-12.835-3.81-25.741-7.029-39.257-5.522-29.068 3.242-54.554 24.606-60.931 53.43-2.695 12.181-1.703 25.29-1.692 37.716l.07 47.736c-.002 4.418.89 13.299-1.909 16.771-1.865.299-2.222.422-4.038-.324-.423-.514-.781-.916-.958-1.576-1.198-4.479-.541-88.266.457-95.576 1.184-8.681 4.139-17.441 8.315-25.134q.462-.841.945-1.671.483-.829.987-1.647.503-.817 1.026-1.622.524-.805 1.067-1.596.543-.792 1.106-1.569.562-.778 1.144-1.542.582-.763 1.182-1.512t1.219-1.483q.619-.734 1.255-1.453.637-.718 1.291-1.421.654-.702 1.326-1.388.671-.686 1.359-1.355.688-.669 1.393-1.321.704-.652 1.425-1.287.72-.634 1.456-1.25.736-.617 1.487-1.215.75-.598 1.516-1.177.765-.579 1.545-1.139.779-.56 1.572-1.101.794-.54 1.6-1.061.806-.521 1.625-1.022.819-.5 1.65-.981.831-.48 1.673-.94.843-.459 1.697-.898.854-.438 1.718-.856.864-.417 1.739-.813.874-.396 1.758-.77t1.777-.726q.893-.352 1.794-.682.901-.33 1.81-.638.91-.307 1.826-.592.917-.285 1.84-.547c19.227-5.625 38.96-4.055 56.52 5.64-1.789 1.251-2.807 1.935-3.385 4.114zm92.516 116.617c2.6-3.033 5.762-5.819 8.589-8.66-2.789 10.265-1.201 61.165-1.191 74.956.039 50.577-.514 101.197-.011 151.767 6.011 1.882 11.628 4.664 14.715 10.51 2.205 4.174 3.066 10.098 1.517 14.564-1.858 5.356-5.176 10.559-10.452 13.066-4.806 2.283-10.699 2.233-15.609.261q-.479-.196-.948-.415-.468-.219-.926-.46-.457-.242-.902-.506-.445-.263-.877-.548-.432-.285-.849-.591t-.819-.632q-.402-.326-.788-.671-.385-.345-.753-.708-.368-.364-.718-.745t-.681-.778q-.331-.398-.642-.811-.312-.414-.602-.842-.291-.428-.56-.869-.27-.442-.517-.896-.248-.455-.473-.921-.225-.466-.427-.942c-2.077-4.906-2.223-10.713.039-15.584 2.883-6.202 8.233-9.081 14.371-11.255l-.489-156.254c-.09-20.321 1.389-41.917.003-62.036z"/>
  <path fill="#405377" d="M197.967 116.98c23.022.188 44.28 6.668 61.619 22.34 17.795 16.085 27.677 39.199 28.786 63.008 1.129 24.213-7.597 49.641-24.054 67.543-17.074 18.575-33.358 23.612-56.837 29.162-8.242 1.948-15.881 4.081-24.401 4.435-23.478.711-45.284-7.625-62.474-23.666-17.945-16.746-28.694-41.593-29.528-66.072-.878-25.755 6.957-50.238 24.895-69.133 25.014-26.347 48.669-26.815 81.994-27.617z"/>
  <path fill="#88EAC9" d="M119.229 148.202c9.775-9.675 21.297-18.163 34.554-22.365 3.068-.973 8.258-1.124 10.729-2.763l.383 1.192.606-.558c-.587-.119-.297-.159-.815.124-3.509 1.917-7.346 3.06-10.849 5.028-6.733 3.784-23.157 15.434-25.609 22.766l-1.954.485c-2.748-.504-4.82-2.312-7.045-3.909z"/>
  <path fill="#88EAC9" d="M125.782 156.56c.658 1.107.412 1.284.26 2.514 1.683-1.492 2.775-3.73 4.185-5.49 2.362-2.948 5.217-5.64 8.001-8.185 17.528-16.023 42.413-25.163 66.202-23.697 22.951 1.415 44.085 11.055 59.307 28.427 14.934 17.043 21.438 40.995 19.906 63.382q-.075 1.084-.178 2.166-.102 1.081-.231 2.16-.129 1.079-.284 2.154-.155 1.076-.337 2.147-.182 1.071-.391 2.138-.208 1.066-.443 2.127-.234 1.061-.495 2.116-.261 1.054-.547 2.102-.287 1.048-.599 2.089-.313 1.041-.651 2.073-.338 1.033-.701 2.057-.363 1.024-.752 2.039-.389 1.014-.802 2.019-.414 1.005-.852 1.999-.438.994-.9 1.977-.463.983-.95 1.955-.486.971-.997 1.93-.51.959-1.044 1.906-.534.946-1.092 1.878-.557.933-1.137 1.852-.58.918-1.182 1.823-.603.904-1.228 1.793-.624.888-1.271 1.762-.646.873-1.314 1.73t-1.356 1.697q-.689.84-1.398 1.663-.71.823-1.439 1.628-.729.806-1.478 1.593-.75.787-1.518 1.555-.768.768-1.555 1.517-.787.749-1.592 1.478-.805.73-1.628 1.439c-15.89 13.748-38.532 21.925-59.587 20.316-22.931-1.753-42.777-12.692-57.584-30.132-8.031-9.459-13.376-19.792-18-31.19-5.784-22.436-3.878-43.291 3.785-64.968-2.888 3.95-5.291 7.978-7.086 12.55-5.417 13.791-3.212 39.054 2.759 52.643l.013 1.314c-.501.795-1.314 1.923-1.47 2.852-.553 3.297 3.485 10.088 5.052 12.874 16.699 29.687 35.004 39.611 66.76 48.46l-.535.048q-1.011.089-2.025.153-1.013.064-2.028.102-1.014.039-2.029.052-1.015.013-2.031.001-1.015-.012-2.03-.049-1.014-.038-2.027-.1-1.014-.063-2.025-.151-1.012-.088-2.021-.201-1.009-.113-2.015-.251-1.005-.138-2.008-.302-1.002-.163-1.999-.351-.998-.188-1.991-.401-.993-.213-1.98-.451-.987-.237-1.968-.5-.98-.262-1.954-.549-.974-.286-1.941-.597-.967-.311-1.925-.645-.959-.335-1.909-.694-.949-.358-1.89-.741-.941-.382-1.872-.787-.931-.406-1.851-.834-.92-.429-1.83-.88-.909-.452-1.807-.925-.898-.474-1.784-.971-.886-.496-1.759-1.014-.874-.518-1.734-1.058-.86-.539-1.706-1.1t-1.678-1.143q-.833-.582-1.65-1.184-.817-.603-1.619-1.226-.802-.622-1.589-1.265-.786-.642-1.556-1.304c-18.82-15.949-29.744-39.783-31.504-64.207q-.085-1.098-.143-2.199-.057-1.1-.087-2.201-.03-1.102-.032-2.204-.003-1.101.022-2.203.025-1.101.078-2.202.053-1.1.133-2.199.08-1.099.188-2.196.107-1.096.242-2.189.135-1.094.297-2.184.162-1.089.352-2.175.19-1.085.406-2.165.216-1.081.46-2.155.243-1.075.513-2.143.27-1.068.567-2.129.297-1.061.62-2.114.323-1.054.673-2.098.349-1.045.725-2.081.375-1.036.777-2.062.401-1.026.827-2.042.427-1.016.879-2.02.452-1.005.929-1.998.477-.993.979-1.974.501-.981 1.027-1.949.526-.968 1.077-1.923.55-.954 1.123-1.895.574-.94 1.171-1.866.597-.926 1.217-1.837.62-.91 1.263-1.805.642-.895 1.307-1.774.665-.878 1.351-1.74.687-.861 1.394-1.706.708-.844 1.437-1.67c2.55 2.696 4.936 4.786 8.337 6.391z"/>
  <path fill="#405377" d="M191.787 132.273c18.203-2.036 37.1 3.542 51.684 14.524q1.45 1.097 2.844 2.264 1.394 1.167 2.729 2.402 1.334 1.235 2.606 2.534 1.272 1.299 2.478 2.66 1.206 1.36 2.344 2.779 1.137 1.418 2.203 2.891 1.066 1.473 2.057 2.997.992 1.524 1.907 3.095.915 1.572 1.752 3.186.836 1.615 1.592 3.269.755 1.653 1.428 3.343.673 1.689 1.261 3.409.589 1.721 1.092 3.468.502 1.748.918 3.518.416 1.77.743 3.559.328 1.788.567 3.591c2.882 20.507-2.699 42.706-15.34 59.181q-1.098 1.436-2.265 2.816-1.166 1.381-2.399 2.703-1.233 1.322-2.528 2.582-1.296 1.26-2.651 2.456-1.356 1.195-2.768 2.323-1.412 1.128-2.878 2.186-1.466 1.058-2.981 2.043-1.515.985-3.077 1.895t-3.166 1.742q-1.604.833-3.247 1.586-1.643.753-3.32 1.426-1.678.672-3.386 1.262-1.709.589-3.444 1.095-1.735.505-3.493.926-1.757.42-3.534.754-1.776.334-3.566.581c-.36.05-.72.101-1.082.14q-1.77.179-3.546.271-1.777.092-3.556.098-1.779.005-3.556-.077-1.777-.082-3.548-.25-1.771-.169-3.531-.424-1.761-.255-3.507-.596-1.746-.34-3.473-.766-1.727-.426-3.431-.936-1.705-.509-3.382-1.102-1.678-.592-3.324-1.266-1.647-.674-3.258-1.427-1.612-.754-3.184-1.585-1.573-.831-3.104-1.739-1.53-.907-3.014-1.888-1.484-.981-2.918-2.033-1.435-1.053-2.816-2.174-.742-.596-1.469-1.209-.727-.614-1.438-1.246t-1.407-1.281q-.695-.649-1.374-1.316-.679-.666-1.341-1.349-.662-.684-1.307-1.383-.645-.699-1.272-1.415-.628-.715-1.237-1.446-.61-.73-1.2-1.476-.591-.746-1.164-1.506-.572-.76-1.125-1.534t-1.087-1.562q-.533-.787-1.047-1.588-.514-.801-1.008-1.614-.494-.813-.967-1.639-.473-.825-.926-1.662-.453-.837-.884-1.685-.432-.848-.843-1.706-.41-.858-.799-1.727-.389-.868-.756-1.746-.367-.877-.713-1.764-.345-.887-.668-1.782-.323-.895-.624-1.797-.3-.903-.578-1.813-.279-.91-.534-1.827-.255-.916-.488-1.839-.232-.922-.442-1.851-.209-.928-.395-1.861-.186-.933-.349-1.87-.163-.938-.303-1.879-.139-.941-.255-1.886-.116-.944-.209-1.891c-1.962-20.367 3.713-42.174 16.874-58.025 12.866-15.495 29.553-23.199 49.403-25.117z"/>
  <path fill="#FEFEFE" d="M194.9 136.279c15.652-1.017 31.735 4.069 44.404 13.184q1.396 1.015 2.741 2.098 1.345 1.082 2.635 2.23 1.29 1.147 2.522 2.356 1.233 1.209 2.404 2.477 1.172 1.269 2.279 2.593 1.108 1.324 2.15 2.701 1.041 1.377 2.014 2.804.972 1.426 1.874 2.899.901 1.472 1.729 2.987.828 1.515 1.581 3.069t1.429 3.143q.675 1.589 1.272 3.209t1.114 3.268q.516 1.647.951 3.318.435 1.671.788 3.361.353 1.69.622 3.396.275 1.796.462 3.604.187 1.807.286 3.621.099 1.815.11 3.632.011 1.817-.067 3.632-.077 1.815-.242 3.625-.165 1.809-.418 3.609-.253 1.799-.593 3.584-.34 1.785-.766 3.551-.426 1.766-.937 3.51-.512 1.744-1.107 3.46-.595 1.717-1.273 3.403-.678 1.686-1.437 3.336-.759 1.651-1.597 3.263-.838 1.612-1.753 3.182-.916 1.569-1.906 3.093-.991 1.523-2.054 2.996c-12.481 17.044-29.494 25.677-50.011 28.734-18.344.999-35.838-5.438-49.776-17.326q-1.307-1.126-2.558-2.314-1.251-1.188-2.443-2.435-1.192-1.248-2.321-2.552-1.129-1.305-2.194-2.663-1.064-1.357-2.061-2.766-.997-1.408-1.924-2.863-.927-1.455-1.782-2.954-.855-1.498-1.636-3.037-.781-1.539-1.485-3.113-.705-1.575-1.333-3.183-.627-1.607-1.175-3.243t-1.016-3.297q-.468-1.661-.854-3.343-.386-1.681-.69-3.38-.303-1.698-.524-3.41-.22-1.711-.357-3.431c-1.569-19.789 4.065-39.803 17.208-54.88 12.31-14.12 29.184-21.576 47.715-22.738z"/>
  <path fill="#405377" d="M155.628 202.364c2.286-.148 5.693-.779 7.792.186 1.343.618 1.645.704 2.122 2.076-.16.166-.311.342-.481.498-2.689 2.447-9.632 1.635-13.162 1.576-1.962.098-4.645.491-6.51-.126-1.321-.438-1.5-.862-2.031-2.014.135-.165.248-.35.404-.496 2.621-2.464 8.456-1.734 11.866-1.7zm91.319-6.071c.456-.053.911-.115 1.369-.141 2.508-.139 3.222.178 5.011 1.771l-.113 1.259c-4.075 2.795-11.915 2.22-16.77 2.429l-6.094.385c-1.233-.577-1.58-1.107-2.278-2.258l.292-.887c4.151-3.107 13.461-2.375 18.583-2.558zm-52.745-51.308l2.136.21c.542.485 1.116.798 1.347 1.503 1.554 4.743 2.18 21.206.083 25.383-1.108-.403-1.73-.848-2.607-1.632-1.616-4.826-2.86-21.087-.959-25.464zm4.795 94.571c1.367.945 2.098 1.172 2.579 2.9 1.289 4.632 1.641 24.302-.58 28.273-.45-.183-1.142-.434-1.514-.735-1.51-1.225-1.601-3.469-1.787-5.275-.572-5.563-2.018-21.094 1.302-25.163zm10.046-59.774c1.118.211 1.769.69 2.692 1.335 2.473 5.527.861 28.34.762 35.489-6.998 7.627-19.984 12.958-28.828 18.897-1.14-.144-1.574-.448-2.452-1.176-2.114-5.289-1.71-27.93-.205-33.649 1.384-5.262 22.579-17.54 28.031-20.896z"/>
  <path fill="#88EAC9" d="M207.742 185.869c1.609 5.498.2 22.412.054 29.071-6.724 5.521-15.443 9.815-22.885 14.404-1.126-8.77.108-18.726.322-27.599 6.61-6.071 15.017-10.914 22.509-15.876z"/>
  <path fill="#405377" d="M648.523 826.056c6.501-.103 48.822 11.141 57.554 13.2l203.001 48.897 50.378 12.208c7.333 1.78 16.09 3.066 23.063 5.821 1.14.451 1.427.693 1.9 1.754 2.023 4.531 2.717 19.773 1.006 24.323-9.107 6.052-29.634 10.299-40.892 13.642-24.071 7.147-48.41 13.883-72.21 21.881-9.394.273-34.262-7.187-44.432-9.616q-53.173-12.471-106.154-25.736l-118.101-28.698c-22.784-5.548-46.27-10.367-68.56-17.592.088-8.423-.959-17.289.063-25.615 1.363-1.882 4.201-2.611 6.383-3.355 11.289-3.851 23.135-6.754 34.605-10.069l72.396-21.045z"/>
  <path fill="#FEFEFE" d="M980.064 911.464l.309.076c2.285 3.472.796 14.078.696 18.441-35.283 11.415-71.281 21.285-106.85 31.83l-.688-.373c-1.224-5.379-.311-12.709-.232-18.317 35.719-9.818 70.716-22.998 106.765-31.657zm-256.658-2.699c48.19 12.54 97.308 21.917 145.356 34.948-.074 6.055.356 12.794-.675 18.743q-72.638-16.433-144.855-34.628c-.014-6.353.106-12.711.174-19.063zm-183.521-44.514c8.54 1.494 17.194 4.422 25.639 6.498l49.412 11.872c34.439 8.481 69.335 15.859 103.566 25.088l-.06 18.625q-89.516-21.033-178.666-43.576l.109-18.507zm108.609-32.815c6.005-.523 35.237 7.529 42.922 9.321q76.879 17.794 153.436 36.927l83.21 20.02c14.453 3.521 29.14 6.692 43.393 10.95q-27.468 7.816-54.748 16.267c-15.36 4.612-30.857 8.963-46.012 14.214-33.829-8.774-68.06-16.481-102.074-24.526L624.36 879.948c-26.092-6.359-52.61-12.03-78.468-19.259 11.701-2.884 23.26-6.657 34.859-9.957l67.743-19.296z"/>
  <path fill="#405377" d="M595.372 55.842c9.2 4.235 18.756 7.605 28.02 11.69 1.821 9.886 1.837 21.008 2.604 31.086l28.572-18.675c13.289 6.218 27.984 11.846 40.457 19.49-5.768 14.526-12.365 28.951-18.808 43.191 1.756 10.416 3.356 20.993 5.869 31.254 7.809 3.271 16.599 8.178 25.154 8.308.787 2.622.402 4.771.003 7.403q-2.251 13.66-5.308 27.163-11.584 2.772-23.284 5c-6.995 16.159-16.137 30.321-29.059 42.354 1.399 13.111 3.37 26.152 5.155 39.214-11.14 10.702-21.836 22.69-33.503 32.713-10.195-2.417-21.075-5.103-30.778-9.068-2.79-5.052-4.825-10.456-7.608-15.488q-6.753 6.761-13.283 13.738c-2.827 2.841-5.989 5.627-8.589 8.66-4.267 4.383-8.125 9.173-12.071 13.843-9.525-4.234-18.814-9.735-28.109-14.508-8.176-4.199-16.719-7.854-24.684-12.419 4.484-12.656 9.748-25.109 14.707-37.59-5.642-8.84-9.771-17.061-12.562-27.203-6.918.718-24.312 4.033-29.695.996-.884-1.118-1.423-1.972-1.477-3.436-.123-3.33.73-7.03 1.006-10.386.678-8.235 1.136-16.978.433-25.211l-.064-.703c.578-2.179 1.596-2.863 3.385-4.114 7.436-1.306 16.324-6.592 23.245-9.749 1.939-11.867 4.91-22.696 9.206-33.919q-8.897-9.055-17.444-18.441c5.091-9.225 20.555-29.171 27.837-37.445l21.672 10.267c6.307-6.441 13.225-11.447 20.818-16.21.907-12.58.92-25.23 2.216-37.782q17.907-7.208 35.967-14.023z"/>
  <path fill="#FEFEFE" d="M597.38 62.244c7.303 2.32 14.581 5.858 21.699 8.758 1.033 9.924 1.708 20.008 2.194 29.973-7.173-3.358-13.689-5.68-21.601-6.474q-.992-16.14-2.292-32.257zm27.543 235.16c7.232 2.101 14.362 4.625 21.505 7.012-4.231 4.29-23.966 25.136-27.396 26.26-7.603-2.066-15.136-4.624-22.684-6.902 9.668-8.611 18.992-17.653 28.575-26.37zm20.803-164.418c8.479 2.536 16.972 5.005 25.28 8.068 1.511 7.689 6.161 23.419 5.325 30.287-8.384-1.379-17.14-1.599-25.611-2.105-.67-5.953-1.347-11.966-2.646-17.82-1.007-4.538-3.313-10.196-3.478-14.76-.045-1.242.621-2.564 1.13-3.67zm-19.008 122.797c5.784.826 12.71 4.488 18.197 6.678.866 12.504 2.981 25.084 4.697 37.508l-6.959-2.06q-8.048-2.421-15.979-5.201c-2.204-9.508-5.165-18.835-7.973-28.179l8.017-8.746zm41.684-36.183l7.071-.428c-7.852 14.923-15.133 27.952-27.219 39.945l-8.224-3.589-10.201-3.921c6.683-9.478 12.181-19.356 17.18-29.808l21.393-2.199zm-92.822 79.135l.409-.008c2.186 1.165 3.604 5.738 4.678 8.098-11.395 11.005-22.504 22.755-32.792 34.784l-7.158-3.696-9.823-4.689q10.78-14.944 21.033-30.254c8.255-.467 15.723-1.991 23.653-4.235zm92.039-207.059c7.198 2.908 14.232 6.266 21.292 9.494-2.254 5.987-12.198 31.294-15.752 35.017l-1.457-.116c-7.662-2.753-15.553-4.964-23.343-7.332 5.49-12.573 12.818-24.909 19.26-37.063zm8.036 84.44c8.969 4.14 18.12 7.526 27.403 10.887-1.279 8.1-2.489 16.682-4.903 24.516-1.388 1.416-3.081 1.315-4.991 1.624l-27.245 2.137c2.714-11.93 5.093-28.125 9.736-39.164z"/>
  <path fill="#FEFEFE" d="M590.803 62.625l1.31.25c3.11 9.785 1.08 25.287 3.564 36.253 10.451.925 18.433 2.871 27.359 8.482 9.414-8.454 20.767-15.415 31.615-21.873 3.058 1.2 5.96 2.757 8.889 4.24-8.837 14.995-17.814 31.384-24.789 47.316 5.009 11.27 6.758 23.401 7.096 35.632 8.047 1.248 16.386 1.559 24.509 2.213-2.626 13.293-5.594 27.356-9.553 40.293-4.355.754-12.556-.02-16.101 2.33-4.106 2.722-8.074 14.513-10.574 19.167-5.249 9.776-13.358 18.419-20.881 26.473 2.481 9.951 6.136 19.929 9.063 29.792q-14.932 13.956-30.006 27.761c-3.833-9.761-8.73-19.393-13.334-28.821-6.891 2.367-13.615 4.683-20.887 5.602l-8.666.759q-10.993 16.27-22.678 32.05c-8.383-3.309-16.552-8.018-24.63-12.05 4.229-11.68 8.32-24.516 14.406-35.32-6.632-10.572-11.222-20.372-14.951-32.302-9.535.023-19.601 1.909-29.148 2.696q.393-17.826 1.457-35.624c8.603-3.679 17.418-7.133 25.763-11.366 1.89-13.646 5.261-25.309 10.328-38.173-5.395-6.226-11.525-11.905-17.058-18.044 7.459-10.362 15.045-20.996 23.385-30.668 7.169 3.006 14.061 6.992 21.016 10.487 7.574-8.142 15.151-14.356 24.922-19.729.804-12.47 1.005-25.014 1.654-37.501q13.344-5.466 26.92-10.325z"/>
  <path fill="#405377" d="M581.28 132.129c7.337-.742 14.109.2 20.622 3.814 10.401 5.772 16.718 16.035 19.821 27.263 5.644 20.426.917 45.112-9.467 63.346-10.238 17.979-25.383 31.517-45.523 36.969-8.82 1.329-17.403.533-25.023-4.44-9.561-6.24-14.682-17.295-16.933-28.155-4.715-22.755 1.132-48.267 13.895-67.498 10.381-15.642 23.92-27.48 42.608-31.299z"/>
  <path fill="#FEFEFE" d="M582.488 136.82c10.26-.66 15.591 2.016 23.7 8.159-3.685.569-7.414 1.288-10.871 2.714-15.956 6.583-27.446 22.024-33.737 37.62-6.29 15.592-8.854 35.304-1.95 51.138 4.04 9.264 10.203 13.905 19.384 17.533l-6.338 2.884q-2.51.808-5.076 1.412c-7.803 1.814-15.767 1.46-22.68-2.921-8.476-5.372-13.106-15.362-15.172-24.858-4.772-21.931 1.387-46.993 13.586-65.517 9.469-14.378 22.087-24.694 39.154-28.164z"/>
  <path fill="#FEFEFE" d="M602.603 150.804c1.502-.101 3.134-.281 4.635-.148 2.337.207 4.272 2.043 5.661 3.804 7.141 9.06 7.18 26.434 5.835 37.279-2.318 18.693-12.182 42.115-27.496 53.904-4.462 3.435-6.908 4.162-12.489 3.425l-.367-.177c-1.599-.783-3.246-1.514-4.767-2.445-6.201-3.796-9.979-11.377-11.68-18.197-4.304-17.252.584-37.431 9.59-52.409 7.328-12.189 17.037-21.605 31.078-25.036z"/>
  <path fill="#405377" d="M1253.03 286.333q4.04-.185 8.08-.062c11.43.463 24.34 3.306 32.3 12.182 5.52 6.157 7.73 14.199 7.24 22.349-.36 6.021-2.59 12.577-3.99 18.441q-3.96 16.531-7.74 33.105l-30.66 132.875-37.43 170.335c-4.73 21.058-8.19 43.129-14.2 63.828-1.52 5.207-5.03 9.842-9.06 13.388-4.08 3.591-10.02 6.897-15.47 7.576-7.1.883-14.96-.21-22.1-.661l-38.59-2.574-137.141-9.245c1.149 7.108 1.619 14.42 2.468 21.581q2.802 22.516 5.187 45.08c11.166.408 22.446 1.765 33.586 2.681l63.88 5.061 109.67 8.052c10.63.773 21.38 1.068 31.98 1.964 1.96.166 2.97.429 4.46 1.7l-.08 1.862c-1.32 1.406-1.92 1.342-3.88 1.393-7.93.206-16.41-1.144-24.36-1.745l-50.31-3.647-118.59-8.803c-8.16-.636-40.418-4.633-44.839-3.05l-.206.928c4.695 3.728 50.185 9.879 61.655 14.923 2.54 1.114 4.12 2.102 5.06 4.815.69 1.982.71 4.034-.24 5.931-2.23 4.434-8.17 6.764-12.64 8.165-7.72 2.419-15.82 3.94-23.65 6.078-15.2 4.15-30.638 8.968-46.34 10.628-23.173 2.451-45.822-3.521-68.178-8.821q-24.148-5.681-48.106-12.118c-21.394-5.706-50.852-12.054-70.075-22.264-3.994-2.121-9.272-5.258-10.497-9.942-.531-2.029-.14-4.128.937-5.914 3.854-6.389 13.159-8.109 19.799-10.033l-337.664-27.859-.015 86.139c.002 7.362 1.206 28.33-.554 34.391-9.011 5.118-44.14 12.7-56.296 15.844l-80.846 21.113c-17.209 4.481-34.559 8.655-51.631 13.63-15.243-4.239-30.941-7.329-46.344-10.991l-97.126-22.746c-18.06-4.12-36.815-7.42-54.544-12.724-1.312-14.635-.08-30.301-.067-45.053L75.857 759l.175-319.087c5.268-1.85 11.269-2.693 16.753-3.849-.041-8.137-1.385-22.023.633-29.542.405-1.51.774-2.548 2.246-3.29 4.595-2.313 11.878-3.2 16.976-4.443l38.862-9.471c39.034-9.562 77.921-20.481 117.109-29.309 2.214-.498 4.986-1.293 7.218-.614 26.759 8.143 53.205 17.836 79.727 26.739 19.181 6.439 38.825 11.98 57.733 19.14l-.046 32.888c16.627 5.298 33.745 10.183 49.992 16.528l.019 314.54q172.971 15.617 346.155 28.651c18.715 1.33 29.99-6.819 46.635-7.358 3.43-.111 7.116.647 10.506 1.157-3.459-17.607-7.991-35.102-10.479-52.887-22.668-2.63-45.747-3.569-68.518-5.058l-95.015-6.486-39.306-2.553c-7.952-.524-16.288-.623-24.104-2.219q-1.661-.35-3.262-.912-1.602-.561-3.117-1.325-1.516-.765-2.919-1.719-1.404-.953-2.673-2.081c-5.887-5.188-9.55-14.006-9.967-21.75-.6-11.144 13.184-57.643 16.804-71.631q10.953-42.133 21.275-84.425l34.314-141.581c4.6-18.656 8.263-37.975 13.717-56.371 1.476-4.976 4.559-9.875 8.051-13.681 4.971-5.416 11.602-8.54 18.787-9.747 6.844-1.15 14.054-1.154 20.992-1.544l38.239-2.085 117.614-6.945 356.047-20.347z"/>
  <path fill="#FEFEFE" d="M275.973 364.841c43.991 15.031 88.601 28.521 132.433 43.964l.055 27.973q-49.261-14.8-98.212-30.599c-11.437-3.679-22.747-7.822-34.229-11.336l-.047-30.002zm-5.539.048l.428.357c1.555 6.473.385 22.082.364 29.521q-86.431 20.504-173.087 40.042c-1.932-7.079-.425-19.45-.224-26.995l101.85-25.52c23.505-5.862 46.994-12.289 70.669-17.405zm582.904 430.615c4.697-.702 9.402.589 13.98 1.542 2.178 7.158 1.87 17.883 6.582 23.671 5.076 2.899 81.868 18.415 93.119 20.282 3.767.624 8.289 1.415 12.101.968 4.549-.533 9.928-2.499 12.802-6.169 2.373-3.03 2.444-5.593 2.089-9.21 9.519 2.01 56.749 10.415 60.859 15.15.91 1.043.78 1.373.68 2.655-4.4 6.432-45.16 15.041-55.44 17.699-14.464 3.744-28.224 6.018-43.216 4.972-13.043-.909-25.828-4.104-38.532-7.029q-25.706-5.925-51.195-12.727c-20.424-5.413-45.198-11.259-64.54-18.913-5.34-2.112-13.325-5.232-16.931-10.001-1.08-1.428-1.089-2.234-.881-3.944 5.778-7.102 57.615-16.777 68.523-18.946zm411.232-504.505c6.48.588 13.56 2.316 19.21 5.655 6.37 3.776 10.12 9.563 11.91 16.668 1.07 4.26.27 8.056-.62 12.289-3.36 16.115-7.57 32.148-11.32 48.183l-24.95 107.715-35.87 163.145c-3.39 15.579-18.13 89.988-23.21 98.299-3.45 5.638-8.73 10.149-15.22 11.735-3.89 2.809-14.54 1.348-19.25 1.181 6.45-2.325 12.1-6.447 15.99-12.136 2.32-3.396 3.51-7.285 4.5-11.242 4.3-17.163 7.56-34.669 11.46-51.937l35.07-157.872 30.44-134.037c4.66-20.48 10.37-41.071 14.19-61.699 1.09-5.903 1.5-12.06.34-17.987-1.62-8.316-5.8-13.311-12.67-17.96z"/>
  <path fill="#FEFEFE" d="M860.71 739.156c39.616 1.442 79.259 5.857 118.839 8.355 2 12.375 2.837 25.131 4.339 37.596 1.742 14.46 4.126 28.923 5.564 43.407.259 2.601-.988 3.796-2.581 5.717-.142.097-.279.201-.425.292-3.256 2.04-6.676 2.976-10.511 2.891-11.31-.249-23.758-4.168-34.876-6.485q-32.139-6.571-64.196-13.531c-3.107-8.513-4.235-18.521-6.038-27.432q-5.295-25.358-10.115-50.81zM276.158 400.188c60.597 19.958 121.722 38.136 182.4 57.812l-.117 434.128c-12.352 3.891-25.312 6.607-37.853 9.93-28.931 6.848-57.661 15.021-86.405 22.65-19.216 5.1-38.631 9.519-57.761 14.916q-.543-88.832-.122-177.659l-.142-361.777z"/>
  <path fill="#405377" d="M304.445 445.379c6.756-.454 43.759 10.872 52.477 13.227 25.66 6.93 51.403 13.481 77.007 20.626l-.007 247.685-.013 84.257c-.03 15.128.352 30.388-.355 45.498l-27.39 7.08c-12.421 3.598-98.159 26.089-103.287 25.125-.544-1.029-.726-1.867-.859-3.035-.712-6.264-.306-12.889-.301-19.199l-.153-28.562.013-117.239-.052-168.038q-.152-34.387.062-68.771c.06-11.084-.231-22.289.273-33.355.104-2.285 1.198-3.549 2.585-5.299z"/>
  <path fill="#88EAC9" d="M307.258 450.312c17.875 4.014 35.783 9.68 53.49 14.499 22.72 6.184 45.639 11.793 68.243 18.364l.057 27.603c-12.433-.128-25.802-2.743-38.174-4.266-27.884-3.432-55.789-7.297-83.751-10.009l.135-46.191z"/>
  <path fill="#FEFEFE" d="M417.938 596.376c3.745-.309 7.558-.317 11.316-.452l.001 37.242c-37.396 3.216-74.828 7.674-112.159 11.66L306.741 646l-.051-42.547c37.112-1.688 74.157-4.964 111.248-7.077zm7.937 85.22c1.286-.249 1.846-.29 3.061.223 1.578 11.286.314 26.166.276 37.828l-119.891 20.048-1.62-.226c-2.344-4.703-.976-33.861-.974-41.161l119.148-16.712z"/>
  <path fill="#88EAC9" d="M307.017 552.426l122.008 3.893.1 34.253-7.134.64c-38.335.834-76.646 6.244-114.974 7.516v-46.302z"/>
  <path fill="#FEFEFE" d="M427.016 768.821l1.59.156c1.977 4.246.635 31.085.609 37.796-13.83 2.759-27.616 6.375-41.347 9.624l-79.079 18.715-1.434-.159c-1.75-3.664-.635-35.451-.616-41.935 15.829-1.947 31.81-6.139 47.433-9.376l72.844-14.821z"/>
  <path fill="#88EAC9" d="M428.521 638.3c1.419 1.513.746 33.484.741 38.161-15.64 1.208-31.426 4.039-46.972 6.234q-37.492 5.189-74.929 10.762c-1.529-4.445-.465-35.057-.498-42.684 15.844-2.274 32.028-3.412 47.957-5.055q36.829-3.927 73.701-7.418zm.028 86.698c1.387 2.037.696 33.533.694 38.678-12.958 2.07-25.82 5.097-38.693 7.671q-41.587 8.207-83.056 16.985c-1.661-2.512-.496-37.494-.471-43.338 12.098-1.193 24.238-3.968 36.228-6.024 28.335-4.859 56.801-10.225 85.298-13.972z"/>
  <path fill="#FEFEFE" d="M306.805 501.363q30.757 3.257 61.445 7.102c20.342 2.425 40.745 4.618 61.002 7.69l-.05 35.262c-40.722-.13-81.762-2.481-122.472-4.062l.075-45.992z"/>
  <path fill="#88EAC9" d="M427.499 812.14l1.22.507c1.623 9.438.165 29.714-.004 40.121q-59.69 15.614-119.585 30.424l-1.007.058c-2.017-2.281-1.02-37.432-1.023-42.853 40.366-8.003 80.226-19.277 120.399-28.257z"/>
  <path fill="#FEFEFE" d="M269.5 400.117l1.139.089c.217.352.536.658.651 1.055.738 2.555-.124 16.5-.14 20.505l-.105 77.742.275 440.288c-17.453-4.571-35.231-8.316-52.808-12.399l-98.827-22.845-38.957-9.193.059-312.898c.055-46.22.993-92.544-.077-138.749 63.147-13.302 125.987-28.738 188.79-43.595zm967.2-108.451c3.05-.174 6.1-.301 9.15-.179 7.7.307 16.16 1.702 21.59 7.707 4.67 5.179 6.33 13.689 5.88 20.459-.52 7.706-3.05 15.432-4.87 22.932l-7.34 31.629-27.64 121.979-36.34 164.226c-5.39 24.158-9.92 49.064-16.53 72.897-1.41 5.079-3.9 9.157-7.9 12.605-5.23 4.508-11.84 7.636-18.78 8.007-17.11.913-36.26-1.832-53.43-3.018l-99.84-6.847-320.931-22.452c-14.072-1.758-48.368-.248-58.065-7.997-5.398-4.314-8.667-10.777-9.379-17.616-.428-4.116.158-8.251 1.039-12.27 2.399-10.946 5.765-21.75 8.494-32.626q14.056-54.135 27.455-108.436l33.052-136.782c4.816-19.86 8.855-40.038 14.311-59.723 1.459-5.263 3.176-9.822 6.72-14.066 3.794-4.544 9.528-8.776 15.427-9.862 13.754-2.533 29.003-2.144 43.019-2.94l88.393-5.088 271.475-15.796c38.29-2.237 76.83-3.58 115.04-6.743z"/>
  <path fill="#405377" d="M1241.7 307.005c3.7-.306 9.03-1.226 12.32.892 1.6 1.03 2.21 2.293 2.49 4.125.47 3.106 0 6.715-.59 9.772-4.69 24.144-10.77 48.131-16.07 72.157q-16 73.711-32.75 147.253l-20.16 91.117c-3.45 15.694-6.61 31.601-10.64 47.154-.32 1.238-.75 2.01-1.47 3.053-16.87.08-34.39-1.941-51.27-2.855q-59.3-3.034-118.55-6.844l-322.346-18.7c-9.064-.634-38.386-.93-44.742-3.675-.326-5.593 9.495-39.324 11.861-48.643L669.79 520.9l28.924-120.978c3.649-15.227 6.734-30.679 10.768-45.797 1.249-4.68 2.672-8.416 5.9-12.105 3.993-4.564 7.347-5.865 13.283-6.737 14.419-2.116 30.976-1.936 45.743-2.709q45.468-2.14 90.903-4.889l293.739-16.109c27.53-1.614 55.14-2.566 82.65-4.571z"/>
  <path fill="#88EAC9" d="M1239.77 311.664c3.23-.202 9.01-1.25 11.65.867.81.65.66.384.79 1.372.75 5.883-15.08 71.291-17.82 83.768q-18.66 86.808-38.56 173.34c-7.51 33.93-14.29 68.192-22.66 101.916-.47 1.911-.93 3.392-2.13 4.99-17.19-1.436-34.51-1.999-51.73-2.997l-103.56-5.949-333.413-19.119q-19.769-1.47-39.56-2.589c7.203-26.058 13.374-52.487 19.807-78.75l33.25-138.188c5.835-24.54 11.045-49.467 17.654-73.801.902-3.321 1.941-8.236 4.191-10.921 2.874-3.43 6.696-5.696 11.124-6.327 14.098-2.009 33.055-1.763 47.772-2.466q46.485-2.15 92.939-4.873l284.896-15.732c28.43-1.699 56.97-2.372 85.36-4.541z"/>
  <path fill="#405377" d="M1219.96 323.009c6.36-.269 12.69-.535 19.05-.431.32.854.65 1.699.68 2.622.23 5.675-3.06 14.44-4.36 20.166l-9.5 43.087q-21.46 98.432-44.4 196.527c-5.96 25.597-10.9 51.567-17.57 76.978-.56 2.135-1.02 3.789-2.49 5.484-20.35-.176-41.09-2.102-61.44-3.267l-113.004-6.374q-142.884-7.274-285.67-16.288c-12.3-.238-25.319-.742-37.548-2.038-2.407-.255-6.617-.462-8.194-2.409 1.403-11.638 5.296-23.703 8.097-35.116l16.772-68.062 29.779-121.561c4.41-17.826 8.205-36.026 13.231-53.676 1.031-3.621 2.306-7.193 4.548-10.255 8.033-2.14 25.411-1.889 34.404-2.372l92.859-4.548 364.756-18.467z"/>
  <path fill="#88EAC9" d="M1141.27 343.666c1.75-.144 3.35-.513 4.91.512-.66 5.732-8.47 39.542-11.37 43.041-42.83.691-85.86 3.186-128.66 5.088l-134.027 5.088c-30.816 1.216-61.665 2.924-92.508 3.186-1.553-1.018-3.806-2.572-4.186-4.525-1.047-5.391 5.419-27.015 8.997-31.389 1.618-1.976 3.005-2.746 5.472-3.132 10.237-1.6 21.122-1.432 31.491-1.933l58.73-2.843 180.241-8.785c26.98-1.394 53.99-1.888 80.91-4.308z"/>
  <path fill="#405377" d="M1119.91 346.329c3.02-.554 6.33-.678 9.18.672 2.02.957 3.51 2.628 4.17 4.766 1.09 3.499-.05 7.46-1.89 10.492-2.54 4.172-6.16 6.821-10.83 8.023-1.92.589-3.67.72-5.56-.109-2.45-1.07-4.23-3.405-5.17-5.847q-.24-.623-.42-1.266-.18-.644-.29-1.302-.12-.659-.17-1.325-.04-.667-.03-1.335.02-.668.11-1.331.08-.662.23-1.313.15-.651.37-1.284.21-.633.49-1.241c2.05-4.388 5.57-5.97 9.81-7.6z"/>
  <path fill="#FEFEFE" d="M1119.02 350.998c2.35-.406 5.11-1.069 7.38-.076 1.21.528 2.17 1.499 2.57 2.774.53 1.722.08 3.585-.71 5.151-1.65 3.266-4.34 5.47-7.75 6.653-.11.087-.21.206-.34.26-.96.404-1.66.474-2.68.262-1.58-.33-2.78-1.288-3.63-2.651-1.19-1.895-1.28-4.059-.74-6.188.85-3.359 3.15-4.5 5.9-6.185z"/>
  <path fill="#405377" d="M1094.55 353.663c3.52-.519 6.7-.802 9.64 1.561 2.76 2.216 4.01 5.677 4.16 9.129.19 4.489-1.36 9.184-4.54 12.406-2.85 2.878-5.75 3.333-9.58 3.265-.68-.087-.65-.065-1.44-.275-3.43-.909-7.91-3.517-9.53-6.767-1.25-2.499-1.12-5.71-.24-8.304 1.97-5.881 6.31-8.471 11.53-11.015z"/>
  <path fill="#FEFEFE" d="M1095.94 357.663c.21-.016.41-.035.61-.048 2.06-.131 3.58-.132 5.13 1.361 1.82 1.747 2.58 4.537 2.47 6.999-.14 3.056-1.55 6.257-3.86 8.283-2.49 2.174-4.7 1.98-7.75 1.686l-1.48-1.376c-1.23-1.139-2.36-2.159-3.18-3.651-.97-1.745-1.63-4.063-.99-6.033 1.21-3.75 5.75-5.713 9.05-7.221z"/>
  <path fill="#405377" d="M1041.37 355.05c6.39-.388 17.2-2.233 22.61 1.767 1.98 1.459 3.02 3.572 3.18 5.999.27 4.226-2 8.561-4.83 11.581-3.59 3.831-7.72 4.496-12.71 5.165-9.44 1.267-19.37 1.081-28.9 1.485q-30.675 1.378-61.371 2.18l-152.405 6.006c-6.268-.04-17.082 2.378-22.323-1.443-1.835-1.337-2.718-3.375-2.922-5.59-.37-4.008 1.2-7.799 3.795-10.798 1.877-2.169 4.637-3.887 7.466-4.45 9.615-1.915 20.467-1.594 30.301-2.095q29.893-1.555 59.804-2.722l158.305-7.085z"/>
  <path fill="#88EAC9" d="M1038.36 358.971c6.26-.277 16.97-2.187 22.41 1.344 1.42.919 2.48 2.357 2.66 4.069.22 2.104-.86 4.037-2.24 5.537-3.07 3.344-7.58 5.019-11.98 5.634-8.34 1.168-17.4.822-25.85 1.158l-56.545 2.082-156.733 6.408c-6.638-.003-18.699 2.515-24.046-1.787-.949-1.903-1.245-2.797-.814-5.005.757-3.887 4.448-6.305 7.461-8.405 24.156-.587 48.305-2.656 72.456-3.636q86.638-3.048 173.221-7.399z"/>
  <path fill="#FEFEFE" d="M1228.98 326.999c2.03-.131 3.85-.272 5.85.153-4.24 21.126-9.36 42.134-14.03 63.172q-14.38 66.033-29.52 131.896l-18.18 79.224c-4.21 19.042-7.74 38.389-12.69 57.25-.42 1.577-.87 2.704-2 3.928-16.07-1.89-33-1.715-49.2-2.546l-101.95-5.447-347.4-19.701c7.404-27.571 13.746-55.451 20.48-83.193l29.069-118.697 12.116-50.433c2.372-9.946 4.184-20.743 7.981-30.22 11.118-2.312 23.869-1.817 35.293-2.36l66.506-3.21 237.605-12.216q39.62-1.619 79.21-3.994c.17.593.32 1.147.41 1.759.39 2.701-.62 4.617-2.14 6.763-34.56 3.363-69.6 4.123-104.29 5.736l-159.975 7.755-60.659 2.921c-10.217.487-21.305.133-31.35 1.857-4.438.761-7.892 3.159-10.384 6.922-5.924 8.945-15.846 58.195-18.916 71.413q-6.792 29.346-13.942 58.606c-4.477 18.157-8.772 36.477-13.491 54.56-4.588 17.582-9.841 35.547-13.297 53.366-.755 3.892-.984 7.85-.191 11.756.914 4.5 3.254 7.946 7.155 10.387 3.17 1.984 6.761 2.234 10.401 2.533 32.972 2.714 66.199 3.863 99.247 5.509l133.387 6.956 52.825 2.751c10.93.61 37.47 3.708 46.6 1.202 7.13-1.956 13.55-7.378 17.03-13.823 4.37-8.087 14.77-65.097 17.52-78.168q14.26-67.371 29.54-134.515c2.77-11.931 20.52-80.918 18.94-86.296 25.47-1.39 50.98-2.114 76.44-3.556z"/>
  <path fill="#6CD0BB" d="M752.596 363.434c3.119-.258 6.926-.844 9.521 1.251l.08 1.372c-2.996 3.963-7.818 2.793-12.704 5.333l-.759.401c-.787.6-1.598 1.272-2.461 1.756-1.316.739-1.91.619-3.291.178-.448-1.349-.501-1.551.081-2.928 1.811-4.285 5.499-5.833 9.533-7.363zm7.282 17.775c2.238.1 3.402.168 5.192 1.573.628 1.062 1.003 1.824 1.007 3.085.015 4.564-3.323 8.685-6.445 11.648-1.995-.151-2.908-.545-4.43-1.841-.73-1.374-1.163-2.411-1.05-3.998.314-4.404 2.565-7.626 5.726-10.467zm-23.501-3.391c5.602 4.836-3.209 12.976.443 20.491 2.927 6.023 10.027 3.974 15.198 5.939l.478 1.173c-1.107 1.8-2.338 2.581-4.105 3.699-4.566 1.176-7.62.324-11.959-1.044-3.852-3.702-6.089-7.5-6.444-12.94-.43-6.585 2.172-12.425 6.389-17.318zm450.263-38.152c5.63-.021 10.82.836 15.3 4.506 4.31 3.525 6.33 8.649 6.8 14.062q.07.835.09 1.672.03.837.01 1.674-.01.837-.07 1.672-.06.836-.16 1.667-.1.831-.24 1.657-.14.825-.32 1.642-.19.818-.41 1.625-.22.807-.49 1.601-.26.795-.56 1.576-.31.78-.65 1.545-.34.764-.72 1.51-.38.746-.8 1.472-.41.727-.87 1.431-.45.704-.94 1.385-.48.681-1.01 1.336-.52.656-1.07 1.284c-5.9 6.785-13.31 10.379-22.24 10.916-4.3-.291-8.67-1.582-12.18-4.165-4.51-3.306-7-8.053-7.91-13.5-1.38-8.188 1.28-16.794 6.09-23.438 5.68-7.846 12.96-11.603 22.35-13.13z"/>
  <path fill="#FEFEFE" d="M1181.62 345.666c5.12-.795 10.13-1.064 14.72 1.792 3.64 2.262 5.89 6.055 6.76 10.188 1.43 6.775-.46 13.75-4.3 19.405-3.76 5.528-9.04 9.303-15.6 10.617-3.24.835-7.38.556-10.53-.584-3.68-1.329-6.35-4.577-7.9-8.072-2.41-5.45-2.1-11.652.03-17.134 3.2-8.205 8.95-12.811 16.82-16.212zm-49.54 46l1.45.171.57 1.139c-.38 6.722-4.63 21.006-6.27 28.366l-14.62 66.406-19.68 91.578c-3.11 14.678-5.16 30.601-9.6 44.864-1.19 3.833-3.81 7.268-6.73 9.959-3.33 3.055-7.47 5.157-12.02 5.433-9.71.591-20.15-.812-29.9-1.34l-61.258-3.226-234.369-12.419c-1.823-.043-3.723-.063-5.519-.407-3.392-.649-6.672-2.929-8.444-5.898-1.502-2.516-2.115-5.141-1.753-8.045 1.008-8.088 3.404-16.087 5.386-23.986q4.72-18.562 9.237-37.175 17.981-72.534 34.623-145.388c2.319 1.357 4.575 2.816 7.327 2.971 12.805.718 26.34-.508 39.201-.935l83.727-3.269 156.102-5.986q36.28-1.168 72.54-2.813z"/>
  <path fill="#0F5965" d="M970.081 423.999c1.885-.051 3.433-.198 5.169.616.565 2.085-.08 3.579-.578 5.627-1.77.071-3.208.069-4.929-.377-.946-1.992-.119-3.762.338-5.866z"/>
  <path fill="#066F67" d="M967.798 435.983c1.968.119 3.243-.05 4.931 1.097-.1 8.873-3.256 18.803-4.512 27.695-1.597-.062-3.701.173-5.029-.681.511-9.31 2.765-18.958 4.61-28.111zm-14.27-11.628c1.729.006 4.03-.153 5.328 1.025-2.047 13.064-4.873 25.984-6.803 39.071-1.827.237-3.078.387-4.84-.213-1.225-4.215 5.136-33.264 6.315-39.883zm-59.666 4.288c1.265.006 2.744-.108 3.957.273 1.151.361 1.205.677 1.732 1.676-.715 1.502-1.49 2.754-1.287 4.474l1.101.821c1.709-.119 3.153-.255 4.812.229.83 1.472.62 1.485.184 3.149-2.356 2.12-4.489 1.539-7.484 1.44-.615 7.939-2.234 15.978-3.469 23.844-1.919-.008-3.019.27-4.653-.79-2.3-6.275 2.28-13.036 2.338-19.377.042-4.593-3.33-2.732-5.574-4.814.092-1.363.062-2.296 1.009-3.382a92.693 92.693 0 014.536-.03c1.901-1.704 2.152-5.039 2.798-7.513z"/>
  <path fill="#2DA595" d="M969.061 608.046c5.712-.152 79.939 2.796 81.999 3.423 1.31.4 1.56.57 2.22 1.72-.7 1.643-1.29 1.85-2.73 2.844-.17.077-.34.173-.52.23-2.11.672-77.602-2.625-80.82-3.914-1.1-1.788-.594-2.31-.149-4.303z"/>
  <path fill="#066F67" d="M809.948 424.928l6.751.177c4.68 10.061 8.877 20.402 14.19 30.152 1.599-6.241 4.715-24.722 7.827-29.23 1.819-.997 2.224-.859 4.225-.723l.606 1.004c-.4 4.871-2.257 9.305-3.448 13.999-1.975 7.787-3.517 15.764-6.058 23.389-1.713.091-3.63.333-5.303-.11-2.451-.649-12.441-25.418-14.735-29.426l-.497-.858c-1.417 5.345-5.034 27.854-8.02 30.457-1.749-.043-2.57.184-4.013-.859.948-10.657 5.181-27.583 8.475-37.972z"/>
  <path fill="#2DA595" d="M859.861 530.947l1.418 1.127c.206.655.379 1.21.378 1.905-.009 4.513-10.277 51.486-12.537 58.559-.939 2.938-1.859 5.559-4.123 7.744-3.559 3.435-8.21 5.958-13.065 6.936-7.956 1.602-16.909.095-24.986-.312-13.21-.666-26.454-1.423-39.679-1.647-.689-.483-.39-.206-1.017-1.018-.745-.966-.404-1.302-.263-2.459 4.992-2.876 47.072.876 55.687 1.319 5.676.292 12.041.181 16.752-3.446 12.889-9.925 12.153-60.627 21.025-68.366.134-.117.274-.228.41-.342z"/>
  <path fill="#066F67" d="M861.162 435.488c4.71-.109 7.439 1.589 11.744 2.956.589-.74 1.217-1.626 1.951-2.222 1.245-1.012 2.186-.686 3.618-.372.499 2.372.026 4.784-.448 7.133-.505 2.498-3.906 19.365-4.831 20.312-.423.432-1.006.672-1.509 1.008-1.784-.197-2.103-.4-3.514-1.381l-.144-2.657q-1.594 1.048-3.3 1.902c-3.601 1.834-7.924 2.742-11.831 1.33q-.516-.188-1.009-.429-.493-.242-.958-.535-.465-.292-.896-.632t-.824-.724q-.393-.384-.742-.807-.35-.423-.653-.881-.303-.458-.556-.946-.253-.487-.453-.999c-1.474-3.695-.91-7.921.778-11.441 2.812-5.863 7.644-8.651 13.577-10.615z"/>
  <path fill="#FEFEFE" d="M862.69 440.885c1.308.167 2.775.283 4.036.674 1.818.564 3.408 1.939 4.156 3.701.922 2.17.44 4.575-.572 6.62-2.095 4.23-5.004 5.695-9.237 7.049-1.836-.101-4.045-.198-5.714-.997-1.853-.886-3.304-2.569-3.79-4.577-.628-2.6.386-5.283 1.895-7.386 2.414-3.364 5.372-4.375 9.226-5.084z"/>
  <path fill="#066F67" d="M922.732 435.483c2.615-.131 4.84-.126 7.155 1.249l4.199 2.537c.311-1.53.571-1.977 1.656-3.165 1.796-.096 3.228.012 4.971.46.603 4.764-2.995 18.397-3.976 24.323-.34 2.057-.528 2.583-2.251 3.815-1.104.071-1.822.093-2.805-.431-1.133-.604-.933-.972-1.293-2.138-.799.491-1.585.905-2.451 1.27-4.01 1.689-8.889 2.42-12.963.545-3.183-1.466-5.508-4.21-6.653-7.499-1.334-3.829-.865-7.983 1.015-11.544 2.867-5.433 7.83-7.761 13.396-9.422z"/>
  <path fill="#FEFEFE" d="M921.909 440.715c1.612-.017 3.437-.126 5.004.288 2.066.547 3.929 2.127 4.9 4.014 1.259 2.445 1.028 5.172.07 7.68-1.48 3.871-4.279 5.306-7.824 6.859-1.711-.005-3.738.121-5.39-.374-2.14-.641-4.038-2.429-4.871-4.486-.9-2.22-.62-4.722.293-6.891 1.611-3.824 4.24-5.475 7.818-7.09z"/>
  <path fill="#2DA595" d="M793.339 516.248c17.69 1.397 36.049.951 53.8 1.091l65.649.811c14.042.039 28.734-.842 42.701.351 2.258.193 3.554.449 5.263 1.966l-.107 1.532-1.611 1.395q-60.75-.265-121.489-1.464c-10.734-.192-35.334.782-44.163-1.003-1.653-.334-2.31-.503-3.216-1.935.759-1.745 1.539-1.846 3.173-2.744z"/>
  <path fill="#066F67" d="M993.26 435.444c2.825-.252 5.655-.499 8.29.717l4.91 2.299c1.09-.496 1.66-1.345 2.43-2.228 1.74-.756 2.58-.858 4.45-.535.07.136.17.262.22.407.87 2.431-3.06 22.873-4.37 25.961-.74 1.741-1.22 2.191-2.95 2.829-2.02-.615-2.28-.941-3.68-2.541-4.671 2.256-9.641 3.768-14.78 1.878q-.622-.229-1.216-.521-.595-.292-1.156-.644-.561-.353-1.082-.761-.522-.409-.998-.869-.476-.461-.902-.968-.426-.508-.797-1.057-.371-.548-.683-1.133-.312-.584-.562-1.198-.28-.693-.487-1.412-.208-.718-.342-1.454-.133-.735-.192-1.481-.058-.745-.041-1.493.018-.747.111-1.489.094-.742.262-1.471.168-.728.41-1.436.241-.707.553-1.387c2.526-5.602 7.172-8.029 12.602-10.013z"/>
  <path fill="#FEFEFE" d="M993.072 440.685c1.906-.083 4.037-.299 5.923.008 2.015.329 4.035 1.739 5.195 3.384 1.33 1.883 1.7 4.145 1.22 6.384-.92 4.276-3.85 6.615-7.352 8.767-2.186.429-4.539.738-6.722.104-2.037-.591-3.863-2.088-4.884-3.942-1.232-2.238-1.315-4.945-.524-7.344 1.27-3.858 3.702-5.635 7.144-7.361z"/>
  <path fill="#2DA595" d="M986.615 519.494q.646-.043 1.293-.057c17.502-.385 35.112.135 52.632.214 9.03.04 18.64-.836 27.59-.047 1.98.174 3.55.463 5.01 1.847l-.06 1.234c-.81.772-1.49 1.407-2.61 1.674-4.94 1.177-11.8.396-16.93.398-14.49.005-28.98.079-43.46-.131-6.94-.101-14.409-1.256-21.263-.392q-1.314.158-2.601.469-1.286.31-2.528.77-1.241.459-2.42 1.061-1.179.602-2.279 1.338c-3.688 2.466-6.426 5.987-8.147 10.057-4.588 10.849-5.862 36.676-8.624 49.922-2.125 10.195-6.058 16.717-14.795 22.383-3.009 1.287-6.007 2.049-9.272 2.246-14.057.848-28.953-1.105-43.041-1.82-7.768-.394-16.518.179-24.123-1.272-2.114-.404-4.606-.885-5.859-2.777 4.105-5.973 66.61 4.376 79.321-.315 4.817-1.777 8.299-5.513 10.441-10.082 2.523-5.382 2.949-11.385 3.768-17.194 1.678-11.891 3.39-34.263 8.519-44.358 4.13-8.127 10.995-12.435 19.438-15.168z"/>
  <path fill="#88EAC9" d="M895.071 533.64c5.691.784 11.904 4.355 17.14 6.679q10.118-2.191 20.214-4.482c.133 5.303.027 10.625.014 15.93 5.11 4.899 11.258 8.736 16.462 13.637-5.287 4.188-11.309 7.595-17.037 11.152-2.338 5.497-1.695 11.911-4.603 17.009-1.875 1.041-2.36.591-4.398.142-4.999-1.858-10.217-3.226-15.331-4.736-6.956 1.768-13.925 3.706-20.992 4.965-1.447-5.79-2.044-12.056-3.162-17.953-4.437-5.253-10.368-9.438-15.106-14.546 6.492-4.639 14.112-7.769 20.965-11.899a187.077 187.077 0 005.834-15.898zm-78.365-3.754l1.696.089c3.075 2.208 4.998 11.972 6.127 15.69 5.54 4.167 11.504 7.528 16.797 12.076-3.242 3.53-7.015 6.464-10.658 9.561-7.852 6.675-10.503 14.001-14.517 23.262l-18.052-6.166c-4.521 1.495-8.962 3.231-13.416 4.914l-5.546 2.247c-1.879-5.686-3.131-11.254-4.319-17.117-4.547-4.073-9.356-7.82-13.864-11.972 4.795-4 10.222-7.467 15.281-11.142.424-6.537 1.106-13.034 1.804-19.546 19.552 4.287 19.713 6.731 38.667-1.896zm185.334 6.175c7.02 2.741 14.04 5.405 21.18 7.812 6.52-2.748 13.17-5.004 19.86-7.266.17.249.34.493.5.748 1.47 2.403 2.22 15.328 1.5 18.092 4.02 1.364 13.59 6.583 15.51 10.227-1.5 3.873-12.92 11.394-16.91 13.195.05.685.09.739-.04 1.529-.68 4.201-4.44 14.968-7.71 17.516-5.71-2.899-11.6-5.063-17.73-6.874-6.87 1.478-13.36 4.256-19.86 6.847-1.284-6.427-2.644-12.746-4.461-19.046-5.821-3.552-11.676-7.171-16.908-11.558 5.9-5.03 13.51-8.862 20.12-12.943 1.421-5.951 2.494-12.698 4.949-18.279z"/>
</svg>
