<svg xmlns="http://www.w3.org/2000/svg" viewBox="0 0 96.07 29.68">
  <path d="M81.23 29.68H14.84C6.64 29.68 0 23.04 0 14.84S6.64 0 14.84 0h66.39c8.2 0 14.84 6.64 14.84 14.84s-6.64 14.84-14.84 14.84" fill="#373cf5"/>
  <path d="M11.87 14.84c0 4.91 3.99 8.89 8.9 8.9 1.99 0 3.91-.66 5.47-1.89l-1.88-2.1a6.1 6.1 0 01-8.52-1.3 6.1 6.1 0 011.3-8.52 6.087 6.087 0 016.06-.67l1.12-2.59c-4.5-1.97-9.75.09-11.72 4.6a8.906 8.906 0 00-.74 3.56" fill="#fff"/>
  <path d="M16.03 14.84c0 2.62 2.13 4.74 4.75 4.75.95 0 1.89-.3 2.67-.84 0 0-1.76-1.97-1.92-2.14-.24.1-.49.15-.75.16a1.92 1.92 0 01-1.92-1.92c-.01-1.06.84-1.93 1.9-1.95.28 0 .56.05.81.17l1.11-2.56c-.6-.26-1.25-.4-1.9-.41-2.62 0-4.74 2.13-4.75 4.74m8.29-1.85c.29.57.45 1.2.46 1.84-.02.9-.33 1.78-.88 2.5l1.91 2.1a6.783 6.783 0 001.07-7.63l-2.56 1.19zm-.79-1.05l4.83-2.27a9.01 9.01 0 00-2.68-2.61l-2.17 4.86.02.02zm15.04-.71c.35.13.67.32.95.57l-.78.92c-.18-.15-.39-.27-.61-.36-.2-.08-.42-.12-.64-.12-.44-.01-.86.21-1.1.59-.31.55-.45 1.18-.4 1.81-.04.62.09 1.24.4 1.79.25.38.67.6 1.12.58.24 0 .47-.05.69-.14.24-.11.46-.25.67-.41l.73.93c-.27.27-.59.48-.94.64-.38.17-.8.25-1.22.25-.58.01-1.16-.13-1.66-.42a2.76 2.76 0 01-1.1-1.24c-.28-.62-.41-1.29-.39-1.97-.02-.67.12-1.33.4-1.94.24-.51.63-.94 1.11-1.24.49-.29 1.05-.43 1.62-.42.39 0 .78.06 1.15.19m5.62-.01c.35.13.67.32.95.57l-.78.92c-.18-.15-.39-.27-.61-.36-.2-.08-.42-.12-.64-.12-.44-.01-.86.21-1.1.59-.31.55-.45 1.18-.4 1.81-.05.62.09 1.24.4 1.79.25.38.67.6 1.12.58.24 0 .47-.05.69-.14.24-.11.46-.25.67-.41l.73.93c-.27.27-.59.48-.94.64-.38.17-.8.25-1.22.25-.58.01-1.16-.13-1.66-.42a2.76 2.76 0 01-1.1-1.24c-.28-.62-.41-1.29-.39-1.97-.02-.67.12-1.33.4-1.94.24-.51.63-.94 1.11-1.24.49-.29 1.05-.43 1.62-.42.39 0 .78.06 1.15.19m1.66-.03h1.63v6.89h-1.63zm10.23 0l-1.92 6.89h-2.03l-1.99-6.89h1.72l1.31 5.62 1.23-5.62h1.67zm4.63 0l-.17 1.16h-2.43v1.65h2.12v1.14h-2.12v1.76h2.6v1.17h-4.23V11.2h4.23zm6.22 6.89h-2.08l-1.99-5.34c.07.52.12.99.15 1.39.04.4.05.88.05 1.43v2.53H61.6v-6.89h2.03l2.04 5.35c-.14-.85-.21-1.71-.22-2.57v-2.78h1.46v6.89zm5.71-6.16c.74.69 1.1 1.68.98 2.68.11 1-.24 1.99-.96 2.7-.71.54-1.59.82-2.48.78h-2.07v-6.89h1.92c.92-.05 1.84.21 2.6.73m-2.89.45v4.53h.54c.46.03.91-.15 1.22-.5.33-.54.48-1.17.42-1.8.02-.47-.05-.93-.21-1.37-.1-.28-.3-.52-.57-.67-.28-.13-.58-.19-.89-.18h-.52zm8.98-1.18l-.17 1.16h-2.43v1.65h2.12v1.14h-2.12v1.76h2.6v1.17h-4.23V11.2h4.23zm-1.29-2.62l.59 1.17-2.39.87-.4-.8 2.2-1.24zm6.42 2.62l-.17 1.16h-2.43v1.65h2.12v1.14h-2.12v1.76h2.6v1.17h-4.23V11.2h4.22z" fill="#fff"/>
</svg>
