<svg fill="none" xmlns="http://www.w3.org/2000/svg" viewBox="0 0 60 59">
  <mask id="ivcq-UwEEzg1a" style="mask-type:luminance" maskUnits="userSpaceOnUse" x="0" y="0" width="60" height="59">
    <path d="M59.79 0H.646v59H59.79V0z" fill="#fff"/>
  </mask>
  <g mask="url(#ivcq-UwEEzg1a)">
    <mask id="ivcq-UwEEzg1b" style="mask-type:luminance" maskUnits="userSpaceOnUse" x="1" y="0" width="58" height="58">
      <path d="M58.862 0H1.573v57.15h57.29V0z" fill="#fff"/>
    </mask>
    <g mask="url(#ivcq-UwEEzg1b)" fill="#1C274D">
      <path d="M13.63 57.216a.303.303 0 01.256-.2c.39-.054.403-.336.417-.63.067-.9.309-1.73.82-2.495.417-.63.981-1.1 1.72-1.3.162-.04.202-.121.202-.269 0-1.006-.094-.804.793-1.287 1.13-.604 2.339-1.02 3.522-1.489 1.33-.523 2.648-1.045 4.073-1.273.148-.027.174-.121.201-.228.148-.577.148-1.154.121-1.744 0-.16-.12-.214-.228-.295-.78-.563-1.6-1.059-2.353-1.662-1.102-.885-1.895-2.012-2.58-3.232-.47-.845-.914-1.703-1.264-2.615-.094-.241-.255-.348-.51-.348-.404 0-.807 0-1.197-.08-1.022-.202-1.667-.859-2.124-1.744-.12-.241-.215-.483-.35-.724v1.85c.028 1.1.068 2.213.095 3.313.04 1.314.067 2.641.457 3.915.269.885.645 1.716 1.223 2.467.08.108.188.215.282.309.148.134.296.16.457 0 .202-.188.47-.255.753-.242a1 1 0 00.699-.228c.35-.281.699-.563 1.049-.831a.39.39 0 00.147-.282c.014-.214.162-.375.363-.348.27.026.404-.121.511-.309.108-.174.215-.174.363-.08.296.188.578.389.807.644.255.281.268.415.08.75a4.336 4.336 0 01-1.586 1.57c-.417.24-.833.455-1.25.683-.094.054-.175.067-.282.014-.189-.094-.363-.014-.444.147-.067.148-.161.16-.282.134-.766-.094-1.398-.456-1.936-.979-.9-.858-1.411-1.944-1.76-3.124-.323-1.126-.43-2.28-.511-3.433-.081-1.3-.202-2.588-.229-3.888 0-.054 0-.121-.04-.161-.283-.39-.296-.832-.283-1.288 0-.214-.053-.321-.282-.389-.9-.254-1.156-1.501-.457-2.185.403-.389.9-.55 1.438-.604.27-.026.39-.093.43-.402.095-.818.256-1.636.538-2.414a2.231 2.231 0 011.29-1.38c.592-.255 1.21-.456 1.815-.671a2.656 2.656 0 001.546-1.328c.188-.362.39-.724.645-1.046.08-.107.135-.308.31-.2.16.093.026.254-.014.375-.067.188-.148.375-.202.576.457-.55.807-1.18 1.103-1.823 1.223-2.602 2.796-4.975 4.664-7.16 1.263-1.462 2.742-2.656 4.624-3.26 1.263-.401 2.554-.602 3.885-.535.564.026 1.129.12 1.653.375.08.04.188.067.242.134.215.309.457.188.726.107 1.062-.308 2.097-.214 3.132.121 1.115.362 2.083.952 2.944 1.716.134.121.134.121.322.175 0-.175-.054-.309-.12-.456-.485-1.1-1.345-1.837-2.353-2.427-.968-.577-2.003-.952-3.159-.858a3.067 3.067 0 00-1.734.71c-.08.067-.175.242-.296.134-.148-.12 0-.254.08-.362.512-.603 1.197-.844 1.95-.885 1.546-.08 2.877.51 4.1 1.381.228.161.457.35.712.483-.551-1.166-1.317-2.132-2.42-2.816-.98-.59-2.016-.871-3.199-.603.121.241.229.429.444.536-.04.188-.188.134-.296.148a2.716 2.716 0 00-1.613.603c-.148.12-.188.228-.107.402.067.135.094.282.134.43.014.08 0 .147-.08.187-.081.04-.148 0-.202-.053a5.932 5.932 0 01-.255-.362c-.874-1.274-1.936-2.374-3.374-3.017-1.143-.51-2.34-.644-3.576-.564l-.645.04c-.08 0-.188 0-.215-.093-.027-.121.067-.161.161-.188.484-.16.995-.255 1.506-.282 1.398-.067 2.688.295 3.911.966-.484-.51-1.048-.899-1.653-1.234l-.404-.2c-.12-.068-.215-.162-.16-.323.066-.16.2-.134.335-.094.377.121.74.309 1.076.523 1.048.63 1.895 1.475 2.58 2.481.054.08.121.16.175.255.282-.094.404-.255.39-.55-.094-1.327.39-2.373 1.56-3.044a3.599 3.599 0 012.782-.375c.094.027.175.067.269.04.148-1.153-1.156-3.138-2.5-3.781-1.573-.738-3.052-.51-4.41.55-.107-.162 0-.229.081-.296 1.358-1.233 3.535-1.354 5.054-.295 1.29.912 1.976 2.186 2.245 3.715.04.214.108.362.31.482 1.142.644 1.733 2.293 1.276 3.527-.04.094-.067.228-.201.174-.148-.053-.081-.187-.054-.295.228-.965 0-1.797-.632-2.547-.067-.08-.134-.175-.242-.242.054.309.135.604.175.899.054.388 0 .764-.135 1.126-.04.107-.08.268-.241.201-.135-.053-.081-.188-.04-.295a2.03 2.03 0 00.013-1.408c-.014.43-.094.845-.242 1.234-.027.08-.081.174-.121.255-.054.093-.121.187-.242.134-.121-.054-.094-.175-.04-.269.16-.295.241-.616.295-.952.013-.107.04-.214 0-.348-.296.067-.31-.12-.296-.349.014-.47 0-.483-.443-.63-1.062-.349-1.976-.134-2.594.603-.417.496-.538 1.06-.283 1.663.067.148.148.228.336.201 2.057-.375 3.737.362 5.122 1.837a8.954 8.954 0 012.338 4.707c.095.536.175 1.086.095 1.636 0 .094 0 .2-.121.214-.121.027-.162-.08-.202-.16-1.102-1.999-2.85-3.112-5.027-3.608a3.69 3.69 0 00-1.909.08c-.161.041-.161.041-.31.175.028.134.149.174.256.242.511.321 1.076.522 1.627.737 1.532.617 2.836 1.569 4.046 2.655.605.536 1.196 1.086 1.734 1.703.174.201.336.188.524.013.806-.697 1.344-1.569 1.653-2.574.363-1.127.457-2.266.094-3.42a3.375 3.375 0 00-.793-1.354c-.067-.067-.148-.12-.107-.241.134-.094.201.013.282.08.78.67 1.223 1.542 1.371 2.548.188 1.3 0 2.561-.497 3.768-.31.764-.82 1.368-1.479 1.864-.269.2-.282.255-.067.51.833 1.059 1.398 2.239 1.56 3.58.174 1.488-.041 2.91-.754 4.237-.013.027-.04.067-.053.094-.067.08-.121.214-.256.16-.148-.066-.08-.187-.04-.294a7.653 7.653 0 00.51-2.106 8.618 8.618 0 00-.08-2.199c-.027-.187-.161-.2-.296-.255-1.263-.442-2.46-1.019-3.521-1.85-1.183-.925-2.218-2.025-3.213-3.151-.403-.456-.78-.912-1.237-1.328-.08.094-.026.161 0 .215.995 2.145 2.218 4.13 4.046 5.699.955.818 2.003 1.461 3.213 1.81.067.014.12.04.175.067.053.027.08.08.053.148-.013.053-.067.067-.107.067-.148 0-.296-.027-.444-.067-1.425-.416-2.62-1.247-3.683-2.253-1.559-1.488-2.648-3.299-3.562-5.23-.201-.415-.376-.844-.658-1.22-.014.47.094.912.201 1.354.31 1.247 1.022 2.28 1.748 3.313 1.425 1.984 3.293 3.392 5.51 4.384.122.054.364.08.297.268-.068.188-.283.067-.417.014-1.922-.644-3.509-1.784-4.826-3.312a16.938 16.938 0 01-2.137-3.125 9.62 9.62 0 01-.497-1.153c-.027-.08-.04-.187-.175-.241-.161.51-.31 1.006-.175 1.555.672 2.763 1.68 5.39 3.28 7.764l.444.684c.053.08.08.148 0 .228a.175.175 0 01-.256 0c-.417-.483-1.048-.617-1.546-.979-.416-.295-.766-.67-1.21-1.019.04.188.121.295.202.402.565.765 1.237 1.435 2.057 1.958.094.067.188.12.269.188.067.053.134.107.094.201-.04.094-.135.08-.215.067-.283-.054-.525-.188-.767-.322-1.115-.67-1.908-1.663-2.567-2.749-.672-1.126-.94-2.373-1.13-3.647-.026-.174-.026-.362-.107-.536-.269.04-.255.214-.228.402a7.8 7.8 0 00.618 2.253c.618 1.408 1.358 2.749 2.352 3.942.095.12.229.255.095.416-.121.16-.296.094-.43 0-1.036-.63-2.165-.51-3.294-.43-.605.04-1.196.175-1.801.188-.148 0-.31.014-.403-.134-.094-.16 0-.308.107-.429.39-.496.941-.657 1.533-.684a7.064 7.064 0 012.527.39c.094.026.188.093.295.053.014-.134-.08-.201-.147-.282a9.866 9.866 0 01-1.896-4.264c0-.054-.027-.107-.04-.16-.054-.229-.161-.202-.282-.068-.04.04-.068.08-.108.12-1.855 2.039-4.06 3.54-6.788 4.198-.874.214-1.788.281-2.675.442-1.035.201-2.043.483-3.051.778-.39.12-.793.228-1.21.215-.108 0-.229 0-.323-.054-.188-.107-.215-.255-.067-.402.08-.08.175-.148.269-.201 2.393-1.462 4.274-3.42 5.767-5.793.914-1.448 1.76-2.937 2.809-4.305 1.263-1.649 2.635-3.177 4.53-4.264-.538.067-.981.228-1.412.39a11.5 11.5 0 00-2.554 1.313c-.08.054-.188.215-.282.067-.08-.12.08-.187.162-.254.98-.751 2.016-1.422 3.212-1.784-.255.054-.524.094-.78.148-.282.067-.564.134-.833.214a9.34 9.34 0 00-.793.282c-.995.389-1.855.979-2.635 1.703-1.949 1.797-3.36 3.996-4.677 6.262-.552.952-1.035 1.958-1.56 2.936-.16.309-.376.604-.578.926.7-.51 1.304-1.073 1.896-1.663.484-.483.914-1.02 1.357-1.555.04-.054.08-.108.121-.148.08-.094.175-.201.31-.12.147.093.053.214 0 .321a7.64 7.64 0 01-1.036 1.582c-1.21 1.395-2.567 2.602-4.368 3.192-.175.053-.215.16-.215.335l.12 3.098c0 .067 0 .134.108.187 1.143-1.622 2.702-2.56 4.718-2.36 2.03.201 3.401 1.381 4.221 3.232.363-.054.713-.12 1.075-.161.31-.027.619 0 .915.054.201.04.295 0 .376-.202.766-1.69 2.07-2.695 3.925-2.936 2.5-.335 4.772.898 5.887 3.151.027.054.054.094.108.201.108-1.73.08-3.392.699-5.002-.323-.026-.484-.24-.659-.429-1.115-1.273-1.895-2.735-2.513-4.29-.067-.188-.148-.362-.215-.537-.04-.107-.108-.228.026-.295.148-.067.189.094.229.188.376.791.766 1.596 1.21 2.36a17.184 17.184 0 001.99 2.816c.093 0 .12-.08.174-.134.417-.51.954-.657 1.573-.537 1.451.309 2.5 1.408 2.755 2.91.229 1.354.256 2.695-.04 4.036-.269 1.22-.955 2.092-2.137 2.575a9.599 9.599 0 01-1.68.496c-.364.08-.686.08-.915-.349-.147.43-.282.791-.416 1.167a34.43 34.43 0 01-1.13 2.735 10.21 10.21 0 01-3.454 4.13.936.936 0 00-.43.644c-.202.925-.323 1.85-.121 2.79.04.214.134.334.376.348 1.21.107 2.312.576 3.401 1.032.47.201.94.416 1.398.63a6.56 6.56 0 001.68.523c.39.067.524.242.524.63v.738c.27.067.578.12.86.201 1.721.51 2.73 1.636 2.944 3.433.04.375.068.737.081 1.14-.766.027-1.532.027-2.312 0 .417-.309.9-.242 1.385-.188 0-.08.013-.134.026-.188 0-.214-.026-.429-.053-.643-.229-1.57-1.277-2.682-2.823-3.004-.188-.04-.282-.013-.296.201-.013.201-.067.402-.094.604-.188 1.086-.363 2.172-.685 3.231-.202 0-.417 0-.632-.013.027-.134.08-.242.107-.362.175-.738.35-1.462.498-2.2.175-.884.336-1.77.416-2.668.014-.188-.04-.268-.228-.281a2.225 2.225 0 01-.592-.135c-.39-.107-.376-.12-.483.269-.404 1.421-.834 2.816-1.573 4.103a63.91 63.91 0 01-.793 1.287c-.27 0-.525 0-.807-.013 1.318-1.743 2.084-3.728 2.608-5.82.04-.147 0-.228-.148-.281-.484-.215-.954-.456-1.452-.657-.591-.255-.483-.228-.739.295-1.156 2.346-2.661 4.384-5 5.672.174-.04.363-.094.564-.121.726-.134 1.546.295 1.788.939-.269 0-.524 0-.82-.014-.524-.389-1.129-.375-1.586.014-1.29 0-2.58 0-3.898-.014-.377-.188-.7-.201-1.022.014-.296 0-.605 0-.914-.014.067-.201.242-.322.31-.51-.027-.026-.027-.04-.041-.053-.027-.027-.067-.04-.094-.054-1.694-.858-2.796-2.28-3.697-3.875-.067-.107-.16-.241-.053-.362.107-.12.201.027.336.067-.39-.67-.753-1.314-1.062-1.984-.363-.818-.135-.778-1.062-.43a.102.102 0 00-.054.027c-.148.054-.201.148-.175.322.296 1.73.887 3.339 1.815 4.814.47.738 1.022 1.421 1.613 2.065-.296 0-.605 0-.927-.013a14.869 14.869 0 01-.47-.564c-1.318-1.649-2.205-3.513-2.77-5.551-.12-.456-.188-.483-.659-.389-.107.027-.201.08-.309.12-.188.081-.255.229-.215.43.215 1.193.43 2.387.632 3.58.134.791.269 1.582.39 2.387-.135 0-.27 0-.43-.027-.256-1.354-.484-2.682-.726-4.023a104.63 104.63 0 00-.377-1.997c-.013-.094-.04-.202-.16-.175-.108.027-.082.12-.082.215v.134c.363 1.944.686 3.902.982 5.86-.054 0-.121 0-.202-.027-.161-.402-.242-.791-.323-1.18-.282-1.355-.55-2.722-.833-4.09-.067-.322-.242-.47-.497-.443-.404.04-.767.336-.753.63.013.524.08 1.047.161 1.57.202 1.193.404 2.373.766 3.526-.201 0-.416 0-.645-.027a9.491 9.491 0 01-.255-.912 28.645 28.645 0 01-.538-2.842c-.04-.242-.134-.268-.336-.201a1.89 1.89 0 00-.659.415c-.833.805-1.156 1.837-1.277 2.95-.013.134.054.175.175.202.296.053.551.174.753.402H13.55l.08.12zm7.676-25.249c.242-.067.363.107.497.228.215.174.417.362.74.362a1.102 1.102 0 00-.04-.147c-.216-.51-.162-.63.39-.765a3.428 3.428 0 013.87 1.757c.081.147.121.295-.04.416.08.107.161.187.229.268.16.2.322.415.47.63.04.067.094.16 0 .215-.094.053-.161 0-.215-.08-.04-.055-.094-.122-.134-.175-.242-.282-.484-.563-.807-.791-.296.777-.806 1.26-1.64 1.206-.86-.04-1.263-.643-1.465-1.42-.215.08-.39.16-.51.307.04.161.147.269.255.376.833.925 1.814 1.153 2.984.724.242-.094.484-.188.739-.268.121-.04.255-.04.31.107.053.134-.068.201-.162.255-.403.188-.793.375-1.196.536-.242.094-.404.336-.767.268-.228-.04-.47 0-.672-.174-.107.134-.094.295-.215.389-.08.067-.161.12-.282.067-.094-.054-.108-.148-.08-.241.026-.094.053-.202.08-.282-.457-.295-.51-.295-.9 0-.055.04-.122.094-.189.134-.067.04-.161.08-.228.014-.081-.08-.054-.161 0-.255.08-.161.255-.242.363-.376-.081-.2-.215-.2-.39-.12-.336.147-.659.308-1.022.348-.148.027-.255-.053-.309-.187-.054-.148.013-.255.148-.322.08-.04.175-.067.255-.094.229-.08.47-.107.672-.268-.067-.242-.201-.362-.47-.322-.497.08-.941-.08-1.304-.43-.067-.066-.121-.173-.242-.173-.107.067-.134.174-.175.281-.228.751-.201 1.488.202 2.186 1.546 2.668 5.565 3.11 7.326.174.658-1.1.887-2.266.282-3.473-.726-1.435-2.339-2.293-3.925-2.065-.954.134-1.788.51-2.5 1.22-.256.161-.43.403-.619.63-.08.121-.094.228.054.296.363.147.713.227 1.102.013-.268-.282-.604-.51-.47-.965v-.014zm16.99 6.544c-1.008.643-2.123.777-3.28.617-2.27-.322-4.22-2.414-4.26-4.76 0-.175-.081-.282-.229-.35-.51-.227-1.008-.227-1.492.068a.592.592 0 00-.309.523c-.121 1.502-.82 2.695-2.003 3.58-1.922 1.448-4.772 1.207-6.479-.483-.08-.08-.148-.214-.322-.214-.081.134-.04.268 0 .402.282 1.032.78 1.971 1.29 2.896.645 1.154 1.411 2.213 2.46 3.044a32.315 32.315 0 003.602 2.4c1.855 1.06 3.75 1.073 5.686.188 1.317-.603 2.514-1.421 3.656-2.306a8.292 8.292 0 002.003-2.16c1.075-1.729 1.801-3.606 2.285-5.577a4.638 4.638 0 00.054-1.931c-.39 1.716-1.183 3.084-2.648 4.076l-.013-.013zm-11.922 9.815c-.336 1.046-.928 1.877-1.95 2.36-.16.08-.201.175-.107.322.134.241.255.496.403.737 1.237 2.012 2.877 3.514 5.216 4.117 1.653.43 3.185.241 4.543-.898 1.13-.952 2.03-2.065 2.782-3.326.323-.536.323-.55-.241-.818-.995-.482-1.613-1.247-1.815-2.333a5.835 5.835 0 01-.04-1.743c.026-.255.107-.496.08-.778-.161.108-.295.201-.443.295a.248.248 0 00-.121.228c.04 1.207.08 2.414-.027 3.62-.067.684-.202 1.355-.498 1.985-.053.107-.12.242-.268.188-.148-.054-.108-.188-.081-.308.094-.39.202-.778.269-1.167.067-.376.161-.764.134-1.22-.094.134-.148.214-.201.295-1.25 1.81-3.374 2.199-5.189.938-.927-.643-1.586-1.542-2.15-2.494-.054-.094-.081-.2-.189-.268-.08.054-.08.148-.12.255l.013.013zm10.538-29.11c.108-.55.242-1.1.202-1.704-.148.054-.148.148-.175.215A16.175 16.175 0 0135.11 21.2c-1.035 1.528-2.218 2.923-3.844 3.875-.216.134-.43.255-.646.389-.08.04-.161.067-.228-.014-.067-.107.027-.174.094-.214.067-.04.148-.08.215-.134.417-.255.82-.51 1.196-.832 1.331-1.126 2.366-2.467 3.24-3.955.766-1.328 1.452-2.682 1.734-4.21.053-.269.148-.537.053-.819-.174.014-.282.12-.39.201-1.518 1.153-2.822 2.535-3.992 4.036-1.169 1.502-2.07 3.178-3.091 4.774-.027.04-.054.08-.027.134.107.08.188 0 .282-.04a7.716 7.716 0 001.492-.925c1.64-1.314 2.93-2.923 4.02-4.72a13.4 13.4 0 00.82-1.556c.04-.08.066-.2.188-.147.107.053.067.16.026.241-.053.161-.12.309-.188.47-.833 1.93-2.016 3.62-3.454 5.135-1.008 1.06-2.138 1.971-3.549 2.454-.444.148-.82.389-1.049.818-.067.12-.174.214-.268.322-.551.59-1.156 1.126-1.922 1.582.752-.107 1.424-.188 2.083-.349.51-.12 1.008-.281 1.492-.469 2.07-.791 3.75-2.119 5.175-3.781 1.075-1.247 1.909-2.642 2.352-4.291l-.013.04zm2.352 12.872c-.847-.845-1.855-1.341-3.064-1.448-1.103-.108-2.138.067-3.052.737-.873.63-1.492 1.448-1.572 2.561-.121 1.57.564 2.776 1.8 3.688.861.643 1.842.912 2.904.737 1.761-.295 2.877-1.367 3.549-2.977.202-.496.336-1.019.31-1.568-.041-.684-.39-1.207-.875-1.703v-.027zM25.77 27.395c.484-.362.927-.751 1.344-1.18 1.062-1.127 1.936-2.387 2.756-3.674.712-1.113 1.357-2.267 2.164-3.326a26.33 26.33 0 014.032-4.17c.08-.067.215-.12.215-.268a.893.893 0 00-.309 0c-.981.241-1.855.724-2.661 1.314-1.479 1.1-2.635 2.494-3.683 3.982-1.103 1.582-2.057 3.259-3.132 4.854-.283.43-.592.845-.901 1.288.121 0 .161-.08.229-.121a11.29 11.29 0 001.438-1.556c.067-.08.134-.214.269-.147.147.08.04.215 0 .322a7.074 7.074 0 01-1.062 1.528c-.807.899-1.842 1.462-2.877 2.052-.08.04-.161.08-.242.134-.067.04-.134.094-.201.134.94-.228 1.814-.59 2.634-1.166h-.013zm-6.923 7.026a85.142 85.142 0 01-.107-3.7c0-.323-.027-.645-.054-.98 0-.12-.027-.241-.175-.295-.12.08-.12.201-.107.322.08 1.502.04 2.99.04 4.492 0 .268-.04.536-.108.805-.027.08-.053.174-.16.16-.108 0-.135-.107-.135-.187 0-.228.027-.443.027-.67.026-1.368 0-2.736-.054-4.104 0-.295-.027-.59-.054-.885-.013-.255-.121-.335-.363-.228-.188.08-.363.188-.551.282-.202.107-.296.255-.282.496.067.872.12 1.743.161 2.615a72.13 72.13 0 00.336 4.183c.013.161.08.228.215.269.336.107.686.16 1.049.174.591 0 .698-.094.591-.684v-.054c-.08-.657-.282-1.287-.255-2.011h-.014zm13.926 15.112c-.188.107-.39.174-.605.228-.86.174-1.626-.08-2.352-.496-.7-.402-1.29-.939-1.869-1.502-.309-.295-.605-.603-.98-.818-.108-.067-.216-.16-.364-.094-.027.215-.04.416-.067.63 0 .067 0 .134.054.175.215.174.322.429.484.643.699.993 1.492 1.878 2.594 2.44.874.457 1.774.564 2.675.055a3.53 3.53 0 001.72-2.213c.027-.12.054-.241.081-.349l.04-.322c-.336.658-.739 1.234-1.411 1.623zm8.912-30.64c1.76 1.529 3.508 3.044 5.108 4.747a5.12 5.12 0 00-.619-1.207c-1.048-1.542-2.379-2.83-3.79-4.036-1.237-1.06-2.608-1.81-4.22-2.118-.068 0-.122-.04-.189.013 0 .147.108.228.202.308 1.21 1.274 2.661 2.24 3.992 3.366.027.027.067.04.107-.027-.08-.134-.201-.241-.322-.362-.498-.442-.982-.885-1.465-1.327-.081-.08-.215-.175-.094-.295.107-.108.201 0 .282.08.322.268.658.55 1.008.858zm2.352 15.354c.336-.215.457-.563.524-.912a6.788 6.788 0 000-2.896c-.08-.363-.215-.711-.457-1.006-.416-.496-.914-.416-1.169.174a1.05 1.05 0 00-.107.349c-.189.885-.148 1.77-.027 2.655.067.496.188.965.483 1.38.175.229.377.417.74.282l.013-.026zm-1.99-5.096c.108 0 .122-.107.162-.16.565-.792 1.452-.9 2.205-.282.457.389.685.898.806 1.461a8.645 8.645 0 01.04 3.272c-.188 1.194-.739 1.73-1.814 1.944-.377.067-.686-.04-.928-.321-.322-.362-.484-.791-.578-1.247-.08-.362-.134-.738-.215-1.167-.053 1.02-.094 1.971.014 2.923.04.376.094.738.282 1.073.067.12.188.188.336.12.148-.067.054-.174 0-.268a2.961 2.961 0 01-.202-.67c-.027-.107-.027-.215.094-.268.095-.04.189 0 .256.067.08.08.161.174.242.268.363.402.685.483 1.196.268.847-.335 1.344-.992 1.546-1.85.31-1.341.31-2.695.027-4.036-.229-1.087-.86-1.85-1.95-2.2-.86-.268-1.478.148-1.545 1.073h.027zm-4.099-5.296c-.31-.912-.551-1.85-.78-2.803-.094.04-.12.04-.134.054-.35.51-.766 1.005-.524 1.703.04.107.04.241.067.362.47 2.118 1.56 3.835 3.24 5.19.067.053.134.16.322.106-.47-.724-.914-1.434-1.25-2.199a25.701 25.701 0 01-.927-2.413h-.014zm3.455-3.835c-.336-.228-.605-.537-.995-.751.699 1.408 4.745 4.572 5.982 4.68 0-.04 0-.081-.027-.108-.457-.55-.968-1.06-1.479-1.555-.054-.054-.134-.108-.202-.04-.188.174-.322.053-.47-.054-.928-.724-1.855-1.448-2.81-2.186v.014zM29.358 56.345c-2.03-.657-3.549-2.011-4.853-3.647.135.268.283.51.444.75.847 1.234 1.882 2.253 3.24 2.91.067.04.134.067.214.04.377-.093.74-.067 1.116 0-.04-.013-.08-.04-.161-.067v.014zm-13.08-21.71c.055.108.108.229.162.336.013 0 .027 0 .04-.014-.148-1.408-.309-2.829-.457-4.237-.134.04-.134.134-.147.215a5.142 5.142 0 00-.135.911c-.054.966.202 1.878.538 2.803v-.014zM36.846 8.367c-.47.617-.659 1.3-.524 2.105.255-.107.47-.2.726-.308-.35-.764-.283-1.488.174-2.186-.12.12-.228.242-.376.39zM15.069 34.622c.013-.134-.067-.214-.161-.268-.323-.228-1.143-.161-1.425.12-.108.108-.202.242-.108.403.081.147.229.188.39.147.43-.107.86-.241 1.304-.402zm9.073 14.656c-.47.134-.524.242-.282.644.04.067.094.12.175.094.497-.175.9-.483 1.196-.98-.403.028-.726.148-1.089.242zM47.72 18.156v-.134c-.174.348-.322.657-.484.965a7.75 7.75 0 01-.605.872c-.201.268-.497.469-.631.79.309-.066.524-.28.726-.495.524-.564.82-1.234 1.008-1.998h-.014zM36.845 49.64c-.108 0-.229-.094-.363 0 .35.322.726.563 1.156.738.175.067.228-.054.282-.175.054-.134.04-.228-.12-.268-.31-.08-.606-.174-.955-.268v-.027zM15.929 34.542c-.04-.094-.067-.188-.107-.282.04.805.201 1.582.753 2.293.013-.349.067-.63-.122-.872-.241-.335-.39-.71-.537-1.14h.013zm21.52-23.667c-.577.187-1.303.684-1.424 1.046.524-.416 1.048-.657 1.64-.751-.027-.161-.108-.228-.215-.295zM13.887 33.79c-.107.08-.255.134-.309.335a5.394 5.394 0 011.143-.268c.147 0 .228-.067.215-.215-.027-.188-.162-.147-.27-.134-.255.054-.51.12-.765.268l-.014.014zm11.937-.751l.443.349c-.659-.725-1.465-1.194-2.433-1.315a.748.748 0 00.565.282c.55.027.968.362 1.425.67v.014zm-1.587.134c-.188.215-.174.362.04.416.135.04.256.013.35-.094a.202.202 0 00.014-.255c-.095-.134-.229-.134-.404-.054v-.013zm-.846-.295s.12-.027.053-.08c-.094-.068-.201-.148-.363-.148.027.188.108.268.31.228z"/>
      <path d="M36.509 57.216c.201-.576.51-1.113.78-1.676a59.521 59.521 0 001.787-4.264c.013-.04.027-.094.054-.134.04-.094.08-.174.201-.148.108.04.121.135.094.228-.094.309-.174.63-.282.94a39.5 39.5 0 01-2.056 4.786c-.04.08-.068.148-.108.242-.148.013-.31.013-.484.013l.014.013zm-10.297.001c.148-.39.35-.47.74-.269.12.067.241.121.349.255-.35.014-.7.014-1.09.014zM22.288 9.225c1.357-.59 2.715-.576 4.1-.214.537.134 1.061.295 1.545.55.457.228.928.348 1.425.429 1.398.228 2.715.737 3.79 1.676.498.429 1.076.684 1.6 1.046.162.107.323.228.47.348.081.067.216.148.122.268-.081.108-.189 0-.27-.053a5.169 5.169 0 00-1.854-.684c-1.197-.214-2.312.054-3.36.63-1.197.657-2.151 1.583-2.985 2.655a24.576 24.576 0 00-2.594 4.104c-.565 1.14-1.237 2.185-2.15 3.07-.928.912-1.802 1.89-2.904 2.601a5.892 5.892 0 01-.9.497c-.095.04-.202.093-.283-.014-.094-.12 0-.214.094-.281.551-.47 1.089-.926 1.6-1.435 1.478-1.448 2.715-3.098 3.857-4.8.068-.094.121-.188.189-.282.134-.161.188-.161.309.027 1.156-2.427 2.608-4.627 4.866-6.195-.296.04-.551.174-.807.308-1.102.523-2.03 1.287-2.89 2.132-1.062 1.033-2.19 1.958-3.306 2.923-2.864 2.454-4.893 5.485-6.036 9.092-.094.295-.134.59-.202.898-.053.295-.201.349-.443.148-.35-.296-.578-.684-.766-1.087-.363-.804-.498-1.676-.578-2.547-.108-1.194-.08-2.4.067-3.594.094-.885.269-1.743.712-2.534-.174-.161-.403-.215-.578-.349-.094-.067-.228-.147-.174-.282.053-.134.201-.08.295-.053.551.174.941.053 1.264-.47.296-.496.699-.938 1.062-1.407-.148-.161-.323-.148-.47-.215-.122-.054-.243-.08-.364-.134-.268-.12-.282-.215-.04-.402-.04-.134-.161-.215-.242-.322-.968-1.247-1.398-2.655-1.236-4.224 0-.12.026-.241.16-.255.135 0 .162.107.189.201.188.644.403 1.274.807 1.824.295.402.631.737 1.088.939.793.362 1.64.094 2.057-.858.564-1.288 1.263-2.468 2.271-3.447.189-.174.242-.348.229-.617-.054-1.193.121-2.333.847-3.338.242-.336.564-.604.94-.765.135-.053.297-.147.39.027.095.174-.08.242-.201.309-.74.455-1.304 1.38-1.371 2.199.538-1.757 1.815-2.669 3.562-2.883 1.976-.242 3.723.254 5 1.904.337.429.511.925.646 1.448.026.107.067.241-.068.295-.12.04-.174-.08-.228-.16a6.362 6.362 0 00-1.116-1.422c-1.573-1.462-3.616-1.797-5.498-.148a9.07 9.07 0 00-1.922 2.307.685.685 0 00-.107.429c.013.308.04.321.35.2l.04-.013zm-4.692 9.025c.47-.014.928-.08 1.371-.215.081-.027.175-.04.216.067.026.107-.04.148-.135.188-.134.04-.255.08-.39.134.229.013.457 0 .672-.027 1.546-.295 2.89-1.046 4.114-1.97.672-.497 1.223-1.14 1.841-1.717 1.52-1.408 3.24-2.427 5.337-2.736.12-.013.255-.027.376-.134-.497-.12-.954-.16-1.425-.214-1.546-.161-2.997.094-4.355.898-1.358.791-2.433 1.89-3.508 3.004-.256.268-.498.55-.794.79-1.25 1.047-2.688 1.516-4.3 1.516-.337 0-.458.094-.565.442.497.054.98.04 1.532-.013l.013-.013zm-2.782 2.024c-.188.67-.296 1.341-.255 2.079.04-.134.053-.228.094-.322.027-.08.08-.16.174-.134.108.027.108.107.094.201-.147.845-.094 1.69-.013 2.534.04.456.094.926.229 1.408.094-.348.16-.67.255-.979.578-1.837 1.64-3.392 2.93-4.787.229-.254.498-.482.766-.683.081-.067.189-.161.296-.054.094.107 0 .188-.067.268-.08.094-.148.188-.229.282a18.41 18.41 0 00-2.123 2.762c-.619.979-1.062 2.025-1.21 3.178 1.196-2.803 2.836-5.297 5.108-7.362-.08 0-.135.027-.202.04-.753.282-1.532.443-2.352.416a41.286 41.286 0 01-2.568-.174c-.242-.027-.376.067-.483.268-.175.335-.323.67-.444 1.073v-.014zm5.121-4.156c-.78.415-1.6.657-2.486.643-.202 0-.377.027-.43.282.322.053.618 0 .9-.04 1.17-.161 2.204-.63 3.011-1.502.793-.858 1.626-1.69 2.527-2.44 1.116-.94 2.299-1.744 3.777-2.012a.482.482 0 00.323-.16c-3.293-.215-5.915 1.085-8.227 3.164.995-.362 1.923-.899 2.837-1.489.053.215-.054.268-.135.322-1.223.885-2.527 1.623-3.952 2.119-.269.093-.537.16-.82.134-.12-.014-.242-.067-.269-.201-.04-.148.095-.175.189-.228.04-.027.12-.027.12-.121-.658 0-1.236-.241-1.76-.738.201.416.43.725.699 1.006.645.67 1.438 1.02 2.379.966a3.92 3.92 0 001.99-.67c.093-.054.201-.148.295-.028.08.108 0 .188-.08.268a3.463 3.463 0 01-.888.738v-.013zm-.39-3.178c2.11-1.878 4.638-2.602 7.407-2.669a1.054 1.054 0 00-.323-.12 13.633 13.633 0 00-2.957-.376c-1.56-.027-2.769.604-3.696 1.837-.35.47-.646.966-.753 1.57.148-.041.201-.135.322-.229v-.013zm3.347-6.262c.538-.604 1.13-1.154 1.855-1.623-1.626.402-2.607 1.368-2.688 2.803.242-.416.51-.792.833-1.18zm2.541 2.655c-.565-.121-1.868-.04-2.258.134 1.317-.148 2.607.053 3.911.322a6.38 6.38 0 00-1.653-.456zm-4.274.523c-.081.093-.162.174-.242.268.394-.26.591-.447.591-.563-.134.067-.215.174-.336.295h-.014zM23.04 21.24s-.067.067-.027.134c.135-.201.27-.375.404-.563-.014 0-.027-.027-.054-.04-.108.147-.215.295-.336.469h.013zM35.796 1.247c.094.134.35.214.188.389-.147.147-.255-.067-.363-.148C34.776.871 33.847.51 32.8.791c-1.21.308-1.815 1.207-2.11 2.347a4.041 4.041 0 00-.081 1.609c.027.134.094.362-.081.389-.215.04-.188-.215-.215-.35-.148-.91-.04-1.796.376-2.627.874-1.73 2.85-2.266 4.557-1.26.188.107.35.24.551.375v-.027zm-2.728 41.34c-.31.214-.551.483-.767.764-.766 1.006-1.8 1.127-2.943.912-.672-.134-1.21-.496-1.654-1.019-.242-.295-.497-.59-.833-.778-.242-.147-.484-.2-.726.014-.175.147-.31.08-.403-.094-.162-.282-.08-.738.148-.952.188-.174.47-.201.658 0 .538.563 1.13.456 1.707.053.794-.55.968-.523 1.613.201a.657.657 0 01.121.175c.162-.08.189-.201.27-.295.268-.362.617-.47 1.034-.322.135.054.27.12.404.201.295.174.604.295.94.349.417.067.794 0 1.09-.349.134-.147.282-.295.497-.201.228.107.309.308.309.55 0 .241-.054.442-.282.563-.095.04-.202.067-.27 0-.241-.241-.443-.067-.645.054-.094.053-.188.134-.295.2l.027-.026zm-5.041-3.245c-.094-.536.094-.965.457-1.327.08-.08.202-.161.323-.068.12.094.053.215 0 .322-.175.349-.175.362.215.416.537.08 1.075.067 1.613 0 .309-.027.336-.12.201-.402a2.953 2.953 0 00-.403-.604c-.054-.053-.08-.134 0-.2.054-.054.121-.028.175 0 .578.227 1.156 1.273 1.035 1.877-.067.348-.229.442-.551.335-.35-.108-.592.026-.807.281-.188.228-.269.228-.43-.04-.228-.375-.417-.442-.847-.335-.12.04-.255.08-.376.094-.282.027-.498-.054-.605-.362v.013zm9.88-4.8c-.081.067-.135.134-.148.241.161.134.376.12.55.215.135.067.31.12.243.308-.067.201-.242.174-.39.12-.215-.08-.417-.16-.618-.24-.081-.027-.162-.081-.229 0-.054.08 0 .133.054.2.054.081.107.148.148.242.053.094.053.188-.04.255-.095.067-.175.026-.242-.054a2.939 2.939 0 01-.189-.241c-.094-.161-.215-.161-.376-.08-.148.066-.202.147-.121.294.054.094.12.228 0 .295-.148.08-.215-.067-.269-.174-.094-.174-.202-.255-.403-.188-.215.08-.51-.067-.605.295-.027.107-.175.054-.188-.067-.014-.201-.148-.214-.31-.255a4.871 4.871 0 01-1.276-.469c-.108-.054-.256-.12-.189-.268.068-.148.216-.134.337-.094.59.174 1.182.349 1.8.308.727-.04 1.291-.362 1.762-.911-.229-.202-.242-.202-.39.026-.457.684-1.56.98-2.285.604a1.126 1.126 0 01-.578-.684c-.027-.08-.027-.188-.108-.255-.148 0-.215.12-.296.215-.228.268-.39.563-.578.858-.067.12-.134.295-.295.228-.202-.08-.081-.268-.04-.389.295-.858.873-1.448 1.653-1.877.403-.215.833-.376 1.263-.537.135-.053.282-.107.404-.254a.503.503 0 00-.323.04 7.957 7.957 0 00-1.72.777c-.108.068-.23.121-.35.188-.108.054-.242.094-.336-.027-.094-.12-.027-.24.054-.335.39-.51.94-.79 1.545-.938.565-.135 1.13-.121 1.694-.054.444.054.497.228.202.577-.027.04-.067.067-.094.107.362.147.699-.04.712-.39 0-.093.04-.16.121-.2a.295.295 0 01.296.04c.188.148.215.349.161.55-.067.268.04.281.255.255.27-.04.498-.161.713-.309.12-.08.269-.174.403-.04.121.12.161.295.094.456-.12.295-.35.47-.605.63-.134.08-.282.148-.363.335.202.067.404.014.605.014h.282c.121 0 .256 0 .283.16.027.161-.108.229-.229.269-.35.107-.712.134-1.075.16a1.75 1.75 0 00-.35.04l-.026.028zm-2.581-1.1c-.162-.013-.296.014-.323.215a.281.281 0 00.188.308c.135.054.256 0 .31-.107.08-.161.067-.308-.162-.402l-.013-.014z"/>
    </g>
  </g>
</svg>
