<svg fill="none" xmlns="http://www.w3.org/2000/svg" viewBox="0 0 184 60">
  <g clip-path="url(#YrCwRu0xpo7Fa)">
    <g clip-path="url(#YrCwRu0xpo7Fb)" fill="#030712">
      <path d="M17.657 50.666c.026-.088.113-.14.195-.152.29-.043.298-.249.315-.473.05-.667.233-1.294.606-1.856.313-.471.726-.82 1.28-.971.117-.032.154-.09.154-.205.005-.746-.067-.605.592-.955.841-.447 1.74-.758 2.625-1.106.987-.388 1.971-.785 3.027-.954.107-.017.132-.09.153-.17.113-.428.109-.865.094-1.302-.004-.116-.09-.163-.17-.22-.579-.417-1.189-.792-1.745-1.242-.82-.66-1.41-1.503-1.92-2.41-.352-.63-.683-1.271-.935-1.949-.068-.182-.187-.264-.377-.263-.298.003-.597 0-.89-.057-.76-.148-1.244-.635-1.577-1.298-.09-.177-.158-.364-.261-.544 0 .46-.009.922.001 1.382.018.825.05 1.65.072 2.474.025.985.053 1.968.337 2.922.197.663.483 1.285.906 1.836.063.082.137.157.213.227.11.1.216.123.344.004.154-.144.355-.19.561-.178a.73.73 0 00.519-.173c.26-.208.52-.416.783-.62a.269.269 0 00.108-.211c.012-.16.116-.277.268-.264.198.017.297-.095.38-.226.08-.128.155-.132.27-.059.218.138.429.285.603.476.193.21.204.312.06.557a3.217 3.217 0 01-1.185 1.172c-.306.177-.62.34-.928.514-.072.04-.132.054-.212.012-.144-.075-.27-.015-.331.115-.053.109-.119.117-.214.105-.568-.07-1.038-.339-1.442-.727-.67-.643-1.052-1.455-1.307-2.332-.242-.836-.323-1.698-.38-2.563-.065-.968-.151-1.934-.171-2.905a.22.22 0 00-.029-.118c-.209-.289-.224-.622-.214-.956.004-.161-.036-.24-.21-.29-.672-.194-.862-1.12-.34-1.63.296-.29.675-.408 1.074-.449.204-.02.295-.072.322-.301a8.281 8.281 0 01.4-1.801c.172-.487.486-.826.963-1.028.441-.187.895-.338 1.347-.495.518-.18.9-.508 1.15-.994.14-.271.294-.535.478-.78.057-.074.104-.224.228-.151.116.07.018.188-.013.28-.048.143-.106.282-.148.429.34-.412.599-.876.823-1.355a23.267 23.267 0 013.474-5.336c.941-1.094 2.04-1.981 3.44-2.43a8.094 8.094 0 012.888-.399c.424.021.84.095 1.23.28.062.03.143.05.178.102.157.225.34.142.543.082.785-.231 1.562-.155 2.33.093.826.267 1.55.705 2.195 1.28.101.09.1.09.236.13.01-.126-.041-.232-.087-.337-.355-.822-.999-1.368-1.746-1.81-.724-.427-1.488-.707-2.35-.64a2.221 2.221 0 00-1.285.527c-.064.053-.127.177-.22.097-.107-.092-.004-.194.059-.268.379-.447.886-.632 1.452-.662 1.15-.06 2.138.38 3.051 1.031.172.123.338.255.531.358-.407-.866-.976-1.593-1.8-2.095-.727-.443-1.503-.652-2.377-.448.09.177.173.321.333.399-.033.142-.14.104-.221.108a2.041 2.041 0 00-1.205.454c-.108.086-.145.17-.078.302.05.097.074.209.102.316.014.056 0 .112-.058.143-.06.034-.11.001-.145-.043a5.068 5.068 0 01-.194-.27c-.653-.954-1.437-1.766-2.51-2.247-.847-.38-1.744-.477-2.663-.418l-.477.033c-.065.005-.136.009-.155-.066-.024-.091.053-.118.119-.14a4.106 4.106 0 011.12-.207c1.04-.052 2 .224 2.91.718a4.944 4.944 0 00-1.234-.923c-.097-.053-.2-.097-.296-.151-.09-.05-.161-.124-.115-.236.049-.12.152-.1.248-.068.285.094.55.232.805.387a6.22 6.22 0 011.92 1.847l.133.195c.21-.067.302-.188.287-.414-.066-.986.289-1.771 1.16-2.27a2.666 2.666 0 012.069-.28c.066.017.13.05.2.028.106-.86-.86-2.345-1.863-2.817-1.171-.553-2.27-.383-3.284.414-.082-.122.007-.167.063-.218 1.01-.92 2.632-1.015 3.758-.218.96.68 1.474 1.633 1.665 2.775.026.16.076.271.23.358.85.479 1.29 1.712.953 2.633-.027.074-.055.165-.152.129-.108-.041-.058-.143-.04-.218.17-.716-.008-1.343-.472-1.9-.053-.064-.1-.132-.175-.18.038.232.099.445.13.666.042.291-.007.566-.098.838-.027.081-.056.2-.177.152-.1-.04-.058-.14-.03-.219.127-.35.133-.7.014-1.053a2.85 2.85 0 01-.185.923 2.037 2.037 0 01-.086.19c-.037.071-.088.138-.178.095-.093-.045-.068-.129-.032-.198a2.26 2.26 0 00.218-.713c.012-.082.026-.163-.009-.262-.224.053-.229-.09-.222-.255.013-.35.005-.357-.331-.467-.79-.259-1.468-.104-1.932.451-.309.37-.396.786-.21 1.243.046.11.107.172.254.146 1.533-.279 2.778.273 3.811 1.373.93.99 1.51 2.166 1.74 3.507.068.402.125.809.07 1.22-.008.065.002.148-.092.164-.088.015-.118-.057-.151-.117-.82-1.492-2.115-2.323-3.741-2.693a2.8 2.8 0 00-1.418.058c-.116.034-.116.035-.23.134.024.098.112.131.186.178.38.237.8.386 1.21.551 1.138.457 2.108 1.166 3.011 1.976.45.403.892.814 1.294 1.265.135.152.246.135.387.014.6-.518.995-1.17 1.233-1.917.27-.842.342-1.695.072-2.554a2.558 2.558 0 00-.594-1.014c-.046-.049-.11-.09-.082-.178.097-.07.151.012.21.063.582.505.908 1.151 1.018 1.903.14.968.002 1.907-.366 2.811-.23.567-.613 1.018-1.096 1.388-.197.15-.205.186-.05.383.623.789 1.043 1.666 1.165 2.672.134 1.11-.028 2.169-.56 3.161-.013.025-.026.05-.043.072-.05.064-.093.16-.193.115-.107-.049-.056-.143-.027-.218.2-.505.332-1.027.382-1.57a6.374 6.374 0 00-.056-1.636c-.023-.137-.122-.154-.218-.187-.942-.33-1.831-.763-2.62-1.383-.881-.693-1.645-1.508-2.385-2.346-.296-.336-.583-.682-.917-.988-.064.069-.016.12.003.162.743 1.6 1.651 3.082 3.006 4.246.707.607 1.49 1.085 2.391 1.35a.712.712 0 01.134.055c.039.021.06.059.043.105-.014.037-.046.05-.083.052a.9.9 0 01-.327-.05c-1.064-.314-1.946-.924-2.737-1.684-1.16-1.113-1.972-2.461-2.65-3.902-.147-.311-.278-.631-.49-.914-.011.347.071.677.152 1.007.229.932.757 1.705 1.302 2.468 1.055 1.479 2.453 2.53 4.098 3.272.09.04.27.063.218.196-.054.141-.209.046-.31.012-1.434-.477-2.61-1.33-3.586-2.472a12.81 12.81 0 01-1.59-2.333 7.4 7.4 0 01-.373-.858c-.023-.063-.026-.14-.133-.178-.12.383-.228.753-.129 1.164.5 2.064 1.247 4.022 2.438 5.794.112.167.219.337.328.506.037.057.055.114 0 .17-.06.061-.138.054-.186 0-.311-.36-.784-.46-1.153-.728-.307-.224-.573-.498-.898-.755.033.137.09.22.15.302a5.81 5.81 0 001.527 1.458c.07.045.138.093.205.143.05.037.103.082.07.154-.034.07-.105.064-.165.053-.209-.037-.392-.136-.571-.244-.833-.5-1.42-1.236-1.906-2.052-.498-.836-.704-1.77-.845-2.722-.02-.134-.021-.273-.082-.404-.199.026-.191.164-.175.296a5.91 5.91 0 00.458 1.678c.463 1.05 1.012 2.052 1.753 2.937.075.09.172.19.074.312-.094.117-.221.07-.323.01-.77-.465-1.613-.378-2.45-.324-.45.029-.892.129-1.343.139-.111.002-.234.01-.297-.105-.068-.125.01-.23.082-.322.29-.368.695-.492 1.139-.509a5.142 5.142 0 011.878.294c.07.024.139.066.222.042.013-.099-.065-.15-.112-.211a7.353 7.353 0 01-1.411-3.183c-.008-.04-.022-.08-.03-.12-.037-.169-.117-.148-.213-.05-.029.03-.054.064-.082.095-1.385 1.524-3.024 2.638-5.05 3.125-.655.158-1.327.206-1.987.33-.77.146-1.524.359-2.274.584-.292.088-.587.168-.897.161-.083-.002-.166-.003-.242-.045-.137-.075-.16-.193-.05-.304.058-.058.129-.105.2-.148 1.778-1.091 3.178-2.553 4.286-4.316.678-1.08 1.313-2.189 2.085-3.209.936-1.235 1.962-2.371 3.37-3.18-.4.05-.728.169-1.053.292-.67.254-1.31.57-1.9.979-.06.04-.136.155-.206.048-.057-.087.057-.142.119-.19.732-.556 1.496-1.055 2.39-1.334-.196.038-.392.07-.585.114-.21.047-.418.098-.624.16a7.96 7.96 0 00-.588.206c-.74.29-1.382.732-1.961 1.27-1.446 1.345-2.498 2.985-3.477 4.675-.413.713-.766 1.46-1.155 2.188-.124.232-.277.448-.429.69.518-.377.967-.802 1.406-1.24.364-.363.684-.764 1.008-1.162.03-.038.06-.077.092-.113.062-.065.13-.152.228-.091.105.065.044.162.005.24a5.724 5.724 0 01-.773 1.182c-.898 1.042-1.91 1.936-3.246 2.382-.133.044-.165.122-.16.248.032.77.06 1.538.088 2.307.002.049.003.098.084.144.851-1.209 2.006-1.91 3.515-1.762 1.51.148 2.533 1.026 3.136 2.415.269-.044.533-.095.802-.118.232-.02.459-.004.682.036.151.026.219-.003.284-.147.569-1.263 1.54-2.013 2.916-2.194 1.861-.246 3.548.672 4.381 2.354l.08.154c.077-1.287.064-2.533.522-3.725-.235-.025-.36-.176-.488-.322-.827-.947-1.407-2.039-1.87-3.2l-.163-.404c-.033-.078-.084-.17.021-.216.11-.047.138.065.172.136.284.594.572 1.186.897 1.76.424.75.924 1.447 1.483 2.102.066-.001.091-.056.125-.098.308-.38.708-.493 1.173-.395 1.078.225 1.863 1.05 2.052 2.174.168 1.005.189 2.013-.033 3.015-.201.909-.714 1.564-1.586 1.92a7.716 7.716 0 01-1.254.372c-.268.06-.513.057-.684-.262l-.308.865c-.246.693-.532 1.37-.84 2.037a7.69 7.69 0 01-2.567 3.082.751.751 0 00-.324.479c-.154.688-.24 1.377-.094 2.079.033.162.098.246.28.261.899.075 1.716.427 2.534.772.351.149.695.314 1.043.47.4.179.812.317 1.247.388.285.047.385.185.389.475.002.178 0 .357 0 .547.201.048.425.09.642.155 1.278.382 2.03 1.216 2.195 2.558.033.276.045.552.064.847-.57.019-1.14.019-1.723.005.308-.234.667-.184 1.03-.136.007-.063.014-.103.016-.143a2.8 2.8 0 00-.04-.475c-.172-1.17-.947-1.998-2.1-2.242-.136-.029-.208-.01-.22.147-.011.151-.046.3-.072.45-.143.81-.271 1.624-.513 2.413-.154 0-.308 0-.473-.014.018-.098.056-.18.077-.267.126-.546.257-1.09.368-1.64.134-.657.25-1.318.315-1.987.014-.144-.025-.195-.173-.206a2.177 2.177 0 01-.445-.098c-.285-.084-.284-.087-.364.199-.297 1.055-.623 2.1-1.173 3.057-.187.324-.392.637-.588.956-.195 0-.39 0-.597-.012.978-1.302 1.55-2.78 1.942-4.34.028-.112-.01-.166-.107-.21-.36-.162-.715-.339-1.078-.493-.438-.185-.36-.174-.552.219-.858 1.747-1.977 3.266-3.721 4.226.134-.03.274-.066.415-.093.538-.102 1.148.222 1.325.703-.195 0-.39 0-.613-.012-.394-.29-.837-.281-1.177.012-.958 0-1.916 0-2.904-.012-.276-.137-.52-.145-.759.012-.223 0-.445 0-.68-.012.047-.15.183-.242.23-.383-.017-.02-.024-.034-.034-.041a.62.62 0 00-.072-.043c-1.257-.642-2.078-1.698-2.754-2.893-.045-.08-.12-.175-.037-.267.084-.094.155.021.252.053-.287-.5-.564-.978-.79-1.485-.27-.61-.1-.575-.785-.322l-.038.017c-.115.041-.154.114-.133.241a9.759 9.759 0 001.354 3.593c.348.555.758 1.06 1.198 1.542-.223 0-.446 0-.692-.014-.13-.149-.238-.283-.345-.418-.975-1.235-1.643-2.623-2.06-4.135-.092-.336-.143-.365-.485-.29-.08.018-.155.057-.232.09-.144.06-.185.165-.157.318.16.89.318 1.78.472 2.672.102.591.196 1.184.294 1.777-.099 0-.198 0-.32-.017-.193-1.01-.361-2.004-.535-2.996-.087-.497-.184-.992-.277-1.487-.013-.068-.028-.15-.123-.13-.08.016-.065.094-.064.155 0 .034 0 .07.007.103.266 1.454.507 2.911.729 4.372-.044 0-.089 0-.152-.016a5.034 5.034 0 01-.236-.88c-.207-1.015-.409-2.031-.617-3.046-.05-.243-.184-.352-.373-.332-.302.03-.57.248-.564.47.01.394.06.785.124 1.173.146.887.303 1.77.57 2.63-.155 0-.308 0-.483-.016a8.969 8.969 0 01-.195-.678 20.895 20.895 0 01-.403-2.116c-.025-.177-.101-.205-.252-.146a1.447 1.447 0 00-.487.31c-.623.6-.855 1.37-.947 2.2-.011.098.04.13.13.147a.936.936 0 01.555.3h-1.646zm5.71-18.821c.175-.052.265.084.374.173.16.13.314.267.555.272-.012-.047-.016-.08-.028-.11-.16-.384-.12-.465.291-.572 1.129-.291 2.347.263 2.88 1.308.058.114.088.216-.033.313.063.075.118.137.168.203.118.154.235.308.347.467.035.05.067.12-.006.165-.067.042-.116-.007-.157-.059-.034-.043-.066-.089-.103-.13-.18-.207-.36-.416-.603-.587-.217.578-.6.935-1.219.902-.64-.035-.942-.48-1.09-1.06-.16.057-.287.118-.383.227.034.122.113.202.187.284.625.685 1.347.862 2.222.544.183-.067.363-.139.547-.201.089-.03.189-.033.228.075.037.103-.048.151-.124.186-.296.137-.59.279-.891.4-.181.073-.304.245-.567.195-.17-.032-.354.005-.496-.135-.081.096-.074.216-.156.289-.06.053-.125.093-.206.05-.074-.04-.075-.113-.06-.183.015-.073.039-.145.058-.214-.34-.222-.377-.22-.673.01a1.622 1.622 0 01-.136.095c-.055.034-.116.06-.172.01-.064-.056-.045-.124-.01-.19.064-.118.188-.18.273-.282-.064-.145-.163-.15-.289-.093-.246.11-.492.225-.764.264-.113.016-.19-.036-.228-.137-.042-.112.015-.19.11-.238.061-.031.13-.047.195-.07.167-.059.35-.079.498-.197-.054-.185-.147-.275-.349-.242-.374.063-.695-.06-.97-.316-.054-.05-.09-.127-.178-.132-.08.047-.104.13-.127.208-.169.562-.151 1.11.147 1.627 1.148 1.99 4.144 2.317 5.455.129.491-.82.663-1.687.208-2.59-.536-1.067-1.74-1.706-2.919-1.546-.706.097-1.329.375-1.857.906-.191.12-.325.295-.457.471-.064.086-.071.172.042.219.265.11.534.174.82.01-.199-.208-.448-.38-.354-.719zM36.01 36.72c-.75.483-1.577.583-2.437.46-1.692-.244-3.14-1.8-3.17-3.554-.002-.131-.055-.205-.167-.256-.38-.175-.747-.17-1.11.05a.456.456 0 00-.236.388c-.088 1.118-.611 2.011-1.492 2.675-1.435 1.08-3.547.904-4.825-.365-.065-.065-.111-.163-.236-.16-.063.1-.026.2.001.296.21.77.579 1.469.962 2.16.479.861 1.048 1.654 1.83 2.267a21.906 21.906 0 002.681 1.786c1.381.786 2.795.8 4.226.143.982-.45 1.867-1.06 2.718-1.72a6.158 6.158 0 001.485-1.615c.8-1.29 1.338-2.688 1.698-4.158.112-.458.13-.921.041-1.437-.288 1.28-.88 2.305-1.969 3.04zm-8.872 7.318c-.252.777-.69 1.403-1.45 1.76-.125.058-.146.128-.08.243.102.18.192.37.3.546.918 1.496 2.14 2.618 3.877 3.07 1.226.318 2.372.18 3.382-.67.839-.706 1.513-1.542 2.072-2.477.236-.395.236-.405-.181-.606-.739-.357-1.197-.929-1.347-1.737a4.44 4.44 0 01-.034-1.303c.02-.186.081-.371.056-.583-.122.08-.225.15-.33.216-.063.041-.087.09-.084.172.032.9.063 1.802-.02 2.701-.049.512-.15 1.015-.372 1.485-.038.08-.085.183-.196.144-.114-.04-.077-.144-.056-.232.07-.29.149-.577.204-.87.054-.282.125-.567.097-.91l-.146.217c-.932 1.353-2.508 1.64-3.858.702-.694-.483-1.179-1.146-1.602-1.861-.042-.07-.063-.155-.144-.2-.06.04-.062.107-.088.193zm7.843-21.71c.08-.412.184-.823.15-1.266-.105.04-.108.109-.13.165a12.789 12.789 0 01-1.355 2.593c-.774 1.14-1.653 2.177-2.856 2.893-.16.096-.322.191-.484.285-.056.033-.124.055-.167-.01-.054-.082.016-.126.074-.164.053-.035.107-.065.16-.097.31-.186.611-.384.887-.618.985-.835 1.763-1.84 2.41-2.95.575-.987 1.077-2.004 1.287-3.14.037-.196.108-.398.036-.607-.129.014-.206.087-.288.149-1.134.862-2.1 1.894-2.975 3.01-.874 1.116-1.536 2.374-2.302 3.563-.019.028-.038.059-.02.1.076.065.142.004.206-.026a5.6 5.6 0 001.11-.69c1.22-.983 2.186-2.182 2.99-3.517.226-.374.432-.76.607-1.16.026-.06.05-.154.141-.113.08.037.048.122.025.185a6.148 6.148 0 01-.141.347c-.62 1.436-1.496 2.704-2.57 3.833-.752.79-1.59 1.469-2.642 1.831-.333.115-.61.29-.778.614-.047.09-.128.164-.199.24-.414.44-.86.84-1.432 1.175.556-.077 1.055-.142 1.546-.257a8.761 8.761 0 001.11-.35c1.543-.587 2.788-1.583 3.853-2.821.8-.931 1.417-1.967 1.747-3.197zm1.743 9.604c-.63-.631-1.382-1-2.277-1.084-.823-.076-1.59.055-2.27.548-.65.473-1.105 1.08-1.165 1.905-.085 1.167.42 2.066 1.34 2.748.642.476 1.37.68 2.157.55 1.31-.215 2.145-1.024 2.638-2.22.154-.375.25-.766.23-1.174-.027-.508-.29-.9-.653-1.273zm-10.04-3.5a7.67 7.67 0 00.997-.882c.786-.839 1.44-1.775 2.054-2.744.527-.832 1.007-1.694 1.61-2.476a20.063 20.063 0 013.002-3.107c.062-.052.162-.085.163-.195-.13-.021-.13-.021-.228.004-.731.184-1.382.536-1.982.981-1.1.816-1.958 1.857-2.738 2.97-.825 1.176-1.529 2.43-2.326 3.625-.213.32-.44.63-.667.955.093.01.122-.055.165-.094a8.657 8.657 0 001.069-1.162c.049-.064.103-.163.196-.11.113.065.031.163-.006.237-.21.418-.48.794-.793 1.14-.601.668-1.373 1.095-2.138 1.534-.06.034-.122.064-.182.1-.053.03-.103.064-.154.097.702-.174 1.354-.438 1.958-.874zm-5.15 5.242a66.515 66.515 0 01-.083-2.764c-.003-.242-.024-.484-.041-.726-.007-.09-.024-.179-.13-.215-.092.061-.087.154-.082.243.06 1.116.028 2.232.025 3.348 0 .2-.027.4-.08.596-.016.06-.039.13-.118.122-.076-.009-.096-.082-.096-.142.002-.166.02-.332.022-.498a54.264 54.264 0 00-.043-3.056 19.131 19.131 0 00-.04-.665c-.014-.194-.09-.247-.274-.171-.14.057-.27.14-.406.208-.152.076-.221.189-.209.367.046.649.087 1.299.12 1.948.054 1.044.137 2.086.251 3.125.013.115.057.172.165.204.254.075.511.121.777.127.444.009.516-.072.439-.511-.003-.014-.008-.027-.01-.04-.057-.488-.207-.963-.187-1.5zm10.367 11.262a1.658 1.658 0 01-.447.165c-.637.135-1.206-.056-1.748-.367-.521-.3-.96-.705-1.385-1.125-.227-.224-.454-.45-.731-.613-.079-.047-.158-.118-.274-.068-.017.157-.034.314-.048.472-.005.048-.002.096.041.132.159.131.241.32.357.483.523.737 1.112 1.404 1.932 1.825.654.336 1.322.42 1.986.036a2.649 2.649 0 001.277-1.649c.023-.087.042-.175.057-.264.013-.08.019-.16.028-.24-.251.487-.547.915-1.045 1.213zM38.53 22.09c1.305 1.138 2.614 2.271 3.802 3.538a3.727 3.727 0 00-.46-.895c-.778-1.155-1.767-2.113-2.816-3.014-.916-.786-1.944-1.347-3.138-1.58-.046-.01-.093-.031-.14.014-.001.108.085.167.15.234.895.946 1.981 1.666 2.966 2.507.021.018.049.026.076-.021-.057-.104-.152-.184-.243-.267-.365-.33-.732-.658-1.094-.991-.062-.056-.163-.128-.068-.222.081-.08.153.008.214.059.244.204.486.413.75.639zm1.748 11.45c.251-.16.338-.421.394-.684a5.168 5.168 0 00.006-2.164c-.058-.271-.155-.532-.34-.75-.314-.366-.684-.314-.875.127a1.389 1.389 0 00-.084.256c-.142.659-.106 1.321-.02 1.982.049.366.137.724.364 1.026.13.172.282.314.555.206zm-1.474-3.804c.077-.006.09-.078.123-.125.419-.59 1.083-.674 1.64-.208.34.286.508.672.598 1.092.172.809.165 1.625.033 2.437-.145.887-.547 1.294-1.348 1.446a.687.687 0 01-.69-.237c-.236-.267-.357-.59-.429-.933-.057-.275-.101-.552-.159-.87-.04.756-.065 1.468.015 2.18.031.276.075.55.215.796.053.094.141.144.245.095.105-.05.036-.134.01-.198a2.756 2.756 0 01-.153-.495c-.016-.076-.017-.16.069-.2.07-.032.137-.003.189.05.064.063.123.13.184.197.274.303.51.357.894.205.634-.252.996-.738 1.146-1.382a6.963 6.963 0 00.02-3.008c-.166-.814-.64-1.383-1.45-1.643-.638-.205-1.104.11-1.152.8zm-3.058-3.951c-.23-.683-.415-1.38-.583-2.09-.066.028-.092.03-.102.044-.262.38-.567.748-.392 1.266.029.084.03.177.049.265.346 1.577 1.164 2.86 2.412 3.875.054.044.103.118.242.075-.35-.535-.676-1.07-.935-1.64a19.5 19.5 0 01-.69-1.795zm2.57-2.854c-.25-.167-.449-.403-.74-.555.517 1.049 3.533 3.412 4.449 3.493-.008-.028-.007-.059-.022-.076-.343-.41-.719-.79-1.103-1.16-.041-.04-.097-.075-.148-.027-.136.126-.24.039-.347-.044l-2.09-1.631zm-8.958 27.092c-1.512-.493-2.637-1.503-3.614-2.715.099.198.21.38.331.556.63.917 1.4 1.677 2.411 2.17.053.026.103.048.158.033.278-.073.554-.053.832.004a90.758 90.758 0 01-.118-.048zm-9.727-16.195l.12.252.032-.012-.338-3.165c-.103.028-.102.102-.115.156a3.74 3.74 0 00-.099.675c-.04.72.154 1.397.4 2.094zm15.295-19.592c-.35.461-.493.973-.395 1.571l.54-.235c-.263-.573-.213-1.113.133-1.628-.087.09-.174.18-.278.292zM18.73 33.82c.01-.097-.048-.155-.118-.204-.244-.172-.852-.12-1.06.093-.08.082-.145.175-.079.296.063.114.175.144.288.114.32-.084.636-.181.969-.299zm6.745 10.928c-.353.1-.387.179-.211.482.032.055.066.091.13.069.373-.133.668-.358.893-.734-.298.022-.537.109-.812.183zM43.018 21.54l-.006-.098c-.132.261-.243.494-.365.721-.126.232-.288.44-.446.65-.15.201-.37.346-.47.588.234-.054.39-.21.54-.37.392-.415.609-.92.747-1.491zm-8.084 23.476c-.084-.007-.165-.07-.269-.009.257.245.541.422.858.55.132.052.17-.042.21-.135.044-.102.03-.17-.089-.204-.226-.063-.451-.132-.71-.202zM19.373 33.76l-.077-.212c.032.603.149 1.176.563 1.713.01-.263.045-.471-.087-.651-.183-.25-.294-.53-.4-.85zm16.005-17.655c-.43.137-.968.509-1.057.784.39-.31.784-.493 1.22-.561-.02-.119-.077-.167-.163-.223zM17.847 33.201c-.08.065-.194.097-.232.253.296-.099.567-.172.847-.197.11-.009.17-.045.158-.163-.016-.142-.122-.114-.204-.098a1.691 1.691 0 00-.57.205zm8.885-.56l.328.258c-.493-.539-1.086-.89-1.814-.977.11.134.24.204.423.214.406.021.716.273 1.063.505zm-1.185.099c-.14.163-.132.265.028.306.098.025.194.015.261-.072.046-.06.055-.132.013-.193-.07-.104-.17-.1-.302-.041zm-.624-.218c.021-.016.092-.021.035-.06-.074-.05-.153-.106-.267-.114.024.136.078.205.232.174z"/>
      <path d="M34.682 50.666c.146-.435.384-.834.583-1.252.492-1.04.922-2.105 1.332-3.178.013-.033.024-.066.037-.097.029-.067.063-.135.15-.106.083.026.092.099.07.171-.066.233-.126.468-.206.696a28.21 28.21 0 01-1.53 3.566c-.028.055-.05.113-.078.185-.114.015-.227.015-.358.015zm-7.659.002c.11-.293.262-.348.548-.2.091.047.184.094.26.187-.26.013-.524.013-.808.013zm-2.927-35.793c1.005-.443 2.02-.428 3.046-.162.397.103.79.224 1.154.411.339.175.69.258 1.064.32 1.044.17 2.015.552 2.817 1.248.37.32.8.514 1.189.785.12.083.237.169.35.26.06.05.165.107.094.198-.062.08-.138-.003-.2-.04a3.986 3.986 0 00-1.375-.514c-.892-.157-1.72.043-2.503.473-.891.49-1.603 1.181-2.222 1.978a18.08 18.08 0 00-1.93 3.055c-.42.846-.92 1.626-1.596 2.294-.69.682-1.34 1.407-2.162 1.943-.215.14-.434.274-.672.372-.071.029-.153.067-.21-.01-.066-.093.01-.157.073-.21.406-.348.814-.692 1.195-1.067 1.098-1.081 2.016-2.306 2.87-3.582.047-.07.09-.141.142-.206.097-.122.14-.116.227.016.863-1.806 1.941-3.446 3.624-4.62-.221.026-.406.135-.597.227-.818.391-1.51.963-2.15 1.589-.785.767-1.628 1.464-2.459 2.178-2.132 1.835-3.642 4.09-4.485 6.78-.068.217-.103.445-.147.668-.044.222-.15.264-.326.113-.259-.22-.429-.508-.566-.813-.273-.602-.368-1.245-.427-1.896a13.062 13.062 0 01.046-2.677c.074-.655.203-1.301.53-1.895-.13-.123-.298-.162-.428-.26-.071-.054-.17-.108-.13-.212.041-.104.146-.061.22-.037.406.133.7.045.935-.35.221-.371.52-.697.788-1.048-.109-.116-.243-.11-.354-.158-.09-.039-.184-.064-.272-.105-.2-.093-.206-.159-.03-.304-.028-.104-.118-.165-.18-.245-.72-.93-1.04-1.976-.918-3.151.01-.085.018-.18.124-.188.096-.007.122.083.142.155.14.48.302.951.6 1.363.216.297.47.55.807.703.591.267 1.224.066 1.534-.643.42-.958.943-1.839 1.694-2.572.137-.134.177-.263.168-.455-.04-.89.09-1.744.627-2.49.182-.253.416-.446.703-.57.1-.043.223-.112.295.02.07.131-.061.176-.146.23-.545.345-.974 1.032-1.02 1.643.401-1.313 1.35-1.988 2.644-2.147 1.466-.18 2.77.193 3.72 1.42.245.317.383.689.479 1.076.02.08.047.18-.055.216-.091.032-.132-.061-.17-.124a4.876 4.876 0 00-.833-1.06c-1.169-1.091-2.686-1.338-4.092-.11a6.537 6.537 0 00-1.425 1.723.55.55 0 00-.08.316c.015.227.03.239.259.148zm-3.483 6.732c.348-.01.689-.064 1.024-.158.062-.017.133-.026.157.053.024.077-.035.114-.096.136-.096.035-.194.064-.29.096.171.01.338.006.5-.024 1.152-.216 2.146-.783 3.063-1.473.496-.373.908-.854 1.366-1.278 1.132-1.049 2.413-1.811 3.967-2.042.087-.013.186-.016.284-.102-.369-.092-.713-.122-1.056-.157-1.15-.118-2.233.075-3.24.666-1.005.592-1.814 1.408-2.607 2.244-.19.2-.372.41-.585.59-.928.775-2.005 1.126-3.205 1.134-.252.001-.342.072-.417.328.369.036.732.028 1.135-.013zm-2.068 1.517a4.541 4.541 0 00-.194 1.547c.029-.1.045-.171.07-.24.022-.06.056-.121.134-.101.076.02.08.08.069.15-.11.627-.073 1.258-.014 1.886.033.344.067.69.169 1.052.068-.263.119-.5.19-.731.428-1.374 1.22-2.527 2.181-3.575.174-.19.366-.36.574-.51.064-.046.14-.124.218-.037.068.076-.003.142-.05.2a3.65 3.65 0 01-.174.206 14.22 14.22 0 00-1.582 2.059c-.457.73-.794 1.505-.896 2.371.886-2.093 2.11-3.95 3.798-5.494a.42.42 0 00-.146.033 4.433 4.433 0 01-1.748.31 34.405 34.405 0 01-1.907-.13c-.18-.016-.285.052-.364.205a4.65 4.65 0 00-.328.799zm3.804-3.1c-.58.306-1.192.486-1.852.48-.152-.003-.284.02-.315.213.236.038.455-.004.673-.034.873-.12 1.638-.469 2.24-1.122a21.594 21.594 0 011.88-1.823c.828-.701 1.711-1.302 2.81-1.499.066-.012.141-.018.236-.115-2.452-.165-4.397.815-6.122 2.36.744-.273 1.427-.675 2.11-1.111.035.156-.043.196-.1.238-.907.661-1.877 1.206-2.936 1.582-.195.069-.399.124-.611.098-.095-.012-.179-.054-.202-.154-.025-.11.07-.134.142-.175.032-.018.086-.017.088-.09-.49-.005-.916-.175-1.314-.549.15.313.324.544.523.753.48.503 1.072.757 1.77.72a2.896 2.896 0 001.479-.498c.067-.045.147-.113.219-.021.059.076-.008.142-.058.2-.182.212-.39.393-.66.547zm-.287-2.375c1.568-1.396 3.448-1.938 5.508-1.993a.942.942 0 00-.237-.094 10.285 10.285 0 00-2.199-.278c-1.161-.015-2.06.455-2.75 1.367-.263.347-.475.72-.562 1.168.107-.027.154-.1.24-.17zm2.484-4.672c.403-.449.837-.863 1.383-1.208-1.207.3-1.94 1.016-2.003 2.092.18-.313.382-.594.62-.884zm1.896 1.98c-.422-.093-1.394-.035-1.675.097.98-.106 1.944.04 2.905.24a4.514 4.514 0 00-1.23-.338zm-3.186.391l-.182.203c.439-.286.439-.286.435-.42-.097.045-.158.13-.253.217zm1.405 8.495c-.008.027-.048.045-.017.098l.3-.422-.036-.026-.247.35zm9.492-14.917c.072.097.256.16.139.286-.106.112-.191-.052-.27-.11-.632-.463-1.321-.727-2.105-.524-.897.232-1.347.901-1.566 1.75a2.933 2.933 0 00-.056 1.197c.016.098.074.268-.06.29-.155.026-.142-.155-.16-.262a3.134 3.134 0 01.283-1.962c.646-1.287 2.116-1.692 3.39-.945.136.08.263.18.405.28zm-2.031 30.832c-.23.162-.408.358-.568.568-.569.749-1.34.842-2.187.68-.505-.096-.903-.373-1.23-.763-.182-.218-.368-.436-.616-.585-.179-.108-.357-.145-.536.01-.127.111-.23.058-.305-.072-.118-.206-.063-.554.111-.714.14-.128.349-.148.49 0 .398.417.84.337 1.271.037.594-.412.717-.392 1.204.15.036.04.065.088.093.126.12-.056.145-.15.196-.22.196-.269.457-.354.766-.236.102.04.2.094.296.15.217.127.448.218.697.26.314.052.591-.003.807-.262.095-.114.209-.221.375-.148.172.076.23.229.235.407.004.177-.036.332-.21.419-.066.033-.147.05-.197-.002-.18-.182-.327-.05-.477.04-.071.044-.136.097-.215.154zm-3.751-2.421c-.066-.403.074-.722.337-.995.061-.063.15-.119.24-.047.094.075.042.163 0 .244-.132.259-.134.269.163.314.4.061.803.05 1.203.008.23-.024.25-.089.147-.304a2.263 2.263 0 00-.298-.45c-.037-.044-.057-.098-.006-.149.042-.041.087-.024.134-.005.43.167.865.954.77 1.395-.054.256-.17.331-.412.252-.26-.085-.443.021-.6.212-.145.174-.197.17-.316-.025-.17-.277-.311-.333-.625-.249-.094.025-.187.056-.282.066-.206.023-.37-.043-.455-.267zm7.348-3.577c-.056.053-.1.097-.108.176.117.099.28.093.414.158.1.048.229.088.184.232-.047.153-.18.13-.295.09-.157-.056-.309-.122-.463-.185-.057-.023-.118-.063-.168.004-.044.057.007.103.036.148.036.059.078.115.11.175.037.067.04.137-.026.187-.07.054-.132.019-.182-.038-.05-.057-.1-.115-.14-.18-.075-.125-.16-.118-.278-.058-.106.055-.151.108-.09.225.037.072.089.17-.007.221-.114.063-.159-.054-.196-.128-.066-.13-.15-.191-.297-.137-.156.057-.384-.051-.448.224-.018.078-.134.04-.142-.046-.015-.15-.115-.162-.228-.187a3.42 3.42 0 01-.952-.354c-.075-.042-.186-.085-.14-.196.044-.112.157-.097.253-.068.439.134.876.256 1.344.226.538-.034.961-.274 1.305-.677-.17-.154-.18-.153-.292.018-.336.513-1.157.732-1.705.452a.822.822 0 01-.426-.513c-.02-.065-.016-.14-.084-.188-.11.002-.163.089-.223.161-.166.197-.293.42-.428.638-.053.086-.098.221-.225.169-.147-.06-.062-.199-.03-.292.216-.636.65-1.084 1.231-1.402.3-.163.62-.276.937-.398a.724.724 0 00.3-.186c-.096-.018-.169.006-.243.03a5.667 5.667 0 00-1.283.583c-.083.05-.17.094-.257.136-.084.04-.177.072-.247-.015-.07-.088-.016-.175.039-.246.293-.379.696-.586 1.15-.7.415-.105.84-.092 1.259-.036.333.045.367.17.147.435l-.07.079c.27.106.52-.03.535-.287.004-.069.026-.124.088-.152a.2.2 0 01.215.027c.142.108.156.263.116.415-.052.198.034.212.193.185a1.31 1.31 0 00.527-.234c.094-.065.196-.134.299-.033a.304.304 0 01.073.345c-.085.218-.262.351-.45.474-.096.063-.21.109-.272.246.154.052.304.01.451.014.07.002.139-.002.208-.002.094 0 .194.01.213.121.021.123-.076.168-.173.197-.26.078-.53.099-.799.117a2.641 2.641 0 00-.26.03zm-1.923-.821c-.12-.01-.224.01-.243.155-.014.109.037.189.138.227.095.036.185.004.228-.085.057-.116.05-.228-.123-.297z"/>
    </g>
  </g>
  <path d="M68.208 28.266h-.272V39.75h-3.168V22.474h4.455l3.935 11.485h.273V22.474h3.168V39.75h-4.455l-3.936-11.484zM90.152 39.75c-.76 0-1.37-.19-1.832-.57-.462-.395-.734-.956-.816-1.682h-.124c-.231.841-.693 1.477-1.386 1.906-.677.428-1.51.643-2.5.643-1.237 0-2.236-.33-2.995-.99-.742-.677-1.113-1.617-1.113-2.822 0-1.336.486-2.326 1.46-2.97.973-.643 2.4-.965 4.282-.965h2.054v-.643c0-.76-.182-1.329-.545-1.708-.346-.396-.94-.594-1.782-.594-.775 0-1.402.148-1.88.445a4.36 4.36 0 00-1.238 1.164l-2.005-1.782c.43-.726 1.097-1.32 2.005-1.782.924-.479 2.104-.718 3.54-.718 1.748 0 3.11.404 4.083 1.213.99.792 1.485 1.996 1.485 3.613v5.594h1.41v2.648h-2.103zm-5.272-2.104c.644 0 1.188-.157 1.634-.47.445-.314.668-.767.668-1.361V34.28h-1.955c-1.502 0-2.253.503-2.253 1.51v.495c0 .446.174.784.52 1.015.347.23.809.346 1.386.346zm16.474 2.104c-1.32 0-2.302-.346-2.945-1.04-.644-.693-.966-1.575-.966-2.648v-6.237h-3.465V26.98h2.253c.544 0 .932-.107 1.163-.322.231-.214.346-.61.346-1.188v-2.995h3.367v4.505h4.974v2.846h-4.974v7.079h4.974v2.846h-4.727zm18.479 0c-.759 0-1.37-.19-1.832-.57-.462-.395-.734-.956-.817-1.682h-.123c-.231.841-.693 1.477-1.386 1.906-.677.428-1.51.643-2.5.643-1.238 0-2.236-.33-2.995-.99-.742-.677-1.114-1.617-1.114-2.822 0-1.336.487-2.326 1.461-2.97.973-.643 2.4-.965 4.281-.965h2.055v-.643c0-.76-.182-1.329-.545-1.708-.346-.396-.94-.594-1.782-.594-.775 0-1.402.148-1.881.445a4.358 4.358 0 00-1.237 1.164l-2.005-1.782c.429-.726 1.097-1.32 2.005-1.782.924-.479 2.103-.718 3.539-.718 1.749 0 3.11.404 4.084 1.213.99.792 1.485 1.996 1.485 3.613v5.594h1.41v2.648h-2.103zm-5.272-2.104c.643 0 1.188-.157 1.633-.47.446-.314.669-.767.669-1.361V34.28h-1.956c-1.501 0-2.252.503-2.252 1.51v.495c0 .446.173.784.52 1.015.346.23.808.346 1.386.346zm9.742-.742h3.91V24.28h-3.91v-2.846h7.573v15.469h3.911v2.846h-11.484v-2.846zm21.374-11.559c-.825 0-1.402-.165-1.732-.494a1.78 1.78 0 01-.471-1.238v-.718c0-.495.157-.907.471-1.237.33-.33.907-.495 1.732-.495s1.394.165 1.708.495c.33.33.495.742.495 1.237v.718c0 .479-.165.891-.495 1.238-.314.33-.883.495-1.708.495zm-5.89 11.559h4.059v-7.079h-4.059V26.98h7.722v9.925h3.762v2.846h-11.484v-2.846zm24.567 2.846c-.759 0-1.37-.19-1.832-.57-.462-.395-.734-.956-.817-1.682h-.123c-.231.841-.693 1.477-1.386 1.906-.677.428-1.51.643-2.5.643-1.238 0-2.236-.33-2.995-.99-.742-.677-1.114-1.617-1.114-2.822 0-1.336.487-2.326 1.461-2.97.973-.643 2.4-.965 4.281-.965h2.055v-.643c0-.76-.182-1.329-.545-1.708-.346-.396-.94-.594-1.782-.594-.775 0-1.402.148-1.881.445a4.358 4.358 0 00-1.237 1.164l-2.005-1.782c.429-.726 1.097-1.32 2.005-1.782.924-.479 2.103-.718 3.539-.718 1.749 0 3.11.404 4.084 1.213.99.792 1.485 1.996 1.485 3.613v5.594h1.41v2.648h-2.103zm-5.272-2.104c.643 0 1.188-.157 1.633-.47.446-.314.669-.767.669-1.361V34.28h-1.956c-1.501 0-2.252.503-2.252 1.51v.495c0 .446.173.784.52 1.015.346.23.808.346 1.386.346z" fill="#030712"/>
  <defs>
    <clipPath id="YrCwRu0xpo7Fa">
      <path fill="#fff" transform="translate(8 8)" d="M0 0h44v44H0z"/>
    </clipPath>
    <clipPath id="YrCwRu0xpo7Fb">
      <path fill="#fff" transform="translate(8.688 8)" d="M0 0h42.625v42.625H0z"/>
    </clipPath>
  </defs>
</svg>
