<svg xmlns="http://www.w3.org/2000/svg" viewBox="0 0 1365 1024">
  <path fill="#080F1B" d="M0 0h1363.83c1.73 3.046 1.18 7.148 1.18 10.576L1365 711.19l.03 151.597c0 7.562 1.06 43.866-.3 48.887a14.64 14.64 0 01-.59 1.711c1.48 3.454 1.73 15.855.32 19.185-.11.245-.23.484-.34.726.85 2.211 1.04 3.395.15 5.609-.05.123-.11.239-.17.359.38.872.72 1.794.8 2.747.62 7.203.94 77.148-.37 80.698-.19.53-.39.79-.7 1.29H0V0z"/>
  <path fill="#000102" d="M946.533 611.669c-.274 2.393.249 6.329-1.12 8.203-.589-.383-.72-.41-1.208-1.059-1.79-2.377-2.098-6.991-1.091-9.717.596-1.612 1.963-2.186 3.465-2.743l-.046 5.316z"/>
  <path fill="#1CBB83" d="M172.154 784.237l7.005.566-4.252 11.673c-.366.997-.18 1.094-1.17 1.624-1.39-3.753-1.889-9.833-1.583-13.863z"/>
  <path fill="#ACACAC" d="M522.547 680.618c9.199 4.122 24.216 6.62 31.895 11.264 1.812 1.095 1.67 2.414 1.975 4.309-7.896-3.422-27.929-9.05-33.58-13.35l-.29-2.223z"/>
  <path fill="#1CBB83" d="M156.312 783.97l11.384.203c1.379 8.509 2.803 17.143 3.186 25.761l-7.54.047c-1.577-8.772-4.402-17.505-7.03-26.011z"/>
  <path fill="#FAFAF9" d="M901.583 419.599l1.554.479c2.515 3.307 1.313 29.423 1.359 35.871-2.856-3.675-4.146-5.896-8.998-6.706-.037-.008-.078-.007-.112-.023-2.365-1.105-6.731-10.802-8.358-13.704 6.077-4.374 10.581-9.615 14.555-15.917z"/>
  <path fill="#ACACAC" d="M629.425 670.008l.71.234c.804 1.615.848 1.716.566 3.493-.444.602-.779 1.13-1.466 1.485-5.227 2.696-12.509 4.201-18.169 6.092l-48.908 16.231-.832.103-1.202-1.545.373-1.399c3.924-4.326 58.787-21.023 68.928-24.694zm-145.58-152.549c1.988-.288 3.2.181 5.053.883l-.143.692c-13.023 4.632-26.62 7.926-39.804 12.158-16.862 5.412-33.681 11.799-50.725 16.542-1.28.356-2.497.405-3.809.201l-8.059-1.953c32.447-9.556 64.801-19.838 97.487-28.523z"/>
  <path fill="#FAFAF9" d="M863.364 470.574c10.949 1.105 23.357-5.298 31.563-12.116q1.786-1.51 3.454-3.149c2.597 2.723 6.185 5.731 7.807 9.122-.446 3.551-4.049 6.355-6.732 8.424-8.654 6.678-18.631 11.576-27.057 18.546-2.416-7.161-5.836-13.988-9.035-20.827zm44.847-49.056c1.204.242 2.766.467 3.728 1.276 1.361 1.143 2.584 3.204 3.701 4.611 3.623 4.564 6.752 7.556 11.613 10.827l.292 31.71c-6.017-3.604-12.601-5.753-18.448-9.811-.762-12.821-.612-25.769-.886-38.613z"/>
  <path fill="#000102" d="M931.105 472.232l-.249.528-.741.139c-.112-4.945-.499-29.134.886-31.807.363-.701 1.032-1.061 1.869-1.019 7.27.365 9.853 4.627 19.459 1.888 1.088-.31.51-.34 1.653.187-2.713 2.44-8.208 1.874-11.631 1.832-.033 7.317-1.235 18.323.311 25.321 1.451.389 2.605.213 4.06.019.64.821.824.674.64 1.807-.376 2.316-3.171 4.19-4.919 5.5l.046 44.043-2.733-.578-1.183 1.104-1.057-.481c.192-.329.532-.86.669-1.251 1.858-5.285.689-22.611-.396-28.37-.447-2.376-1.402-4.711-2.294-6.953-.113-4.859-2.897-3.085-5.246-5.971.023-1.752-.107-2.019.984-3.476 2.644 1.279 4.426 6.04 6.9 8.255l.835-.157c.584-2.059.298-3.683-.011-5.776-.123 1.17-.363 2.188-.699 3.314-2.469-1.183-5.208-5.889-7.153-8.098z"/>
  <path fill="#CECECE" d="M931.769 440.378l6.96 2.823c-.106 8.438-1.537 26.328.228 33.815-.123 1.17-.363 2.188-.699 3.314-2.469-1.183-5.208-5.889-7.153-8.098.381-10.625.734-21.221.664-31.854z"/>
  <path fill="#FAFAF9" d="M597.508 656.792c9.701 2.946 19.254 6.742 28.801 10.166-21.715 8.037-43.965 14.705-65.778 22.5l-21.512-6.757a208.374 208.374 0 01-13.305-4.671c14.762-5.575 29.956-9.861 44.747-15.387q1.93 8.855 3.749 17.733c9.285-.872 18.101-4.533 27.258-6.265-1.372-5.802-3.401-11.342-3.96-17.319z"/>
  <path fill="#ACACAC" d="M658.299 496.128c1.09-.072 1.969.056 3.038.27-.663 1.377-1.849 1.579-3.257 2.105-18.983 7.102-40.284 12.87-59.824 18.794l-69.329 21.499c-11.213 3.368-50.267 14.235-57.507 18.868-1.364.873-2.198 1.843-2.621 3.424-1.614 6.038-.588 14.626-.572 20.934l.169 59.801c.016 7.874 1.269 22.132-.69 29.304-.044.161-.096.32-.144.48-1.896-1.151-3.365-2.019-4.665-3.87-1.063-11.281-.964-104.302.984-110.984 8.436-5.629 28.677-10.239 39.064-13.423l78.506-23.699 46.022-14.212c10.222-3.209 20.402-6.791 30.826-9.291z"/>
  <path fill="#CECECE" d="M386.174 558.136c1.585.272 2.778.367 3.997 1.527 3.574 9.24 5.247 53.811 6.186 65.803 1.105 14.12 3.453 29.008 3.165 43.112-1.79.553-3.297-.537-4.987-1.257-4.786-2.163-9.725-4.015-14.608-5.951l3.558-66.432c.597-11.851.126-25.278 2.689-36.802z"/>
  <path fill="#BAE0C8" d="M911.726 944.601c.95.21.843.322 1.424 1.035.954 9.434-4.178 20.645-5.823 30.097l-10.311-.469c.508-2.106 1.206-4.747 1.198-6.922-.007-1.748-.323-2.38-1.481-3.639-1.604-.091-24.572 11.102-29.376 12.584-7.236 2.231-13.974 2.881-21.485 2.735-2.781-.314-6.037-.682-8.653-1.693-1.752-.678-2.355-1.026-3.127-2.691 2.677-3.414 10.724-6.277 14.752-8.477 8.678-4.739 16.644-10.383 24.233-16.701 14.385 3.829 25.799.567 38.649-5.859z"/>
  <path fill="#000102" d="M903.632 951.386c.541.539.437.921.546 1.657-1.162 1.814-2.652 2.883-4.385 4.112-13.062 9.262-29.446 15.959-45.59 13.138-.84-.676-.829-.488-1.144-1.629 4.371-2.666 13.086-.822 18.4-2.369 11.334-3.3 20.659-9.876 31.34-14.549l.833-.36z"/>
  <path fill="#CECECE" d="M381.81 548.907c5.307.532 10.204 2.4 15.185 4.183 3.26 16.463 4.655 33.398 6.562 50.067 2.719 23.767 5.676 47.68 9.413 71.306l-8.941-2.952c-.488-15.459-2.619-31.092-3.838-46.52-1.503-19.018-2.214-38.235-4.688-57.155-.254-2.834-.296-6.161-1.434-8.801-.68-1.577-1.814-2.938-3.498-3.468-2.119-.666-4.204-.292-6.161.605-1.063 1.025-1.501 1.759-1.868 3.202-2.01 7.899-1.779 17.477-2.384 25.65q-2.835 37.532-4.127 75.149c-4.602-1.851-9.069-3.197-13.87-4.382 4.057-16.058 6.267-32.98 9.227-49.29 3.477-19.155 7.693-38.323 10.422-57.594z"/>
  <path fill="#FAFAF9" d="M574.958 586.004l1.533.168c1.839 2.275 17.917 76.354 19.894 84.311-4.402 1.833-9.142 3.051-13.699 4.45l-5.715 1.555c-.943-9.165-3.218-18.38-4.947-27.431-3.725-19.491-7.857-39.363-10.432-59.034q6.71-1.92 13.366-4.019z"/>
  <path fill="#1CBB83" d="M184.109 784.592c12.826 1.878 57.982 5.978 65.823 15.192 1.119 1.315 1.028 2.046.8 3.67-2.992 4.172-8.483 5.501-13.093 7.262-8.112 2.901-16.323 4.543-24.756 6.182-12.705-5.111-25.845-5.736-39.31-6.915 3.762-8.334 7.055-16.934 10.536-25.391z"/>
  <path fill="#FAFAF9" d="M864.522 483.884c2.608 1.703 3.78 8.99 4.559 12.052-3.639 13.122-11.575 24.79-15.029 38.022-1.519 5.822-1.848 12.297-2.456 18.286-1.64 16.168-2.201 32.464-4.078 48.598-6.028 2.54-12.179 4.799-18.289 7.131l-.737-.07-.683-.867c-.078-10.327 10.721-53.326 14.125-63.901 1.735-5.392 3.99-10.497 6.377-15.627-1.556-5.072-3.357-9.971-3.045-15.359.746-12.915 10.362-20.549 19.256-28.265z"/>
  <path fill="#989E9E" d="M910.72 466.652c6.537 2.424 13.422 6.038 19.475 9.537-2.002.402-4.059.787-6.003 1.42-21.636 7.051-42.349 54.812-51.488 73.755q-9.957 20.941-20.286 41.702c-.104-14.607 2.251-33.013 4.703-47.497 9.127-4.76 19.449-15.703 25.68-23.809.938-4.6-1.851-12.279-2.948-16.906 11.554-6.835 22.485-16.559 29.851-27.858-12.286 7.84-21.761 19.108-35.093 25.467 1.763 5.888 3.361 11.76 4.217 17.856-6.851 7.797-14.917 14.648-22.4 21.842 2.158-8.858 13.198-40.112 18.447-46.716 7.306-9.194 33.292-18.777 35.845-28.793z"/>
  <path fill="#1CBB83" d="M146.868 784.28a19.83 19.83 0 014.814.014c3.373 3.775 6.573 20.082 8.134 25.707-9.948.504-19.845 1.097-29.731 2.351-18.031 2.287-23.91 6.072-42.462 1.229-3.473-1.142-7.007-2.23-10.404-3.578-2.936-1.165-6.117-2.587-7.407-5.642.25-.969.473-1.657 1.133-2.435 10.966-12.918 59.48-16.606 75.923-17.646z"/>
  <path fill="#CECECE" d="M931.485 42.505l7.56 2.977-.709 336.702c-2.613-2.478-4.627-5.963-6.685-8.929-1.329-42.877-.405-86.083-.333-128.988l.167-201.762z"/>
  <path fill="#FAFAF9" d="M828.594 792.974c2.401-3.03 4.116-7.083 6.914-9.697 1.862-1.739 3.799-1.323 6.149-1.344 3.176.264 6.363.484 9.532.815 2.459 23.405 5.982 46.668 8.943 70.009 3.557 28.033 6.649 56.105 10.627 84.085l-14.327 4.513c-.367-3.389-.495-7.066-1.244-10.378.208-8.297-3.345-17.632-5.667-25.617l-20.927-112.386z"/>
  <path fill="#989E9E" d="M848.896 473.8c.247 5.259 1.448 9.471 3.561 14.287-3.122 4.539-5.915 9.162-8.642 13.946-4.499 9.914-3.14 15.609-.021 25.688-7.608 17.941-11.962 36.714-15.845 55.751-1.657 8.124-2.447 18.254-5.524 25.806-.693 1.7-3.166 2.329-4.758 2.967q-.803.322-1.615.621l-.899.073c-1.602-1.463-1.245-3.958-1.523-6.102l.412-8.946c1.511-.003 1.882-.262 3.009.812-.026 1.53-.004 2.92.262 4.43 1.497-3.154 1.388-9.847 1.801-13.456-.3-.088-.596-.187-.891-.288-1.988-.681-1.876-.683-2.781-2.529-.432 2.155-.425 2.911-2.312 4.275-5.475 3.958-12.885 6.72-18.971 9.648-12.976 6.243-26.001 12.84-39.339 18.255-2.676-4.198-5.746-7.292-10.767-8.477-5.189-1.224-9.815-.017-14.226 2.805 1.462-4.466 56.28-36.679 64.771-41.737 11.723-34.342 24.693-74.782 54.298-97.829z"/>
  <path fill="#000102" d="M814.042 597.891c1.511-.003 1.882-.262 3.009.812-.026 1.53-.004 2.92.262 4.43-.168 3.363-.384 6.47-1.261 9.733l-.899.073c-1.602-1.463-1.245-3.958-1.523-6.102l.412-8.946zm1.4-11.031c3.667-29.364 9.482-76.097 31.056-97.456l-3.711 8.228c-14.993 26.555-19.761 62.034-23.673 92.045-.3-.088-.596-.187-.891-.288-1.988-.681-1.876-.683-2.781-2.529z"/>
  <path fill="#1CBB83" d="M250.515 638.029c1.428-.218 2.325-.157 3.713.114.749.599 1.45 1.161 1.93 2.012 1.651 2.93 2.065 7.739 2.681 11.111 3.625 19.819 3.141 39.182-3.232 58.42-4.988 15.056-15.157 34.395-30.096 41.676-9.704 4.729-19.634 3.531-29.483.024 8.471-17.98 16.905-35.954 26.41-53.42 5.446-10.006 13.049-19.731 17.221-30.279-1.263-.323-1.865-.263-3.113.099-10.457 9.067-36.585 65.767-44.167 82.023q-1.49-1.08-2.832-2.338-1.343-1.258-2.516-2.676-1.174-1.417-2.16-2.97-.987-1.554-1.77-3.219c-4.398-9.212-2.546-19.444.695-28.718 10.504-30.059 38.28-58.062 66.719-71.859z"/>
  <path fill="#101521" d="M815.442 586.86c.905 1.846.793 1.848 2.781 2.529.295.101.591.2.891.288-.413 3.609-.304 10.302-1.801 13.456-.266-1.51-.288-2.9-.262-4.43-1.127-1.074-1.498-.815-3.009-.812l-.412 8.946c-.534 2.281-.719 4.514-.91 6.84-21.456 8.132-45.222 18.536-67.925 21.577l4.754.12.205.394c-4.219.124-19.403 1.068-22.474 2.8l.051.561c5.29-.191 22.245-2.792 26.23-1.306l.572-.001c2.877-.027 12.265-2.744 13.977-.853.896.99 1.393 3.082 1.828 4.371l.477-.86c2.301 4.604 4.983 10.141 5.844 15.231-.513 1.122-.887 1.581-1.883 2.308l.639.858c1.538.087 2.984.066 4.519-.053l.37.66-.767.572c-6.882-.053-63.754 19.673-71.534 24.049-8.703-2.85-52.627-17.537-56.557-23.117-1.037-1.471-.827-2.239-.432-3.897 4.909-6.403 48.175-17.704 58.271-21.113l2.408-4.902c1.044.274 2.121.634 3.181.815l2.978-5.001.135 1.338c4.5-4.2 8.579-9.907 12.24-14.862 4.411-2.822 9.037-4.029 14.226-2.805 5.021 1.185 8.091 4.279 10.767 8.477 13.338-5.415 26.363-12.012 39.339-18.255 6.086-2.928 13.496-5.69 18.971-9.648 1.887-1.364 1.88-2.12 2.312-4.275z"/>
  <path fill="#FAFAF9" d="M717.587 628.228l-.185 1.763.99.871c7.021-1.719 14.056-23.32 27.002-15.338 1.802 1.111 3.63 2.28 4.878 4.015-1.23 1.527-30.198 12.257-34.218 13.483-1.006-.278-.989-.27-1.58-1.131l2.978-5.001.135 1.338z"/>
  <path fill="#080F1B" d="M724.812 642.708l.317 2.974c-15.794 7.65-33.511 7.996-49.852 14.63-.06-.189-.092-.39-.182-.567-.873-1.7-2.484-1.815-4.17-2.402 5.274-2.073 10.38-4.063 15.916-5.364 7.042-1.655 14.974-2.587 21.736-5.093 1.937-.718 1.912-1.401 2.747-3.139 4.683-1.418 8.389 1.488 13.488-1.039z"/>
  <path fill="#ACACAC" d="M652.372 658.607c16.434-6.288 56.66-21.818 72.44-15.899-5.099 2.527-8.805-.379-13.488 1.039-9.46.829-40.75 7.892-48.024 14.024l-.477 1.325 1.061 1.617c8.541.52 32.148 11.596 42.161 14.906 10.896-5.176 37.674-15.543 49.377-13.127-16.501 5.436-32.796 11.443-49.317 16.824-11.814-3.302-43.062-14.979-53.733-20.709z"/>
  <path fill="#FAFAF9" d="M716.56 637.624c11.939-4.737 24.464-8.012 36.399-12.779 13.981-5.582 27.523-12.769 41.222-19.059 4.338-1.991 15.553-9.112 19.861-7.895l-.412 8.946c-.534 2.281-.719 4.514-.91 6.84-21.456 8.132-45.222 18.536-67.925 21.577-9.5-.281-18.779 2.928-28.235 2.37zm37.001.199l.572-.001c2.877-.027 12.265-2.744 13.977-.853.896.99 1.393 3.082 1.828 4.371 1.26 5.13 3.838 9.808 5.35 14.861-3.653.918-8.556 1.515-11.893 3.103l-10.394.652c-2.263-1.28-4.58-2.911-7.177-3.313-.703.429-1.351.862-2.008 1.362l-.645.5-1.295-1.135c-2.606-.409-5.987 1.419-8.273 2.656-1.949-.19-2.821-.642-4.281-1.936l-2.753.178-.972-2.573-.992-.268c-.414.661-.92 1.123-1.544 1.585-2.019 1.497-3.958 1.426-6.34 1.022-.797-.135-.476.039-.982-.665 1.406-1.094 2.976-1.478 4.659-2l-2.247-2.496c-3.559.98-6.909 3.623-9.909 5.725l6.509 3.214.003.722c-2.402.786-4.437 1.376-6.423 3.019 2.44 1.177 4.967 1.548 7.66 1.504l-11.531 4.124c-9.813-3.221-19.634-6.938-29.183-10.869 16.341-6.634 34.058-6.98 49.852-14.63 4.034-1.587 7.174-4.686 10.918-6.195 2.181-.88 5.608.579 7.977.488 2.804-.107 6.54-1.711 9.537-2.152z"/>
  <path fill="#000102" d="M729.322 658.09c2.514-.97 5.044-1.961 7.639-2.695 2.514-.71 4.655-1.433 7.11-.072-.606 1.071-1.206 1.381-2.195 2.047-2.606-.409-5.987 1.419-8.273 2.656-1.949-.19-2.821-.642-4.281-1.936zm-11.171-5.217c7.204-3.531 14.231-7.189 22.405-7.586l.167.585c-5.621 4.024-12.95 4.68-18.387 8.632-.638.463-1.178.672-1.938.865l-2.247-2.496z"/>
  <path fill="#FAFAF9" d="M781.196 765.866c9.033 4.4 17.999 7.128 27.656 9.827.901-.594 1.143-1.09 1.594-2.057-1.46-1.351-4.694-1.466-6.668-2.334l.071-.846c13.246 3.117 26.338 6.203 39.91 7.551-.654 1.335-1.237 2.714-2.102 3.926-2.35.021-4.287-.395-6.149 1.344-2.798 2.614-4.513 6.667-6.914 9.697l20.927 112.386-3.759.603 1.25 6.488c-9.892 3.648-17.862 5.146-28.436 4.92-.835-.688-1.176-1.165-1.646-2.134-4.712-9.711-9.484-27.258-13.113-37.948-7.167-21.114-14.677-42.035-21.112-63.392-2.31-7.668-5.464-16.191-6.223-24.158-.799-8.383 1.929-16.123 4.714-23.873z"/>
  <defs>
    <linearGradient id="YFSXe6zwfEoia" gradientUnits="userSpaceOnUse" x1="826.73" y1="839.673" x2="853.097" y2="833.886">
      <stop offset="0" stop-color="#000"/>
      <stop offset="1" stop-color="#040A1B"/>
    </linearGradient>
  </defs>
  <path fill="url(#YFSXe6zwfEoia)" d="M803.849 770.456c13.246 3.117 26.338 6.203 39.91 7.551-.654 1.335-1.237 2.714-2.102 3.926-2.35.021-4.287-.395-6.149 1.344-2.798 2.614-4.513 6.667-6.914 9.697l20.927 112.386-3.759.603c-7.565-37.396-13.401-75.147-21.077-112.515-3.727.931-8.085 1.425-11.835.295-1.174-.354-.774-.067-1.361-1.109 3.107-1.429 7.192-.622 10.528-1.395 4.565-1.059 7.454-6.522 9.639-10.222-7.639-1.586-15.218-3.505-22.804-5.324.901-.594 1.143-1.09 1.594-2.057-1.46-1.351-4.694-1.466-6.668-2.334l.071-.846z"/>
  <path fill="#FAFAF9" d="M854.959 782.756c17.022-.158 33.412-1.166 50.328-3.017-.629 5.338-5.704 27.325-4.084 30.731l2.857.963c.173 10.548 1.604 21.2 2.157 31.754l3.643 77.658c-.006 2.775-.302 5.85.356 8.552.914.351 1.99.945 2.968.915.732 3.042 1.076 5.923 1.003 9.061l-3.787 1.06c-.091.072-.175.153-.273.216-10.75 6.922-21.863 8.019-34.27 6.467-.139-13.795-4.332-32.714-6.024-46.923-4.659-39.117-8.786-78.52-14.874-117.437z"/>
  <path fill="#000102" d="M910.216 929.397c.914.351 1.99.945 2.968.915.732 3.042 1.076 5.923 1.003 9.061l-3.787 1.06-.184-11.036z"/>
  <path fill="#1CBB83" d="M400.408 550.479c11.867-2.611 23.741-6.879 35.297-10.643 18.691-6.087 37.65-12.351 56.645-17.356.31 6.625 1.639 13.126 2.8 19.643-6.374 1.806-27.561 6.605-31.948 9.809-1.452 1.06-2.665 3.18-3.674 4.662-.85.022-1.173-.016-1.95-.249-5.541 1.18-33.788 8.451-36.174 12.367-.138.227-.258.466-.387.699 2.029 1.103 3.55 1.06 5.777.382 5.871-1.785 25.955-7.559 29.669-9.626l2.072-.068c1.166 1.157 1.356 2.544 1.368 4.133.013 1.627-.119 4.371-1.012 5.664l-.323 2.798c2.001 4.205.598 74.609.629 85.304l-42.418 14.89c-6.918-40.537-9.079-81.985-16.371-122.409z"/>
  <path fill="#101521" d="M453.987 586.043l1.066-.296c1.416.478 1.446.498 2.28 1.738-2.42 3.609-20.771 8.416-25.957 10.013-.849.11-1.733.114-2.589.164l-.928-.972.289-1.245c5.914-4.914 18.352-7.123 25.839-9.402z"/>
  <path fill="#000102" d="M458.568 572.694c-3.199 2.374-26.042 10.865-29.731 10.926-1.302.021-1.629-.312-2.515-1.12l.66-1.328c4.588-3.166 26.456-11.018 31.909-11.276l-.323 2.798z"/>
  <path fill="#989E9E" d="M938.125 527.127c2.135 7.655 1.272 20.904 1.711 29.334q3.114 56.735 3.956 113.549c-28.433 8.516-59.524 13.521-89.243 10.714l-6.058-.4c-.212-12.145.547-25.343 2.253-37.369q8.778-2.912 17.514-5.946c5.851-2.072 13.946-4.726 18.319-9.193 6.644-6.787 11.076-19.501 15.478-28.056 12.405-24.11 24.376-48.168 36.07-72.633z"/>
  <path fill="#FAFAF9" d="M943.492 46.904q31.186 8.928 62.498 17.4c8.27 2.274 23.86 5.162 30.98 9.273-.01 1.446-.27 2.663-.91 3.959-3.75 7.544-10.64 14.968-15.85 21.652l-34.355 43.383c-13.536 17.709-30.952 34.467-42.757 53.142.676-49.575.197-99.223.394-148.81z"/>
  <path fill="#989E9E" d="M851.135 603.74c4.163-8.71 9.268-17.009 13.494-25.716 12.261-25.261 31.333-73.586 51.164-91.766 3.569-3.272 8.305-6.623 13.385-6.187 3.106.266 4.418 1.814 6.317 4.07.892 2.242 1.847 4.577 2.294 6.953 1.085 5.759 2.254 23.085.396 28.37-.137.391-.477.922-.669 1.251-6.003 7.961-9.647 19.236-14.123 28.232-12.837 25.798-25.183 52.508-40.072 77.181-32.361 14.519-68.442 22.229-102.607 31.329-4.153-6.986-6.506-16.241-8.81-24.035 18.1-7.215 36.734-13.457 55.018-20.238 8.076-2.995 16.425-5.764 24.213-9.444z"/>
  <path fill="#000102" d="M885.003 366.671c5.697-5.142 11.821-7.878 19.491-8.014l1.43.824c-1.021.601-1.689.489-2.838.481-4.387-.03-11.421 2.478-14.681 5.415-.473.426-.732.873-1.041 1.421l.205 1.038c.687.134 1.22-.062 1.842-.419.761-.437 1.446-1.139 2.133-1.683 2.933-2.322 12.249-4.628 15.806-4.009 2.777.483 5.18 2.359 7.652 3.632 9.649 4.972 14.182 7.565 20.348 17.18 5.266 8.212 5.297 16.814 7.184 26.072 2.126 10.429 7.084 21.954 13.556 30.507-1.19 1.199-2.806 1.652-4.47 1.711-3.4.121-6.146-1.327-8.838-3.235l-.651 2.321c-7.439-.166-13.868-3.57-18.964-8.914-8.696-9.116-12.704-22.898-14.974-35.049-.229-1.229-.754-1.716-.792-3.1-.447 7.069 1.954 17.421 5.095 23.703l-.234 1.873c-2.241.398-5.852-1.219-7.703-2.658-.995-.774-1.528-1.958-1.626-3.186-.365-4.539 3.858-7.83 1.41-12.41-3.508-6.564-3.47-14.578-7.977-21.001-1.927-2.747-5.025-4.474-4.26-8.188-.963.034-1.883.107-2.841.179-.979.074-1.572-.144-2.471-.477l.015.609.552.408c3.111 2.344 6.133 5.04 7.875 8.564 1.767 3.573 4.704 7.14 5.442 11.045 1.675 8.86 3.665 18.522-1.837 26.65-.267.396-.584.756-.869 1.139-3.771 5.063-6.363 12.542-13.594 14.067-.798.168-1.411.144-2.182-.147-1.265-1.448-1.212-1.965-1.507-3.814.421-.952.795-1.72 1.355-2.603 1.08-1.702 3.595-9.145 3.26-11.13-.27-1.595-1.915-3.661-3.306-4.417-.929-.506-1.372-.521-2.32-.133-2.505 1.024-4.382 3.639-5.202 6.121-.655 1.983-1.71 5.2-1.105 7.176 1.292-.753 1.417-.775 1.876-2.264 1.087-3.534 1.392-6.207 4.532-8.717l1.769-.385c1.26 1.065 1.596 1.587 1.682 3.281.17 3.351-1.971 10.001-4.27 12.488-.988 1.069-2.464 1.309-3.803 1.698-.719.209-.995.345-1.498.888l.257.704c2.006.391 3.286.028 5.225-.545 4.933 1.88 11.17 16.03 13.257 20.854.524 1.212.824 2.551.32 3.806-2.304 5.734-16.151 8.735-21.426 11.719-1.529.864-2.908 1.115-4.617.578-1.832-.576-3.541-2.104-5.045-3.269l-.69.634c-.008 2.086.234 3.522 1.044 5.447l.948-.965.432.402c3.199 6.839 6.619 13.666 9.035 20.827l.279.745-1.12-.996.083.554c-2.442-4.166-4.265-9.003-5.864-13.555l-.423.214c-.5 1.78-1.001 2.358-2.644 3.318-.277.163-.797.343-1.094.464-2.402.969-3.495 3.611-6.15 3.89-1.728-.944-1.933-1.435-2.534-3.348-1.181-3.759-1.223-7.789-1.14-11.687l.626-.595c3.678-3.539 5.827-8.246 9.591-11.579l1.21.071c1.304 1.584 2.207 4.702 3.768 5.641-.733-6.479-4.53-11.579-4.425-18.43l-.852-.753c-1.545.565-2.284.925-3.42 2.112.61.976 1.231 1.564 2.079 2.313 1.14 1.008 1.526 1.631 2.034 3.047-.053.591.081 1.231-.159 1.774-.549 1.238-3.215 2.943-4.109 4.295-2.631 3.974-1.039 5.27-6.041 9.406-2.436 2.013-5.138 3.691-7.557 5.737-15.432 13.048-24.482 27.96-33.03 46.002-2.869 6.057-4.951 12.909-8.303 18.668-1.373 2.358-1.08 5.396-2.623 7.579l-1.113.183c6.298-21.433 19.564-48.97 35.251-65.112 5.313-5.466 12.791-9.61 17.537-15.29 2.534-3.033 8.991-11.129 8.637-15.153l-1.225-.367c-4.863 2.217-10.779 4.709-16.204 4.702-10.283-.012-17.213-14.828-23.683-21.639 1.191-5.27 2.458-10.322 2.235-15.769-.465-11.324-5.27-20.407-1.045-31.971 3.144-8.604 10.281-14.205 18.375-17.952 14.867-6.881 30.523-6.879 45.657-1.249z"/>
  <path fill="#FAFAF9" d="M896.61 377.088c.646.473 1.246.962 1.795 1.549 7.151 7.65 8.15 20.026 10.347 29.722.67 2.958 2.001 5.999 1.932 9.039l-6.657-2.983c2.731-14.144-.093-24.96-7.417-37.327zm-37.654 87.443c.528 5.081 3.039 10.054 5.004 14.725-2.547 1.405-4.778 3.159-7.074 4.93l-1.118.218c-2.953-2.482-2.942-8.046-3.371-11.617 2.394-2.646 4.505-5.34 6.559-8.256z"/>
  <path fill="#BAE0C8" d="M899.162 363.475c1.81-.16 3.679-.358 5.497-.265 9.294.473 19.555 7.842 25.485 14.584 11.975 13.616 8.703 27.41 14.694 43.186 1.369 3.605 8.451 14.486 8.298 17.065-2.214 1.326-4.409 1.354-6.908 1.528-14.152-17.257-11.333-41.944-25.584-59.209-4.218-5.109-10.963-10.177-17.708-10.981-3.845-.459-7.837.032-11.737-.309l-.011-.977.706 1.245-.408-1.37c1.241-2.116 5.436-3.656 7.676-4.497z"/>
  <path fill="#BAE0C8" d="M893.254 371.32c3.445.014 7.012.145 10.37.971 21.901 5.382 24.838 34.26 31.053 52.162 1.841 5.305 4.151 9.879 7.114 14.647-3.613-.333-7.085-1.781-10.288-3.422-19.74-10.113-17.399-33.62-26.139-50.56-3.078-5.966-6.865-9.707-12.11-13.798z"/>
  <path fill="#FAFAF9" d="M823.822 432.252c1.326-6.2 1.194-12.275 2.277-18.441 2.906-1.778 6.305 1.501 9.095.217l-.347-1.82c-1.407-1.252-3.415-1.136-5.206-1.388-2.037-.288-3.74-.872-4.946-2.638-3.378-4.943-1.033-14.917.178-20.256 2.181 3.704 4.48 7.408 7.236 10.713 7.136 8.56 18.219 16.307 29.641 17.207 5.21.41 8.901-.917 12.795-4.209l.618 1.032c-1.548 3.536-3.43 7.113-2.905 11.07l1.021 1.628c1.148.082.767.275 1.583-.47 3.408-3.111 1.163-8.454 6.224-10.962l1.151.48c.769 2.608-.343 6.475-1.542 8.85-1.886 3.739-8.41 5.355-8.355 9.542 2.456 1.149 5.255-.795 7.026-.093 3.48 1.379 10.959 17.85 12.438 21.918q.181.5.357 1.002c-6.051 4.272-17.848 12.31-25.474 10.665-1.693-.365-3.148-1.336-4.574-2.266-.853-.557-1.169-.657-2.162-.691.187-1.397.73-1.886 1.631-2.902l1.226.066c1.122 1.641 2.224 5.046 3.757 5.997 1.171-.711 1.211-.788 1.756-2.049-1.03-7.638-7.229-13.67-2.575-20.947-1.172-.721-2.358-.432-3.678-.085-7.722 2.025-12.687 11.703-21.899 6.803-4.36-2.32-6.969-6.683-9.832-10.56-2.03-2.59-4.298-4.983-6.515-7.413z"/>
  <path fill="#000102" d="M830.337 439.665c2.3-2.433 8.153-2.451 11.452-3.01l1.918.877c-1.17 1.984-2.205 3.31-4.517 3.929-2.941.788-6.236-.553-8.853-1.796z"/>
  <path fill="#BAE0C8" d="M867.88 411.975c-12.554-.792-22.532-4.918-31.002-14.449-3.46-3.893-7.688-10.15-8.056-15.485 1.503-4.639 5.967-7.175 10.094-9.264 11.161-5.648 26.62-8.526 38.762-4.573 8.413 2.74 14.913 8.65 18.885 16.506 4.323 8.55 6.646 18.301 3.428 27.586-2.354 6.79-8.375 16.471-15.036 19.793l-2.014-.096c-.831-6.349 6.543-16.212.985-21.375-1.761-.743-3.247-1.142-5.107-.415-1.341.524-2.615 1.491-3.656 2.466l-.618-1.032c1.327-1.048 1.976-1.712 2.78-3.197l-.542-.593c-3.283.441-6.121 2.432-8.903 4.128z"/>
  <path fill="#FAFAF9" d="M947.226 639.763c4.281-1.05 8.59-2.035 12.799-3.353l-.363 144.133c-.047 42.782.512 85.64-.081 128.409l-45.82 15.188c-.101-3.604.026-7.41-.572-10.96-.149 2.103-.281 4.186-.297 6.296l-.798 1.396-2.234-.027-3.643-77.658c-.553-10.554-1.984-21.206-2.157-31.754-.033-.982-.079-1.925.037-2.904.954-8.048 1.179-17.075 3.284-24.853l.729.853c.427-1.796.879-3.587 1.213-5.403l11.813-2.905c7.629-27.632 15.595-71.385 16.733-99.823 3.552-1.008 7.777-1.594 9.756-5.04 1.414-9.558-.251-21.742-.399-31.595z"/>
  <path fill="#000102" d="M904.06 811.433c-.033-.982-.079-1.925.037-2.904.954-8.048 1.179-17.075 3.284-24.853l.729.853c-.765 5.432-1.805 11.054-1.818 16.546-.026 10.276 2.298 20.805 3.014 31.102q1.885 29.249 3.192 58.529c.286 7.194 1.339 15.346.691 22.474-.149 2.103-.281 4.186-.297 6.296l-.798 1.396-2.234-.027-3.643-77.658c-.553-10.554-1.984-21.206-2.157-31.754z"/>
  <path fill="#FAFAF9" d="M813.241 659.984c.853.285 1.068.861 1.61 1.555.566 4.604-7.167 20.005-9.284 25.096-5.777 1.346-11.581 3.811-17.165 5.841-12.644 4.596-25.14 9.629-37.847 14.041l-151.839 52.992c-6.216 2.194-45.899 14.858-48.044 16.786-1.899 8.26-.861 18.294-.86 26.819l.039 45.45-.076 172.716-19.363.04c-.701-.1-.962-.4-1.514-.81-1.314-7.39-.285-16.33-.253-23.914l.102-49.177-.171-186.858c16.416-5.068 32.605-11.471 48.894-17.028l127.424-44.239 70.052-25.085c12.686-4.559 26.121-8.501 38.295-14.225z"/>
  <path fill="#BAE0C8" d="M824.595 650.36c7.077-2.414 14.307-4.133 21.488-6.181-.386 6.957-3.55 34.22.108 39.015 10.68 6.981 65.744-.844 79.957-3.832q3.904-.812 7.753-1.857c-2.675 32.211-8.701 63.796-15.951 95.268-23.106 6.464-50.408 7.201-74.191 5.234-13.572-1.348-26.664-4.434-39.91-7.551-7.36-2.715-14.939-4.978-21.792-8.869 8.718-27.234 19.271-53.708 29.865-80.25 3.59-8.993 9.546-18.386 11.791-27.676.267-1.105.592-2.201.882-3.301z"/>
  <path fill="#FAFAF9" d="M294.582 924.718l.977.171c1.864 3.397.498 87.901.447 97.141l-290.174.25c-1.22-.04-.623.1-1.777-.48 7.104-4.43 31.294-10.73 40.661-13.69 16.896-5.32 33.75-11.004 50.589-16.527l199.277-66.865zm366.867-422.645l.991.311c1.399 7.797.229 24.912.213 33.575q.175 35.471-.105 70.942c-24.022 6.28-47.879 14.709-71.552 22.227-3.536-11.376-5.704-23.455-8.455-35.063-.75-3.163-1.731-10.371-4.397-12.014-4.724-.207-15.227 2.209-19.101 5.034-1.119 1.956-1.299 3.639-1.192 5.867.275 5.724 2.194 11.393 3.295 17 1.81 9.22 3.277 18.531 4.851 27.795-6.208 2.694-12.881 4.447-19.316 6.545l-31.979 10.607q-21.256 6.683-42.299 14.007-.687-53.87.19-107.736c22.17-8.924 49.179-15.711 72.323-22.95 38.746-12.119 77.48-25.105 116.533-36.147z"/>
  <path fill="#1CBB83" d="M70.415 811.458c1.217-.219.662-.337 1.622.252 29.419 18.069 120.471 15.134 153.401 6.91 9.589-2.395 18.632-5.652 27.289-10.463q-1.973 24.118-4.62 48.172c-.793 7.914-2.303 16.524-2.109 24.434.169.134.329.279.505.402.824.577 1.526.71 2.487.921l.593 3.141-5.042 43.912c-1.468-.17-2.858-.481-4.294-.826l-1.339 10.267c-15.659 6.094-32.033 10.736-47.959 16.122q-49.988 17.439-100.483 33.35c-3.557-20.514-4.997-44.351-7.604-65.454-4.54-36.746-10.349-74.186-12.447-111.14z"/>
  <path fill="#000102" d="M245.998 880.763c.169.134.329.279.505.402.824.577 1.526.71 2.487.921l.593 3.141-5.042 43.912c-1.468-.17-2.858-.481-4.294-.826l5.751-47.55z"/>
  <path fill="#FAFAF9" d="M953.982 442.148c1.015-.075 2.21-.45 3.037.203.973.768 1.532 1.72 2.186 2.749 11.575 5.626 72.555 22.534 77.105 26.704.99 1.924.99 3.682 1.03 5.797 1.39 68.194.03 136.62.07 204.835.01 11.552 1.25 83.291-.29 87.728a8.789 8.789 0 01-.78 1.711c-6.5-4.425-18.52-7.699-26.07-10.523q-23.106-8.532-46.083-17.407c-1.174-36.796.802-73.669.018-110.465-5.46-2.977-11.068-5.066-17.073-6.656-.111-5 .065-10.201-.599-15.155l.046-5.316c-.419-28.52-3.007-57.156-4.09-85.683l-.046-44.043c1.748-1.31 4.543-3.184 4.919-5.5.184-1.133 0-.986-.64-1.807-1.455.194-2.609.37-4.06-.019-1.546-6.998-.344-18.004-.311-25.321 3.423.042 8.918.608 11.631-1.832zm82.208-357.187c.76.2.8.016 1.1.636.95 1.936 1.03 107.475-.63 111.547-.7 5.015-29.32 32.146-30.79 41.088l.68.517c1.29-.285 2.36-.686 3.49-1.406 1.19-.762 2.3-1.625 3.23-2.69 2.75-3.13 4.91-7.216 7.54-10.553 4.13-5.256 11.35-12.345 14.6-17.72.47-.77.58-1.396.75-2.265q.56.989.98 2.049c1.48 3.815.77 19.645-.74 23.41-1.19 4.131-7.21 9.964-10.09 13.561-8.13 10.142-47.133 55.757-48.569 62.893l1.528.624c1.284-.392 2.387-.866 3.303-1.877 5.153-5.69 9.571-12.376 14.494-18.337q13.404-16.212 26.604-32.59c4.28-5.29 9.68-10.949 13-16.834 2.04 8.356.87 32.919.91 43.039.1 27.139 1.25 54.827-.11 81.905-.08 1.501-.37 2.4-1.1 3.709.29.592.65 1.188.83 1.828 1.13 3.884.55 85.221.01 94.813-.09 1.595-.44 2.831-1.25 4.224-6.87-3.544-15.78-5.49-23.19-7.961l-52.038-17.536c-7.746-10.713-12.942-20.6-15.562-33.711-5.118-25.612-2.37-54.217-2.258-80.329l.359-124.701c11.325-15.155 23.772-29.544 35.803-44.142 9.198-11.16 18.018-22.61 27.146-33.82 6.33-7.767 27.01-31.764 29.97-39.37zM764.654 543.297c10.659 2.891 21.362 6.915 31.661 10.889-1.795 5.138-3.479 13.117-7.923 16.465l-2.666.822c-5.676 4.595-12.76 8.153-19.006 11.953-8.434 5.132-16.644 10.537-24.96 15.849-3.854 2.461-9.171 4.85-12.074 8.38l.676.417-.246.563c-4.499-.858-6.378-6.886-10.076-8.595.216 3.15 3.895 4.336 4.812 7.729l.246 3.413c.641.94.919.884.681 2.083-.676 3.405-6.575 9.627-8.327 13.625l-2.978 5.001c-1.06-.181-2.137-.541-3.181-.815l-2.408 4.902c-10.096 3.409-53.362 14.71-58.271 21.113-.395 1.658-.605 2.426.432 3.897 3.93 5.58 47.854 20.267 56.557 23.117 7.78-4.376 64.652-24.102 71.534-24.049.485.258.931.416 1.473.514 6.277 1.134 19.228-.22 24.596-4.035.171-.122.336-.254.507-.377 1.596-1.148 2.828-1.507 4.712-1.208l.776 1.28c-4.915 3.919-20.767 7.323-27.498 9.845q-91.583 33.568-183.95 64.918c-25.314 8.786-50.669 17.249-75.778 26.626-42.313-13.292-83.992-29.338-125.986-43.663q-29.257-9.97-58.393-20.29c-11.936-4.114-24.597-7.562-35.965-13.031 20.978-4.951 40.904-14.719 61.889-19.904 16.256 5.396 31.942 12.504 47.948 18.602 13.963-7.062 30.871-11.813 45.878-16.323.078 3.037.33 6.064.554 9.093l6.655 4.339c12.88-7.037 29.091-11.056 43.079-15.511l56.888-18.216c.821 5.12 2.004 10.196 3.077 15.269-9.746 4.578-44.28 13.512-49.717 18.462-1.225 2.663-1.635 5.683-.686 8.519.257.772.835 1.653 1.508 2.13 4.219 2.987 30.084 10.078 38.746 14.886l.732.412c24.916-8.387 50.166-16.023 74.882-24.971-.184-4.416-1.053-8.359-2.193-12.62-10.071-3.6-20.248-8.59-30.471-11.51-1.686-.482-3.399.028-5.212-.466-3.096-2.908-4.45-14.481-5.451-18.997 24.521-8.855 50.292-14.642 74.627-23.947 2.004-10.478.803-22.831.763-33.518 11.329-2.943 22.725-7.501 33.818-11.317q31.744-11.199 63.709-21.75z"/>
  <path fill="#000102" d="M473.091 682.872c7.902-.486 16.441-1.377 24.301-.27l-.883 2.035c-.998.345-1.98.68-3.002.951-5.64-.134-11.122.179-16.737.627-.95-.235-1.835-.565-2.749-.912l-.93-2.431zm252.007-71.69c.641.94.919.884.681 2.083-.676 3.405-6.575 9.627-8.327 13.625l-2.978 5.001c-1.06-.181-2.137-.541-3.181-.815 3.53-7.614 7.719-14.079 13.805-19.894z"/>
  <path fill="#101521" d="M727.989 578.796c6.906-2.925 14.041-5.321 21.109-7.82l.634 1.998 2.243.097c-6.411 3.552-13.811 5.668-20.721 8.104-1.012-1.197-1.857-1.711-3.265-2.379z"/>
  <path fill="#000102" d="M727.989 578.796c1.408.668 2.253 1.182 3.265 2.379-4.21 1.806-10.837 3.99-12.747 8.598-.835 2.016-.417 4.008.528 5.904 2.259 4.529 7.083 8.436 10.651 11.978l.676.417-.246.563c-4.499-.858-6.378-6.886-10.076-8.595.216 3.15 3.895 4.336 4.812 7.729-3.36-2.805-7.924-7.259-9.686-11.343-1.068-2.475-1.292-5.101-.233-7.624 2.194-5.227 8.261-7.806 13.056-10.006z"/>
  <defs>
    <linearGradient id="YFSXe6zwfEoib" gradientUnits="userSpaceOnUse" x1="781.831" y1="558.258" x2="756.354" y2="580.809">
      <stop offset="0" stop-color="#000"/>
      <stop offset="1" stop-color="#020A20"/>
    </linearGradient>
  </defs>
  <path fill="url(#YFSXe6zwfEoib)" d="M749.098 570.976c7.503-3.757 27.797-13.08 35.721-10.94 3.31 2.791 3.126 6.583 3.573 10.615l-2.666.822c-.757-2.338-1.119-6.397-2.904-7.905-7.142-1.127-23.469 6.703-30.847 9.503l-2.243-.097-.634-1.998z"/>
  <path fill="#000102" d="M468.512 692.871c3.104 2.343 2.364 3.956 3.26 7.521.101 7.572-.76 17.865 5.108 23.675 2.989 2.959 8.004 4.508 12.183 4.326 4.379-.191 7.506-2.052 10.551-4.993 1.036.797 2.012 1.674 3.261 2.107-.504.641-1.013 1.278-1.573 1.872-3.13 3.322-8.357 5.099-12.861 5.052q-.508-.002-1.014-.03-.507-.027-1.012-.08-.505-.052-1.006-.13-.502-.077-.999-.179-.497-.103-.989-.229-.491-.127-.976-.278-.485-.151-.961-.325-.477-.175-.944-.373-.468-.198-.925-.419-.457-.221-.902-.464-.445-.244-.878-.509t-.852-.551q-.42-.286-.824-.593-.405-.306-.794-.633-.389-.326-.761-.671-.372-.345-.727-.708c-7.908-8.179-5.54-22.883-5.365-33.388z"/>
  <path fill="#101521" d="M497.392 682.602c3.183.148 7.434.252 10.095 2.135 1.481 3.183-1.037 5.565.456 8.705 4.559 1.177 10.184 2.223 12.674 6.748 1.435 2.607 1.041 5.636.092 8.335-1.087 3.096-2.71 7.061-5.896 8.433-2.481 1.067-5.446 1.012-8.108 1.101-1.083 2.539-1.997 5.355-3.83 7.448-1.249-.433-2.225-1.31-3.261-2.107.027-.051.053-.103.081-.153 5.139-9.269 3.589-21.212 3.503-31.525-10.722 2.205-20.664 1.815-31.371-.391l-.055 9.061c-.896-3.565-.156-5.178-3.26-7.521-.192-2.591-.487-4.932.249-7.469 1.237-1.701 2.354-1.961 4.33-2.53l.93 2.431c.914.347 1.799.677 2.749.912 5.615-.448 11.097-.761 16.737-.627 1.022-.271 2.004-.606 3.002-.951l.883-2.035z"/>
  <path fill="#FAFAF9" d="M493.507 685.588c3.748.344 6.971 1.25 10.529 2.456-8.835 1.65-21.639 3.106-30.065-.644.804-.949 1.624-.901 2.799-1.185 5.615-.448 11.097-.761 16.737-.627zm14.531 12.472c1.764.015 3.54.064 5.078 1.042 1.642 1.044 2.773 2.6 3.146 4.521.647 3.338-.593 6.076-2.326 8.834-2.055.704-3.217 1.341-5.436.942-.556-.74-1.06-1.454-1.367-2.338-.988-2.848-.442-10.331.905-13.001z"/>
  <path fill="#CECECE" d="M471.827 691.331c10.707 2.206 20.649 2.596 31.371.391.086 10.313 1.636 22.256-3.503 31.525-.028.05-.054.102-.081.153-3.045 2.941-6.172 4.802-10.551 4.993-4.179.182-9.194-1.367-12.183-4.326-5.868-5.81-5.007-16.103-5.108-23.675l.055-9.061z"/>
  <path fill="#FAFAF9" d="M751.975 573.071c7.378-2.8 23.705-10.63 30.847-9.503 1.785 1.508 2.147 5.567 2.904 7.905-5.676 4.595-12.76 8.153-19.006 11.953-8.434 5.132-16.644 10.537-24.96 15.849-3.854 2.461-9.171 4.85-12.074 8.38-3.568-3.542-8.392-7.449-10.651-11.978-.945-1.896-1.363-3.888-.528-5.904 1.91-4.608 8.537-6.792 12.747-8.598 6.91-2.436 14.31-4.552 20.721-8.104z"/>
  <path fill="#000102" d="M761.113 577.2l1.712.746.403 1.249c-5.013 7.046-23.508 11.851-31.216 15.875l-.732.387c-.622-.405-1.152-1.027-1.685-1.545l.117-1.621c3.754-4.294 10.986-4.139 16.097-6.087 5.176-1.973 10.293-6.385 15.304-9.004z"/>
  <path fill="#000102" d="M756.212 573.127l2.004.66.287 1.175c-8.358 9.381-25.324 7.455-34.853 19.371-.938.166-1.408-.065-2.3-.34l-.36-.875c3.643-8.855 15.658-10.853 23.332-13.957 4.12-1.666 7.977-3.938 11.89-6.034z"/>
  <path fill="#FAFAF9" d="M554.458 779.845c9.83-4.24 20.313-7.273 30.441-10.733l47.758-16.575q85.485-29.033 170.062-60.615c-6.093 15.85-30.546 77.836-30.365 92.162.078 6.088 1.209 12.118 2.738 17.993 3.784 14.541 35.951 113.94 39.574 117.43 1.05-.566 1.885-.521 3.04-.51l.478.009.392-1.635c10.574.226 18.544-1.272 28.436-4.92l-1.25-6.488 3.759-.603c2.322 7.985 5.875 17.32 5.667 25.617-.023 1.506.248 3.682-.484 4.959-.141-2.589.225-4.846-1.343-6.964l-.783.511c-.115 2.68-.003 5.611-.613 8.223-.112 1.932.101 3.541-1.031 5.163-7.944 3.558-16.42 6.158-24.621 9.072-6.593 2.343-13.176 5.065-19.854 7.126l-130.052 44.863-30.934 10.55c-6.746 2.3-13.955 5.32-21.004 6.38-8.359 1.27-17.244.63-25.697.62l-44.634-.11-.074-160.615c-.027-26.884-.718-54.049.394-80.91z"/>
  <defs>
    <linearGradient id="YFSXe6zwfEoic" gradientUnits="userSpaceOnUse" x1="801.799" y1="967.92" x2="836.536" y2="900.221">
      <stop offset="0" stop-color="#000"/>
      <stop offset="1" stop-color="#020A1B"/>
    </linearGradient>
  </defs>
  <path fill="url(#YFSXe6zwfEoic)" d="M849.521 905.36c2.322 7.985 5.875 17.32 5.667 25.617-.023 1.506.248 3.682-.484 4.959-.141-2.589.225-4.846-1.343-6.964l-.783.511c-.115 2.68-.003 5.611-.613 8.223-.112 1.932.101 3.541-1.031 5.163-7.944 3.558-16.42 6.158-24.621 9.072-6.593 2.343-13.176 5.065-19.854 7.126l-1.4-1.993c-.485.179-.97.362-1.463.518-5.433 1.713-16.799 4.568-21.997 1.619-1.567-.889-2.244-1.765-2.777-3.454.864-7.916 32.014-20.221 37.911-29.401 1.45-2.257-.417-2.022-1.419-3.725-.366-.622-.487-2.349-.648-3.124 1.05-.566 1.885-.521 3.04-.51l.478.009.392-1.635c10.574.226 18.544-1.272 28.436-4.92l-1.25-6.488 3.759-.603z"/>
  <path fill="#BAE0C8" d="M805.059 957.074q.52-.15 1.038-.308c19.553-5.995 34.089-16.496 43.729-34.765.981 5.191 1.513 10.462 2.139 15.705-.112 1.932.101 3.541-1.031 5.163-7.944 3.558-16.42 6.158-24.621 9.072-6.593 2.343-13.176 5.065-19.854 7.126l-1.4-1.993z"/>
  <path fill="#BAE0C8" d="M847.901 916.732l.931 1.01c-2.03 4.919-7.697 10.853-11.398 14.807-13.123 14.018-33.201 23.572-52.534 24.114-1.032-.877-1.177-1.005-1.586-2.286 2.473-4.121 30.159-13.432 41.456-32.383 8.048-.667 15.712-1.962 23.131-5.262z"/>
  <path fill="#FAFAF9" d="M301.155 684.766c41.559 16.179 84.381 29.9 126.568 44.41l57.793 19.859c12.87 4.42 25.686 9.12 38.781 12.836l.081 259.539-223.703.08.48-336.724z"/>
  <path fill="#1CBB83" d="M963.982 779.449c41.038 17.723 82.618 33.835 124.148 50.35l178.58 70.76c9.99 3.934 94 35.795 97.39 38.706.38.872.72 1.794.8 2.747.62 7.203.94 77.148-.37 80.698-.19.53-.39.79-.7 1.29H631.016c8.514-3.77 18.159-6.18 27.011-9.14l51.786-17.605c42.653-14.356 84.872-29.785 127.381-44.521 5.598-1.94 29.351-10.557 34.072-10.413l.571 1.064c-2.371 11.05-35.445 21.133-40.786 30.877-.894 1.631-.726 2.49-.311 4.232.659.742 1.233 1.31 2.106 1.802 13.798 7.767 32.339 3.84 45.817-2.633 4.719-2.266 9.461-5.84 14.52-7.15l.618.611c-.269.983-.609 2.046-.696 3.063-.139 1.623.296 2.979 1.515 4.079 3.144 2.837 11.696 1.773 15.763 1.664 1.488-9.345 5.013-18.291 6.386-27.566.747-5.052.546-8.715-2.582-12.991.073-3.138-.271-6.019-1.003-9.061 3.507-3.82 42.918-15.107 50.788-18.239-.16-44.19.551-88.445.01-132.624z"/>
  <path fill="#FAFAF9" d="M909.044 0h454.786c1.73 3.046 1.18 7.148 1.18 10.576L1365 711.19l.03 151.597c0 7.562 1.06 43.866-.3 48.887a14.64 14.64 0 01-.59 1.711c1.48 3.454 1.73 15.855.32 19.185-.11.245-.23.484-.34.726-3.32-2.295-11.95-4.359-16.12-5.989l-70.54-27.416c-104.45-41.419-209.42-81.907-313.311-124.707l-.005-19.854c8.195 3.898 73.126 30.661 76.596 30.434.23-.367.39-.587.55-.974 1.88-4.728.56-139.399.57-157.829l.13-549.099c-.01-2.994.24-5.986-.99-8.79-10.56-3.693-22.19-5.882-33.04-8.849l-80.676-21.997q-1.295 165.545-.274 331.091c-5.25-4.744-11.707-7.244-18.135-9.959L909.044 0z"/>
  <defs>
    <linearGradient id="YFSXe6zwfEoid" gradientUnits="userSpaceOnUse" x1="1048.271" y1="458.08" x2="1211.823" y2="463.849">
      <stop offset="0" stop-color="#01020A"/>
      <stop offset="1" stop-color="#1F2332"/>
    </linearGradient>
  </defs>
  <path fill="url(#YFSXe6zwfEoid)" d="M1060.23 74.98c1.64-.367 3.05-.264 4.66.104 9.91 2.254 19.73 5.374 29.53 8.046q33.32 8.997 66.52 18.425c8.52 2.388 31.85 7.6 38.43 10.935 1.14 7.578.46 16.108.48 23.79l.01 43.397-.03 136.867.1 522.104c0 2.196.38 6.723-.87 8.424l-2.58.356c-2.72-2.223-127.11-51.22-136.97-53.827.15-.278.32-.548.46-.833 1.66-3.387.48-161.172.47-176.64l.17-392.368c.03-16.549 1.44-144.034-.38-148.78z"/>
  <path fill="#CECECE" d="M1064.45 79.657c2.5.097 4.78.795 7.03 1.849.13.307.26.612.38.922 1.48 3.988.47 107.598.47 123.874l-.09 460.872c.01 14.536 1.21 118.673-1.29 124.508l-.91.653-5.6-1.7c1.63-6.868.62-16.021.6-23.132l-.11-41.472-.12-184.903.05-324.205-.05-95.291c-.02-13.158 1.4-29.238-.36-41.975z"/>
  <path fill="#1CBB83" d="M1194.08 737.666l.99 1.071c.49 12.159 1.28 97.002-.66 102.676-9.61-5.39-22.62-9.184-33.02-13.238-17.09-6.669-34.46-14.466-51.97-19.872-4.44-3.484-27.51-11.678-33.97-13.939.11-.249.23-.495.34-.748 1.5-3.635 1.16-14.85-.26-18.58 8.33-1.206 23.64-7.022 32.55-9.738q25.91-7.87 51.66-16.26c11.46-3.651 23.13-7.018 34.34-11.372z"/>
  <path fill="#FAFAF9" d="M1193.42 310.997c.61.14 1.14.042 1.43.661.75 1.61 1.14 204.624-.62 209.768-3.41-2.098-11.04-3.814-15.19-5.298q-22.84-8.173-45.82-15.943c-8.59-2.954-17.24-6.401-26.04-8.666-5.67-3.472-24.38-9.173-31.44-10.892 1.82-3.025 1.32-17.692.42-21.32 7.57-6.808 13.55-16.49 19.95-24.442q28.46-35.36 56.26-71.243l27.84-35.178c4.31-5.452 9.99-11.336 13.21-17.447zm-117.56 175.326q.89-.101 1.78-.035.89.065 1.75.295c6.08 1.658 12.17 4.212 18.14 6.257q20.33 6.898 40.57 14.051c18.62 6.558 37.82 12.19 56.13 19.557.38 1.061.73 2.092.83 3.225.69 8.454.08 17.478.09 25.996l.05 54.659.04 77.474c0 13.498.45 27.163-.11 40.646-.06 1.621-.3 2.907-.95 4.403-5.25 3.028-21.75 7.337-28.18 8.806-4.25 2.853-81.09 26.539-90.79 28.868.16-.285.33-.563.48-.853.63-1.225.68-2.392.73-3.742.71-21.404.11-43.075.13-64.507l-.03-130.421-.02-56.646c0-7.385 1.22-21.355-.64-28.033zm-.05-402.668c4.22-.767 106.82 28.259 118.43 32.022.24.57.33.729.5 1.279 1.03 3.496 1.15 59.521-.16 62.062-.09 1.674-.72 2.66-1.64 4.007-6.52 9.54-14.55 18.593-21.67 27.744-22.28 28.623-45.7 56.544-67.44 85.552-1.59 2.117-2.35 3.87-1.96 6.513l2.81-.124c3.42-2.456 19.57-24.843 23.57-29.961 21.53-27.487 43.77-54.52 64.67-82.485.63-.841.8-1.528 1.01-2.535l.38.931c1.93 4.679 1.7 24.894.02 29.404-.98 3.648-25.58 32.687-30.03 38.133q-27.27 33.77-53.58 68.292c-4.38 5.848-9.76 11.397-13.74 17.452-.71 1.09-.92 1.732-.85 3.024l.95.776c.88.021 1.7.053 2.53-.307 1.78-.77 3.75-3.239 4.26-5.091.07-.227.11-.458.16-.687 4.35-3.254 20.21-25.283 25.05-31.409 21.16-26.784 43.2-53.158 63.74-80.393.59-.782.83-1.476 1.09-2.402.16.267.32.526.46.8 1.49 2.93 1.64 71.135-.05 76.571-2.44 5.667-10.01 13.232-14.02 18.237l-26.58 33.371-53.84 68.332c-7.01 8.847-13.69 18.185-21 26.77-1.06 1.249-2.17 2.139-3.58 2.982.23-.346.34-.481.53-.888.88-1.809.78-3.903.79-5.868l.04-269.784-.05-61.66c-.01-7.404 1.2-24.33-.8-30.66z"/>
  <path fill="#101521" d="M927.035 0h436.795c1.73 3.046 1.18 7.148 1.18 10.576L1365 711.19l.03 151.597c0 7.562 1.06 43.866-.3 48.887a14.64 14.64 0 01-.59 1.711c-6.27-3.103-13.39-5.437-19.93-7.975l-39.1-15.187-56.16-22.199c-10.46-4.118-20.93-8.646-31.58-12.18.08-.161.17-.316.25-.482 1.97-4.478.74-177.527.74-196.602l-.02-406.818-.01-88.65c0-9.093 1.26-39.999-.91-46.163 17.11 3.861 34.99 10.484 51.94 15.43q32.91 9.346 65.68 19.169c6.57 1.906 19.47 4.127 24.92 7.419.34-.594.61-1.168.85-1.818 1.28-3.569.98-15.188-.64-18.658-1.21-.922-130.87-38.15-142.75-40.92.29-.635.46-.933.64-1.573 1.18-4.298.78-80.585.11-89.2-.1-1.182-.46-1.923-1.02-2.94l-18.63.008c.41.693.77 1.482.93 2.274 1.39 6.8.31 20.743.33 28.136.05 17.017 1.2 36.57-.02 53.154-.09 1.315-.48 2.37-1.14 3.513-17.23-3.886-34.36-9.317-51.4-14.009-24.75-6.818-49.61-13.23-74.3-20.283-4.25-1.339-8.48-2.602-12.81-3.687 2.25-4.74.77-19.145.51-24.936.14-6.058 1.8-18.872-1.08-24.158l-18.29-.011c.39.655.73 1.21.89 1.973 1.01 4.967 1.12 39.592-.87 43.114-4.61-2.792-106.302-30.178-114.154-30.797L927.035 0z"/>
  <path fill="#CECECE" d="M931.876 0h7.339l-.024 16.807-7.392-1.88L931.876 0z"/>
  <path fill="#080F1B" d="M1060.62 28.21c2.22-7.794-1.09-17.1 1.28-24.817l1.16-.3 1.12.98c1.46 4.328 1.55 42.856-.14 46.81 2.44.468 4.85.972 7.32 1.233l.32-.301.55 1.29c-2.82.74-6.47-1.085-9.37-1.598.05-.138.11-.275.17-.416 1.65-4.573 1.41-36.077.07-40.574-.98 1.466-1.31 3.208-1.44 4.95-.24 3.206-.42 30.685-.11 32.314.47 2.484 1.57 4.37 3.81 5.642 2.22 1.263 7.39 1.124 8.69 2.815l-1.13.594c-4.25-1.339-8.48-2.602-12.81-3.687 2.25-4.74.77-19.145.51-24.936z"/>
  <path fill="#CECECE" d="M1064.18 4.073c2.63-.04 5.28-.304 7.77.64 1.18 5.997 1.13 42.44-.27 47.102l-.32.3c-2.47-.26-4.88-.764-7.32-1.233 1.69-3.953 1.6-42.481.14-46.81zm157.15.259c2.58-.324 5.04-.835 7.29.645q.15 1.084.26 2.173c1.3 13.348.05 28.525 0 42.02-.06 14.582 1.02 29.823-.18 44.318-.11 1.27-.35 1.854-1.15 2.846l-5.95-.861c1.05-5.835 1.04-85.798-.27-91.141z"/>
  <path fill="#FAFAF9" d="M944.347 4.03l92.243.061c.33.547.46.689.67 1.251 1.45 3.851.97 33.464-.37 36.63-2.33.731-82.131-21.94-92.564-24.48l.021-13.462z"/>
  <path fill="#CECECE" d="M1221.12 123.664c2.49-.253 4.73.555 6.98 1.505 2.13 5.539.82 56.021.82 65.496l.08 129.887.11 362.539-.01 112.737c.02 17.791 1.28 40.801-.25 58.019l-2.35.736c-.51-.444-1.35-.69-1.95-1.067-1.49-.948-1.68-1.59-1.97-3.311-1.18-7.046-.28-15.69-.27-22.886l.03-49.571-.4-498.985q.51-57.025-.05-114.049c-.03-8.983 1.14-34.317-.77-41.05z"/>
  <path fill="#FAFAF9" d="M1076.32 4.328c13-1.37 27.16-.282 40.27-.264l77.55.087c.28.55.44.801.64 1.438 1.32 4.234 1.11 67.354.68 75.868-.06 1.324-.35 2.366-.92 3.547-3.34 1.001-106.59-30.092-118.56-32.072 1.97-3.85 1.6-43.189.34-48.604zm156.29 123.336c1.84-.291 3.3-.282 5.12.156 14.95 3.582 29.83 8.99 44.62 13.27q20.03 5.71 39.99 11.65c5.59 1.686 12.14 3.063 17.33 5.691-.01.238-.01.478-.03.715-.18 1.897-53.86 67.108-58.2 70.523-.08.318-.13.648-.24.954-.64 1.659-41.07 49.633-45.93 54.964-1.06 1.165-2.17 2.041-3.53 2.846.08-.148.17-.292.25-.444.75-1.519 1-2.896 1.06-4.569.58-15.465.85-151.874-.44-155.756zm.2-123.332c9.3-1.602 33.73-.223 44.58-.187 27.19.09 54.81-1.082 81.94.309.45.768.88 1.637 1.07 2.507 1.54 6.9.51 35.213.52 44.487l.03 52.106c0 8.587.45 17.466-.11 26.031-.08 1.228-.43 1.866-1.08 2.877-8.45-.408-23.19-5.933-31.95-8.354l-95.49-27.012c.08-.144.16-.283.23-.434 1.32-3.124 1.68-87.802.26-92.33zm.03 536.665c1.9-.237 3.31.094 5.1.65 10.91 3.378 21.69 7.726 32.45 11.578l48.66 17.018c9.02 3.17 34.15 10.612 40.38 14.542.08.153.17.3.23.46 1.35 3.293 1.14 89.607-.17 92.968-6.67 3.814-23.32 8.807-31.15 10.779-2.66 1.779-89.73 30.782-96.01 32.307.17-.274.35-.54.49-.823.67-1.263.69-2.654.74-4.042.96-28.467.04-57.236.07-85.735.01-12.271 1.37-83.262-.79-89.702z"/>
  <path fill="#1CBB83" d="M1358.26 684.333l1.41.275c.1.168.23.324.31.503.72 1.564.52 4.05.54 5.766.42 41.419-.21 82.926-.25 124.355-.01 12.75 1.29 85.498-.84 91.047-1.55-1.251-85.62-33.67-90.94-35.176-2.6-2.409-31.28-12.894-36.29-14.301.21-.378.44-.748.58-1.161 1.12-3.394 1.04-113.965.61-125.358-.05-1.444-.34-2.438-.96-3.744 5.89-1.117 12.12-4.012 17.86-5.95q21.1-7.048 42.06-14.484c21.83-7.596 44.24-13.811 65.91-21.772z"/>
  <path fill="#FAFAF9" d="M1344.13 160.332c4.92-.743 11.57 2.239 16 4.264.5 1.174.72 2.459.79 3.731.79 14.897-.28 30.381-.35 45.334-.07 16.383.77 32.99.19 49.337-.05 1.202-.33 2.099-.74 3.211-.21 5.947-78.2 100.314-88.22 117.431l.91 1.859-1.32.184.14-1.414 1.24 1.24c.8-.324.61-.199 1.32-.671q1.55-1.005 2.94-2.233 1.38-1.229 2.56-2.653c7.73-9.142 14.46-19.521 21.9-28.964l35.34-45.436c7.2-9.193 14.78-18.206 21.76-27.556.67-.908.88-1.518 1.11-2.604.2.395.4.785.58 1.187 1.51 3.361 1.01 21.781-.22 25.221-.7 5.252-80.31 106.832-88.16 116.997-4.86 6.301-18.39 21.58-21.2 27.568-.89 1.878-1.43 3.381-.78 5.338l1.45-.39c3.35-2.866 75.26-94.563 76.59-98.891.08-.245.14-.494.21-.741 3.21-2.256 30.68-37.986 31.68-41.478 1.82 3.042.48 54.725.46 62.179l.04 150.609.04 35.522c.02 6.595.85 14.44-.53 20.872-1.92-1.249-33.57-11.414-39.57-13.539l-57.26-20.059c-9.88-3.537-20.25-8.603-30.46-10.762.67-1.506.85-3.049.89-4.68 1.15-45.256-.38-90.811-.28-136.097l.16-64.107c.01-8.689 1.23-27.87-.93-35.424 1.47-.829 2.62-1.866 3.76-3.113 8.5-9.306 16.06-19.568 24.16-29.228 10.73-12.794 81.78-95.562 83.8-102.044zM0 0h904.442l.036 288.675c.004 8.023 1.099 67.09.016 69.982-7.67.136-13.794 2.872-19.491 8.014-15.134-5.63-30.79-5.632-45.657 1.249-8.094 3.747-15.231 9.348-18.375 17.952-4.225 11.564.58 20.647 1.045 31.971.223 5.447-1.044 10.499-2.235 15.769 6.47 6.811 13.4 21.627 23.683 21.639 5.425.007 11.341-2.485 16.204-4.702l1.225.367c.354 4.024-6.103 12.12-8.637 15.153-4.746 5.68-12.224 9.824-17.537 15.29-15.687 16.142-28.953 43.679-35.251 65.112-.406.689-1.129 2.487-1.915 2.597-3.794.53-27.698-8.867-32.86-10.647q-28.735 9.729-57.371 19.747c-13.259 4.666-26.68 9.954-40.261 13.594l.111-75.704c-1.981-1.686-3.938-3.416-5.972-5.037q-43.19 12.865-86.19 26.351c-25.389 7.761-50.954 15.082-76.179 23.363l-3.302-22.846c-3.186-1.953-6.291-3.573-9.747-4.995-19.99 5.253-39.774 11.392-59.603 17.228-15.684 4.617-31.82 8.847-47.19 14.387-2.207 9.273-3.638 18.688-5.425 28.046-2.831 14.831-5.822 29.604-8.43 44.481-2.339 13.338-5.726 27.302-6.739 40.775-6.323 2.132-59.905 19.285-61.28 21.745-1.713 3.063-.411 212.815-.941 239.741-17.452 5.858-34.884 12.207-52.56 17.335l.927-7.493 5.042-43.912c1.757-14.793 3.023-29.667 4.515-44.49 1.334-13.261 2.989-26.648 3.362-39.976q-.878-1.344-1.965-2.526c-11.768-12.871-53.629-16.236-70.521-17.125 3.084-8.752 6.209-17.424 9.828-25.974 6.655 2.63 12.947 4.167 20.156 3.521 11.221-1.007 19.961-7.109 27.037-15.578 19.109-22.869 25.278-53.233 22.483-82.334-.682-7.093-1.724-21.496-7.707-25.935-1.555-1.153-3.262-1.362-5.144-1.106-15.883 2.16-43.938 30.447-53.839 42.76-11.63 14.462-23.366 35.587-21.153 54.595 1.175 10.093 6.248 16.073 13.945 22.168-3.142 9.011-6.801 17.824-9.875 26.877l-9.121-.138c-1.487-6.724-2.273-13.712-3.299-20.526-.849 2.985-1.519 3.054-3.376 5.352l2.326 15.277-11.978-.028c-1.305-3.623-2.397-7.865-4.277-11.205-.571.319-1.13.592-1.722.871a10.55 10.55 0 00-1.844 1.116c1.087 3.047 2.223 6.087 3.235 9.16-18.885 1.196-69.615 4.384-82.996 18.965-2.253 2.455-2.73 4.856-2.48 8.106.234 3.038.914 6.158 1.44 9.162-.12 6.55 1.06 13.38 1.779 19.897l3.508 31.948 14.273 121.238C57.736 999.022 29.016 1009.28 0 1017.05V0z"/>
  <path fill="#000102" d="M61.46 715.278c1.005-.79 2.273-1.374 3.39-2.006a217.047 217.047 0 0012.523 17.892c-.736 1.081-1.291 2.024-2.336 2.838-5.133-5.825-9.459-12.159-13.577-18.724zm75.953 33.51c.847-1.039 1.854-1.632 2.952-2.379 4.157 7.207 7.817 14.578 10.615 22.427-.571.319-1.13.592-1.722.871a10.55 10.55 0 00-1.844 1.116c-2.771-7.599-6.434-14.789-10.001-22.035zm21.406-20.948c1.21-2.169 1.478-1.981 3.897-2.712q3.186 17.091 5.569 34.312c-.849 2.985-1.519 3.054-3.376 5.352q-2.418-18.579-6.09-36.952z"/>
  <path fill="#080F1B" d="M84.567 548.739c-.077-.34-.145-.683-.194-1.028-1.453-10.277-.739-45.121 5.095-53.181-.616 3.864-1.419 7.509-1.404 11.444l-1.279.21 2.126.786-.162.755.085.005c.246-.92.265-1.613.207-2.563l1.375-.471q-2.375 17.963-2.482 36.082c-1.709 1.165-2.85 1.554-3.232 3.75-.23 1.322-.128 2.868-.135 4.211z"/>
  <defs>
    <linearGradient id="YFSXe6zwfEoie" gradientUnits="userSpaceOnUse" x1="591.856" y1="364.351" x2="585.436" y2="380.226">
      <stop offset="0" stop-color="#000"/>
      <stop offset="1" stop-color="#030D1C"/>
    </linearGradient>
  </defs>
  <path fill="url(#YFSXe6zwfEoie)" d="M518.38 339.615c.9-1.034 1.888-1.869 2.937-2.741 38.886 34.651 80.557 50.099 132.108 54.621l.682.217c2.036.627 3.51.829 5.662.858.866.011 1.36.192 2.098.63-.18.79-.416 1.428-.72 2.174-52.053 1.418-105.162-20.241-142.767-55.759z"/>
  <path fill="#101521" d="M61.46 715.278c-10.588-17.637-26.284-55.752-21.776-76.094.58-2.612 1.614-4.608 3.998-5.968 6.653-3.795 17.236-.205 23.988 1.916 26.05 8.181 53.912 27.143 66.814 51.632 6.252 11.867 9.879 26.735 5.787 39.879-1.137 3.655-2.845 7.281-5.082 10.394 1.724 2.986 3.949 6.17 5.176 9.372-1.098.747-2.105 1.34-2.952 2.379l-4.699-8.11c-7.716 6.402-16.558 10.366-26.745 9.977-12.64-.483-22.69-7.595-30.932-16.653 1.045-.814 1.6-1.757 2.336-2.838 8.44 8.046 17.653 15.263 29.872 15.449 9.14.139 16.636-3.599 23.092-9.859-2.298-4.165-4.825-8.229-7.245-12.325l2.287 1.052 1.33-2.418c2.426 3.04 4.354 6.917 6.398 10.251q1.274-2.61 2.381-5.296c4.577-11.421 1.842-25.171-2.954-36.04-10.688-24.221-37.359-42.161-61.444-51.264-5.855-2.213-19.302-7.394-25.008-4.477-1.714.876-2.387 2.443-2.848 4.257-4.603 18.107 12.847 56.922 21.616 72.778-1.117.632-2.385 1.216-3.39 2.006zM89.468 494.53c2.487-.948 3.401-.974 5.943.19 21.695 9.938 45.698 41.687 53.692 64.012 4.719 13.176 5.462 29.375-.649 42.256-2.17 4.574-4.898 8.013-8.623 11.399 6.033 21.491 10.516 43.096 14.433 65.07 1.382 7.75 3.392 16.001 3.913 23.82l-1.089.094-.14-2.046-.737-.161c-.815 1.336-1.213 2.606-1.644 4.106-5.102-27.973-10.229-62.816-18.568-89.51q-2.52.176-5.046.225c-10.43.184-20.671-3.282-28.173-10.714-12.918-12.797-18.023-36.81-18.213-54.532.007-1.343-.095-2.889.135-4.211.382-2.196 1.523-2.585 3.232-3.75 1.092 20.324 3.285 46.59 19.364 61.092 8.028 7.24 16.748 8.491 27.154 7.986-6.552-15.179-11.653-31.007-17.948-46.301-3.669-8.915-8.129-17.134-12.293-25.758-.772-1.599-1.008-2.462-.394-4.105l1.356-.224c8.501 5.561 27.856 62.792 33.214 75.192 5.981-7.313 9.304-14.869 10.12-24.359 1.856-21.61-10.629-43.488-24.199-59.497-5.716-6.743-23.348-25.438-31.723-26.136-1.434 1.248-1.73 4.209-2.169 6.028l-1.375.471c.058.95.04 1.643-.207 2.563l-.085-.005.162-.755-2.126-.786 1.28-.21c-.016-3.935.787-7.58 1.403-11.444z"/>
  <path fill="#1CBB83" d="M90.416 504.696c.439-1.819.735-4.78 2.169-6.028 8.375.698 26.007 19.393 31.723 26.136 13.57 16.009 26.055 37.887 24.199 59.497-.816 9.49-4.139 17.046-10.12 24.359-5.358-12.4-24.713-69.631-33.214-75.192l-1.356.224c-.614 1.643-.378 2.506.394 4.105 4.164 8.624 8.624 16.843 12.293 25.758 6.295 15.294 11.396 31.122 17.948 46.301-10.406.505-19.126-.746-27.154-7.986-16.079-14.502-18.272-40.768-19.364-61.092q.107-18.119 2.482-36.082z"/>
  <path fill="#080F1B" d="M479.824 260.161c-5.598-34.986 10.668-79.269 30.95-107.288 39.928-55.159 106.567-91.836 173.257-102.37 44.149-6.974 94.293-3.623 131.515 23.57 22.345 16.325 37.224 39.891 41.413 67.351 2.669 17.49 1.772 34.575-3.08 51.61-6.696 23.505-20.878 45.45-32.55 66.794q-25.889 47.351-52.79 94.133c-5.273 9.113-12.196 17.95-16.759 27.359 3.261 4.342 36.408 45.648 36.504 46.156.089.468-.094.948-.141 1.422-1.207.717-1.444.893-2.898.549-5.198-1.23-11.402-6.188-16.265-8.798-10.077-5.408-20.326-10.501-30.364-15.973-9.589-5.226-19.036-10.888-28.842-15.689-15.657 3.222-32.576 6.981-48.627 6.387.304-.746.54-1.384.72-2.174-.738-.438-1.232-.619-2.098-.63-2.152-.029-3.626-.231-5.662-.858l-.682-.217c20.027-.163 38.196-2.814 57.666-7.403 7.769 6.828 53.78 29.668 65.733 35.21-10.822-11.753-20.834-24.687-30.155-37.659 5.136-10.529 12.537-20.261 18.481-30.389 16.791-28.61 32.489-57.966 48.579-86.98 6.397-11.534 12.545-23.182 18.804-34.789 4.652-8.627 9.8-17.223 13.34-26.379 4.912-12.705 7.934-26.017 8.266-39.659q.043-1.284.055-2.568.012-1.284-.009-2.569-.02-1.284-.073-2.567-.052-1.284-.136-2.565-.085-1.282-.201-2.561t-.264-2.555q-.148-1.276-.328-2.548-.179-1.272-.39-2.538-.212-1.267-.454-2.529-.243-1.261-.517-2.516-.274-1.255-.58-2.502-.305-1.248-.641-2.487-.336-1.24-.703-2.471-.367-1.231-.765-2.452-.397-1.221-.825-2.432-.428-1.212-.885-2.412-.458-1.2-.946-2.388-.487-1.188-1.004-2.364t-1.063-2.338q-.546-1.163-1.121-2.311-.574-1.149-1.178-2.283-.603-1.134-1.234-2.252-.631-1.119-1.29-2.221-.659-1.103-1.345-2.188-.686-1.086-1.399-2.154-.713-1.069-1.452-2.119-.74-1.05-1.505-2.081-.765-1.032-1.556-2.044-.79-1.012-1.606-2.004-.816-.992-1.656-1.964-.84-.971-1.704-1.921-.864-.95-1.751-1.879C800.568 62.73 762.12 52.33 727.001 51.853c-68.187-.928-139.297 27.682-188.166 75.258-33.239 32.359-54.932 73.266-55.604 120.157-4.361 4.469-2.666 7.325-3.407 12.893z"/>
  <path fill="#1CBB83" d="M64.85 713.272c-8.769-15.856-26.22-54.671-21.616-72.778.46-1.814 1.134-3.381 2.848-4.257 5.706-2.917 19.153 2.264 25.008 4.477 24.085 9.103 50.756 27.043 61.444 51.264 4.796 10.869 7.531 24.619 2.954 36.04q-1.107 2.686-2.381 5.296c-2.044-3.334-3.972-7.211-6.398-10.251l-1.33 2.418-2.287-1.052c2.42 4.096 4.947 8.16 7.245 12.325-6.456 6.26-13.952 9.998-23.092 9.859-12.219-.186-21.432-7.403-29.872-15.449a217.047 217.047 0 01-12.523-17.892z"/>
  <path fill="#000102" d="M123.092 724.429c-9.787-14.725-21.23-29.023-34.013-41.261-3.612-3.458-19.436-15.332-20.06-18.929.78-.505.984-.892 1.957-.755 3.228.452 7.515 4.953 9.961 7.095q6.604 5.72 12.793 11.887 6.188 6.167 11.93 12.752 5.743 6.584 11.012 13.554 5.268 6.97 10.037 14.291l-1.33 2.418-2.287-1.052z"/>
  <path fill="#080F1B" d="M173.51 648.997c-7.417-6.124-11.933-15.186-13.625-24.557-2.84-15.733 2.111-30.166 11.107-43.027 8.564-12.243 42.154-46.937 56.775-48.917 1.784-.242 3.698.129 5.137 1.249 3.009 2.342 3.515 6.644 4.017 10.158 1.042 4.793 1.216 9.784 1.18 14.679-.655 25.926-6.569 64.006-26.21 82.705-6.891 6.561-15.729 11.237-25.446 10.819-3.116-.134-6.186-.929-9.113-1.962-7.541 20.31-11.097 39.783-13.501 61.226-.483 4.301-1.652 9.512-1.115 13.758-2.419.731-2.687.543-3.897 2.712-1.489-8.155-3.218-16.346-4.252-24.57.431-1.5.829-2.77 1.644-4.106l.737.161.14 2.046 1.089-.094c1.099 2.739 1.425 6.468 2.025 9.403 1.706-21.621 5.697-41.318 13.308-61.683z"/>
  <path fill="#1CBB83" d="M174.844 644.688c-5.526-5.793-9.085-12.104-10.802-19.975-3.137-14.381 1.273-27.024 9.11-39.06 8-12.287 40.745-46.47 54.716-48.834 1.584-.268 1.752-.06 2.987.818 1.571 2.738 1.791 5.962 2.252 9.034.567 6.383.812 12.685.866 19.092q-.823 13.085-3.57 25.905c-3.904 18.229-11.303 41.346-27.764 51.805-8.078 5.133-15.361 5.322-24.413 3.212 11.445-21.68 20.385-44.636 32.47-66.041 1.63-2.887 5.532-8.566 4.625-11.772l-1.259-.389c-5.151 2.066-34.456 66.071-39.218 76.205zm308.387-397.42c.672-46.891 22.365-87.798 55.604-120.157 48.869-47.576 119.979-76.186 188.166-75.258 35.119.477 73.567 10.876 98.612 36.811q.887.928 1.751 1.879.864.95 1.704 1.921.84.972 1.656 1.964t1.606 2.004q.791 1.012 1.556 2.044.765 1.031 1.505 2.081.739 1.05 1.452 2.119.713 1.068 1.399 2.154.686 1.085 1.345 2.188.659 1.102 1.29 2.221.631 1.118 1.234 2.252.604 1.134 1.178 2.283.575 1.148 1.121 2.311.546 1.162 1.063 2.338.517 1.176 1.005 2.364.487 1.188.945 2.388.458 1.2.885 2.412.428 1.211.826 2.432.397 1.221.764 2.452.367 1.231.703 2.471.336 1.239.641 2.487.306 1.247.58 2.502.274 1.255.517 2.516.242 1.262.454 2.529.211 1.266.391 2.538.179 1.272.327 2.548.148 1.276.264 2.555.116 1.279.201 2.561.084 1.281.136 2.565.053 1.283.073 2.567.021 1.285.009 2.569-.012 1.284-.055 2.568c-.332 13.642-3.354 26.954-8.266 39.659-3.54 9.156-8.688 17.752-13.34 26.379-6.259 11.607-12.407 23.255-18.804 34.789-16.09 29.014-31.788 58.37-48.579 86.98-5.944 10.128-13.345 19.86-18.481 30.389 9.321 12.972 19.333 25.906 30.155 37.659-11.953-5.542-57.964-28.382-65.733-35.21-19.47 4.589-37.639 7.24-57.666 7.403-51.551-4.522-93.222-19.97-132.108-54.621-1.049.872-2.037 1.707-2.937 2.741-.403-.286-.487-.333-.913-.708-20.962-18.465-36.298-50.915-37.643-78.746.741-5.568-.954-8.424 3.407-12.893z"/>
  <defs>
    <linearGradient id="YFSXe6zwfEoif" gradientUnits="userSpaceOnUse" x1="476.788" y1="291.471" x2="523.035" y2="295.806">
      <stop offset="0" stop-color="#000200"/>
      <stop offset="1" stop-color="#010A1B"/>
    </linearGradient>
  </defs>
  <path fill="url(#YFSXe6zwfEoif)" d="M483.231 247.268c.288 33.837 12.288 64.337 36.622 88.218q.72.707 1.464 1.388c-1.049.872-2.037 1.707-2.937 2.741-.403-.286-.487-.333-.913-.708-20.962-18.465-36.298-50.915-37.643-78.746.741-5.568-.954-8.424 3.407-12.893z"/>
  <path fill="#080F1B" d="M745.094 81.589c12.181-.329 24.782 4.69 34.241 12.166q1.075.834 2.107 1.72 1.032.887 2.018 1.824.986.938 1.923 1.924t1.823 2.019q.886 1.032 1.719 2.108.833 1.076 1.61 2.192.778 1.117 1.498 2.271.72 1.155 1.38 2.344.661 1.19 1.261 2.411.599 1.221 1.137 2.471.537 1.25 1.01 2.526.474 1.275.882 2.573.408 1.298.75 2.615.343 1.317.618 2.65.275 1.332.482 2.677.208 1.344.347 2.698c1.657 15.18-3.464 30.46-13.05 42.235-11.874 14.586-27.741 20.405-45.901 22.288-13.898-.83-26.366-4.528-37.065-13.817q-.993-.848-1.943-1.744-.951-.896-1.856-1.838-.905-.942-1.762-1.927-.857-.986-1.665-2.012t-1.565-2.091q-.756-1.065-1.459-2.166-.703-1.1-1.351-2.235-.648-1.134-1.239-2.298-.592-1.165-1.125-2.357-.534-1.193-1.007-2.41-.474-1.217-.888-2.456-.413-1.239-.765-2.497-.352-1.258-.642-2.532-.289-1.274-.516-2.56-.226-1.286-.389-2.582-.163-1.297-.262-2.599c-1.054-15.183 4.738-31.912 14.814-43.289 11.69-13.2 27.574-19.157 44.83-20.302z"/>
  <path fill="#1CBB83" d="M739.589 86.213l.328.241c1.611 3.13.72 36.863.737 43.362-6.044-4.816-11.683-10.167-17.397-15.369l-15.889-13.788c10.258-7.676 19.554-12.08 32.221-14.446z"/>
  <path fill="#FAFAF9" d="M704.324 104.382c6.213 2.287 29.968 26.422 36.303 32.557-6.468.591-12.881 1.407-19.315 2.297-10.548.935-21.217 2.883-31.718 4.359.065-14.575 4.762-28.469 14.73-39.213zm40.644-18.318c6.381-.1 12.616 1.202 18.545 3.536q1.168.456 2.311.97 1.144.515 2.26 1.087 1.116.572 2.202 1.199 1.085.627 2.138 1.308 1.053.68 2.071 1.413 1.017.734 1.996 1.517.979.783 1.918 1.615.939.831 1.834 1.709.896.878 1.746 1.8t1.653 1.885q.802.964 1.556 1.966.753 1.003 1.455 2.042.701 1.039 1.35 2.113.649 1.073 1.242 2.178.594 1.104 1.132 2.237.537 1.133 1.017 2.292c1.216 2.903 3.94 8.994 2.699 12.064l-5.464 1.009c-14.478 1.518-28.82 4.628-43.356 5.632-.567-16.502-.334-33.061-.305-49.572zm49.687 47.649l.336.208c.458.931.764 1.706.876 2.749 1.158 10.716-5.531 24.471-11.995 32.645-9.522 12.043-22.901 19.39-38.175 20.997-15.264 1.606-27.62-3.45-39.336-12.832-9.105-8.335-13.65-17.87-16.651-29.684 35.12-2.875 69.865-10.886 104.945-14.083z"/>
  <path fill="#080F1B" d="M656.077 148.117c.643.084 1.396.649 1.966.966 2.512 4.468 1.079 56.388 1.072 66.196 2.99-4.129 10.209-14.483 15.322-15.292 1.486-.235 1.789.15 2.974.932 2.739 4.92.985 30.033.976 37.739q26.914-5.658 53.679-11.981c8.672-2.04 17.657-5.079 26.449-6.326 2.573-.365 5.005-.623 7.394.59.683 7.402.355 15.025.362 22.46q.076 19.083-.142 38.165c-.143 11.706.676 23.66.033 35.317-.091 1.658-.151 3.762-1.074 5.174-1.231 1.883-112.576 25.149-121.738 27.149-5.685 1.008-11.488 3.686-17.196 3.953-3.249-4.673-1.872-46.401-1.881-54.991-25.324 5.868-50.56 12.44-76.001 17.762-.658-14.67-.205-29.559-.264-44.255-4.591.528-20.924 5.389-23.938 4.002-3.128-7.321-1.558-83.865-1.564-96.731 6.181-2.202 12.938-3.476 19.319-5.024q17.629-4.323 35.361-8.205l78.891-17.6z"/>
  <path fill="#BAE0C8" d="M673.653 214.509c1.548 7.46.225 17.566.142 25.297q-11.471 2.704-23 5.151c-.019-.288-.065-.575-.056-.863.136-4.168 19.014-25.347 22.914-29.585zm-49.83 15.201c8.965 3.73 15.974 11.419 24.514 16.076q-11.937 2.329-23.772 5.132c-1.415 13.841-.325 28.732-.237 42.693-9.426 2.057-68.332 17.712-71.701 15.732l-.14-2.51.067-71.701c15.424 9.822 30.222 20.722 45.607 30.65 9.593-11.158 16.484-24.571 25.662-36.072z"/>
  <path fill="#FAFAF9" d="M653.339 153.507c.035.011.077.01.105.034 1.237 1.112.852 2.85.919 4.43l.031-.016c.527 20.836.062 41.774.153 62.624-2.679 4.068-5.512 7.874-8.546 11.677-7.435-6.175-15.196-12.311-23.943-16.513-9.282 10.061-17.91 24.87-26.301 36.145-7.762-4.942-39.949-30.002-46.637-29.084-2.714 4.658-1.277 16.961-1.245 22.696l-.024 21.427q-10.39 1.97-20.572 4.824c-.299-29.983-.792-60.091-.088-90.065 18.669-4.979 37.818-8.705 56.688-12.849 23.165-5.086 46.232-10.526 69.46-15.33z"/>
  <path fill="#101521" d="M638.476 171.522c.905 1.146 1.095 1.687 1.194 3.142-.27.367-.447.824-.81 1.099-2.469 1.872-82.898 19.327-93.551 21.933-.623-.579-.794-.822-1.042-1.673-.297-1.017.081-1.154.576-2.019 5.594-3.509 80.141-19.171 93.633-22.482z"/>
  <path fill="#FAFAF9" d="M758.379 224.826l2.371-.275c1.77 2.297.89 84.021.895 94.165-15.731 4.799-32.436 7.355-48.514 10.784l-81.675 17.664c-.714.126-1.404-.035-2.119-.122-1.416-2.374-.386-83.281-.222-92.117 5.828-2.082 12.271-3.225 18.3-4.645q17.869-4.172 35.8-8.068 37.68-8.27 75.164-17.386z"/>
  <path fill="#101521" d="M740.87 250.788c2.093-.431 3.106-.314 4.886.82a13.346 13.346 0 01-.433 2.227l-1.121-.143c-8.583 4.153-23.619 6.047-33.39 8.2q-30.478 6.542-60.795 13.789c-1.036.262-2.104.316-3.165.421-1.447-.918-1.705-.809-2.123-2.546 1.129-1.539 2.69-2.089 4.466-2.646 7.183-2.25 14.945-3.123 22.297-4.817l69.378-15.305zm1.177 46.683l2.472-.136c1.433.785 1.508.716 2.083 2.225-.921 1.169-1.156 1.363-2.567 1.824-9.366 3.064-20.016 4.532-29.701 6.589-21.484 4.564-42.959 8.884-64.34 13.942-.701.18-1.511.428-2.235.423-1.484-.011-2.029-.627-2.92-1.682l.149-.576c4.232-4.96 83.701-19.786 97.059-22.609zm.399-23.298l1.862.089c1.243.992 1.448.898 1.648 2.448-1.205 1.168-2.287 1.568-3.899 2.022-5.945 1.671-12.249 2.549-18.282 3.963-24.837 5.818-49.881 10.72-74.734 16.513-.926.078-1.71-.082-2.623-.226-.669-.564-.601-1.384-.775-2.221 1.186-1.54 2.368-2.19 4.233-2.758 9.003-2.742 20.513-4.529 29.9-6.53l62.67-13.3z"/>
  <path fill="#080F1B" d="M284.676 51.695c37.801 2.54 69.465 12.079 97.108 38.771 31.399 30.318 43.967 74.191 44.616 116.891 1.016 66.806-28.665 135.752-75.108 183.352-35.258 36.137-79.153 61.58-130.513 62.291-.188.011-.375.027-.563.032-21.022.565-54.215-11.137-72.36-21.859-7.998-4.726-15.346-10.586-22.133-16.915-31.588-29.453-45.092-74.092-46.4-116.281-2.07-66.773 25.279-133.029 70.852-181.343 36.669-38.874 80.51-63.465 134.501-64.939z"/>
  <path fill="#CECECE" d="M268.517 56.937c2.649-.381 7.305-.886 9.82-.054-51.463 6.813-98.049 41.24-130.076 80.635-39.253 48.285-61.283 113.473-54.714 175.805 4.694 44.534 21.87 85.457 57.146 114.015l-.015.182-.672.286c-5.068-2.895-9.67-6.361-14.198-10.03-32.459-26.303-47.49-66.29-51.654-106.863-6.297-61.364 16.944-128.869 55.687-176.228 31.895-38.988 77.181-72.675 128.676-77.748z"/>
  <path fill="#1CBB83" d="M291.686 59.611c29.588-1.938 57.382 8.26 79.88 27.25 31.849 26.882 46.394 65.417 49.753 106.133 5.391 65.348-19.462 132.344-61.503 181.892-33.647 39.654-77.705 69.477-130.495 73.708-30.939.562-57.302-8.003-80.862-28.228-32.499-27.898-48.445-71.364-51.48-113.234-4.539-62.592 19.295-126.217 60.131-173.246 34.42-39.64 81.214-70.58 134.576-74.275z"/>
  <path fill="#080F1B" d="M280.26 82.274q1.193-.112 2.388-.197 1.196-.085 2.393-.141 1.196-.057 2.394-.086 1.198-.028 2.397-.028 1.198 0 2.396.027 1.198.028 2.395.084 1.197.056 2.392.14 1.196.084 2.389.196 1.193.112 2.383.252t2.376.308q1.187.168 2.369.364 1.182.195 2.359.419 1.178.224 2.349.475 1.172.25 2.337.53 1.166.278 2.325.584 1.158.305 2.309.638 1.151.333 2.294.693 1.143.36 2.278.747 1.134.386 2.259.8 1.125.413 2.239.852 1.115.44 2.219.905 1.105.466 2.198.957 1.093.491 2.174 1.008t2.15 1.059q1.068.542 2.124 1.11 1.056.566 2.098 1.158 1.042.592 2.07 1.208 1.028.616 2.041 1.256t2.011 1.303q.998.664 1.98 1.351.982.686 1.948 1.396.965.71 1.914 1.442c27.709 21.265 43.411 54.713 47.688 88.917 7.292 58.319-13.139 116.351-48.975 162.107-28.283 36.112-66.698 62.913-112.831 68.454-31.256 1.126-55.395-4.233-79.691-24.95-28.256-24.095-40.106-59.533-42.893-95.538-4.595-59.351 18.608-116.401 56.965-161.112 27.068-31.552 65.73-55.49 107.789-58.688z"/>
  <path fill="#FAFAF9" d="M282.36 86.27c.317-.041.633-.096.952-.126 25.112-2.343 51.946 7.9 70.867 23.984 26.84 22.815 39.784 57.349 42.489 91.774 4.531 57.652-18.761 114.412-55.909 157.788-26.62 31.083-63.693 55.641-105.317 58.892-27.076 1.109-51.67-5.011-72.812-22.731-27.72-23.235-40.116-58.363-43.153-93.485-4.869-56.302 17.93-113.194 53.955-155.875 27.777-32.91 65.426-56.544 108.928-60.22z"/>
  <path fill="#080F1B" d="M268.684 316.312c1.956 11.279.538 25.337-6.258 34.886-2.442 3.431-6.297 7.296-10.622 7.895-3.248.449-7.105-1.344-9.613-3.365-.624-.504-1.092-1.093-1.593-1.713.516-1.233-.021-2.276-.32-3.552.649.174 1.134.28 1.816.256.176-.006.352-.025.529-.038 2.073 1.97 3.955 3.116 6.827 3.517 2.597.363 4.915-.205 6.93-1.924 7.842-6.685 8.343-20.195 8.839-29.678 1.127-.297 2.016-.556 3.041-1.135.371-1.708.374-3.407.424-5.149z"/>
  <path fill="#101521" d="M240.598 354.015c-4.241-3.477-5.56-11.133-6.058-16.307-1.157-12.033-.279-26.856 7.855-36.54 2.537-3.02 5.989-5.707 10.084-5.869 4.426-.175 7.548 2.087 10.685 4.855l-3.21 2.655c-2.823-2.15-4.899-3.175-8.561-2.777-2.876.313-4.894 1.808-6.58 4.1-7.126 9.686-7.32 26.045-5.271 37.356.573 3.162 1.501 6.381 3.081 9.193-.177.013-.353.032-.529.038-.682.024-1.167-.082-1.816-.256.299 1.276.836 2.319.32 3.552zm83.281-75.006l2.361.68.521 1.397c-1.184 4.808-31.16 63.938-34.14 67.567-.785-.441-1.524-1.008-2.267-1.517-.56-4.348 29.411-60.117 33.525-68.127z"/>
  <path fill="#000102" d="M322.742 312.739c1.843-.119 3.906-.365 5.733-.057 2.673.45 5.411 2.37 6.889 4.612 2.114 3.205 2.383 7.572 1.443 11.216-1.547 6.007-5.013 8.865-10.1 11.83-1.844.371-4.078.446-5.92.051q-.521-.11-1.028-.273-.507-.164-.995-.379-.487-.216-.949-.481-.462-.265-.893-.578-.432-.312-.829-.667-.397-.356-.754-.751t-.671-.826q-.315-.43-.582-.891c-2.148-3.775-2.245-8.643-.916-12.708 1.717-5.254 4.819-7.752 9.572-10.098z"/>
  <path fill="#FAFAF9" d="M325.548 315.933c.658.096.583.066 1.348.294 2.459.731 4.467 2.304 5.519 4.677 1.158 2.612.851 5.419-.145 8.031-1.591 4.17-3.975 5.85-7.786 7.692-1.299-.176-2.688-.327-3.922-.785-1.735-.645-3.051-2.07-3.812-3.735-1.103-2.417-.846-5.205.071-7.635 1.766-4.673 4.446-6.525 8.727-8.539z"/>
  <path fill="#000102" d="M289.423 285.385c1.603-.071 3.3-.023 4.848.441 2.865.857 5.53 2.8 6.924 5.476 1.819 3.493 1.661 7.99.426 11.641-2.012 5.953-5.818 9.02-11.263 11.578-1.86.21-3.695.348-5.5-.267-3.003-1.023-5.407-2.937-6.705-5.864-1.703-3.839-1.379-8.68.188-12.508 2.208-5.396 5.775-8.348 11.082-10.497z"/>
  <path fill="#FAFAF9" d="M289.844 289.461c.753.089 1.505.182 2.249.335 2.227.459 4.021 1.918 5.204 3.843 1.431 2.328 1.385 4.98.628 7.524-1.437 4.825-4.545 7.469-8.762 9.805-.968-.08-2.001-.247-2.928-.546-2.02-.652-3.757-2.453-4.641-4.35-1.314-2.822-.901-5.922.155-8.752 1.592-4.265 4.167-6.07 8.095-7.859z"/>
  <path fill="#080F1B" d="M209.561 304.21c3.976.161 7.873 1.299 10.845 4.063 2.72 2.53 3.891 6.09 3.892 9.745.003 6.876-3.711 11.63-8.359 16.183 2.048 1.568 4.084 3.129 5.72 5.146 2.92 3.597 3.917 8.645 3.322 13.175-.607 4.619-2.742 8.929-6.613 11.663-4.433 3.131-11.119 4.471-16.42 3.324-3.877-.839-7.875-3.174-9.952-6.653-.821-1.375-1.063-2.149-.703-3.662 3.447-.76 6.537 3.915 9.398 5.546 3.65 2.079 7.735 1.129 11.512.043 3.252-1.497 5.531-3.438 7.252-6.612 1.718-3.169 2.768-6.757 1.539-10.301-3.489-10.058-12.488-4.957-19.286-7.996l-.309-1.081c4.388-5.315 13.5-5.543 17.436-12.17 1.352-2.277 1.214-5.533.552-8.009-.769-2.875-2.763-6.395-5.519-7.768-9.162-4.565-15.21 10.41-19.422 11.948l-.998-.489c-.194-.48-.304-.689-.416-1.16-.433-1.832.221-3.684 1.246-5.192 3.8-5.594 8.754-8.466 15.283-9.743z"/>
  <path fill="#101521" d="M371.467 228.125c1.628.209 1.95.143 3.228 1.262-1.661 2.602-5.382 3.376-8.215 4.257-21.951 6.828-45.062 11.5-67.363 17.239L143.619 290.6c-1.598-.065-1.632-.057-2.851-1.087l-.082-1.454c1.164-1.262 2.445-1.682 4.071-2.167 37.641-11.226 77.126-19.742 115.249-29.474l73.789-18.785c12.523-3.19 25.019-6.881 37.672-9.508z"/>
  <path fill="#FAFAF9" d="M242.623 350.681c-1.58-2.812-2.508-6.031-3.081-9.193-2.049-11.311-1.855-27.67 5.271-37.356 1.686-2.292 3.704-3.787 6.58-4.1 3.662-.398 5.738.627 8.561 2.777l3.21-2.655c3.171 4.741 5.334 10.387 5.52 16.158-.05 1.742-.053 3.441-.424 5.149-1.025.579-1.914.838-3.041 1.135-.496 9.483-.997 22.993-8.839 29.678-2.015 1.719-4.333 2.287-6.93 1.924-2.872-.401-4.754-1.547-6.827-3.517z"/>
  <path fill="#000102" d="M263.164 300.154c3.171 4.741 5.334 10.387 5.52 16.158-.05 1.742-.053 3.441-.424 5.149-1.025.579-1.914.838-3.041 1.135-.644-7.052-1.388-13.701-5.265-19.787l3.21-2.655z"/>
  <path fill="#101521" d="M191.231 211.532l2.055.54c.33.35.832.597.99 1.052.488 1.394-.051 39.736-.031 44.723-8.665 2.709-17.767 4.568-26.592 6.722l-2.021-.223c-2.421-3.179-.911-39.119-1.589-46.483 9.127-1.759 18.156-4.139 27.188-6.331z"/>
  <path fill="#BAE0C8" d="M189.158 216.903l.471.305c1.739 5.929.82 29.83.894 37.62-6.842 1.36-13.623 3.098-20.406 4.729l-1.034-.529c-1.719-6.691-.524-29.619-.544-37.88 6.889-1.329 13.716-2.95 20.619-4.245z"/>
  <path fill="#080F1B" d="M237.553 167.442c1.073-.033 1.467.152 2.437.554.782 1.49.545 69.885.305 78.01-8.963 2.77-18.385 4.632-27.514 6.82-1.687-.002-2.013.097-3.472-.864-1.596-5.618-.664-66.133-.759-77.546 9.263-3.093 19.468-4.755 29.003-6.974z"/>
  <path fill="#BAE0C8" d="M235.905 172.194c1.685 5.985.469 60.486.485 70.344-7.583 2.248-15.258 3.994-22.966 5.749-1.787-7.145-.615-17.138-.627-24.659q.027-23.077-.177-46.153c7.813-1.371 15.487-3.716 23.285-5.281z"/>
  <path fill="#101521" d="M282.635 137.465c.613.083 1.184.464 1.737.737 1.121 2.782.13 85.498.204 95.891-9.164 3.455-19.691 5.203-29.174 7.85-.149-.136-.31-.261-.448-.408-.718-.767-1.132-1.563-1.294-2.594-1.352-8.565-.261-19.05-.262-27.777q-.177-33.695.553-67.382c9.635-1.796 19.149-4.061 28.684-6.317z"/>
  <path fill="#BAE0C8" d="M279.296 142.855l.54.347c1.64 4.33.42 75.561.58 87.641-6.883 2.175-13.895 3.866-20.894 5.619l-.859-.061c-1.38-2.422-.707-79.267-.75-89.003l21.383-4.543z"/>
  <defs>
    <linearGradient id="YFSXe6zwfEoig" gradientUnits="userSpaceOnUse" x1="286.885" y1="175.012" x2="339.56" y2="162.041">
      <stop offset="0" stop-color="#010009"/>
      <stop offset="1" stop-color="#0F1A2D"/>
    </linearGradient>
  </defs>
  <path fill="url(#YFSXe6zwfEoig)" d="M325.004 107.444c1.557-.016 1.632.019 2.906.917 1.555 3.798.466 100.975.452 115.238q-13.357 3.202-26.556 7.003l-1.925-.679c-.35-.424-.794-.785-1.051-1.272-.716-1.351-.184-103.688-.805-114.443 8.554-3.072 18.115-4.69 26.979-6.764z"/>
  <path fill="#BAE0C8" d="M322.888 112.117l.478.067c.237.258.619.437.711.775.87 3.22.047 19.437.046 24.137q.18 41.507-.126 83.014c-6.534 2.063-13.292 3.648-19.915 5.421l-.703-.264c-1.493-2.776-.772-97.72-.822-108.109l20.331-5.041z"/>
</svg>
