<svg xmlns="http://www.w3.org/2000/svg" viewBox="0 0 1365 1024">
  <path fill="#FEFEFE" d="M0 0h1363.83c2.17 3.79 1.17 11.8 1.17 16.225l.01 794.091-.01 159.597c0 7.66 1.16 47.957-.41 52.627-.17.51-.5 1.01-.76 1.46H0V0z"/>
  <path fill="#1CBB83" d="M736.793 897.316l.494 4.007q-17.419 6.818-34.489 14.468c-4.013 1.759-8.546 3.245-12.374 5.285q.452-3.796.995-7.58l.592 1.55c4.656.358 37.376-14.846 44.782-17.73zM190.035 639.061c-4.222-2.189-9.107-3.716-13.561-5.443-12.251-4.751-24.645-9.073-37.005-13.529q-40.646-15.068-81.137-30.55c-2.816-1.096-6.26-1.722-7.535-4.625l.503-.976c2.14-.354 4.254.384 6.275 1.047 12.093 3.971 23.77 9.291 35.741 13.624l49.633 18.48c15.776 5.808 31.681 11.334 47.231 17.73l-.145 4.242zm433.698 313.565c3.154.853 6.425 1.954 9.649 2.437-10.425 1.729-21.695 7.655-31.504 11.674l-85.689 36.073c-9.234 3.79-19.095 9.35-28.63 11.95-1.881.51-2.966.69-4.796.04l-.101-.99c1.427-1.56 3.026-2.49 4.896-3.41 11.846-5.85 24.839-10.432 37.046-15.546l72.974-30.682c5.966-2.505 20.972-7.621 25.47-11.009.232-.174.456-.358.685-.537zm129.422-429.667l1.002 1.768c6.397-.106 16.044-6.062 22.308-8.525 36.119-14.204 71.934-29.651 107.688-44.762 13.881-5.867 27.689-12.72 41.822-17.887 2.195-.802 4.177-1.44 6.537-1.077l.459.769c-4.841 5.101-24.58 11.599-31.675 14.632l-96.304 40.718c-15.653 6.494-37.277 14.048-51.884 21.84l.047-7.476zM649.827 823.874l-.901-1.799c-1.871-.381-3.493.357-5.236.988-13.882 5.03-27.507 11.378-41.091 17.183l-51.463 21.52-187.074 79.05c-11.294 4.691-27.069 12.768-38.043 16.141-1.946.598-3.731 1.121-5.623.131l-.294-1.187c.848-1.057 1.484-1.43 2.721-1.984 16.338-7.316 33.052-13.948 49.549-20.902l110.104-46.457q59.758-25.918 119.984-50.729c15.586-6.451 30.999-13.509 46.791-19.419l.576 7.464zM350.311 689.37c30.375-13.44 61.707-25.08 92.506-37.526q64.461-26.716 129.305-52.49l49.872-20.144c7.146-2.835 14.81-6.67 22.308-8.252l-.791 4.292q-75.282 29.258-149.889 60.195l-80.899 32.886c-18.926 7.617-38.148 14.847-56.843 23.007l188.039 72.912 72.312 28.271c10.61 4.042 21.493 8.967 32.383 12.012l.609 5.736c-.325-.448-.568-.969-.975-1.345-.783-.721-50.83-19.37-55.599-21.212l-156.446-60.894c-41.833-16.114-84.088-31.651-125.499-48.801.059 7.854.81 16.636-.595 24.351-.575-11.029.076-22.333-.082-33.402.273 1.755.629 3.387 1.167 5.08 12.057 6.281 26.378 10.447 39.117 15.324zm427.506 167.534c38.048 16.332 77.21 30.658 115.816 45.637l150.597 58.575 80.93 31.586c8.31 3.259 31.02 11.158 36.39 15.078l.73-.16c9.47-2.25 18.48-7.2 27.51-10.816q38.58-15.196 76.85-31.159 21.56-9.089 43.33-17.657c4.16-1.675 8.1-3.897 12.3-5.454 1.37-.51 2.35-.615 3.79-.466l1.27.883c-.36 1.342-.48 1.479-1.74 2.235-6.29 3.792-14.35 6.303-21.16 9.091l-40.41 16.514c-23.82 9.774-47.49 19.756-71.47 29.129-7.88 3.08-15.98 7.18-24.04 9.59 16.43 3.11 32.76 6.07 49.5 6.94 2.9.15 6.13-.4 8.87.62.34 1.22.35 1.48.07 2.71-9.5 3.57-49.14-3.61-60.43-6.96-8.78-2.6-16.94-6.4-25.42-9.79q-20.4-8.162-40.9-16.085l-130.736-50.536c-16.723-6.408-33.263-13.219-50.11-19.312-14.518 6.69-29.364 12.578-44.084 18.8l-74.646 31.82-75.134 32.226c-10.176 4.367-32.23 15.867-42.253 17.047l-.449-1.93c1.198-1.4 2.446-2.21 4.107-3 8.721-4.11 18.012-7.5 26.905-11.3l61.458-26.166 139.337-59.534-104.938-41.207c-6.681-2.614-25.811-11.479-31.455-12.012-.462-1.369-.318-3.459-.385-4.937z"/>
  <path d="M592.627 213.533a45.113 45.113 0 013.837-.212c36.391-.528 72.879.083 109.28.067 16.814-.007 50.365-1.68 65.694 1.462 7.385 1.514 15.109 6.324 20.419 11.568q.758.752 1.478 1.54t1.402 1.61q.681.821 1.322 1.675.641.854 1.239 1.738.599.884 1.154 1.796.556.911 1.066 1.849t.975 1.899q.464.961.882 1.944.417.982.786 1.984.37 1.002.69 2.02.321 1.019.591 2.051.271 1.033.491 2.078.221 1.044.391 2.098.169 1.054.288 2.115.118 1.061.185 2.127.067 1.066.082 2.133c.063 11.56-4.85 23.377-13.007 31.554-12.705 12.737-27.2 12.951-43.989 12.911l-24.393-.083-6.796-.064c-9.671 14.041-18.292 30.483-28.888 43.641-9.43-11.165-19.958-30.331-28.954-43.075q-21.452-.405-42.909-.387c-8.607-.018-17.797.78-26.273-.768q-2.512-.458-4.964-1.173-2.452-.714-4.817-1.678t-4.617-2.167q-2.253-1.203-4.37-2.632c-9.187-6.289-15.983-16.087-17.91-27.133-2.015-11.548 1.173-24.614 7.957-34.121 7.544-10.572 19.084-16.339 31.678-18.367z"/>
  <path fill="#1CBB83" d="M592.05 216.76q2.831-.212 5.668-.295c35.624-.735 71.462.057 107.103.049l35.519.008c9.868.009 20.324-.596 30.02 1.416 7.11 1.475 14.034 5.634 19.186 10.684q.712.7 1.389 1.435.676.735 1.315 1.502.639.768 1.239 1.567.6.798 1.159 1.626.559.828 1.076 1.682t.991 1.734q.474.879.904 1.781.429.902.813 1.824.384.922.721 1.862.338.94.628 1.896t.532 1.925q.242.969.435 1.949.194.98.338 1.968.144.989.238 1.983.095.994.14 1.992.045.998.04 1.997c-.008 11.123-5.091 22.292-13.016 30.015-15.499 15.104-43.511 11.198-63.665 11.102l-10.317-.124c-8.824 13.923-18.207 27.452-26.894 41.486-8.357-13.93-17.476-27.451-26.333-41.066l-41.752-.059c-9.074.027-18.71.781-27.672-.673q-2.238-.373-4.433-.949-2.195-.575-4.328-1.349-2.133-.773-4.187-1.738-2.054-.964-4.011-2.112-.847-.494-1.669-1.031-.821-.537-1.614-1.114-.793-.577-1.556-1.194-.764-.617-1.495-1.271-.73-.654-1.427-1.345-.697-.69-1.359-1.415-.661-.725-1.285-1.482-.624-.757-1.209-1.545-.584-.788-1.129-1.604-.544-.817-1.046-1.659-.503-.843-.962-1.71-.459-.867-.874-1.756-.415-.89-.785-1.799-.369-.909-.693-1.835-.323-.926-.599-1.868-.276-.942-.504-1.896c-2.606-10.682-.365-21.7 5.317-31.002 6.982-11.431 17.415-16.591 30.043-19.592z"/>
  <path d="M596.027 225.496c7.806-.91 16.473-.249 24.381-.244l48.024.05 59.952.126c10.861.05 22.189-.475 32.97.625 5.239.534 9.464 1.635 14.019 4.339 7.374 4.377 13.058 11.563 15.125 19.938 2.037 8.252.35 16.981-4.011 24.204-5.453 9.033-14.369 13.074-24.23 15.571-37.317 1.129-74.824.676-112.154.461-15.571-.089-38.79 1.061-53.603-.734q-2.107-.249-4.173-.734-2.065-.485-4.063-1.2-1.998-.715-3.902-1.651-1.904-.936-3.691-2.08c-7.119-4.65-12.558-12.244-14.164-20.655-1.681-8.806.553-16.88 5.647-24.121 5.934-8.436 13.917-12.234 23.873-13.895z"/>
  <path fill="#FEFEFE" d="M601.103 228.27c36.516-.937 73.294-.325 109.825-.051 14.464.108 34.123-1.337 47.909.312 6.267.749 12.363 2.59 17.533 6.307q.568.405 1.114.839.547.434 1.071.895.524.46 1.024.947.5.487.975.998.474.512.923 1.047.448.534.868 1.091.421.557.813 1.135.392.577.754 1.174.362.596.693 1.21.332.614.632 1.244.299.631.567 1.275.268.645.502 1.302.235.657.436 1.325.201.668.368 1.346.167.678.3 1.363.132.685.23 1.376c1.131 7.806-1.186 15.576-5.966 21.791-6.081 7.906-14.169 10.781-23.748 12.007l-110.205.005c-14.253.019-36.54 1.457-49.852-.361-6.85-.935-13.549-3.25-18.875-7.777q-.515-.437-1.008-.9-.492-.462-.961-.948-.47-.486-.914-.995-.445-.508-.864-1.039-.419-.53-.811-1.08-.392-.55-.757-1.119-.364-.569-.7-1.155-.336-.586-.643-1.188-.306-.602-.583-1.219-.276-.616-.522-1.246-.246-.629-.46-1.27-.214-.641-.396-1.291-.183-.651-.333-1.31-.15-.659-.267-1.324-.117-.665-.201-1.336-.084-.67-.135-1.344c-.589-7.997 2.273-15.586 7.576-21.538 6.554-7.354 14.521-9.944 24.088-10.498z"/>
  <path d="M711.899 242.559c1.335.024 2.665.148 3.996.247 1.434 1.502 1.106 1.964 1.12 3.979-1.322-.108-2.616-.415-3.913-.679-1.314-1.406-1.109-1.693-1.203-3.547zm.476 7.741l3.025.404c2.651 3.363 1.165 14.302 1.104 18.791l-2.893-.553c-2.874-3.562-1.345-13.954-1.236-18.642zm-10.301-9.444c1.219.166 2.024.348 3.103.947 2.561 6.153 1.092 20.532 1.02 27.65-1.854-.203-2.691-.007-4.083-1.303-.908-8.813-.372-18.433-.04-27.294zm-33.896 3.297c1.468.114 2.175.25 3.476 1.035-.102 1.852-.045 3.108.555 4.871 1.342.348 2.621.495 3.994.619.559 1.175.429 1.189.053 2.457-.59.303-1.188.599-1.759.937-1.672.991-3.024 1.87-3.416 3.943-.239 1.261.583 6.283 1.699 7.048 2.068 1.419 2.847.21 4.591 2.852-1.69 1.231-3.414 1.619-5.458 1.886-6.557-2.699-2.217-10.826-4.484-15.536-.406-.845-2.023-.523-2.938-1.563l.324-1.78 2.637-.993c.306-1.921.522-3.841.726-5.776zm-16.26 5.979c2.234.025 4.76-.114 6.591 1.389 2.407 1.977 3.306 6.469 3.491 9.434.192 3.081.197 5.946-1.931 8.338l-1.185.019-1.713-1.801q-.757.348-1.521.682c-3.74 1.631-5.058 1.678-8.923.166-1.132-2.509-1.523-4.586-1.294-7.334 2.451-3.805 5.783-2.079 9.515-3.21 1.403-.426 1.491-.755 2.178-1.953l-.846-1.089c-2.766-1.098-5.878-1.037-8.817-1.199l-.547-1.307.142 1.168.423-1.506-.327 1.455.172-1.461c1.331-1.005 3.014-1.329 4.592-1.791z"/>
  <path fill="#FEFEFE" d="M655.343 259.732c1.43.556 1.459.672 2.298 1.974l-.367 1.327c-1.554 1.747-2.999 2.398-5.163 3.217-.84-.377-1.195-.637-1.836-1.342-.78-.859-.545-.856-.479-1.921 1.623-1.81 3.348-2.392 5.547-3.255z"/>
  <path d="M684.434 250.118c1.425-.083 2.871-.149 4.297-.046 2.192.158 3.947 1.026 5.335 2.756 2.585 3.223 3.359 7.971 2.95 12.015-.168 1.656-.428 3.229-1.728 4.367-2.03.038-1.798-1.1-3.452-1.978-2.838 1.448-4.841 2.516-8.112 2.403-1.589-1.246-3.397-2.576-3.77-4.704-.3-1.707.157-3.183 1.259-4.507 1.713-2.058 5.075-2.873 7.597-3.093 1.128-.099 1.978-.138 3.041-.57l-.053-1.172c-3.269-3.259-5.795-.803-9.518-1.88.068-1.575 1.162-2.479 2.154-3.591z"/>
  <path fill="#FEFEFE" d="M685.958 260.212c.949-.083 1.913-.185 2.866-.19 1.722-.009 2.243-.049 3.486 1.132-.366 1.962-1.549 2.986-2.88 4.402-.828.175-1.775.423-2.623.397-1.563-.049-2.136-.669-3.035-1.819.397-2.107.79-2.385 2.186-3.922z"/>
  <path d="M726.519 250.042c1.461-.052 3.008-.158 4.451.101 2.099.376 3.744 1.466 4.941 3.223 2.336 3.428 3.12 8.707 2.142 12.72-.382 1.567-.71 2.395-2.081 3.17-1.042-.797-1.854-1.297-3.096-1.781-1.737.528-3.307 1.34-4.932 2.141-2.151-.094-3.399-.645-5.289-1.646-.947-1.41-2.153-3.216-1.978-4.996.617-6.265 8.991-3.644 12.575-6.476l-.205-1.271c-3.437-2.941-7.111-.568-10.487-2.34.824-1.526 2.476-2.089 3.959-2.845z"/>
  <path fill="#FEFEFE" d="M731.074 259.278c1.544.801 1.763.824 2.605 2.439-.081.733-.052.873-.376 1.633-.769 1.803-2.823 2.754-4.492 3.483-1.033-.441-2-.985-2.989-1.518-.789-1.452-.804-1.332-.359-2.918 1.724-1.787 3.318-2.337 5.611-3.119z"/>
  <path d="M618.359 243.09c.826.063 1.692.143 2.504.304 4.617.917 12.796 14.518 15.565 18.431-.032-5.154-1.632-12.679-.109-17.424 1.421-1.049 1.437-1.022 3.208-.949 1.733 2.145.861 21.882.858 26.042-.685-.033-.897-.024-1.617-.15-4.139-.725-13.059-15.113-15.842-18.907-.093 5.255.351 11.359-.507 16.48-.294 1.755-.465 1.745-1.956 2.748l-.809-.329c-2.697-4.4-1.331-20.594-1.295-26.246zM140.604 108.25a44.894 44.894 0 012.348-.12c33.922-.575 67.964-.044 101.893.029 15.246.033 37.749-1.612 51.926.95q1.257.226 2.493.546 1.236.32 2.445.732 1.208.413 2.382.915 1.174.502 2.307 1.091 1.133.59 2.218 1.263 1.086.673 2.117 1.426 1.032.753 2.004 1.581.971.829 1.878 1.728c7.548 7.375 10.147 17.29 10.224 27.581.077 10.312-.111 20.629-.096 30.941.015 10.019.98 21.318-1.294 31.096-1.422 6.11-4.24 11.936-8.724 16.382-11.257 11.163-27.718 9.444-42.245 9.243q-18.703-.232-37.401.279c-6.527 6.59-12.676 13.37-19.46 19.734-8.036-5.295-15.048-13.172-21.947-19.868-11.705-.488-23.432-.141-35.14.048-8.206.133-17.155.936-25.214-.824q-1.708-.377-3.364-.941t-3.239-1.309q-1.583-.744-3.073-1.661-1.491-.916-2.87-1.992c-7.737-6.035-11.525-15.036-12.571-24.599-1.098-10.048-.999-57.41.739-66.487 1.081-5.644 3.362-10.96 7.017-15.419 6.247-7.62 15.033-11.329 24.647-12.345z"/>
  <path fill="#FEFEFE" d="M141.37 111.577c13.431-1.366 30.799-.19 44.772-.175l93.18.046c13.39.001 23.679.23 33.66 10.424 3.763 3.844 6.187 8.841 7.398 14.05 2.032 8.744.961 18.476.947 27.398-.018 11.122.178 22.259.007 33.379-.142 9.234-2.244 18.918-9.169 25.513-10.246 9.757-24.721 8.497-37.75 8.304q-20.535-.162-41.07-.1c-6.021 6.263-11.316 12.983-17.996 18.613-7.139-5.601-13.571-12.308-20.161-18.545-12.409-.2-24.889.086-37.303.172-7.56.053-15.609.659-23.043-.782-4.132-.8-7.775-2.315-11.143-4.859-7.107-5.368-11.023-12.905-12.124-21.649-1.059-8.41-.157-17.389-.157-25.882-.001-12.511-1.65-27.985.681-40.186.993-5.196 3.065-10.186 6.356-14.353 5.858-7.417 13.793-10.312 22.915-11.368z"/>
  <path d="M209.911 122.57l13.658-.113c1.368 3.788 3.3 7.392 5.078 11.003 3.599 1.342 7.278 2.493 10.924 3.701 2.062-1.692 5.907-5.331 8.624-5.306 2.017.019 2.694 1.128 4.013 2.442 2.514 2.355 5.603 4.776 7.294 7.787-.257 1.091-.285 1.242-1.08 2.018-1.543 2.96-3.372 5.591-5.319 8.295 2.06 3.018 3.721 6.135 5.37 9.393 3.821 1.747 8.12 2.572 12.186 3.597.646 4.537.698 8.858.633 13.423-4.282 1.907-8.86 3.318-13.28 4.885l-4.062 8.454c1.754 3.299 3.764 6.263 5.956 9.286-3.267 4.25-6.626 8.245-10.291 12.158-4.087-1.84-7.861-3.945-11.703-6.242-3.395 1.941-6.794 3.336-10.464 4.677-1.457 3.148-3.02 6.226-4.627 9.301-4.456.162-8.618-.214-13.03-.826-1.312-3.07-2.208-6.299-3.185-9.486-4.199-.835-8.079-2.022-12.107-3.468-2.684 1.83-6.291 5.053-9.754 4.498-3.562-.57-6.644-5.515-8.811-8.217l5.064-10.852c-1.412-2.623-2.701-5.328-4.043-7.988-4.191-1.878-8.761-2.989-13.033-4.763-.33-4.325-.059-8.612.157-12.936 3.895-1.429 7.764-2.841 11.761-3.967a136.851 136.851 0 014.918-10.104q-3.489-4.953-6.745-10.062c3.753-3.717 7.26-7.683 10.818-11.586 3.169 2.794 6.283 4.553 10.09 6.325q4.883-2.041 9.688-4.26c1.888-3.624 3.565-7.368 5.302-11.067z"/>
  <path fill="#1CBB83" d="M212.904 125.407l8.126.158c1.725 3.478 3.223 7.091 4.795 10.643 4.609 1.565 9.064 3.194 13.493 5.237 2.895-2.37 6.161-5.398 9.973-5.95 1.993 2.208 4.021 4.895 6.447 6.602-1.86 3.332-4.338 6.272-6.696 9.259 2.589 4.407 4.349 8.894 6.111 13.665 2.666.737 5.642 1.192 8.208 2.186 1.832.709 4.242 2.389 4.923 4.324.411 1.168.288 2.152-.371 3.199-2.395 3.805-8.406 4.893-12.451 6.051-1.602 3.748-3.429 7.409-5.186 11.087 1.411 3.485 3.453 6.624 5.414 9.817-1.972 2.822-4.351 5.27-6.694 7.781-3.853-1.81-7.567-4.177-11.276-6.277-4.051 2.532-8.701 4.405-13.02 6.46-1.534 2.815-2.115 6.152-4.471 8.431-2.088.524-4.007.987-6.03-.032-3.384-1.704-4.257-6.291-5.306-9.599-4.745-1.328-9.293-2.571-13.371-5.433q-4.785 3.299-9.684 6.427c-2.13-1.869-3.904-4.001-5.732-6.156 1.276-3.815 3.326-7.277 5.261-10.786-2.334-3.395-3.825-6.957-5.381-10.758-3.41-.816-9.847-1.572-12.028-4.358-1.799-2.297-.916-5.78-.603-8.451 3.739-.989 7.638-1.52 11.451-2.176 1.369-5.308 3.569-10.058 5.871-15.003-2.469-2.436-4.273-5.039-6.163-7.935 1.685-2.792 3.607-5.149 5.749-7.599 3.683 1.528 7.215 3.566 10.75 5.412 4.136-1.974 8.47-3.563 12.732-5.245 1.449-3.88 3.088-7.393 5.159-10.981z"/>
  <path d="M212.057 151.511c5.892-.674 10.991-.257 16.349 2.409 5.217 2.597 9.428 7.099 11.15 12.72 1.651 5.393.975 11.529-1.664 16.498-3.206 6.034-8.189 8.791-14.505 10.778-5.091 1.176-10.926.506-15.621-1.823q-.499-.241-.985-.508-.486-.266-.958-.557-.472-.29-.929-.604-.457-.315-.897-.651-.44-.337-.863-.696-.423-.359-.827-.738-.404-.38-.788-.78-.384-.399-.748-.818-.363-.418-.705-.855-.342-.436-.661-.889-.319-.454-.615-.922-.296-.469-.568-.952-.272-.484-.519-.98t-.469-1.004q-.222-.508-.417-1.027-.196-.519-.365-1.047c-1.711-5.453-.977-11.262 1.664-16.289 2.964-5.641 7.935-9.397 13.941-11.265z"/>
  <path fill="#FEFEFE" d="M217.002 154.179c3.761.158 7.378 1.119 10.681 2.954 4.226 2.348 7.321 6.24 8.499 10.947q.118.457.212.919t.164.929q.07.467.116.936.045.47.066.941.021.472.018.944-.004.471-.032.942t-.081.94q-.052.469-.129.935-.077.465-.178.926-.102.461-.227.916-.124.455-.273.903-.149.447-.32.887-.172.439-.366.869t-.411.85q-.216.419-.454.826-.238.408-.497.802c-3.583 5.579-8.854 7.55-15.015 8.89-4.51-.612-8.389-1.498-12.201-4.109-3.987-2.73-6.909-6.939-7.632-11.768-.694-4.627.606-9.531 3.351-13.301 3.684-5.059 8.714-7.115 14.709-8.078zM355.88 691.338c18.695-8.16 37.917-15.39 56.843-23.007l80.899-32.886q74.608-30.937 149.889-60.195c-3.801 17.847-9.707 36.382-11.358 54.501-3.335 36.596 5.252 79.274 10.411 115.831q3.855 29.39 6.05 58.951c-10.89-3.045-21.773-7.97-32.383-12.012l-72.312-28.271-188.039-72.912z"/>
  <path d="M649.186 406.632c.06-6.549-2.195-10.988-3.816-17.11-2.771-10.469 1.587-21.837 9.177-29.239 6.803-6.634 16.228-9.435 25.596-9.184 18.858.504 38.049 14.613 50.522 28.054 8.835 9.521 17.192 23.465 16.54 36.94-.34 7.041-3.69 13.161-8.9 17.815-7.584 6.774-18.016 9.354-27.645 11.735 1.209 2.355 2.337 4.689 3.958 6.795 9.568 2.334 21.416 2.694 26.961 11.996 9.525 15.98 11.816 40.304 11.576 58.525l-.047 7.476c-1.043 12.685-2.659 27.247-13.012 35.993-3.157 2.667-6.762 4.312-10.595 5.759 8.369 14.538 16.785 29.518 20.596 46.017 2.548 11.033 2.29 22.994 2.795 34.28q.769 22.066 3.234 44.007c2.687 22.328 6.976 44.193 10.591 66.364 5.093 31.235 9.276 62.432 11.1 94.049.067 1.478-.077 3.568.385 4.937.438 16.068.395 32.128.959 48.195l-5.051 3.603.094 1.012c.88 8.829 7.482 20.012.876 27.954-3.248 3.904-8.534 5.684-13.482 5.914-10.429.484-35.545-7.617-43.101-14.981-1.925-1.876-2.725-3.747-2.616-6.446.079-1.962.951-3.685 2.417-4.98 5.885-5.196 21.219-3.497 24.255-8.089-2.402-5.415-4.116 1.12-5.266-12.7l-.494-4.007c-7.406 2.884-40.126 18.088-44.782 17.73l-.592-1.55q-.543 3.784-.995 7.58c-1.277 1.424-2.446 1.729-4.25 2.261-1.123 1.109-1.3 2.787-1.346 4.307-.255 8.4 8.557 15.692.496 23.769-7.065 7.078-25.526 5.578-34.887 5.246-5.739-.203-11.373-.781-17.055-1.596-3.224-.483-6.495-1.584-9.649-2.437q-1.313-.733-2.567-1.563c-2.18-1.455-3.477-3.047-4.011-5.633 1.847-12.388 31.353-10.715 39.348-17.515 2.228-4.792-3.596-4.986-3.811-12.729-.846-30.34-3.142-60.987-2.865-91.312l-.576-7.464-.028-6.141-.609-5.736q-2.195-29.561-6.05-58.951c-5.159-36.557-13.746-79.235-10.411-115.831 1.651-18.119 7.557-36.654 11.358-54.501l.791-4.292c1.593-9.727 2.343-19.064 2.418-28.926-3.762 4.248-7.466 8.469-11.702 12.26-6.593 5.9-16.1 12.653-25.476 11.867-5.744-.482-10.98-3.693-15.624-6.889-20.564-14.152-38.552-32.924-57.384-49.279-8.247-7.162-18.261-12.737-25.229-21.291-.846-1.037-.985-2.018-.753-3.297.613-3.385 5.188-6.05 7.794-8.046-2.193-4.078-8.238-11.708-8.797-15.987l1.006-.591c6.282.715 10.55 5.642 16.393 7.461l.68.205c3.244 2.096 7.332 4.41 9.751 7.495 5.654 5.332 11.169 9.532 12.198 17.724 20.036 10.674 40.26 21.099 60.069 32.186 8.683-16.038 21.631-50.166 33.05-62.172 2.965-3.118 6.413-5.093 10.507-6.347 6.42-1.968 13.685-2.34 20.369-3.08l3.354-6.99c-3.5-1.31-19.545-11.302-21.646-13.997-4.472-5.735-4.585-11.653-10.964-16.143-.489-2.189.171-3.492 1.362-5.362 1.113-1.746 2.341-3.417 3.508-5.127z"/>
  <path fill="#1CBB83" d="M738.191 919.382c.84-.049 1.576.056 2.407.162l.398 1.214c-1.262 1.817-1.318 1.848-3.451 2.441-1.652-.527-2.925-1.112-4.393-2.041 1.086-1.178 3.451-1.388 5.039-1.776z"/>
  <path fill="#FEFEFE" d="M704.149 446.959c.907-.246 1.281-.32 2.218-.049 1.777.516 3.823 4.718 4.821 6.381-8.133 1.043-16.331 1.311-24.522 1.28l-9.316-.028 2.884-7.42c8.157.83 15.776.725 23.915-.164zm42.61 467.105c8.136 2.392 15.746 1.452 23.958.006.686 4.055 1.916 8.029 2.038 12.162l-1.039.994c-9.542 1.469-19.338-1.375-28.27-4.502.925-3.02 1.942-5.813 3.313-8.66zm-85.219 10.674c7.002 1.047 13.674.477 20.635-.413.361 3.332.409 6.716.541 10.064-7.959 3.913-13.087 4.351-21.761 3.573-4.572-.93-9.252-2.257-13.857-.881-2.122.634-5.008 1.235-7.2.699.92-1.834 10.426-1.768 14.355-3.831 3.9-2.047 5.806-4.177 7.046-8.378l.241-.833zM515.532 466.002c5.064 3.015 7.265 7.42 10.62 12.061l1.103.002c.895-1.6.72-2.125.624-3.913 2.901.401 4.988 2.348 7.279 4.041 2.524 2.487 5.097 4.955 7.516 7.545 1.922 2.058 4.056 4.738 3.819 7.732-.39 4.918-5.943 8.895-9.319 12.027-6.521-4.162-20.042-12.095-22.92-19.26 1.881-1.425 5.251 1.117 7.905.185 1.572-.553 1.899-1.36 2.511-2.798-.1-6.187-5.795-12.617-9.138-17.622z"/>
  <path fill="#FEFEFE" d="M728.469 921.931c.708.939 1.624 1.738 2.612 2.375 3.404 2.199 26.31 6.28 31.365 6.676q2.73.232 5.464.065 2.734-.168 5.415-.731c.223-.046.445-.098.668-.147l1.07 1.007c.294 1.099.572 1.626.342 2.774-.881 4.401-5.096 8.12-8.731 10.316-5.862 1.524-11.249.549-16.993-.985-8.169-2.182-26.195-7.326-30.442-14.638-.156-1.37-.344-1.897.405-3.137 1.539-2.549 6.152-2.879 8.825-3.575zm-44.173 16.071l.565.482c.978 2.308.84 4.711.01 7.073-.879 2.501-2.734 4.343-5.104 5.477-11.908 5.697-45.774 1.412-57.67-3.047-.491-.712-.755-1.541-1.081-2.34.167-.624.307-1.223.671-1.768 1.621-2.427 6.029-3.852 8.756-4.528 4.637-1.15 5.238.053 8.971 2.313 4.074.421 7.802-1.696 11.789-1.513 17.893.822 15.187 4.792 33.093-2.149zm-28.901-549.651c7.815 4.305 17.326 8.149 19.814 17.697 3.001 11.517-5.733 20.337-9.189 30.48-3.685-1.928-9.37-4.612-10.593-8.937-1.086-3.845-1.181-7.345-2.738-11.183l-1.122-.661-2.052.621c-1.166-5.815 5.276-10.326 2.424-19.59.753-1.501.684-1.508 2.228-2.139 2.872 4.208 8.23 10.729 13.358 11.751.718.143.364.117 1.252-.383-.333-1.908-11.286-14.488-13.382-17.656z"/>
  <path d="M656.583 412.366c2.671.629 5.378.931 8.068 1.475l-.069 2.252c-.409.241-.596.372-1.007.55-1.892.82-3.556.935-5.459.205-1.393-1.755-1.339-2.214-1.533-4.482z"/>
  <path fill="#FEFEFE" d="M702.573 738.248c3.829 9.439 4.65 21.044 6.964 31.014 4.925 21.227 10.689 42.297 15.399 63.557-2.307.947-20.718-7.373-24.492-8.515 1.556-28.597 1.499-57.418 2.129-86.056z"/>
  <path fill="#FEFEFE" d="M700.444 824.304c3.774 1.142 22.185 9.462 24.492 8.515l1.361 5.976c4.807 19.382 7.016 38.93 10.496 58.521-7.406 2.884-40.126 18.088-44.782 17.73l-.592-1.55c4.829-28.298 7.149-56.876 9.032-85.504l-.007-3.688z"/>
  <path fill="#1CBB83" d="M700.444 824.304c3.774 1.142 22.185 9.462 24.492 8.515l1.361 5.976c-8.759-3.263-17.552-6.462-25.846-10.803l-.007-3.688zm-48.505-427.526c-.204-.13-.427-.234-.612-.389-2.173-1.817-3.355-6.852-3.611-9.543-.791-8.322 2.268-15.587 7.595-21.897 5.397-6.393 13.288-9.903 21.564-10.473 16.426-1.132 33.402 10.332 45.206 20.882 10.548 9.428 20.905 23.806 21.545 38.462.261 5.979-1.963 11.576-5.99 15.962-9.704 10.568-29.766 13.997-43.624 14.617-5.975.268-17.419.391-22.043-4.173-4.321-4.263 2.628-12.352 4.465-16.759q.594-1.392 1.036-2.839.441-1.447.726-2.934.285-1.486.409-2.994.124-1.508.086-3.021c-.181-6.799-2.698-13.306-7.775-17.929-.808-.736-15.739-10.75-15.844-10.776-.413-.1-.849.043-1.273.064-1.14 2.124-.275 6.29.122 8.649.169 1.008.231 1.929.246 2.952-1.544.631-1.475.638-2.228 2.139z"/>
  <path fill="#BAE0C8" d="M747.833 638.806c1.549 2.096 4.4 52.038 5.105 58.655 4.623 43.405 14.936 85.994 19.123 129.525 2.625 27.288 3.528 54.405 3.752 81.804q-3.063 1.041-6.214 1.773c-8.043 1.815-19.89 3.032-27.191-1.566-1.421-1.782-1.407-4.496-1.698-6.702-3.607-25.031-7.248-49.696-13.178-74.327l-16.676-70.353c-2.312-10.122-5.545-20.616-6.902-30.893-.936-7.089-.177-14.511.101-21.64.465-11.913 1.058-24.071.505-35.983 8.202-6.186 16.036-13.442 18.234-23.882a322.854 322.854 0 0025.039-6.411z"/>
  <path fill="#BAE0C8" d="M635.3 639.979c26.75 9.314 56.922 8.794 84.654 5.537-4.511 10.988-11.683 17.928-22.635 22.44-2.757 1.135-5.768 1.976-7.866 4.198l.872 1.868-1.236-.363c.184.063.361.152.551.189 3.29.641 9.269-2.275 12.249-3.772-1.35 29.997-2.637 60.166-3.335 90.186-.918 39.448-1.284 78.61-5.59 117.897-.997 13.412-3.354 26.871-5.291 40.178q-1.37.88-2.812 1.636c-7.799 4.017-20.461 1.808-28.383-.75-2.136-47.043-2.115-94.144-6.712-141.05-4.524-46.162-14.472-91.68-14.466-138.194z"/>
  <path fill="#1CBB83" d="M712.067 456.957c7.154-1.455 17.976 2.359 24.265 5.611 4.999 7.566 8.333 18.696 10.25 27.525 4.079 18.78 6.601 52.038-4.212 68.566-3.731 5.703-8.235 8.502-14.824 9.854-2.939-6.73-4.895-14.126-4.484-21.525.391-7.039 4.097-15.201 6.364-21.886 3.709-10.941 7.614-21.927 9.832-33.291 1.059-5.424 3.345-13.918.101-18.741l-.897.405c-1.549 4.085-1.421 9.536-2.022 13.897-.588 4.262-1.572 8.49-2.652 12.654-3.434 13.236-9.473 25.815-12.482 39.078-1.058 4.661-1.722 9.484-1.331 14.269 1.215 14.885 11.615 28.635 17.901 41.83q2.719 5.77 4.902 11.762 2.184 5.993 3.815 12.159c1.299 4.849 2.758 10.247 1.364 15.219-.835.749-1.597 1.305-2.631 1.763-4.056 1.797-8.843 2.701-13.156 3.708-27.92 6.518-70.317 7.391-97.041-3.755.412-18.492 7.353-36.732 10.663-54.837 3.808-13.95 4.429-29.048 4.183-43.417 10.117-13.491 21.286-28.998 26.899-45.04 1.067-3.05 2.358-9.514.925-12.448-1.125.486-.967.443-1.537 1.451-3.247 5.739-4.27 13.258-7.076 19.408-6.537 14.324-25 40.632-36.924 51.008-6.058 5.272-14.287 11.138-22.778 10.348-3.845-.358-7.423-2.135-10.682-4.109-13.82-8.372-25.882-20.373-37.87-31.127-7.043-6.318-14.738-12.486-20.965-19.616 3.23-3.447 6.926-6.566 10.4-9.769 8.469 3.937 16.593 9.02 24.888 13.357 9 4.706 21.573 10.142 29.552 15.856 1.551 1.111 2.034 2.318 2.298 4.16.155 1.084.123 1.297.696 2.291 6.141-3.007 28.233-57.554 37.827-68.215 9.276-10.307 51.964-7.612 66.439-8.403z"/>
  <path d="M169.749 303.794c3.309-2.935 6.612-5.835 10.442-8.081 12.295-7.212 31.758-6.659 45.086-3.063 8.768 2.366 17.051 7.034 21.618 15.161 3.138 5.583 2.869 11.057 3.785 17.138 1.734 11.507 4.466 21.422 1.049 33.098-2.111 7.218-7.575 15.222-15.502 16.711-2.57.482-5.191.058-7.535 1.35-.753 1.766-.561 2.02-.162 3.827 1.78 1.596 3.52 1.541 5.77 1.903 19.169 3.083 23.864 12.479 33.983 27.463 4.857 7.192 10.011 14.203 15.109 21.227 1.355 1.866 4.807 7.66 6.73 7.965l1.695-1.675c.484-3.436 2.571-8.635 5.319-10.89 2.395-1.965 51.643-5.426 57.871-5.48-6.562 11.826-12.391 24.05-18.362 36.181-3.248 6.598-6.615 14.671-10.895 20.546-2.501 4.939-5.01 9.833-7.822 14.607-3.77-.742-12.51-1.568-14.744-4.744a18.694 18.694 0 01-.886-1.419c-6.215-.94-16.314 1.873-22.589 3.087 5.993 17.637 12.279 35.23 16.633 53.362 3.422 14.25 5.06 27.891 6.961 42.356 3.661 27.857 6.611 56.434 6.724 84.542.158 11.069-.493 22.373.082 33.402q-.838 24.389-1.009 48.792c22.312 6.797 45.257 17.579 67.06 26.213l30.191 11.927c5.956 2.358 12.585 4.441 18.058 7.76 3.934 2.384 5.811 5.762 8.021 9.626-.64 10.226 1.001 21.348-.699 31.361-.808 4.764-3.974 8.936-8.027 11.538-4.245 2.725-9.652 4.491-14.29 6.473q-12.934 5.477-25.807 11.097l-60.092 26.123c-11.818 5.208-24.186 12.291-36.761 15.14-16.525 3.744-36.86 3.436-53.344-.413-12.899-3.012-25.958-9.376-38.326-14.253l-57.264-22.077q-22.709-8.848-45.542-17.372c-9.38-3.522-19.47-6.658-28.362-11.267-4.616-2.393-7.211-5.439-9.908-9.779-.78-11.529-.1-23.413.06-34.97l.131-.215c2.269-3.821 4.524-6.271 8.233-8.753 8.697-5.817 19.221-9.692 28.727-14.076l53.249-24.167c7.878-3.519 15.954-6.596 23.703-10.393 6.319-33.931 17.308-67.482 21.924-101.622l.145-4.242c1.749-16.555.066-33.063-.37-49.632-3.311-1.326-6.705-2.486-10.055-3.712 1.041-19.996 12.635-64.57 20.183-83.663-6.533.239-13.135.843-19.666.776-6.252-.064-13.816-.863-18.288-5.737-11.055-12.051-8.212-54.073-7.216-69.764-4.821.505-9.444.828-14.248-.008-2.795-.485-4.901-1.099-6.577-3.52.877-1.981 5.333-2.346 7.192-3.851 16.785-13.588-1.907-43.329-6.428-59.281-1.609-5.678-2.289-11.591-1.708-17.474 1.125-11.376 7.358-21.865 16.173-29.046 5.897-4.804 13.019-6.924 20.577-6.113z"/>
  <path fill="#FEFEFE" d="M264.758 478.318c2.2-.113 4.378-.348 6.551.1l.202.992-1.924 2.313c-2.372-.145-4.618-.263-6.753-1.383l.024-.982 1.9-1.04zm15.812-23.534c.526.39.489.885.654 1.501-.324.587-.445.863-.815 1.364-1.657 2.245-4.387 2.606-6.936 3.076-.833-1.206-.99-1.228-.87-2.665 2.042-1.944 5.312-2.484 7.967-3.276z"/>
  <path fill="#1CBB83" d="M293.326 796.452c-3.641-1.523-11.246-4.855-13-8.412-.483-.978-.193-1.204.071-2.193 3.722.727 10.59 5.917 15.654 7.615l-.593.019a28.724 28.724 0 01-5.449-.365c.135.073.271.144.404.219 1.512.857 2.121 1.592 2.913 3.117z"/>
  <path fill="#BAE0C8" d="M194.73 350.251c-3.029-2.382-6.754-2.576-8.949-6.086-.057-1.858-.107-1.814 1.069-3.244 2.144-.909 4.051-1.055 6.222-.062 2.825 1.291 3.699 3.67 4.771 6.353-.975 1.218-1.851 2.117-3.113 3.039z"/>
  <path fill="#1CBB83" d="M162.116 784.351c3.758 1.162 7.014 6.985 10.906 9.186 5.118 2.894 9.056.049 13.944-1.388 1.757.889 1.825 1.223 2.756 2.874l-.706 1.174-6.822 2.798c-2.155.889-4.616 2-6.889.918-5.032-2.398-11.188-10.456-13.189-15.562z"/>
  <path fill="#FEFEFE" d="M282.162 779.982l2.808.544c5.797 1.128 11.389-.082 17.238.382 1.529.988 1.418.891 1.805 2.678l-1.551 2.221c-.911.9-2.063 1.785-3.208 2.356-2.59 1.293-6.262.729-8.836-.324-3.547-1.449-6.802-4.291-8.256-7.857zm-117.53-1.366c6.835 3.033 11.711 4.001 19.236 3.633l.454 6.933c-4.36 2.136-7.785 1.607-12.433 1.049-3.137-3.58-5.648-7.099-7.257-11.615z"/>
  <path fill="#BAE0C8" d="M232.582 399.494c1.634 1.917 6.772 29.401 8.059 34.144l-5.625-6.851c-4.928-7.602-10.188-14.413-16.218-21.181 5.59-1.01 9.52-2.25 13.784-6.112z"/>
  <path fill="#FEFEFE" d="M192.526 797.932c3.232 2.083 6.426 5.805 9.463 8.368 3.65 3.08 7.604 5.714 11.279 8.74-.424.272-.597.423-1.149.538-2.97.615-7.88.159-10.224-1.701-.241-.819-.79-1.566-1.226-2.3-1.904-.293-3.068 1.444-4.736 2.424-5.661-3.05-10.994-6.535-16.373-10.05 4.624-1.68 8.806-3.342 12.966-6.019zm53.649-149.776c2.39-13.187 3.687-26.28 4.795-39.617 3.573 14.902 5.526 30.398 8.006 45.526l-1.169.255c-3.243-1.157-9.483-3.492-11.632-6.164zm-15.837-263.932c9.102 1.213 16.431 17.482 22.725 24.53q-3.475 1.494-6.905 3.09c-2.273 2.191-3.977 4.715-5.773 7.295-2.343-12.093-4.866-23.676-10.047-34.915zm-57.035-29.098c9.089 4.237 18.124 8.1 27.794 10.822q.24 2.509.392 5.024c.24 4.364-.518 6.802-3.451 10.073-1.06.711-2.123 1.436-3.227 2.077-1.58.918-2.828 1.393-4.576.955-.849-3.145-1.523-6.795-2.952-9.721-3.434-7.032-10.438-11.893-13.98-19.23zm122.748 438.336c3.093.005 7.851.281 10.016-2.426.53-.663.556-.813.879-1.509-1.078-.704-2.249-.616-3.49-.665l.957-1.075 2.223.562.925-.844c4.603 2.608 8.876 5.75 13.517 8.287 6.345 3.468 13.613 6.095 19.412 10.379-14.438 1.56-35.03-.839-47.164-9.719-.792-1.525-1.401-2.26-2.913-3.117-.133-.075-.269-.146-.404-.219 1.855.297 3.569.414 5.449.365l.593-.019zm-91.379-384.851c-4.59-3.752-12.7-12.497-13.107-18.613-.071-1.065.162-1.032.777-1.806l5.255-1.546c11.306 11.118 25.074 28.257 34.315 41.191-3.611-2.381-8.661-5.748-13.247-4.777-.202.043-.393.131-.589.196l-.636.244c-2.279-1.735-4.559-3.449-6.907-5.09 1.174-2.147 2.525-4.14 2.626-6.639-.918-1.5-1.348-1.898-3.081-2.338-1.726-.439-3.636-.586-5.406-.822zm60.163 55.911c3.641-.143 8.333-1.17 11.836-.462l.115 1.023c-1.732 1.782-3.327 1.445-5.496 2.429.699 1.376 1.336 1.581 2.628 2.379l2.358.849c-.718 2.01-.975 3.742-2.697 5.09-1.135-.02-1.926-.117-2.993-.513-1.733-.964-3.176-.937-5.085-.409-3.553.984-6.768 3.468-9.453 5.913 3.129 1.673 6.218 3.236 9.509 4.566l-.438.624c-5.744.925-13.933 1.052-19.361-1.358-2.113-.938-2.896-1.915-3.656-4.053.026-1.326.103-2.316.742-3.505 3.41-6.35 15.394-10.659 21.991-12.573z"/>
  <path fill="#BAE0C8" d="M278.003 791.682c12.958 7.285 25.615 15.062 40.466 17.74 5.306.957 21.914-.429 23.974.971.295 1.772.02 2.075-.692 3.667-3.744 1.449-7.314 2.352-11.344 2.523-13.498.574-42.463-8.587-52.521-17.96-.829-2.257-.216-4.617.117-6.941zm-118.988-4.517c2.38 2.529 4.189 5.77 6.562 8.408 9.04 10.05 24.415 22.4 38.497 23.313 4.287.277 10.848-1.103 14.381 1.345l.015 1.654c-1.142 1.691-1.476 1.911-3.326 2.794-1.119.488-2.348 1.063-3.548 1.335-10.117 2.289-22.885-3.776-31.104-9.078-7.539-4.862-22.944-14.101-24.941-23.243.427-2.463 2.098-4.482 3.464-6.528z"/>
  <path fill="#FEFEFE" d="M204.653 368.817c6.788 3.338 12.993 5.298 20.537 6.081.042 2.39-.022 5.123.607 7.427 1.139 4.171 5.278 10.257 3.874 14.587-.769 2.374-2.885 3.324-4.932 4.421q-1.53.219-3.067.383c-9 .936-15.886-12.084-22.334-17.349 1.627-1.275 3.533-2.361 5.261-3.51l.054-12.04z"/>
  <path fill="#BAE0C8" d="M240.175 386.542c4.043 1.134 7.478 2.25 10.75 4.971 7.713 6.415 13.559 18.212 19.39 26.414 5.777 8.127 12.425 16.148 17.537 24.682-.192 1.262-.382 2.359-.818 3.567-.149.15-.304.294-.447.449-3.036 3.315-3.827 4.669-9.053 5.128-1.078.094-1.851.03-2.87-.38l-.659-1.56c.486-15.029-4.54-26.725-14.534-37.972-.704 1.785-1.067 2.285-.172 4.135 4.826 9.979 7.502 12.611 8.556 24.213l-.086.564c-.918 6.428.344 14.312-3.015 20.055-.986.534-1.965 1.077-2.971 1.573-4.25.93-8.02 2.871-11.873 4.825-1.289-14.712-4.778-28.306-7.816-42.669 3.509-9.734 7.358-10.007 14.982-15.515-2.076-4.457-13.095-17.113-16.901-22.48z"/>
  <path fill="#FEFEFE" d="M197.843 347.212c.215.127.424.266.645.381 3.142 1.634 12.966-.415 16.185-1.832.705-.311 1.199-.733 1.777-1.228l-.228-.822c-4.998-1.124-13.111 1.515-17.308-1.38 1.892-6.159 18.932-25.448 24.855-28.594 3.046-1.618 6.281-1.895 9.525-.708 6.027 2.205 11.188 8.328 13.631 14.117 3.763 8.913 4.487 22.824.728 31.851-2.065 4.959-5.776 9.059-10.797 11.111-7.417 3.032-17.355 1.4-24.496-1.7-7.122-3.092-14.413-9.398-17.214-16.801-.217-.575-.238-.714-.416-1.356 1.262-.922 2.138-1.821 3.113-3.039z"/>
  <path d="M242.991 329.585c1.218.209 2.305.607 3.458 1.03l.363 1.124-1.508 2.686c-1.32.141-1.849.143-3.008-.527-.344-1.839.094-2.572.695-4.313zm-19.822 5.948c1.407.63 2.035 1.146 3.063 2.298.058 1.983-.382 2.457-1.337 4.147-1.824-.53-2.38-.52-3.648-1.997-.006-2.011.736-2.881 1.922-4.448zm-1.254-8.252c1.658-.034 3.818-.293 5.289.583.989.588.777.606 1.037 1.605-2.017 1.284-3.107 1.146-5.379 1.254-1.843.989-2.888 1.867-5.05 1.726l-.237-1.117c.977-2.057 2.499-2.88 4.34-4.051zm11.485 7.856c.657.813 1.04 1.747 1.359 2.731 1.82 5.608 5.458 6.28 8.794 10.483.902 1.138.694 1.378.475 2.73-1.823 2.252-4.649 3.295-7.208 4.506-.9-.095-1.782-.438-2.648-.7l-.313-.923c1.53-1.917 4.642-2.994 6.828-4.072-.118-.077-.237-.152-.355-.23-3.383-2.245-7.705-5.851-8.423-10.02-.323-1.878.433-3.031 1.491-4.505z"/>
  <path fill="#1CBB83" d="M196.957 294.187c4.152-.318 8.248-.506 12.412-.292 12.488.64 23.374 2.697 31.892 12.394 3.14 3.575 5.63 6.933 5.318 11.906-1.943-.758-2.344-1.156-3.645-2.851-.794-1.035-1.531-2.206-2.495-3.1-2.315-2.144-8.128-3.507-11.207-3.502-15.043.023-23.726 20.701-33.192 29.688-2.11-1.387-4.029-2.206-6.396-3.018-.885.185-1.809.381-2.642.742-1.872.813-3.716 2.504-4.306 4.5-.608 2.056.144 4.056 1.235 5.803 1.686 2.701 3.715 3.18 6.647 3.874 1.525 3.879 3.579 7.317 5.721 10.872-6.548-2.471-13.714-4.653-19.562-8.578q-.571-.383-1.122-.794-.551-.411-1.082-.848-.53-.437-1.039-.9-.508-.462-.993-.949-.486-.487-.946-.997-.461-.51-.897-1.043-.435-.532-.844-1.084-.408-.553-.79-1.125-.381-.572-.734-1.162t-.676-1.197q-.324-.607-.617-1.228-.293-.622-.556-1.258-.263-.635-.494-1.282-.231-.648-.431-1.306-.199-.658-.366-1.325-.167-.667-.301-1.341c-1.703-8.959 1.325-18.418 6.472-25.763 6.457-9.214 14.884-12.961 25.636-14.836z"/>
  <path fill="#FEFEFE" d="M244.794 653.152c.351-1.67.923-3.349 1.381-4.996 2.149 2.672 8.389 5.007 11.632 6.164l1.169-.255 1.205 5.818c2.278 15.096 3.727 30.37 5.506 45.537.967 8.246 2.791 17.206 2.692 25.483-2.208.85-19.259-2.689-23.231-3.016-9.2-.757-18.215-.177-27.406.483 11.004-24.633 20.727-48.917 27.052-75.218z"/>
  <path fill="#1CBB83" d="M244.794 653.152c.351-1.67.923-3.349 1.381-4.996 2.149 2.672 8.389 5.007 11.632 6.164l1.169-.255 1.205 5.818c-5.306-1.708-9.897-5.374-15.387-6.731z"/>
  <path fill="#BAE0C8" d="M273.597 489.028c.924-.24 1.348-.096 2.264.093 3.604 4.511 6.193 17.061 8.001 22.884-4.429 2.077-9.262 3.258-13.597 5.238-1.458.666-2.056 1.184-2.611 2.659l.99.644c5.323.488 11.592-3.048 16.438-5.074 2.72 7.125 14.613 47.181 12.621 52.567-1.739 2.121-3.971 2.895-6.422 3.952-5.714 2.635-15.372 6.874-21.76 5.419-2.02-1.943-3.01-16.861-3.683-20.933-2.414-14.606-9.894-54.732-16.282-66.724 8.016.667 16.05-.082 24.041-.725z"/>
  <path fill="#1CBB83" d="M160.84 307.467a31.952 31.952 0 014.503-.215c.751.019.835.402 1.33.927-.228 2.791-2.344 5.231-3.698 7.628-1.459 2.585-1.852 5.544-2.263 8.45-2.109 14.919 5.516 17.531 8.989 29.919 2.13 7.596 7.433 12.051 12.114 18.062 2.188 2.811 5.457 7.542 5.007 11.281-4.188 3.467-10.181 4.354-14.785 7.183-10.583 6.505-13.61 15.093-16.668 26.438-.091.866-.43 1.24-.896 1.956-4.003 2.089-8.769 1.21-13.105.882 3.536-3.082 6.636-5.698 8.555-10.082 5.912-13.51-3.768-33.093-8.785-45.907-4.695-11.989-6.636-23.559-1.211-35.701 4.379-9.798 10.883-16.908 20.913-20.821zM299.856 427.94c16.303-1.028 32.558-3.388 48.876-3.968-7.977 17.015-16.258 34.141-25.074 50.734-2.158 4.025-4.267 9.317-7.407 12.603-3.349.136-7.163-.499-10.127-2.113l-.379-.735 1.484-2.147-.438-.54c-13.926.308-27.711 4.912-41.672 4.237l.438-.624c.714.049 1.333.018 2.022-.201 4.992-1.585 7.895-7.692 10.177-11.975 2.433-8.943 7.471-16.759 11.162-25.198 1.43-2.57 2.67-5.286 3.976-7.924l6.962-12.149z"/>
  <path d="M315.603 440.852c2.821-.081 5.381.08 7.986 1.313 2.012.951 3.484 2.425 4.113 4.592 1.076 3.699-.318 8.361-2.24 11.586-3.658 6.14-8.817 8.529-15.493 10.315-3.303.102-6.839.063-9.734-1.744-2.167-1.353-3.611-3.475-3.979-6.013-.606-4.185 1.273-8.806 3.77-12.113 4.104-5.433 9.091-7.089 15.577-7.936z"/>
  <path fill="#FEFEFE" d="M312.658 445.429c2.109-.131 4.744-.375 6.795.117 1.592.381 3.159 1.5 3.924 2.959.996 1.897.727 3.917-.05 5.837-1.992 4.922-5.669 7.342-10.273 9.368-2.201.365-4.618.808-6.848.491q-.31-.046-.612-.127-.303-.081-.595-.195-.291-.114-.568-.26-.277-.146-.536-.322-.26-.176-.497-.379-.238-.204-.451-.434-.214-.229-.4-.48-.187-.252-.344-.523c-1.082-1.872-.721-4.279.001-6.209 1.942-5.187 5.605-7.759 10.454-9.843zM57.337 809.518c.777.329.588.207 1.168.571 14.027 8.811 31.348 13.93 46.813 19.752l64.305 24.461q19.429 7.641 38.778 15.485c10.038 4.032 20.283 8.803 30.963 10.755 14.468 2.645 31.025 3.003 45.38-.344 10.081-2.351 18.828-7.447 28.225-11.546l45.222-19.521q20.259-8.756 40.609-17.297c9.204-3.876 19.766-7.366 27.962-13.092l.69-.487.778.534c-.001 2.659-.765 4.937-1.549 7.44q-1.108 2.048-2.625 3.814c-2.187 2.555-5.451 4.185-8.438 5.618-16.832 8.078-34.672 14.667-51.793 22.213q-23.515 10.403-47.148 20.537c-7.8 3.363-15.578 7.162-23.55 10.076q-4.317 1.539-8.792 2.53-4.474.992-9.037 1.421c-13.854 1.261-28.835.864-42.345-2.606-7.649-1.965-14.917-5.416-22.218-8.392-8.65-3.524-17.37-6.89-26.066-10.298q-49.461-19.493-99.205-38.252c-5.88-2.227-20.58-6.431-24.766-10.335-3.81-3.553-3.407-8.294-3.361-13.037z"/>
  <path fill="#1CBB83" d="M57.272 823.802c9.635 7.022 22.308 10.316 33.406 14.565 18.959 7.26 38.04 14.168 56.916 21.646 15.08 5.974 30.373 11.407 45.386 17.554 12.589 5.155 25.643 11.822 38.77 15.363 16.204 4.371 36.45 4.897 52.83 1.412 14.651-3.117 29.163-11.044 42.897-17.011l73.915-32.206c9.721-4.192 15.372-5.46 24.135-12.045 1.215-.913 1.717-1.651 3.301-1.565.058 3.068-.129 5.963-1.005 8.917-.7.958-1.41 1.907-2.181 2.811-2.029 2.375-4.854 3.909-7.618 5.271-19.629 9.669-40.618 17.466-60.664 26.333l-40.504 17.932c-7.734 3.425-15.491 7.263-23.451 10.102-7.017 2.503-14.424 3.592-21.828 4.138-12.582.929-26.06.547-38.326-2.577-8.039-2.047-15.82-5.49-23.536-8.509l-36.57-14.269c-33.991-13.074-68.547-25.251-102.27-38.939-3.174-1.288-7.093-2.527-9.6-4.918-4.086-3.894-3.871-8.807-4.003-14.005z"/>
  <path fill="#BAE0C8" d="M242.949 487.299c1.16-.09 1.861.214 2.925.647 5.341 6.352 15.729 64.385 17.231 75.284.764 5.54.994 11.02 1.063 16.607-.159.123-.316.249-.478.37-13.724 10.264-41.117 7.9-57.019 5.6-8.104-1.447-15.517-3.804-23.186-6.715 1.407-17.61 13.248-64.545 19.896-81.511 9.974-.764 32.079-3.661 39.568-10.282z"/>
  <path d="M238.57 524.822c.231 0 .469-.054.695-.001 1.209.283 1.313.949 1.689 1.963-3.436 3.661-25.55 3.997-31.507 4.336l-2.148-.077-.88-1.207.337-1.383c1.938-1.275 26.136-1.961 31.814-3.631z"/>
  <path fill="#BAE0C8" d="M239.377 470.343c.091 4.049.826 9.593-.542 13.366-.782 2.16-2.195 3.565-4.342 4.378-12.854 4.868-55.069 11.036-66.789 4.783-3.648-1.946-5.313-5.603-6.494-9.375-5.015-16.011-6.174-64.215 1.855-78.965 5.092-9.354 15.189-12.703 24.69-15.637q.813 2.68 1.905 5.258c2.455 5.935 6.703 13.966 12.719 17.02 2.035 1.033 4.447 1.076 6.588 1.964-.806 1.792-1.555 3.325-1.705 5.302 1.433.77 1.749.396 3.271-.027 2.348 1.641 4.628 3.355 6.907 5.09l.636-.244c2.981 4.152 11.848 6.048 16.045 10.678 6.059 6.684 12.078 25.889 11.569 34.809-2.286.872-46.042-4.308-52.363-5.17.201-9.519.212-37.243-2.965-45.047-.451-1.109-.549-1.414-1.656-1.923-1.532 3.76 1.182 38.679 1.265 46.698-3.704.079-9.959-.314-12.964 1.886l.738.786c6.157 2.054 14.932 1.251 21.489 1.759 15.472 1.199 23.603 3.384 40.143 2.611z"/>
  <path fill="#1CBB83" d="M297.793 573.382c.404.516.561.653.813 1.353 1.544 4.287 1.53 11.015 2.073 15.632q4.889 41.289 5.591 82.861c.237 19.238-.526 38.322-.836 57.532-.197 12.173 1.321 31.94-3.033 43.277-.665 1.732-1.863 2.624-3.572 3.284-5.997 2.317-14.524-.284-20.176-2.506l-1.612-10.37c-5.081-35.61-8.145-71.515-13.324-107.082-1.673-11.485-3.918-22.836-6.198-34.213-2.362-11.787-5.44-23.202-4.675-35.3 6.416-1.495 10.796-3.529 16.265-7.218 10.202.655 19.576-3.122 28.684-7.25zm-104.554 12.779c17.979 5.358 36.98 5.755 55.355 2.524.066 63.249-21.438 113.91-49.895 168.989-3.467 5.915-6.159 13.729-10.865 18.677-2.168 2.28-4.86 3.382-7.992 3.448-5.08.106-12.34-2.571-15.619-6.567-.103-.125-.777-1.007-.803-1.331-.349-4.403 7.181-27.483 8.634-34.289 4.927-23.065 10.932-45.862 15.831-68.921 2.194-10.326 4.657-20.769 5.62-31.29 1.575-17.204-.318-34.049-.266-51.24z"/>
  <path fill="#1CBB83" d="M227.033 730.942c12.786-2.329 29.889 1.405 42.352 4.651 2.512 13.257 3.666 26.955 5.682 40.325 1.472.901 2.686 1.691 3.857 2.968-.478 4.705-3.423 8.697-4.508 13.247-.611 2.562-1.004 6.241.584 8.542 4.987 7.223 34.645 17.254 43.683 19.068 7.744 1.554 18.176 1.632 24.897-3.174 1.608-1.149 3.154-2.695 3.35-4.768.938-9.951-24.026-18.18-30.741-22.547-4.827-3.139-8.883-7.634-12.453-12.09.248-.402.484-.811.739-1.209 4.226-6.575 4.059-14.451 4.255-22.008l73.654 29.66c11.858 4.755 24.506 8.959 35.939 14.57 3.039 1.492 6.406 3.505 8.75 5.976 1.356 1.43 2.075 3.139 1.868 5.127-.311 3.002-2.743 5.466-5.027 7.201-7.084 5.383-16.946 8.144-25.127 11.603l-36.983 15.869-46.829 20.345c-9.437 4.174-19.523 9.796-29.526 12.248-14.965 3.669-29.465 3.031-44.578.926q-3.144-.616-6.243-1.425c-8.787-2.364-17.488-6.495-25.964-9.843l-49.883-19.681-61.416-23.362c-9.73-3.713-19.971-7.035-29.39-11.455-3.441-1.616-8.34-4.469-10.128-7.982-.712-1.401-1.03-3.484-.351-4.957 1.52-3.299 6.598-6.52 9.638-8.294 14.614-8.529 31.442-14.945 46.921-21.9 17.568-7.893 34.922-16.521 52.891-23.475-1.76 6.114-6.982 19.821-6.438 25.529.202 2.121 1.292 4.247 1.748 6.344.751 3.458-6.741 9.441-8.572 12.558-1.213 2.065-1.675 4.525-.923 6.835 3.039 9.337 25.15 23.464 34.096 27.879 8.594 4.242 19.59 7.562 29.045 4.02 2.295-.859 4.659-2.46 5.619-4.81 3.059-7.49-11.834-15.469-16.547-19.105-4.955-3.822-15.796-12.893-17.68-18.869-1.103-3.5 4.09-8.215 6.157-11.076 7.191-9.952 16.876-31.152 22.668-42.774 3.637-.114 7.282-.438 10.914-.687z"/>
  <path d="M1062.52 411.397c-.15-.074-.3-.15-.45-.223-11.32-5.371-25.09-8.505-37.09-12.279l-65.065-20.675c-11.947-3.741-25.762-6.776-36.426-13.494-6.591-4.153-11.216-9.514-13.881-16.914-3.411-9.473-1.437-73.081-1.414-86.979l.095-136.935-.147-67.112c-.058-11.136-.682-22.532-.219-33.647.155-3.73.845-7.504 2.482-10.881q.207-.429.436-.846t.479-.822q.25-.404.521-.796.271-.39.561-.767.291-.377.601-.738.309-.361.637-.706.328-.344.674-.671.345-.328.707-.636.362-.31.74-.599.377-.29.769-.559.392-.27.797-.519.406-.249.823-.476.418-.228.847-.434t.868-.389q.439-.183.887-.343.447-.16.903-.298c4.65-1.422 8.94-.022 13.427 1.282 20.541 5.968 40.706 13.374 61.09 19.876L1151.82 73.33l78.75 24.672c10.66 3.391 24.16 6.125 33.89 11.557 6.79 3.789 12.44 11.198 14.52 18.666 3.05 10.992 1.37 36.781 1.36 49.112l-.05 91.107.02 119.095c.02 20.659.86 41.718-.07 62.336-.2 4.418-.43 8.828-2.72 12.727q-.27.463-.56.911-.29.449-.6.882t-.65.85q-.33.416-.69.815-.35.399-.73.78-.37.38-.77.741-.39.361-.8.701-.42.34-.84.659-.43.319-.88.615-.44.297-.9.57-.46.274-.93.524-.47.25-.96.475-.48.225-.98.426-.49.2-1 .375-.5.175-1.02.324-.51.149-1.03.272c-2.37.579-4.9.86-7.31.429-7.61-1.356-15.46-4.497-22.82-6.866l-46.36-15.087c-7.09-2.271-14.3-4.991-21.53-6.714 1.92 3.786 1.87 41.166.43 45.733-.15.471-.2.575-.37.987 8.14 1.198 34.71 9.447 42.2 13.212 2.81 1.41 5.54 3.316 7.47 5.82 1.32 1.712 1.88 3.408 2.15 5.536 2.02 16.327.53 38.233.45 55.127l-.05 99.551-.08 182.8c.01 8.538.99 52.381-.19 56.238-.26.827-.32.829-.74 1.433-3.87 2.989-93.02 40.219-99.15 41.187-27.34-11.065-55.5-20.503-83.21-30.636q-49.428-18.559-99.078-36.514l.062-158.295c.145-34.093.682-68.263-.017-102.349-8.642-3.046-38.315-11.116-41.941-18.713-1.682-3.524-.539-8.322.909-11.775 3.188-7.605 8.414-14.853 12.718-21.918l25.718-41.862c17.561-28.55 33.776-58.232 52.19-86.215 1.363-2.071 4.385-7.026 6.775-7.953 2.135-.827 6.829.152 9.024.666 6.21 1.453 56.29 17.04 59.36 19.123 3.69-9.35-2.15-35.108 1.54-42.242.43-.948.33-.878.19-1.827z"/>
  <path fill="#BAE0C8" d="M1062.52 411.397c5.06 1.259 17.2 3.96 21.09 6.905 1.36 3.444 1.61 41.095.2 44.582-.09.227-.2.447-.3.67-4.7-3.018-13.92-5.969-19.42-6.623 2.12-5.257 1.48-35.855.87-42.752-.94-.662-1.48-.832-2.63-.955.43-.948.33-.878.19-1.827zm79.43 26.263c5.01-.755 16.27 3.306 20.95 5.651.42 1.005.77 1.961.88 3.052.41 4.259.73 39.349.04 41.38-.14.407-1 1.223-1.31 1.597-6.67-2.491-13.53-4.754-20.46-6.426.15-.263.39-.656.5-.962 1.3-3.864.84-40.599-.6-44.292z"/>
  <path fill="#FEFEFE" d="M1087.26 420.321c5.42-.72 44.58 12.031 50.97 15.131.28.523.52.984.65 1.568 1.18 5.034.94 35.71.55 41.777-.06 1.003-.4 1.533-.94 2.341-7.5-.238-40.36-14.291-51.59-16.908 1.45-3.593 2-39.994.36-43.909z"/>
  <path fill="#1CBB83" d="M1213.84 530.33c.53.39.82.836 1.21 1.362 1.14 13.13.14 27.059.16 40.28l.11 83.32-.06 160.963c-.04 28.208.3 56.466-.14 84.669-.04 2.643.11 5.07-1.03 7.53-1.58 1.803-83.54 36.603-92.84 39.415-.25-.292-.6-.524-.77-.876-.93-1.995-.03-194.829-.03-214.63 0-8.785 1.14-47.481-.83-52.764 2.81-1.51 4.66-4.911 6.38-7.524 20.51-31.308 39.35-63.849 59.1-95.66l19.81-31.836c2.88-4.606 6.71-9.325 8.93-14.249z"/>
  <path fill="#BAE0C8" d="M994.981 438.593c8.189-.357 140.849 45.347 158.199 51.066 16.97 5.591 34.47 10.159 51.22 16.354 4.2 1.55 7.82 4.12 9.62 8.351 1.24 2.927 1.49 5.608.29 8.562-2.17 5.375-6.33 10.713-9.45 15.625q-9.07 14.133-17.91 28.41-19.21 30.586-38 61.428c-8.8 14.374-17.31 29.075-26.65 43.099-1.69 2.533-3.39 5.742-6.31 6.918-2.12 1.387-4.35 1.113-6.73.643-6.98-1.38-14.19-4.694-20.95-7.054q-19.91-6.954-39.91-13.672l-70.546-23.758c-23.149-7.64-46.75-15.015-69.442-23.921-2.519-.988-9.699-3.894-10.875-6.519-.788-1.76-1.02-4.372-.487-6.229 2.336-8.145 9.449-17.363 13.903-24.692l33.38-54.082c15.082-24.772 28.883-50.561 44.872-74.746 1.683-2.545 2.998-4.298 5.776-5.783z"/>
  <path d="M995.681 457.213c9.109.738 18.629 4.901 27.299 7.762l55.13 18.798c32.59 10.904 65.76 20.407 98.18 31.713 2.51.875 7.19 2.213 9.02 4.238 1.55 1.721 1.62 4.91 1.06 7.011-1.61 5.995-10.82 17.765-14.47 23.519l-45.87 71.873c-6.16 9.737-11.69 19.952-17.98 29.578-1.09 1.667-2.1 2.975-3.88 3.963-.99 1.067-1.28 1.47-2.78 1.763-2.69.528-6.19-.747-8.75-1.537-15.9-4.887-31.71-10.922-47.39-16.48l-67.217-23.468c-12.439-4.338-51.8-15.831-60.384-21.647-1.14-1.897-1.901-2.802-1.654-5.102.28-2.603 1.753-5.516 2.994-7.795 9.234-16.959 20.201-33.318 30.078-49.946 13.395-22.552 26.229-45.966 40.784-67.747 1.683-2.518 3.553-4.51 5.83-6.496z"/>
  <path fill="#FEFEFE" d="M996.46 461.367a42.77 42.77 0 019.32 1.691c43.12 12.904 85.24 29.53 128.32 42.649 6.99 2.128 45.02 12.834 47.99 15.812.71.715.84 1.468.75 2.454-.23 2.416-1.86 5.378-3.1 7.458-16.01 26.897-33.82 52.991-50.61 79.421q-8.05 12.538-15.85 25.228c-2.69 4.43-5.23 9.815-8.4 13.87-.59.751-1.19 1.168-1.95 1.719-.22.773-.63 1.152-1.14 1.759-3.17 1.029-6.21-.165-9.29-1.061-11.81-3.432-23.5-8.013-35.12-12.089l-68.187-24.044q-20.229-7.103-40.566-13.889c-9.669-3.266-19.706-6.243-28.935-10.632-.126-.564-.201-.752-.22-1.292-.087-2.561 1.863-6 3.08-8.211 11.076-20.13 24.046-39.655 35.832-59.418l22.783-38.114c4.602-7.65 9.081-16.927 15.293-23.311z"/>
  <path d="M1087.78 505.66c5.12-.83 18.72 4.942 23.24 7.877-.09 1.988-.99 4.326-2.15 5.973-1.42 2.023-2.05 2.422-4.32 2.941-7.86-1.642-16.5-4.842-23.71-8.345 2.65-1.964 4.91-5.797 6.94-8.446z"/>
  <path fill="#BAE0C8" d="M1099.03 511.771c2.88-.111 5.88.022 8.11 2.025.6 1.893.47 1.98-.17 3.75-1.17 1.24-2.25 2.165-4.05 2.199-1.9.037-3.29-1.1-4.7-2.227l-.95-2.812c.8-.961 1.24-1.807 1.76-2.935z"/>
  <path fill="#BAE0C8" d="M1088.24 507.362c2.85.749 9.31 1.959 10.79 4.409-.52 1.128-.96 1.974-1.76 2.935.05.617-.08 1.328-.14 1.948l-1.05.568c-4.05-.251-7.34-2.084-10.76-4.063.13-2.097 1.97-3.153 2.68-5.107.09-.228.16-.46.24-.69z"/>
  <path d="M1059.14 554.32c.28-.06.57-.131.85-.18 3.33-.571 14.07 4.084 16.95 6.441 1.42 1.154 1.77 1.695 1.86 3.457-1.99 4.616-7.52 12.861-12.18 14.972-3 1.063-8.85-1.815-11.65-3.079-2.83-1.275-4.78-2.533-5.9-5.502-.02-5.48 6.68-12.015 10.07-16.109z"/>
  <path fill="#1CBB83" d="M1060.72 558.328c4.21-.055 10.77 2.711 14.07 5.243-.04.648-.06 1.122-.32 1.729-1.49 3.47-4.89 8.247-8.45 9.71-4.62 1.294-10.96-2.704-15.29-4.428 4.15-3.748 4.84-8.876 9.99-12.254z"/>
  <path d="M1076.8 526.991c1.3-.284 2.61-.542 3.93-.281 5.02.998 15 4.045 18.1 8.366.04 1.755-.66 3.043-1.51 4.527-1.84 3.202-6.45 10.719-10.08 11.674-.64-.03-1.27-.077-1.9-.169-5.29-.773-15.2-3.56-18.51-7.996-.78-6.138 7.51-10.169 9.66-15.315.11-.266.21-.537.31-.806z"/>
  <path fill="#FEFEFE" d="M1079.07 530.333c4.3-.118 12.99 3.651 16.48 6.188-2.59 3.798-5.76 10.023-10.46 11.119-3.92-.789-10.05-1.975-12.59-5.252-.55-3.879 1.18-4.174 3.05-7.154.65-1.038.88-2.694 1.41-3.861l1.06.318 1.05-1.358z"/>
  <path d="M1037.21 583.642c.93-.19 1.85-.365 2.81-.37 4.7-.022 14.73 3.703 18.14 6.83.62 1.656.61 2.355-.02 4.037-1.82 4.879-7.41 14.042-12.11 16.212-1.56.408-3.17-.123-4.68-.591-4.45-1.38-12.85-2.953-15.13-7.34-.49-6 8.46-12.177 10.68-17.923.11-.283.2-.57.31-.855z"/>
  <path fill="#BAE0C8" d="M1039.02 586.971c4.56-.491 11.69 3.044 15.37 5.595.28 1.535-.71 2.997-1.43 4.31-1.8 3.298-4.67 8.798-8.43 9.872-5.34-1.11-10.79-3.268-15.95-5.048 3.27-2.399 9.14-10.9 10.44-14.729z"/>
  <path d="M1006.09 477.71c4.33.053 48.33 14.484 50.85 16.577.12.579.2.742.08 1.407-.84 4.772-25.48 42.134-29.75 44.417-.32.213-.39.289-.86.378-1.64.312-45.939-13.977-48.393-15.972-.809-.657-.727-.397-.79-1.306-.421-6.045 23.733-39.831 28.863-45.501z"/>
  <path fill="#FEFEFE" d="M1007.53 480.935c5.14 1.113 10.48 3.388 15.54 4.997 9.98 3.177 20.51 5.964 30.15 10.033 0 .132.02.263 0 .394-.39 4.376-23.38 37.606-26.84 40.179l-.27.385c-1.86.684-41.473-13.22-45.955-14.998 9.193-13.596 17.553-27.84 27.375-40.99z"/>
  <path d="M969.79 535.328c5.4.349 48.89 13.95 51.87 16.647.01.269.04.829-.03 1.132-.32 1.468-24.64 39.361-27.063 42.74-.921 1.284-1.909 2.282-3.162 3.249-6.549-.632-46.893-14.307-52.51-17.792.009-1.031.136-1.602.547-2.574 3.063-7.262 21.568-36.083 26.816-41.333.974-.974 2.278-1.548 3.532-2.069z"/>
  <path fill="#BAE0C8" d="M969.199 539.16c7.839-.801 37.911 11.395 48.571 14.054-8.09 14.526-18.612 27.894-26.963 42.351-5.033-.712-10.775-3.321-15.623-4.975-10.949-3.734-21.86-7.574-32.944-10.889 8.46-13.331 16.976-28.361 26.959-40.541z"/>
  <path d="M1127.01 524.329c5.06-1.113 22.73 4.891 27.89 7.039 2.73 1.136 4.72 2.36 5.83 5.133-3.63 7.182-57.99 89.801-59.9 91.049-2.27 1.48-5.15.523-7.63.05-6.87-3.668-16.03-5.376-23.48-7.858-2.88-.956-7.85-2.171-9.3-5.051 2.35-8.594 57.22-78.104 66.59-90.362z"/>
  <path fill="#FEFEFE" d="M1128.03 527.664c.16-.022.32-.05.48-.067.27-.027.54-.039.81-.064 4.57-.431 23.65 5.551 27.17 7.912q-.56 2.04-1.62 3.872c-1.48 2.585-10.39 16.92-11.83 17.871-.56.364-1.29.32-1.93.48-8.98-3.608-19.18-6.272-28.46-9.145 4.69-3.328 12.55-15.636 15.38-20.859zm-17.87 23.999c5.35.205 23.01 7.534 29.53 9.412-.06 1.979-1.69 4.042-2.72 5.682-2.04 3.273-10.36 16.978-12.94 18.558-.44.268-1.64.378-2.19.504-3.58-3.013-24.87-9.092-30.45-10.446 4.1-2.477 16.85-19.171 18.77-23.71zm-20.71 27.33c4.83-.508 26.79 7.047 31.57 9.815.02 3.681-17.74 29.814-20.94 33.959-1.46 1.882-1.77 1.912-4.01 2.237-7.41-3.928-23.66-8.281-32.53-11.217 3.83-2.697 24.56-30.677 25.91-34.794z"/>
  <path fill="#1CBB83" d="M940.012 625.29c26.494 10.293 54.125 18.351 81.028 27.574l58.18 19.716c8.22 2.793 16.85 6.793 25.23 8.727 3.93.909 8.26.959 12.29 1.415 1.51 6.255.37 14.701.38 21.268l.07 48.042.01 125.432c-.01 21.809.65 43.859-.15 65.633-.06 1.558-.28 2.516-.98 3.911-4.15.243-158.304-57.869-176.305-64.421l.247-257.297zM922.103 5.473c5.123-.272 9.588 1.024 14.463 2.46 23.121 6.81 45.996 14.962 68.954 22.368L1139.41 73q46.1 14.223 92.03 28.983c8.94 2.877 24.09 6.093 31.57 10.744 6.72 4.178 11.32 11.347 13.05 18.99 2.57 11.373 1.04 28.862 1.04 40.877l-.15 83.604.04 127.641c.01 21.294.81 42.938-.12 64.196-.2 4.621-.49 9.973-3.21 13.885-2.67 3.85-6.57 6.218-11.13 7.081-2.92 1.22-7.37.349-10.37-.47-21.51-5.868-42.89-13.924-64.13-20.757l-135.94-43.662-80.671-25.813c-13.195-4.184-27.559-7.362-40.201-12.997-6.822-3.041-12.505-7.714-16.198-14.238-2.817-4.976-3.448-9.453-3.685-15.115-.55-13.168.04-26.554.071-39.744l.265-87.074-.393-134.043c-.022-12.207-1.489-50.528 1.098-58.832 1.493-4.794 5.422-8.492 9.727-10.783z"/>
  <path d="M934.416 23.393c4.623-.486 8.602.701 12.986 2.008 29.366 8.752 58.448 18.632 87.658 27.93q69.98 21.892 139.69 44.63 25.61 8.418 51.39 16.27c6.97 2.188 15.52 3.81 22.01 7.052 3.22 1.614 7.59 5.206 8.59 8.755 3.36 11.869 1.64 33.575 1.61 46.517l.01 61.501.01 140.815c0 23.756.59 47.723-.03 71.454-.06 1.986-.27 3.097-1.27 4.817-2.06 1.003-3.1.529-5.25.17-4.88-3.228-50.35-16.45-59.47-19.336L1023.1 382.18l-51.172-16.39c-10.029-3.16-20.473-5.869-30.256-9.675-3.406-1.326-5.799-2.52-8.189-5.368-3.111-3.709-4.606-7.802-5.022-12.596-1.642-18.93-.532-38.74-.534-57.758l-.048-108.953.025-100.385c.08-12.588-1.242-25.952.007-38.438.444-4.435 3.267-6.608 6.505-9.224z"/>
  <path fill="#FEFEFE" d="M936.619 26.567c9.203 1.114 18.894 5.236 27.798 7.995l70.883 22.686 151.72 48.445c18.93 6.132 38.54 11.12 57.18 18.03 3.4 1.263 5.87 3.093 8.28 5.841 2.22 2.531 1.97 7.208 2.08 10.402.72 19.838.04 39.959.01 59.827l.08 110.426.05 97.514c-.08 14.415.64 29.195-.36 43.562-1.18.662-3.24-.05-4.61-.294-6.38-3.885-48.33-15.57-58.7-18.848l-178.38-56.747q-21.423-7.047-42.958-13.743c-8.686-2.714-17.731-5.101-26.206-8.403-2.996-1.167-5.357-2.382-7.489-4.886-3.399-3.988-3.947-8.343-4.277-13.369-1.297-19.746-.182-44.091-.163-64.327l-.311-115.161q-.29-46.249.239-92.494c.112-9.717-1.334-20.339-.154-29.927.414-3.367 2.778-4.608 5.288-6.53z"/>
  <path d="M1089.62 337.659c.65-.047.62-.064 1.39-.007 2.48.181 54.03 15.944 55.55 17.127.45.349.78.834 1.17 1.25-.25 1.528-.65 1.583-1.8 2.551-8.34-2.413-53.27-15.226-56.54-19.108l.23-1.813zM946.225 53.767c4.89.744 60.035 17.543 61.545 19.068.67.672.3 2.3.26 3.213-8.566-1.803-17.115-4.936-25.494-7.49-11.704-3.567-23.573-6.814-35.08-10.98-1.373-1.524-1.156-1.833-1.231-3.812zm-.463 24.672c.754.008 1.466.076 2.206.23 10.573 2.194 21.348 6.513 31.73 9.603 16.152 4.808 32.962 8.908 48.842 14.451 1.82.638 3.69 1.136 4.79 2.758l-1.3 1.611-.94.284c-9.12-2.454-82.095-23.71-84.575-25.909-.918-.813-.672-1.854-.753-3.028zm143.728 233.477c7.9 1.309 15.92 4.457 23.57 6.831l50.66 16.076 47.23 14.552c5.65 1.745 13.84 3.174 18.72 6.128l.38.574-.1 1.253c-.63.283-.7.367-1.51.422-2.65.184-122.95-37.523-132.62-40.69-1.74-.571-3.78-1.156-5.23-2.296-1.03-.806-.89-1.625-1.1-2.85z"/>
  <path fill="#BAE0C8" d="M1090.18 190.326c1.24-.194 2.52-.224 3.75.023 11.11 2.226 22.63 7.071 33.45 10.542 14.92 4.79 30.3 8.803 44.94 14.364l.67 1.69c-.52 1.943-.74 2.096-2.15 3.39-5.44.022-73.69-22.281-80.12-25.351-.92-1.915-.71-2.587-.54-4.658zm1.04-90.664c6.63-.275 79.72 24.791 90.45 28.152 14.5 4.541 29.78 7.986 43.93 13.431 2.12.816 4.66 1.647 5.65 3.858-.45 1.571-.61 1.576-1.94 2.566-5.03.456-127.56-38.458-137.7-43.374-1.15-1.997-.77-2.428-.39-4.633zm-.94 31.326c.69-.177 1.37-.324 2.09-.348 3.99-.134 121.98 37.819 133.18 41.856 2.09.752 3.73 1.437 5.38 2.979.39 1.848-.04 1.997-.99 3.553l-.28.387c-4.83.014-135.92-42.604-137.85-43.972-1.63-1.154-1.33-2.632-1.53-4.455zm-1.14 30.003c.96-.251 2.02-.417 3.01-.382 6.9.243 17.64 5.356 24.65 7.503q48.77 14.929 97.17 31.031c3.73 1.219 7.61 1.99 11.33 3.254 2.09.708 3.95 1.449 5.51 3.057.38 1.845-.02 2.12-.85 3.752l-.51.268c-4.47-.432-135.57-41.667-138.54-43.658-1.44-.972-1.46-3.226-1.77-4.825z"/>
  <path fill="#1CBB83" d="M1089.49 311.916c1.71-2.392.79-4.836 2.5-6.994 2.63-.249 127.14 37.746 138.14 42.965 1.21 2.591 1.2 4.62.25 7.317-.1.295-.21.585-.33.873l-.38-.574c-4.88-2.954-13.07-4.383-18.72-6.128l-47.23-14.552-50.66-16.076c-7.65-2.374-15.67-5.522-23.57-6.831z"/>
  <path d="M947.722 279.202c6.533.462 117.718 35.706 121.798 38.327.56.886.87 1.563 1 2.616.79 6.649.66 53.83-.47 59.001l-2.38 1.197c-2.5.386-111.193-34.063-120.945-38.009-1.015-11.516-.307-23.736-.366-35.342-.041-7.87-.951-17.009.109-24.761.175-1.275.53-1.988 1.254-3.029z"/>
  <path fill="#FEFEFE" d="M949.775 282.934c25.813 7.003 51.175 15.82 76.695 23.818 9.61 3.012 31.79 8.71 39.64 13.04.36.552.43.589.65 1.323.94 3.028.79 48.157.05 52.555-.16.96-.49 1.573-.94 2.426-1.97.991-103.258-31.826-115.697-35.721-.749-7.081-.418-14.466-.42-21.583l.022-35.858z"/>
  <path d="M1090.36 220.324c1.78-.39 3.04-.419 4.82.047 9.59 2.507 19.07 5.844 28.55 8.774l57.23 17.71c11.11 3.437 42.21 11.407 49.73 16.004.36.647.61 1.092.76 1.826.77 4.01.69 51.929-.17 54.616-.14.451-.96 1.284-1.27 1.701-7.1 1.083-119.49-37.546-140.06-42.11 1.27-2.512 1.11-52.905.41-58.568z"/>
  <path fill="#FEFEFE" d="M1093.5 224.323c.13-.007.27-.012.41-.021 1.15-.081 2.16-.088 3.29.226 28.1 7.821 55.85 17.262 83.77 25.743l30.38 9.258c5.17 1.579 11.14 2.837 15.96 5.249.37.635.7 1.169.83 1.906.92 5.216.86 47.907-.96 50.331-7.02-.212-27.46-7.865-35.04-10.213-32.92-10.197-65.82-21.249-98.99-30.551.13-.274.27-.545.39-.823 1.14-2.612 1.09-48.068-.04-51.105z"/>
  <path d="M949.059 110.163c6.104.681 12.436 3.155 18.327 4.931l30.416 9.183 44.848 13.309c7.32 2.132 14.84 3.923 22.06 6.366 2.11.714 4.1 1.586 5.75 3.115.92 2.261 1.24 4.508 1.3 6.93.37 14.017-.58 28.179-.55 42.221.04 23.264.86 46.638.36 69.89-.04 1.808.08 4.458-.73 6.098-.41.845-2.08.913-2.97 1.121-4.82-2.853-20.49-6.617-26.83-8.609-14.49-4.55-28.89-9.446-43.453-13.761-17.194-5.096-35.185-9.768-51.865-16.362-.693-27.382-.024-54.91-.087-82.309-.025-10.789-1.731-26.052-.187-36.302.369-2.449 2.014-4.055 3.611-5.821z"/>
  <path fill="#1CBB83" d="M948.853 113.505c14.3 2.297 31.857 9.306 46.26 13.592l47.977 14.278c8.01 2.434 16.27 4.452 24.07 7.495.71 1.078 1 1.971 1.17 3.263.36 2.872.58 7.911-1.27 10.215-7.77-.61-27.67-7.829-35.91-10.293l-82.662-24.675c-.042-4.654-.049-9.232.365-13.875z"/>
  <path fill="#FEFEFE" d="M948.907 130.976c5.888 1.377 11.749 3.63 17.57 5.351q19.657 5.702 39.233 11.674c20.42 6.21 41.22 11.608 61.47 18.279.2.349.53.888.66 1.298 1.35 4.044.68 98.294-.43 101.095-1.36.636-106.052-32.473-118.385-36.494q-.344-50.603-.118-101.203z"/>
  <path d="M989 150.855c1.138-.107 2.278-.18 3.422-.156 10.748.223 28.278 7.838 35.568 15.733 4.89 5.295 8.08 11.856 7.67 19.183-.48 8.794-6.33 12.892-12.34 18.275-1.33 5.39-2.05 8.709-6.63 12.273-1.14.884-2.19 1.542-2.96 2.799 1.24 3.923 6.86 5.829 8.69 9.968-.09 1.211.08 1.767-.68 2.774-2.56 3.421-10.49 5.496-14.62 6.121q-1.78.279-3.59.318c-8.23.164-27.936-4.502-33.681-10.726-1.086-1.175-1.115-1.899-1.07-3.433 2.438-2.377 6.557-3.803 9.651-5.267-6.416-9.454-13.877-21.699-15.889-33.039-1.372-7.732.989-15.01 5.547-21.287 5.593-7.702 11.482-12.053 20.912-13.536z"/>
  <path fill="#FEFEFE" d="M997.193 195.924c1.034.083 1.949.406 2.937.704 1.05 1.177 1.04 1.096 1.02 2.671-1 2.018-2.062 2.691-4.02 3.727-1.173-.491-2.508-.954-3.467-1.808-1.112-.991-1.055-1.283-1.166-2.68 1.468-1.661 2.691-1.888 4.696-2.614z"/>
  <path fill="#BAE0C8" d="M980.898 220.787c4.153 1.417 7.804 3.65 12.189 4.507 6.403 1.25 11.213-.495 16.433-3.955 1.96 2.303 3.74 3.137 6.06 4.845 1.52 1.111 2.11 1.427 2.36 3.273-1.38 2.016-3.55 2.7-5.7 3.676q-2.09.612-4.21 1.097c-11.257 2.504-26.01-2.775-35.418-8.733 2.691-1.767 5.409-3.267 8.286-4.71z"/>
  <path fill="#FEFEFE" d="M997.874 177.117c.234.097.494.149.703.293.812.563 14.113 12.084 14.143 12.119.26.337.4.977.44 1.353.32 2.763-2.22 6.654-4.08 8.475-4.46 1.239-4.78-3.957-8.29-5.45-2.347-.993-6.529-.707-8.761.496-1.664.897-2.007 1.681-2.663 3.387.161 1.505.382 2.859 1.267 4.13 4.673 6.71 15.047-1.84 20.817-.897 1 2.865-.18 7.392-.58 10.431-.24 1.56-.48 3.171-1.04 4.653-.88 2.332-2.43 3.41-4.63 4.428-4.98 2.315-10.469 2.294-15.595.393-6.143-2.278-11.461-6.853-14.201-12.853-3.263-7.15-1.469-11.054 1.044-17.996l-1.723-.568-.209-1.265-.31.741c2.567-1.07 5.173-1.103 7.892-1.416 6.619-.764 11.531-5.745 15.776-10.454z"/>
  <path d="M983.612 211.685c.8.09 1.428.238 2.158.586 3.159 1.508 6.101 2.105 9.581 2.316l.786.042.428 1.686c-.734.422-.656.396-1.527.798-2.041.941-4.528.976-6.589.056-2.504-1.118-3.821-3.034-4.837-5.484z"/>
  <path fill="#1CBB83" d="M987.005 154.77c2.807-.253 5.908-.427 8.708-.055 11.567 1.535 24.887 7.171 31.977 16.637 3.26 4.345 5.78 9.79 4.76 15.337-1.11 6.071-5.74 9.828-10.48 13.15l-5.65-3.883.16-7.933c-1.75-1.658-3.63-3.105-5.53-4.579-5-3.166-9.1-7.121-13.25-11.297q-.725.931-1.492 1.827c-7.017 8.275-12.709 10.163-23.305 10.966-2.485 1.508-4.554 3.567-6.698 5.514-1.66-7.955-1.318-14.696 2.735-21.953 4.183-7.49 9.965-11.428 18.065-13.731z"/>
</svg>
