<svg xmlns="http://www.w3.org/2000/svg" viewBox="0 0 1365 1024">
  <path fill="#fff" d="M0 0h1363.83c2.17 3.79 1.17 11.8 1.17 16.225l.01 794.091-.01 159.597c0 7.66 1.16 47.957-.41 52.627-.17.51-.5 1.01-.76 1.46H0V0z"/>
  <path fill="#BAE0C8" d="M939.724 937c6.005-2.33 12.363-4.108 18.472-6.195 1.143.628 2.382 1.167 3.246 2.168q-9.512 2.987-18.974 6.131L939.724 937zm201.136 9.071c7.86 1.681 35.6 1.807 39.92 4.612l2.38 1.656-3.79.412c-12.74-1.398-26.5-3.511-39.28-2.761.82-1.696.97-1.959.77-3.919z"/>
  <path d="M982.589 923.121c5.253-1.111 10.68-3.301 15.821-4.943l30.11-9.585c1.2.914 1.74 1.258 3.3 1.438l.06.061c-7.86 4.883-33.333 11.474-43.402 14.398-9.003 2.742-18.179 5.31-27.036 8.483-.864-1.001-2.103-1.54-3.246-2.168 8.178-2.338 16.296-5.076 24.393-7.684zM614.181 566.743c.109-1.509.282-2.576.817-3.99 3.692-2.48 75.912-22.529 83.666-23.665q-.945 3.352-1.848 6.715c-.35-.887-.261-1.399-1.207-1.777-4.198-1.68-56.081 15.395-64.248 18.096-5.79 1.265-11.406 3.469-17.18 4.621zm566.599 383.94c4.19.071 11.36 1.33 14.42 4.417.75.755.62 1.06.78 2.056-1.26 1.636-2.37 2.213-4.32 2.855-10.73 10.342-163.57 19.134-188.28 18.757-8.254.919-18.72 1.377-26.942.351l-.456-.999.795-.87c7.11-1.711 15.874-1.011 23.192-1.149 31.261-1.18 172.421-7.492 190.451-18.111l.85-1.242-.51-1.023c-3.23-1.896-7.72-2.277-11.39-2.974l3.79-.412-2.38-1.656zm-350.138 20.772c18.733-6.126 37.609-11.774 56.377-17.786 17.543-5.62 34.98-11.634 52.705-16.669l2.744 2.104-75.518 23.712c-11.333 3.603-23.328 6.574-34.349 10.929-4.109 1.382-8.106 2.708-12.438 3.187-14.476 1.601-29.315 1.569-43.87 1.929l-53.808 1.479c-28.449.621-56.892 1.88-85.345 2.31-30.458.461-60.958.041-91.422.106q-53.81.348-107.601-1.144c-11.069-.36-25.733.325-36.358-1.531l-11.914-.213.376-1.387a87.797 87.797 0 015.95-.556q8.663-.079 17.322.192c34.718-.488 69.564 1.358 104.3 1.413 37.282.059 74.648.307 111.924-.253 25.177-.379 50.348-1.494 75.531-1.785q41.12-.145 82.195-2.076c14.246-.64 29.396-.251 43.199-3.961z"/>
  <path fill="#BAE0C8" d="M396.171 977.925q8.663-.079 17.322.192c2.372.542 4.639.893 7.058 1.127-6.259.432-12.526.54-18.792.837l-11.914-.213.376-1.387a87.797 87.797 0 015.95-.556z"/>
  <path d="M806.561 96.479c18.105-14.546 42.748-26.884 64.389-35.259 37.143-14.374 76.495-19.473 113.744-3.052 9.758 4.092 44.346 24.7 48.146 32.967.09.195.07.423.11.634 6.58 3.536 13.13 12.402 18.01 17.986 27.26 31.212 49.07 69.298 66.75 106.646 5.93 12.541 10.51 25.901 16.9 38.165-.08 1.014.06 1.838-.59 2.648-1.51-.385-1.78-.771-2.55-2.167-2.35-4.237-3.66-9.396-5.59-13.865-3.91-9.019-8.14-17.94-12.34-26.825-16.53-34.958-36.88-69.226-61.64-99-4.55-5.475-12.9-16.555-19.06-19.682-.75-1.948-3.46-4.016-4.98-5.474-12.72-12.15-27.68-21.866-43.39-29.663-38.778-16.537-79.036-9.747-117.008 5.497-20.637 8.285-40.533 19.961-58.783 32.601-11.395 8.448-22.096 17.805-33.451 26.236q-11.489 9.988-22.492 20.508c-10.567 9.811-41.111 39.556-52.937 45.599-7.483 5.189-15.066 9.82-23.411 13.519-5.949 2.36-11.877 4.744-17.948 6.777-36.716 9.799-74.594.092-110.466-8.749-59.385-14.635-120.691-34.475-182.212-22.598-21.548 5.523-41.956 13.28-61.193 24.565-11.061 7.624-22.005 14.534-32.559 22.944-6.878 5.48-14.192 13.339-21.242 17.932-3.915 4.511-8.402 8.482-12.371 12.931-15.973 16.569-29.71 34.367-42.78 53.261-18.79 29.31-34.202 56.672-45.847 89.616l-3.244 10.293c-3.17 13.853-6.79 27.646-8.215 41.815-.792 7.884-.229 16.077-1.167 23.855.282 3.726.947 7.81.692 11.525.889 8.819 1.958 17.488 3.97 26.132 13.651 48.14 36.849 90.39 81.881 115.592 10.089 5.646 21.887 10.3 33.183 12.736.585 1.194 1.204 2.36 1.586 3.639-16.101-3.914-31.224-10.184-45.071-19.329-36.887-24.362-64.87-67.528-73.66-110.762-1.739-8.214-2.872-16.56-4.132-24.857-.311-2.051-.29-4.19-.381-6.264-4.151-23.153 3.6-57.058 9.852-79.34l2.532-6.932c9.307-31.931 27.238-62.156 46.196-89.239 10.646-18.9 26.256-37.032 41.23-52.709 5.477-5.616 10.848-11.516 16.824-16.6 8.224-11.382 37.746-30.511 50.63-38.238 19.966-11.008 38.534-19.908 60.889-24.934 58.918-16.552 142.675 12.568 201.518 25.878 29.341 6.637 58.795 12.729 88.688 6.007 7.252-1.75 14.145-4.467 21.029-7.292 8.06-3.927 15.567-8.499 23.092-13.357 2.319-2.841 13.351-10.357 16.884-13.37 12.303-10.49 23.817-21.814 36.055-32.333l22.202-19.921c10.501-9.348 21.893-19.11 33.728-26.693z"/>
  <path fill="#BAE0C8" d="M628.978 48.255c8.349-.137 16.329 2.11 22.931 7.36 8.955 7.123 13.799 18.126 15.062 29.313q.173 1.65.265 3.307.091 1.657.101 3.316.01 1.659-.062 3.317-.072 1.657-.226 3.31-.153 1.651-.388 3.294-.235 1.642-.551 3.271-.315 1.629-.711 3.24-.395 1.612-.87 3.201-.474 1.59-1.026 3.155-.553 1.564-1.181 3.1-.629 1.535-1.333 3.038-.703 1.502-1.48 2.968t-1.626 2.892q-.848 1.426-1.765 2.808-.918 1.382-1.902 2.718-.985 1.335-2.034 2.62c-11.009 13.75-25.232 22.399-42.858 24.274-9.894-.052-19.053-2.31-26.848-8.707-8.286-6.8-12.251-17.028-13.197-27.488-1.689-18.652 6.166-36.54 18.032-50.552 11.018-13.012 24.384-22.265 41.667-23.755z"/>
  <path fill="#fff" d="M641.412 78.586c1.472-.093 2.768-.037 4.188.424 2.113.686 2.796 1.82 3.668 3.674.067 1.747-.212 3.184-.88 4.807-4.09 9.935-13.965 19.399-20.387 28.006-3.467 4.648-6.178 9.95-10.051 14.282-1.313 1.468-2.499 2.402-4.329 3.141-4.641-.137-8.311-4.547-11.558-7.523-3.79-3.071-8.508-6.412-9.266-11.618-.273-1.871.133-2.584 1.13-4.114 1.146-.598 2.026-.986 3.342-1.003 5.931-.078 10.286 4.725 14.334 8.408 8.35-10.088 20.884-31.165 29.809-38.484zm176.24 881.797c17.279-6.605 234.338-74.714 235.978-74.398 1.15 3.732 2.64 9.723 1.1 13.406 1.09 2.119 1.27 2.199.73 4.487-2.79-1.068-18.96 5.552-23.58 6.214l-.06-.061c-1.56-.18-2.1-.524-3.3-1.438l-30.11 9.585c-5.141 1.642-10.568 3.832-15.821 4.943-8.097 2.608-16.215 5.346-24.393 7.684-6.109 2.087-12.467 3.865-18.472 6.195-17.725 5.035-35.162 11.049-52.705 16.669-18.768 6.012-37.644 11.66-56.377 17.786-13.803 3.71-28.953 3.321-43.199 3.961q-41.075 1.931-82.195 2.076c-25.183.291-50.354 1.406-75.531 1.785-37.276.56-74.642.312-111.924.253-34.736-.055-69.582-1.901-104.3-1.413q-8.659-.271-17.322-.192a87.797 87.797 0 00-5.95.556l-.376 1.387c-4.344.041-8.79-.367-13.136-.555-8.59.281-17.387-.374-25.976-.717q-25.321-.968-50.611-2.543c-25.656-1.498-51.041-3.154-76.621-5.774-13.36-1.368-27.054-2.543-40.198-5.353-6.061-1.296-11.199-3.021-16.588-6.091l-.98-2.066c.109-1.137.015-1.587.679-2.574 3.859-5.737 21.009-6.91 27.571-7.846 5.28 1.789 26.625-1.843 34.174-1.535l5.505-.916 4.658-.471c4.595.388 20.068 1.617 23.459-.878 7.074-1.158 15.107-.574 22.28-.62 19.585-.124 40.673.88 60.072-.955 3.278 1.519 6.658 2.942 9.858 4.613 4.424 1.824 10.66 6.159 15.343 4.23 1.364-1.423 2.359-2.873 3.376-4.558.656-1.831.441-2.871.006-4.741 10.38 2.207 23.218.847 33.897.81l54.429-.219c10.789-.041 21.708-.413 32.477.169l1.662 4.1c1.129 2.468 2.264 5.806 4.647 7.306 5.205 3.277 23.785-5.365 30.487-7.165 3.781-1.962 8.426-3.597 12.532-4.693 7.779 1.19 16.53.479 24.424.49l46.651-.044c-.079 1.618-.096 3.275-.278 4.884 7.086 2.205 15.515 2.087 22.91 2.592 14.222.973 28.477 1.539 42.689 2.628l94.975 7.098c11.552.805 32.56 4.082 43.434 1.909z"/>
  <path fill="#BAE0C8" d="M1054.73 899.391c1.09 2.119 1.27 2.199.73 4.487-2.79-1.068-18.96 5.552-23.58 6.214l-.06-.061c-1.56-.18-2.1-.524-3.3-1.438 4.55-.953 23.42-5.979 26.21-9.202z"/>
  <path d="M530.315 945.519c3.781-1.962 8.426-3.597 12.532-4.693 7.779 1.19 16.53.479 24.424.49l46.651-.044c-.079 1.618-.096 3.275-.278 4.884-8.718-1.881-19.395-.818-28.394-.741-18.32.155-36.617.72-54.935.104zm-157.599-5.001c10.38 2.207 23.218.847 33.897.81l54.429-.219c10.789-.041 21.708-.413 32.477.169l1.662 4.1c-16.773 1.215-34.049.267-50.87.288-23.869.031-47.748.744-71.601-.407.656-1.831.441-2.871.006-4.741zm-28.583.456c3.278 1.519 6.658 2.942 9.858 4.613-13.514 1.611-28.583.281-42.279.436-27.208.309-54.557 1.279-81.743 1.215-15.606.606-47.929.434-60.692 8.633 14.032 13.216 151.016 18.261 175.311 19.417 12.61.6 26.22.123 38.677 1.969 4.311.054 8.637-.006 12.906.668a87.797 87.797 0 00-5.95.556l-.376 1.387c-4.344.041-8.79-.367-13.136-.555-8.59.281-17.387-.374-25.976-.717q-25.321-.968-50.611-2.543c-25.656-1.498-51.041-3.154-76.621-5.774-13.36-1.368-27.054-2.543-40.198-5.353-6.061-1.296-11.199-3.021-16.588-6.091l-.98-2.066c.109-1.137.015-1.587.679-2.574 3.859-5.737 21.009-6.91 27.571-7.846 5.28 1.789 26.625-1.843 34.174-1.535l5.505-.916 4.658-.471c4.595.388 20.068 1.617 23.459-.878 7.074-1.158 15.107-.574 22.28-.62 19.585-.124 40.673.88 60.072-.955z"/>
  <path fill="#BAE0C8" d="M818.269 890.446q76.41-24.059 153.243-46.728l45.748-13.91c9.24-2.805 18.76-6.211 28.27-7.895 2.42 2.873 3.33 14.246 3.1 18.091-.04.782-.25 1.332-.52 2.06 1.98 3.407 6.6 39.824 5.71 43.284-.06.214-.12.425-.19.637-1.64-.316-218.699 67.793-235.978 74.398-10.874 2.173-31.882-1.104-43.434-1.909l-94.975-7.098c-14.212-1.089-28.467-1.655-42.689-2.628-7.395-.505-15.824-.387-22.91-2.592.182-1.609.199-3.266.278-4.884-.598-5.34-.063-11.288-.034-16.682.049-9.253-.144-18.604.249-27.848.086-2.026-.049-3.641 1.5-5.046-.479-.338-.782-.97-1.107-1.457-.149-3.98-1.211-16.392 1.167-19.218 17.486 1.34 34.94 3.654 52.384 5.487l91.831 9.357 35.522 3.589c6.278.63 12.723 1.623 19.023 1.71 1.456.02 2.473-.165 3.812-.718z"/>
  <path fill="#fff" d="M818.269 890.446q76.41-24.059 153.243-46.728l45.748-13.91c9.24-2.805 18.76-6.211 28.27-7.895 2.42 2.873 3.33 14.246 3.1 18.091-.04.782-.25 1.332-.52 2.06-4.92 3.003-12.72 4.281-18.39 6.015l-48.68 14.709-118.054 36.048c-15.116 4.554-30.237 10.173-45.509 14.059l-123.65-13.326c-26.034-2.816-52.067-6.015-78.19-7.873-.479-.338-.782-.97-1.107-1.457-.149-3.98-1.211-16.392 1.167-19.218 17.486 1.34 34.94 3.654 52.384 5.487l91.831 9.357 35.522 3.589c6.278.63 12.723 1.623 19.023 1.71 1.456.02 2.473-.165 3.812-.718z"/>
  <path fill="#1CBB83" d="M615.637 891.696c26.123 1.858 52.156 5.057 78.19 7.873l123.65 13.326c.048 15.825-.048 31.665.175 47.488-10.874 2.173-31.882-1.104-43.434-1.909l-94.975-7.098c-14.212-1.089-28.467-1.655-42.689-2.628-7.395-.505-15.824-.387-22.91-2.592.182-1.609.199-3.266.278-4.884-.598-5.34-.063-11.288-.034-16.682.049-9.253-.144-18.604.249-27.848.086-2.026-.049-3.641 1.5-5.046z"/>
  <path fill="#BAE0C8" d="M1259.16 544.726c2.11.014 3.86-.154 5.65 1.158 7.13 2.106 12.43 9.857 15.78 16.105 4.63 8.611 16.96 45.622 14.35 53.444-.05.169-.15.322-.22.484.61 1.699 1.18 2.99.89 4.808 2.82 10.787 2.74 29.173 2.78 40.609.17 51.504-6.71 98.689-33.13 143.745-22.41 38.215-57.31 69.986-100.9 81.436-6.88 1.806-13.71 1.69-20.59 2.839 1.74-3.453 1.48-7.488 1.17-11.249.81-2.364 1.16-4.368.81-6.853 3.05-8.422 4.17-33.147 5.31-43.256 3.14-27.761 7.24-55.661 9.48-83.489.15-1.949.2-3.579-.27-5.49 5.67-.643 18.98-5.429 22.28-10.154 2.14-3.065-.76-43.203-2.23-47.524 1.13-3.54.71-6.447-.51-9.907l.09-.348c1.3-5.055-5.52-66.801-8.1-72.471 3.28-.458 8.67-6.845 11.24-9.203 19.37-17.714 48.33-45.403 76.12-44.684z"/>
  <path fill="#1CBB83" d="M1259.16 544.726c2.11.014 3.86-.154 5.65 1.158-2.13 5.564-2.76 12.145-4.06 17.972-2.2 9.9-14.6 68.239-18.45 72.395 12.67-4.083 25.05-9.923 37.48-14.759 4.51-1.755 11.02-3.092 14.94-5.575.61 1.699 1.18 2.99.89 4.808-2.95-.684-46.67 19.183-54.38 21.311 1.04 5.627-6.92 27.839-8.84 34.389-19.26 65.704-40.68 137.725-79.75 194.655-1.85 2.692-3.68 5.693-6.27 7.7l-1.43-.675c.81-2.364 1.16-4.368.81-6.853 1.55-1.046 2.59-2.235 3.7-3.728 21.84-29.329 35.36-65.931 48.99-99.584 2.3-5.688 9.21-19.68 8.43-25.349.09-.597.14-1.209.06-1.812-.97-7.96-20.96-54.555-26.61-59.44 1.13-3.54.71-6.447-.51-9.907.53.191.89.291 1.38.623 4.57 3.115 26.71 54.966 28.59 62.896 4.19-6.96 6.32-17.763 8.7-25.597q18.79-62.274 33.34-125.671c2.44-10.539 7.29-25.649 8.07-35.752.11-1.38-.09-2.012-.73-3.205z"/>
  <path fill="#BAE0C8" d="M1264.81 545.884c7.13 2.106 12.43 9.857 15.78 16.105 4.63 8.611 16.96 45.622 14.35 53.444-.05.169-.15.322-.22.484-3.92 2.483-10.43 3.82-14.94 5.575-12.43 4.836-24.81 10.676-37.48 14.759 3.85-4.156 16.25-62.495 18.45-72.395 1.3-5.827 1.93-12.408 4.06-17.972zm-84.49 135.455c5.65 4.885 25.64 51.48 26.61 59.44.08.603.03 1.215-.06 1.812.78 5.669-6.13 19.661-8.43 25.349-13.63 33.653-27.15 70.255-48.99 99.584-1.11 1.493-2.15 2.682-3.7 3.728 3.05-8.422 4.17-33.147 5.31-43.256 3.14-27.761 7.24-55.661 9.48-83.489.15-1.949.2-3.579-.27-5.49 5.67-.643 18.98-5.429 22.28-10.154 2.14-3.065-.76-43.203-2.23-47.524zm-8.52-82.726c3.28-.458 8.67-6.845 11.24-9.203 19.37-17.714 48.33-45.403 76.12-44.684.64 1.193.84 1.825.73 3.205-.78 10.103-5.63 25.213-8.07 35.752q-14.55 63.397-33.34 125.671c-2.38 7.834-4.51 18.637-8.7 25.597-1.88-7.93-24.02-59.781-28.59-62.896-.49-.332-.85-.432-1.38-.623l.09-.348c1.3-5.055-5.52-66.801-8.1-72.471zM82.313 684.925c3.053-4.546 6.95-8.913 11.483-12.02 10.202-6.993 21.354-5.322 32.805-3.249l4.051 1.258c44.795 17.372 79.806 57.103 100.803 99.32.748 1.358 1.735 2.815 2.116 4.309 25.045 54.295 35.991 108.14 28.21 168.006-3.391 2.495-18.864 1.266-23.459.878l-4.658.471-5.505.916c-7.549-.308-28.894 3.324-34.174 1.535-49.863-31.496-97.969-68.675-117.351-126.824-13.608-40.825-15.298-92.374 4.232-131.622l1.447-2.978z"/>
  <path fill="#1CBB83" d="M82.313 684.925c3.053-4.546 6.95-8.913 11.483-12.02 10.202-6.993 21.354-5.322 32.805-3.249l4.051 1.258c-1.395 7.441 7.653 52.186 10.565 61.01.718 2.175 1.886 4.183 3.189 6.056 6.425 9.235 14.222 17.548 20.774 26.722 13.476 18.872 25.003 39.715 35.161 60.539 6.962-13.372 14.741-26.527 22.254-39.611 2.92-5.083 6.273-10.152 8.86-15.396.748 1.358 1.735 2.815 2.116 4.309-10.53 17.942-19.52 37.166-31.113 54.419 5.786 14.925 12.17 29.617 17.43 44.741q5.824 17.087 10.438 34.539 4.614 17.452 7.996 35.185l-4.658.471c-3.982-18.966-8.11-37.679-13.773-56.233-18.367-60.176-50.204-120.068-95.323-164.424-13.599-13.369-28.02-24.595-43.702-35.338l1.447-2.978z"/>
  <path fill="#BAE0C8" d="M82.313 684.925c3.053-4.546 6.95-8.913 11.483-12.02 10.202-6.993 21.354-5.322 32.805-3.249 1.104 19.898 5.192 39.541 10.044 58.827-6.841-5.188-12.684-11.761-19.073-17.503-11.348-10.199-22.384-18.051-35.26-26.055zm151.258 89.618c25.045 54.295 35.991 108.14 28.21 168.006-3.391 2.495-18.864 1.266-23.459.878q-3.382-17.733-7.996-35.185-4.614-17.452-10.438-34.539c-5.26-15.124-11.644-29.816-17.43-44.741 11.593-17.253 20.583-36.477 31.113-54.419zM130.652 670.914c44.795 17.372 79.806 57.103 100.803 99.32-2.587 5.244-5.94 10.313-8.86 15.396-7.513 13.084-15.292 26.239-22.254 39.611-10.158-20.824-21.685-41.667-35.161-60.539-6.552-9.174-14.349-17.487-20.774-26.722-1.303-1.873-2.471-3.881-3.189-6.056-2.912-8.824-11.96-53.569-10.565-61.01z"/>
  <path fill="#1CBB83" d="M614.181 566.743c5.774-1.152 11.39-3.356 17.18-4.621 17.701 2.208 35.549 3.619 53.289 5.597 21.18 2.362 42.288 5.261 63.486 7.466 23.711 2.466 47.371 4.513 70.998 7.768-1.512 1.314-1.445 1.822-1.576 3.836-.685 10.579.05 21.625.058 32.267l-.068 64.794-.3 205.743 1.021.853c-1.339.553-2.356.738-3.812.718-6.3-.087-12.745-1.08-19.023-1.71l-35.522-3.589-91.831-9.357c-17.444-1.833-34.898-4.147-52.384-5.487l-.704-.402c-1.559-3.868-.537-36.931-.543-44.284l-.128-179.675.098-53.089c.026-8.71.807-18.209-.239-26.828z"/>
  <path fill="#BAE0C8" d="M868.713 276.08q-37.591 11.712-75.521 22.277c-7.846 2.17-18.89 1.281-25.983-3.046-3.752-2.289-6.95-6.686-7.941-10.971-1.95-8.432-.629-34.398-.67-44.628l-.151-37.791c-.023-6.984-.552-14.468.353-21.389.582-4.454 2.377-8.925 4.841-12.662 3.579-5.428 8.619-9.391 14.468-12.168 13.202-6.269 39.041-12.002 54.031-16.436l53.905-15.425c9.882-2.868 20.021-6.773 30.094-8.666 8.72-1.639 23.268 3.335 30.486 8.306.665 1.176 1.283 2.367 1.919 3.557.362.679.727 1.324.932 2.074 1.353 4.944 1.037 95.39.318 103.493-.349 3.933-1.53 7.541-3.354 11.037-2.106 4.036-4.86 7.889-8.59 10.571-8.93 6.421-33.146 11.452-44.678 15.077-.633 32.185-.248 64.466-.016 96.659 3.944-.031 15.539-1.132 18.32 1.353-.798 3.391-8.297 9.353-10.708 12.44-3.373 4.317-6.357 8.953-9.281 13.581q-5.274 8.308-10.1 16.883-4.827 8.575-9.194 17.394-4.367 8.818-8.261 17.855-3.895 9.037-7.306 18.268c14.28.159 28.569-2.009 42.83-2.006 2.568-.673 5.469-1.038 7.883.254 4.798 8.831 11.796 32.252 15.494 42.973 26.154-6.668 52.258-14.526 78.607-20.292 6.28-1.373 26.93 3.651 27.89 2.049.64 1.955.71 2.842-.21 4.778-.09.189-.2.371-.3.556 1.47 3.304 1.61 12.484.34 16.021-.07.207-.16.411-.24.616.78 4.239.7 9.729.33 14.032 1.04 6.501.59 13.369.94 19.954-9.41-9.65-21.13-16.439-30.672-25.722-4.012-3.904-5.418-9.871-10.189-13.089-3.492-2.355-8.724-3.219-12.884-3.307-10.179-.214-14.891 6.407-21.67 12.533-2.156 1.948-4.993 3.686-6.878 5.847-1.344 1.541-1.534 2.256-1.622 4.253 1.856 4.148 6.38 6.123 10.4 7.671 6.435 2.478 13.846 3.806 19.762 7.322-13.335 6.47-36.308 11.632-51.239 15.799l-106.064 28.988c-23.627-3.255-47.287-5.302-70.998-7.768-21.198-2.205-42.306-5.104-63.486-7.466-17.74-1.978-35.588-3.389-53.289-5.597 8.167-2.701 60.05-19.776 64.248-18.096.946.378.857.89 1.207 1.777q.903-3.363 1.848-6.715c.63-9.153 5.794-24.291 8.381-33.519 3.04-10.84 5.486-21.918 9.043-32.602 12.869-38.644 32.142-73.324 54.306-107.227l98.336.161c.54-29.926-.856-59.885-.017-89.821z"/>
  <path d="M888.787 382.558l1.31.184c4.236-4.755 10.667-12.019 16.842-14.059-.384 2.826-8.418 10.915-10.527 13.625-2.204 2.834-3.473 5.938-5.379 8.945-5.415 8.546-11.154 17.016-15.74 26.04q-6.021 11.88-11.466 24.035-5.444 12.155-10.298 24.558t-9.107 25.024q-4.254 12.622-7.896 25.433c-1.547 5.334-9.07 36.145-11.031 38.102-1.292.085-2.579.197-3.874.192 2.019-14.4 8.105-41.596 12.668-55.34 3.07-9.246 7.084-18.265 10.457-27.421 7.607-20.652 15.468-41.163 25.798-60.648 5.219-9.842 12.742-18.202 17.853-27.916l.39-.754z"/>
  <path fill="#fff" d="M898.448 463.624l7.659.005c8.133 23.72 16.123 47.42 26.011 70.487-8.901 2.208-17.934 4.114-26.729 6.696-11.586 2.339-23.858 6.727-35.592 7.833-12.698 1.197-27.054-1.067-39.86-1.673 7.509-27.17 14.556-54.769 25.602-80.781 14.314-.374 28.62-2.279 42.909-2.567z"/>
  <path d="M879.883 516.982c6.537.666 32.729 5.791 36.342 10.138.931 1.12.72 1.438.527 2.783-3.387 3.671-8.616 3.841-13.283 4.632l-23.833 5.347c-2.041-3.341-4.68-6.293-7.186-9.291 2.062-4.686 4.911-9.152 7.433-13.609z"/>
  <path fill="#fff" d="M899.456 461.717c2.568-.673 5.469-1.038 7.883.254 4.798 8.831 11.796 32.252 15.494 42.973 26.154-6.668 52.258-14.526 78.607-20.292 6.28-1.373 26.93 3.651 27.89 2.049.64 1.955.71 2.842-.21 4.778-.09.189-.2.371-.3.556 1.47 3.304 1.61 12.484.34 16.021-.07.207-.16.411-.24.616.78 4.239.7 9.729.33 14.032 1.04 6.501.59 13.369.94 19.954-9.41-9.65-21.13-16.439-30.672-25.722-4.012-3.904-5.418-9.871-10.189-13.089-3.492-2.355-8.724-3.219-12.884-3.307-10.179-.214-14.891 6.407-21.67 12.533-2.156 1.948-4.993 3.686-6.878 5.847-1.344 1.541-1.534 2.256-1.622 4.253 1.856 4.148 6.38 6.123 10.4 7.671 6.435 2.478 13.846 3.806 19.762 7.322-13.335 6.47-36.308 11.632-51.239 15.799l-106.064 28.988c-23.627-3.255-47.287-5.302-70.998-7.768-21.198-2.205-42.306-5.104-63.486-7.466-17.74-1.978-35.588-3.389-53.289-5.597 8.167-2.701 60.05-19.776 64.248-18.096.946.378.857.89 1.207 1.777-1.027 3.388-1.76 6.876-2.564 10.323 15.042-1.885 31.661-.335 46.84-.138l86.673.803c.409-1.871.722-4.836 1.637-6.468 1.246-2.224 5.548-1.319 7.764-1.133 11.991 1.011 25.024 2.541 36.958.706 10.18-1.566 20.06-4.912 30.231-6.629l1.034-2.455c8.795-2.582 17.828-4.488 26.729-6.696-9.888-23.067-17.878-46.767-26.011-70.487l-7.659-.005 1.008-1.907z"/>
  <path fill="#BAE0C8" d="M899.456 461.717c2.568-.673 5.469-1.038 7.883.254 4.798 8.831 11.796 32.252 15.494 42.973 26.154-6.668 52.258-14.526 78.607-20.292 6.28-1.373 26.93 3.651 27.89 2.049.64 1.955.71 2.842-.21 4.778-.09.189-.2.371-.3.556-5.05-2.681-18.58-3.86-24.36-3.265-10.358 1.067-21.268 4.749-31.401 7.331-16.091 4.1-32.502 7.871-48.398 12.648 2.224 7.398 8.855 19.298 9.23 26.145-1.091 1.661-1.836 1.87-3.778 2.274-8.542 1.777-17.566 2.931-25.758 6.099l1.034-2.455c8.795-2.582 17.828-4.488 26.729-6.696-9.888-23.067-17.878-46.767-26.011-70.487l-7.659-.005 1.008-1.907z"/>
  <path fill="#fff" d="M836.292 383l36.008-.007c-22.258 35.694-34.254 65.125-46.507 105.346q-27.239.467-54.481.273l-39.243-.102c1.964-7.492 4.904-14.816 7.524-22.099 10.648-29.599 23.973-56.389 40.826-82.928 18.467-.308 37.489 1.111 55.873-.483z"/>
  <path fill="#BBB" d="M786.376 400.525c.911-.04 1.875-.115 2.782-.016 1.6.173 2.236.537 3.279 1.715-.246 2.188-.717 2.691-1.951 4.45-2.246.09-3.904.195-5.665-1.284-.235-1.996.6-3.164 1.555-4.865zm-8.375 21.982c1.076.295 2.38.544 3.275 1.234 1.055.812.983 1.304 1.2 2.54-.913 2.305-2.368 3.256-4.271 4.698-.166-.008-.333-.007-.498-.025-1.959-.214-2.752-.84-3.98-2.344-.03-.652-.075-1.268.077-1.909.497-2.109 2.494-3.148 4.197-4.194zm-9.389 25.325c.92.312 1.819.921 2.675 1.39.73 1.305 1.129 1.595.567 3.098-.741 1.982-3.333 3.033-5.096 3.889-1.603-.288-2.205-.591-3.458-1.632-.478-1.514-.679-2.032.103-3.468 1.121-2.055 3.136-2.593 5.209-3.277zm19.753.714q15.126.22 30.253.014c-.967 2.659-2.293 5.142-3.568 7.662-9.805-1.318-20.274-.68-30.166-.668 1.01-2.4 2.287-4.696 3.481-7.008z"/>
  <path fill="#BAE0C8" d="M810.479 400.446q18.335-.066 36.669.102c-.937 2.22-2.017 4.361-3.089 6.517-10.954-.7-22.044-.298-33.018-.229l.038-.648-1.722.187-.326.421-.393-.328-.44.25-.32-.27c.054-2.329 1.422-4.072 2.601-6.002z"/>
  <path fill="#BBB" d="M797.834 423.801c12.93.255 25.891.088 38.825.08l-3.534 6.39c-12.199-.014-24.494.271-36.675-.336l.666-.571-1.459.366c-.287-2.11 1.206-4.127 2.177-5.929z"/>
  <path fill="#fff" d="M696.922 553.672c13.885-58.924 29.348-116.065 62.698-167.416 3.365-5.181 6.296-12.218 10.49-16.653 1.13-1.195 1.965-1.607 3.61-1.756 4.828-.437 10.135.11 15.016.169l27.703.057c28.638.003 57.334-.598 85.959-.013-4.644 4.687-10.375 8.608-13.611 14.498l-.39.754c-5.111 9.714-12.634 18.074-17.853 27.916-10.33 19.485-18.191 39.996-25.798 60.648-3.373 9.156-7.387 18.175-10.457 27.421-4.563 13.744-10.649 40.94-12.668 55.34-3.381.006-6.72-.004-10.09-.297 3.973-35.516 26.3-102.086 42.047-134.596 6.488-13.393 14.44-25.982 22.07-38.737l-96.319.235c-21.898 35.752-38.475 69.101-50.039 109.656l59.963-.049c11.883-.05 23.945-.526 35.811.12-7.245 18.879-12.279 43.359-15.902 63.381l-112.24-.678z"/>
  <path d="M729.145 510.042c23.842.135 47.693-.54 71.532-.209-3.01 8.659-4.784 17.907-7.566 26.688q-35.566-.318-71.132.063c2.036-8.881 3.946-18.007 7.166-26.542z"/>
  <path fill="#1CBB83" d="M937.284 121.063c1.102.26 2.181.565 3.224 1.012 3.308 1.416 5.856 4.297 7.012 7.727 1.261 3.744 1.203 96.409.246 103.972-.435 3.444-2.383 7.375-3.941 10.454-1.863 3.681-6.483 8.728-10.211 10.514-10.416 4.99-23.556 6.987-34.68 10.342-37.096 11.189-74.736 21.047-111.593 32.937-1.873-.158-3.811-.269-5.507-1.157-2.612-1.368-5.41-4.513-6.118-7.451-2.011-8.344-1.012-19.145-1.022-27.743l.019-44.349c.014-7.463-.898-16.587-.11-23.805.69-6.319 3.336-14.853 6.84-20.2 3.084-4.706 8.638-8.341 13.741-10.488 12.858-5.407 27.578-7.951 40.946-12.049l60.288-17.9c13.516-4.093 26.992-9.091 40.866-11.816z"/>
  <path fill="#fff" d="M890.002 225.39c.626-.131 1.287-.03 1.924 0 1.083 1.992.705 4.932.703 7.168q-18.654 5.484-37.171 11.417c-.39.083-1.017-.072-1.42-.122-1.159-2.256-.99-5.053-1.12-7.548 12.249-3.943 24.724-7.329 37.084-10.915zm32.396-27.876c1.33 1.63 1.224 5.152 1.442 7.235-22.682 7.074-46.105 14.199-69.18 19.862-1.475-1.507-1.166-4.936-1.258-6.931 22.692-7.174 45.919-14.394 68.996-20.166zm-.968-21.509l1.035.106c1.292 1.937 1.05 4.879 1.177 7.157-22.254 7.369-45.133 13.359-67.636 19.997-.886-.003-1.057-.275-1.781-.743-.641-1.902-.719-3.174-.44-5.157.336-.498.574-1.079 1.009-1.494 1.367-1.307 59.223-17.569 66.636-19.866zm-.773-19.953c.891-.136 1.472-.061 2.355.059 1.305 2.141.878 4.977.844 7.415-20.616 7.404-45.102 13.568-66.476 19.064-.906.191-1.154.123-2.022-.098-1.174-2.144-.788-4.858-.756-7.245 21.823-6.903 44.087-12.739 66.055-19.195zm-100.59 36.653c3.319-.413 6.607-.322 9.752.934 4.566 1.823 7.779 5.246 9.627 9.748 3.428 8.347 2.591 18.901-.865 27.095-3.87 9.173-10.519 15.66-19.683 19.331-3.631.391-7.355.524-10.795-.884-4.489-1.836-7.666-5.208-9.421-9.712-3.446-8.845-1.54-19.159 2.271-27.547 4.083-8.987 9.856-15.413 19.114-18.965z"/>
  <path fill="#191B1E" d="M383.769 354.943c-8.889.831-17.862 1.7-26.79 1.049-8.959-.653-20.654-2.546-26.673-10.001q-.554-.696-1.036-1.443-.482-.748-.886-1.54-.405-.792-.729-1.62-.324-.828-.564-1.685-.24-.856-.393-1.732-.153-.877-.218-1.764t-.041-1.776q.024-.889.136-1.771c1.28-10.715 17.697-24.716 23.958-34.756 8.407-13.482 11.805-37.259 23.542-46.753 10.079-8.151 24.088-10.116 36.621-8.796 7.751.817 13.596 3.06 20.803 5.331 8.381 2.642 11.799.969 18.26 9.07 4.296 5.386 5.176 10.709 4.469 17.415-1.065 2.098-2.092 4.125-3.486 6.033 6.167 11.725 18.471 31.891 20.955 44.245q.295 1.424.402 2.874.108 1.451.028 2.903-.081 1.451-.348 2.881-.268 1.429-.718 2.812c-2.261 7.084-7.429 11.941-13.928 15.26-4.764 2.433-10.354 4.148-15.643 4.941-4.781.717-16.401-.259-19.963 1.785.289 3.637.35 6.007 3.265 8.615 4.51 4.034 10.798 5.486 15.079 9.792 7.276 7.316 26.884 47.302 27.611 57.352.765 10.57-6.677 22.113-11.761 30.952q1.445 9.485 3.21 18.915c8.646-2.119 17.599-4.029 26.037-6.872 5.198-12.304 11.274-26.427 24.478-31.973 3.366-1.414 7.365-2.006 10.85-.665 5.632 2.166 10.358 10.948 12.499 16.245 1.924 4.758 3.841 12.053 2.888 17.147l-.749.773c-4.95-.275-9.903-.993-14.852-1.064-4.164 6.88-8.138 14.918-14.209 20.286-2.661 2.352-12.509 6.324-12.552 6.387-.372.54.585 2.229-.253 3.378-3.391 4.645-25.479 14.695-31.8 17.878q.452 20.967-.511 41.916-.963 20.949-3.338 41.786c-.982 9.358-1.507 19.185-4.109 28.256q11.387 27.194 20.92 55.092 9.533 27.898 17.17 56.374 12.538 49.882 23.988 100.025c3.468 14.897 6.441 30.094 10.56 44.811-2.017.859-4.092 1.659-6.042 2.661l2.91 11.12c13.676 2.036 27.491 3.413 41.226 5.011 5.581.65 11.762.785 17.207 2.049 1.51.35 2.708.62 3.661 1.969.866 1.225 1.098 3.395.686 4.815-1.073 3.702-8.06 6.395-11.304 7.83-10.264 4.543-21.1 7.706-31.445 12.06-4.106 1.096-8.751 2.731-12.532 4.693-6.702 1.8-25.282 10.442-30.487 7.165-2.383-1.5-3.518-4.838-4.647-7.306l-1.662-4.1c-10.769-.582-21.688-.21-32.477-.169l-54.429.219c-10.679.037-23.517 1.397-33.897-.81.435 1.87.65 2.91-.006 4.741-1.017 1.685-2.012 3.135-3.376 4.558-4.683 1.929-10.919-2.406-15.343-4.23-3.2-1.671-6.58-3.094-9.858-4.613-4.988-3.071-10.444-5.579-15.58-8.434-14.071-7.823-28.039-15.97-40.873-25.724 3.071-10.73 10.832-15.424 17.057-23.792 3.221-4.331 5.489-9.636 7.887-14.459l-6.356-3.656c2.673-9.243 6.56-18.354 9.696-27.471l20.265-59.357c4.37-12.625 9.497-25.042 13.463-37.796 5.118-16.459 8.03-32.958 10.326-50.018l-48.723-14.427c-12.209-3.667-25.627-6.715-36.701-13.189-7.007-4.095-11.955-8.965-16.138-15.887-.382-1.279-1.001-2.445-1.586-3.639-1.06-3.58-.338-6.346.473-9.907 3.972-17.445 8.607-34.805 13.015-52.148 2.727-10.727 4.986-21.999 8.537-32.461 1.182-3.484 3.097-2.114 5.225-3.741 1.415-1.082 2.445-4.732 3.038-6.372 5.064-13.998 9.426-28.308 14.203-42.412l17.743-50.992c6.923-20.209 13.01-41.598 23.751-60.182 3.876-6.706 8.79-12.721 15.452-16.811 8.171-5.016 18.406-7.021 27.781-4.747 15.021 3.643 23.601 16.196 31.268 28.556 2.879-2.134 5.849-4.113 8.833-6.094 5.135 1.245 10.254 4.277 15.064 6.471-4.772-8.735-11.436-18.006-18.39-25.128 1.606 4.902 3.021 9.551 3.903 14.652-11.564-12.127-28.399-18.277-42.593-26.5l.163-.707-.567.341z"/>
  <path fill="#BAE0C8" d="M437.806 253.173l-1.083-1.65.414-.682c4.217.351 8.064 3.481 10.767 6.603 3.637 4.203 4.572 8.681 4.876 14.036-.572 2.117-.858 3.899-2.727 5.193l-1.466-.688c-.999-1.472-1.536-2.255-1.481-4.064 1.367.403 3.586 4.252 4.646 5.536-4.133-8.341-7.084-17.68-13.946-24.284z"/>
  <path d="M517.107 897.308l1.09.496c1.799 4.072 4.099 8.679 3.495 13.255-.55 4.168-2.906 7.383-6.246 9.832-6.408 4.698-14.523 5.671-22.189 4.583-2.242-5.63-4.396-11.294-7.141-16.703 10.665-2.799 20.974-6.897 30.991-11.463z"/>
  <path fill="#fff" d="M293.238 899.897c24.489 16.061 46.689 27.721 72.788 40.583 1.975.973 3.672 1.811 4.639 3.829-.328 2.035-1.476 3.202-2.755 4.758-24.575-8.377-57.763-27.159-78.24-43.15l3.568-6.02z"/>
  <path fill="#1CBB83" d="M314.332 869.854c9.286 5.176 18.501 9.737 28.334 13.797-2.143 4.223-5.139 12.557-9.553 14.541-7.773 1.472-14.428 1.689-22.067-.541-2.974-3.108-4.651-6.736-6.494-10.571l9.78-17.226z"/>
  <path fill="#fff" d="M580.287 916.045l1.84.01c.478.445.788.691 1.172 1.26.919 1.364.651 2.33.187 3.762-5.656 6.312-69.428 28.637-81.446 31.514-2.008-2.545-3.569-5.145-5.125-7.984 10.357-2.228 20.577-6.35 30.606-9.762 17.639-6.002 35.402-12.039 52.766-18.8z"/>
  <path d="M301.184 887.68c1.308.643 5.744 9.477 9.225 12.297 8.691 1.741 16.361 1.629 25.029-.195.11.089.221.177.33.267 5.121 4.237 33.288 35.519 33.685 39.852l-1.719-.325c-25.08-11.591-50.74-25.513-72.947-41.975a64.864 64.864 0 016.397-9.921zm222.756 21.57c16.495.582 36.025 4.333 52.672 6.493-13.789 6.004-29.167 10.117-43.454 14.999-12.296 3.411-24.596 8.49-36.728 12.57-1.894-5.072-2.788-10.42-3.845-15.714 2.537.297 5.196.682 7.75.462 7.456-.644 16.879-4.221 21.609-10.254 2.402-3.064 2.465-4.833 1.996-8.556z"/>
  <path fill="#BAE0C8" d="M453.753 290.508c5.415 7.086 15.539 27.687 16.431 36.38.595 5.796-1.444 11.359-5.16 15.76-7.011 8.304-18.2 11.361-28.625 12.192-4.873.64-9.832.406-14.737.346.13-4.38.465-8.747.776-13.118 3.099.009 6.396-.042 9.443-.636q.719-.139 1.431-.314.712-.174 1.414-.383.703-.209 1.394-.453.691-.243 1.369-.52.679-.277 1.343-.587.664-.309 1.312-.651t1.279-.716q.63-.373 1.242-.777.611-.404 1.202-.837.591-.434 1.16-.896.569-.461 1.115-.95.546-.49 1.067-1.005.521-.515 1.016-1.056.495-.54.963-1.104.468-.564.908-1.15t.851-1.193c7.811-11.691 5.307-25.443 2.806-38.332zm-94.879 172.065c2.264 2.219 10.731 20.476 13.022 24.729 6.486 12.038 15.437 23.071 23.58 34.031-1.88 1.171-4.041 1.986-6.065 2.885-6.531 2.075-14.161 3.252-20.996 3.294-3.176.02-7.636-.114-9.868-2.685-4.812-5.544-.236-53.262.327-62.254z"/>
  <path fill="#1CBB83" d="M396.936 523.507c3.528 2.754 6.765 6.711 9.947 9.911-2.255 9.176-4.601 18.243-7.262 27.315q-15.24-3.891-30.742-6.551c-5.377-1.039-10.754-1.779-16.184-2.472 3.439-7.305 5.459-15.203 9.038-22.428 12.856.53 23.187-1.19 35.203-5.775zm116.709-78.084c2.535-.223 5.43-.634 7.707.752 1.797 1.094 3.302 2.37 3.884 4.427-2.435 3.792-8.569 1.402-12.465 3.234 3.481 2.846 12.559-.798 16.257 3.411 1.042 1.186 2.601 3.373 2.5 4.977-3.833.516-8.896-2.122-13.052-2.186-3.594-.056-7.005.726-9.644 3.276.544.376 11.955-1.883 15.725-1.06 4.227.923 6.477 2.375 8.866 6.027l-.881 1.525 1.012-1.101c-.189.337-.267.767-.567 1.01-.246.2-2.301-.541-2.718-.669-5.053-1.549-10.863-3.544-15.941-.891 4.804 2.038 11.624 1.24 17.259 3.171 1.272 1.304 2.085 1.766 2.418 3.588l-.989.79c-4.264.698-9.247-.485-13.518-1.04-9.138 14.563-10.597 21.404-27.732 27.418q-6.045-10.924-12.634-21.528 1.289-.33 2.555-.736c7.435-2.341 9.357-12.467 12.742-18.715 4.495-8.3 10.273-12.979 19.216-15.68z"/>
  <path fill="#BAE0C8" d="M408.391 534.999c3.839 1.967 8.142 2.427 12.362 2.921-3.496 18.492-4.346 37.44-5.797 56.163l-6.477 81.878-16.892 10.152c-.999.47-1.054.502-2.134.296 5.176-30.668 11.491-61.19 16.674-91.882 1.327-7.858 4.68-20.228 4.125-27.654-1.728-3.719-4.966-4.552-8.537-5.971 2.606-8.55 4.695-17.19 6.676-25.903z"/>
  <path fill="#1CBB83" d="M458.657 526.157c.101.146.222.28.303.439 3.802 7.474-3.975 95.084-6.839 107.075l-9.556-22.06q-10.536-24.869-23.231-48.708c.873-8.467 2.333-16.939 3.446-25.385 12.665-.139 24.759-5.72 35.877-11.361z"/>
  <path fill="#BAE0C8" d="M429.251 371.034c3.559 2.406 7.684 4.532 10.581 7.76 7.59 8.456 22.058 39.29 25.053 51.17 3.028 12.009-5.197 24.208-11.156 34.08 1.324 6.452 2.22 13.054 3.302 19.556-7.16 1.861-14.453 3.36-21.666 5.016-1.374.331-2.125.421-3.554.149-2.848-3.012-3.832-6.983-4.404-10.983-.689-4.819-.178-9.89-.122-14.752.13-11.364.64-23.064-.351-34.39-1.062-12.121-3.677-23.562-8.272-34.841 2.481-2.2 5.152-3.989 7.912-5.816 5.759 1.734 10.806 5.804 16.72 6.807l.62-.609c-1.536-7.512-10.164-15.708-14.208-22.388l-.455-.759z"/>
  <path fill="#BAE0C8" d="M287.018 544.596l31.798-93.295c7.605-22.177 14.209-47.152 26.55-67.208 4.341-7.053 10.028-13.087 17.579-16.682 8.035-3.826 16.884-4.506 25.287-1.486 13.715 4.929 23.208 17.23 29.066 30.101 10.486 23.035 8.852 52.003 7.84 76.697-4.48-9.993-8.242-20.302-12.316-30.466-4.85-10.658-5.478-25.384-7.214-37.03-1.79-9.945-4.243-19.699-12.984-25.872-5.825-4.113-12.847-5.092-19.779-3.878-9.532 1.671-17.02 7.586-22.392 15.445-5.783 8.463-6.37 16.351-7.756 26.237-1.975 14.091-8.378 28.827-12.93 42.33q-14.611 43.088-29.823 85.967c-4.303-.296-8.617-.677-12.926-.86z"/>
  <path fill="#fff" d="M343.473 423.75c1.816 4.369 2.947 9.177 4.675 13.64 2.622 6.773 7.341 14.475 8.537 21.569 1.034 6.133-.063 12.863-.482 19.039-.844 12.421-2.278 25.641-1.576 38.052.291 5.152.858 9.219 4.907 12.766-2.79 7.6-5.639 15.106-8.946 22.499-8.722-1.759-17.674-2.649-26.507-3.682q-10.998-1.18-22.009-2.23c3.919-10.16 7.111-20.674 10.705-30.96q15.95-45.143 30.696-90.693z"/>
  <path fill="#1CBB83" d="M431.027 288.028c7.374-4.224 9.962-10.968 12.734-18.548l4.75 10.547.927 2.966c-1.108 1.596-2.734 1.914-4.625 2.228-1.814.303-3.675.202-5.133 1.466-.097.878-.222 1.42.049 2.276 3.05-.709 5.152-2.729 8.335-2.382 3.268 2.205 4.293 6.058 5.02 9.745 2.065 10.487 2.471 22.276-3.852 31.46q-.409.596-.847 1.17t-.905 1.126q-.467.551-.962 1.078-.494.527-1.015 1.028-.52.501-1.065.975-.545.474-1.114.92-.568.446-1.159.862-.59.417-1.201.803-.611.385-1.24.74-.63.354-1.277.676-.646.322-1.309.611-.662.288-1.338.543-.676.255-1.364.475-.688.22-1.386.405-.699.185-1.406.334-.706.149-1.42.262c-6.692 1.129-15.709 1.126-21.463-2.948-2.43-1.721-5.113-5.509-7.738-6.411l.911.225-1.851 1.113c2.982 4.857 7.62 7.915 13.126 9.259 2.393.584 4.909.861 7.351 1.18-.987 13.075-.663 22.856 3.949 35.338-5.25-4.335-10.609-8.165-16.463-11.648-4.228-2.516-18.508-8.584-20.986-11.314.242-.168.486-.332.726-.502 3.275-2.325 3.711-4.815 4.298-8.645 1.187-7.757.754-16.434-2.486-23.659-7.176-2.505-16.982-1.016-21.148-9.277-1.184-2.348-.866-4.83-.028-7.239 1.087-3.126 3.145-6.683 6.212-8.166 2.617-1.265 5.85-.906 8.487.118 3.09 1.2 7.144 4.687 10.479 4.181l.094-.717-3.267-2.683-.081-.863c3.503-1.2 8.165-.894 11.885-1.195 10.376-.838 19.462-3.351 28.796-7.913z"/>
  <path fill="#191B1E" d="M420.469 296.951c.787.098 1.696.171 2.438.457 1.57.603 1.895 1.359 2.422 2.85-.453 2.325-1.403 3.54-2.864 5.37l-1.057.095c-1.291-.769-2.068-1.178-2.416-2.741-.493-2.22.464-4.133 1.477-6.031zm25.405-5.466c.355.068.875.155 1.245.261 1.704.489 2.358 1.438 3.197 2.914.193 2.319-.508 3.802-1.486 5.869-.701-.101-1.6-.169-2.263-.47-1.696-.77-2.07-1.776-2.715-3.363.059-2.303.659-3.385 2.022-5.211z"/>
  <path fill="#BAE0C8" d="M355.191 354.538c-7.415-1.115-16.261-2.631-21.924-8.021q-.581-.562-1.104-1.178-.522-.617-.982-1.282-.459-.665-.85-1.372-.391-.707-.71-1.45-.32-.742-.564-1.513-.245-.77-.412-1.561-.167-.791-.255-1.594-.088-.804-.096-1.612c-.177-9.342 7.951-16.278 13.65-22.671q2.559-2.877 4.875-5.953 2.315-3.076 4.373-6.331 2.057-3.255 3.842-6.666 1.785-3.412 3.286-6.958c4.57-10.52 7.016-24.082 15.381-32.349 7.625-7.536 18.581-10.33 29.048-10.294 11.4.04 25.914 2.064 34.312 10.487 3.501 5.059 5.397 9.443 4.319 15.814-1.21 7.152-6.413 12.662-12.215 16.56l-.541.357c-7.28 3.548-14.855 5.943-22.918 6.941-10.851 1.343-27.799-2.07-36.746 5.183-1.959 1.588-3.213 3.697-3.338 6.247-.219 4.466 2.845 10.366 6.043 13.428 4.614 4.418 10.415 4.121 16.314 3.935 1.508 4.013 2.214 7.95 2.492 12.229.264 4.072.773 12.953-2.452 16.033-1.132 1.081-2.493 1.595-4.055 1.359-5.518-.832-10.963-9.762-13.814-14.069l-.879.343-.323 1.67c1.646 5.555 7.823 9.995 12.488 12.897-7.757 1.555-15.463 1.776-23.3.849-2.468-2.423-4.813-4.869-6.793-7.717-3.481-5.011-6.242-10.342-5.094-16.569.044-.237.094-.474.14-.711l-.815.356c-.674 1.219-1.178 2.34-1.273 3.752-.499 7.396 6.456 16.016 10.89 21.431z"/>
  <path fill="#fff" d="M491.702 506.142c-13.647 9.798-43.149 24.492-59.49 28.393-7.042 1.681-15.831 2.56-22.217-1.518-21.723-13.868-58.318-82.301-63.975-108.249-2.387-10.949-.557-23.13 5.554-32.565 5.079-7.841 11.954-13.05 21.165-14.915 6.53-1.323 12.93-.856 18.547 2.97 8.577 5.842 10.761 16.156 12.64 25.68l1.682-.711c1.736 11.646 2.364 26.372 7.214 37.03l-1.572 1.022q9.774 24.144 18.942 48.526a1861.333 1861.333 0 0147.011-10.872c5.131 8.234 9.418 16.946 14.499 25.209z"/>
  <path fill="#0F1E21" d="M411.25 443.279q-4.526-10.855-9.403-21.556c-2.766-5.954-7.028-12.765-8.408-19.126l.431-.524c5.008 5.397 9.614 17.781 13.027 24.777-1.269-6.937-2.111-13.915-2.971-20.912l1.682-.711c1.736 11.646 2.364 26.372 7.214 37.03l-1.572 1.022z"/>
  <path fill="#1CBB83" d="M361.858 690.356c8.725 2.24 14.345 2.219 23.169.361 4.831 11.439 10.774 22.372 16.169 33.552 6.156 12.76 11.834 25.783 17.649 38.702q-29.437 57.438-61.014 113.728l-5.499 9.035c-15.28-6.527-29.99-12.751-44.138-21.637q14.391-38.931 27.46-78.327c6.14-17.931 13.492-35.75 18.516-54.022 3.738-13.596 5.797-27.446 7.688-41.392z"/>
  <path fill="#fff" d="M353.149 887.901c9.476-13.777 17.188-29.497 25.141-44.23q21.135-39.104 41.595-78.565c10.581 21.885 18.568 45.833 27.187 68.597 8.914 23.544 20.988 53.055 27.116 77.237 3.454-.659 6.914-1.409 10.386-1.957 2.198 5.041 4.38 9.997 5.573 15.394 1.231 5.569 1.695 11.462 3.372 16.901-10.769-.582-21.688-.21-32.477-.169l-54.429.219c-10.679.037-23.517 1.397-33.897-.81-10.791-15.152-23.018-29.003-35.427-42.829 2.327-4.403 4.557-8.897 7.203-13.118 2.876 1.064 5.884 2.031 8.657 3.33z"/>
  <path fill="#BAE0C8" d="M282.737 546.953c30.755-1.196 88.217 7.742 118.22 15.913 2.684.731 5.872 1.47 7.33 3.992-.587 11.014-2.974 22.225-4.824 33.095l-10.664 59.426c-1.116 6.111-3.007 22.486-5.245 27.278-.847 1.813-3.215 2.256-4.953 2.925-5.73 1.149-11.181 1.03-16.934.074-13.115-2.179-26.357-7.149-39.1-11.023-15.961-4.852-33.392-8.8-48.371-16.191-10.847-5.352-16.473-11.588-20.387-23.029q.643-3.056 1.325-6.103c1.928-8.571 20.4-83.632 22.108-85.409.409-.425.997-.632 1.495-.948z"/>
  <path fill="#1CBB83" d="M419.115 567.138c8.675 12.405 14.923 29.938 21.062 43.791 14.979 33.802 28.97 68.872 39.882 104.22 6.772 21.938 12.186 44.331 17.699 66.612q13.52 54.934 25.74 110.172c-10.875 6.232-23.217 10.476-35.133 14.22-4.136 1.179-8.487 1.851-12.707 2.69-4.403-16.982-11.333-33.745-17.314-50.248q-20.957-59.227-46.655-116.555c-3.822-8.559-7.747-17.019-12.038-25.354-4.42-8.586-9.559-17.15-12.681-26.302 7.787-3.528 16.888-8.205 23.322-13.864 1.664-12.726 2.051-25.797 3.008-38.604 1.071-14.328 2.675-28.606 3.795-42.926.725-9.269.66-18.64 2.02-27.852z"/>
  <path fill="#191B1E" d="M1118.78 306.64l1.4-3.533c2.18-5.647 6.45-10.369 12.04-12.801 7.06-3.071 16.58-2.952 23.68-.066q.62.251 1.22.533.6.281 1.19.593.59.312 1.16.653.58.342 1.13.712.55.37 1.09.767.53.397 1.05.821.51.424 1 .874.5.449.96.923.47.474.92.971.44.497.86 1.016t.81 1.058q.39.539.75 1.098.37.558.7 1.134.34.576.64 1.168.31.593.58 1.2.28.607.52 1.227c2.44 6.131 2.53 12.892-.11 18.972-2.95 6.81-8.92 12.455-15.86 15.08-6.03 2.284-11.92 2.025-18.1.543-1.51 3.185.13 10.849-.02 14.736-.63 16.452-10.93 35.942-27.36 41.481-1.39.469-2.84.741-4.27 1.042l-1.62.356c1.11 2.737 2.1 5.291 1.26 8.236.94 1.277 1.33 2.167 1.76 3.689 2.83 1.2 6.81 2.527 8 5.653.44 1.134.38 2.368.39 3.56.02 2.35.24 4.895-.41 7.171 9.78 2.693 15.82 12.249 20.56 20.584 20.77 36.496 28.3 86.524 34.51 127.811.75 5.002 4.12 19.61 2.79 24.105-.06.204-.13.404-.2.606 2.58 5.67 9.4 67.416 8.1 72.471l-.09.348c1.22 3.46 1.64 6.367.51 9.907 1.47 4.321 4.37 44.459 2.23 47.524-3.3 4.725-16.61 9.511-22.28 10.154.47 1.911.42 3.541.27 5.49-2.24 27.828-6.34 55.728-9.48 83.489-1.14 10.109-2.26 34.834-5.31 43.256.35 2.485 0 4.489-.81 6.853.31 3.761.57 7.796-1.17 11.249.62 3.31.34 14.849-1.72 17.383-1.49 1.843-5.04-1.197-5.15 2.97-.31 11.14 9.18 23.496 3.96 36.364.2 1.96.05 2.223-.77 3.919.5 1.353.79 2.341.49 3.786-.26 1.299-1.02 2.237-2.14 2.898-3.98 2.334-29.8.797-36.27.933-5.77.122-11.5.828-17.27 1.039-8.69.317-64.95 1.378-69.19-.121-1.58-.559-2.69-1.898-3.26-3.432q-.14-.369-.24-.751-.11-.381-.17-.771-.06-.39-.09-.785-.02-.394 0-.789.01-.395.07-.786.05-.391.15-.775.09-.383.23-.755.13-.372.3-.729c.99-2.111 3.3-3.594 5.21-4.842 8.6-5.633 18.2-9.834 26.91-15.369 5.42-3.449 10.43-8.864 16.52-10.927.18-.064.37-.119.56-.178.69-.809 1.28-1.474 1.57-2.519 2.01-7.388-2.81-5.077-6.31-8.209-.58-.522-1.28-2.281-1.7-3.03.54-2.288.36-2.368-.73-4.487 1.54-3.683.05-9.674-1.1-13.406.07-.212.13-.423.19-.637.89-3.46-3.73-39.877-5.71-43.284.27-.728.48-1.278.52-2.06.23-3.845-.68-15.218-3.1-18.091-9.51 1.684-19.03 5.09-28.27 7.895l-45.748 13.91q-76.833 22.669-153.243 46.728l-1.021-.853.3-205.743.068-64.794c-.008-10.642-.743-21.688-.058-32.267.131-2.014.064-2.522 1.576-3.836l106.064-28.988c14.931-4.167 37.904-9.329 51.239-15.799-5.916-3.516-13.327-4.844-19.762-7.322-4.02-1.548-8.544-3.523-10.4-7.671.088-1.997.278-2.712 1.622-4.253 1.885-2.161 4.722-3.899 6.878-5.847 6.779-6.126 11.491-12.747 21.67-12.533 4.16.088 9.392.952 12.884 3.307 4.771 3.218 6.177 9.185 10.189 13.089 9.542 9.283 21.262 16.072 30.672 25.722-.35-6.585.1-13.453-.94-19.954.37-4.303.45-9.793-.33-14.032.08-.205.17-.409.24-.616 1.27-3.537 1.13-12.717-.34-16.021.1-.185.21-.367.3-.556.92-1.936.85-2.823.21-4.778 1.39-2.7 1.57-7.177 2.09-10.179 2.46-14.149 5.65-27.716 17.07-37.552 4.38-3.765 10.27-4.995 14.59-8.321.19-.143.37-.292.56-.438 1.26-3.348-.85-8.31.76-11.179.23-.407.49-.796.71-1.209l.61-1.151c.58-3.163-.21-6.093-1.96-8.756-.03-.135-.03-.281-.09-.405-.54-1.057-12-1.092-14.14-1.395-1.29-.258-2.47-.741-3.66-1.282-6.5-2.945-9.14-9.213-10.19-15.92-.3-1.874-.23-4.057-.95-5.818-.1-.242-.21-.48-.31-.72-1.98-2.157-4.47-3.768-5.27-6.675.69-5.378 4.35-4.383 7.49-7.582.15-.162.31-.329.46-.494.08-4.893-2.63-9.057-.94-14.023-4.72-4.79-8.83-10.081-10.31-16.809-1.07-4.876-.56-9.895 2.32-14.102 4.18-6.109 11.06-8.243 17.95-9.554 3.41-3.469 6.26-6.089 10.71-8.098 17.38-7.831 43.64-5.09 61.27 1.739l.68-.138z"/>
  <path fill="#BAE0C8" d="M1050.21 930.94c-.32-2.071-.5-2.908.44-4.811 1.78-.397 3.21.482 4.8 1.195-1.55 1.375-3.24 2.93-5.24 3.616zm59-22.613c3.53-.969 22.17-1.323 25.26.178l-.57 1.833c-3.52 1.724-13.26.53-17.48.377-3.35-.121-4.89.105-7.21-2.388zm-44.28.667c6.46-.776 17.17-1.192 23.6-.333 1.48.198 1.76.093 2.67 1.25l-1.26 1.52c-5.66.235-19.42 1.887-24.38-.37l-.63-2.067z"/>
  <path fill="#fff" d="M1099.51 896.336c.12.142.27.263.36.425 1.53 2.77 1.08 6.709.68 9.732 2.54.312 4.96.043 7.05 1.734.59 1.274 1.02 1.667.51 3.064-1.2 3.311-6.72 5.761-9.75 7.084-.79.885-1.25 1.454-2.39 1.837-5.56-9.965-.16-9.836 2.88-16.495.88-1.923.63-5.246.66-7.381z"/>
  <path fill="#BAE0C8" d="M1118.1 306.778l.68-.138c1.62 10.916-.63 18.29 8.82 27.074 1.51 1.408 4.5 2.87 5.39 4.67l-1.01.872c-2.93.618-5.65 1.057-8.57.168-5.02-1.528-9.31-5.677-11.76-10.23-2.23-4.138-3.07-9.109-1.61-13.649 1.39-4.314 4.17-6.779 8.06-8.767z"/>
  <path fill="#fff" d="M1095.61 945.661c9.62-1.936 31.96-.609 42.93-.577.54.913.72 1.656.78 2.7.19 2.836-.43 4.523-2.24 6.553-.09.169-.16.361-.28.507-1.76 2.004-36.59 1.117-41.94 1.101.29-.398.31-.396.56-.92 1.4-2.94 1.1-6.347.19-9.364z"/>
  <path d="M1087.36 412.328c5.81-.377 12.53-1.268 18.27-.48 2.18.299 4.68 1.007 5.98 2.933 1.51 2.229 1.23 8.175.74 10.776-7.54-2.864-17.47-1.997-25.45-1.508-7.42 1.179-14.3 3.909-21.58 5.64.6-3.723.23-6.103-1.62-9.388 8.1-3.907 14.77-6.301 23.66-7.973z"/>
  <path fill="#BAE0C8" d="M1045.36 320.621c4.37 5.499 5.13 14.954 10.69 22.063 3.17 4.044 7.18 8.073 11.31 11.131 2.27 1.678 6.71 3.633 8.02 6.042-4.49.38-9.41.394-13.81 1.33-8.57.615-8.41-5.303-12.87-5.361-4.47-.059-7.09 3.628-9.96 6.35.03-3.115-.36-6.028-1.97-8.735.61-3.79.9-7.69 1.88-11.399 1.26-4.736 7.35-17.762 6.71-21.421z"/>
  <path fill="#0F1E21" d="M1043.18 348.989c.41-.085.81-.171 1.21-.231 3.66-.546 6.07-.247 9.06 1.993l.11 1.157c-1.57 1.36-3.07 1.36-5.08 1.57-1.92.452-4.6 1.39-6.54 1.002-1.11-.221-.93-.35-1.51-1.21.27-1.971 1.41-2.9 2.75-4.281z"/>
  <path fill="#fff" d="M1017.81 945.937c15.07-.593 30.33.008 45.42.092 10.29.057 20.88-.545 31.13.179l.68 1.131c.03 2.223.35 5.376-.85 7.332-1.02 1.649-2.02 1.682-3.74 2.098-9.2.242-71.44 1.689-75.31-1.095-.57-.938-1.03-1.378-1.09-2.51-.16-2.973 1.85-5.231 3.76-7.227z"/>
  <path fill="#BAE0C8" d="M972.016 502.827c3.095-.134 6.254-.308 9.318.255 7.096 1.304 10.688 5.976 14.519 11.515-7.218 2.748-12.092 7.851-15.626 14.678-1.143 2.21-1.889 4.599-3.683 6.371l-1.611-.661c-6.422-2.884-13.428-3.998-19.818-6.808-1.875-.825-4.264-2.118-4.953-4.176-.535-1.598-.206-3.088.673-4.515 3.01-4.888 15.937-15.265 21.181-16.659zm137.404 409.504c8.24-.295 16.69.181 24.96.189 2.33 2.638 3.24 7.756 4.05 11.107 1.34 5.526 3.28 14.546.12 19.67l-15.66.054-26.45.017c1.76-2.89.55-8.158.3-11.389-.23-3.034-.54-3.905 1.47-6.288-.82-.656-1.48-1.249-2.13-2.077 2.68-4.835 9.62-5.489 12.86-10.482.17-.262.32-.534.48-.801zm-43.83 1.186c8.48-.047 17.02.081 25.49-.381 2.66 4.198 5.45 24.169 4.22 28.874a6.738 6.738 0 01-.94 2.118c-7.97.6-16.17.149-24.16.084q-23.98-.361-47.96-.203c7.26-4.712 16.83-11.129 24.69-14.338 1.49.406 2.12 1.52 3 2.688.15-.507.3-.884.28-1.419 2-.686 3.69-2.241 5.24-3.616-.18-1.506-.72-2.608.24-3.835 3.43-4.413 7.99-3.45 9.9-9.972zm-28.82-560.076c1.61 2.707 2 5.62 1.97 8.735 2.87-2.722 5.49-6.409 9.96-6.35 4.46.058 4.3 5.976 12.87 5.361 1.65-.023 3.11-.49 4.33.68l-.35 1.277 8.26-.675c-.04.274-.07.55-.12.823-.47 2.793-2.65 4.428-2.97 7.648l.55.552c4.95-3.048 11.17-11.62 17.59-10.018 1.79.447 3.14 1.743 4.03 3.325 1.88 3.367 3.05 7.963 1.85 11.711-1.09 3.397-3.86 5.78-7.02 7.227-2.53 1.156-5.08 2.077-7.54 3.405l-.25.962c4.5 4.955 14.29 5.706 20.05 8.83 2.07 2.805 2.59 6.335 2.51 9.753l.83 2.414c-1.29 1.373-6.79 1.067-8.93 1.179-15.1.789-15.07 1.845-28.67 6.392.58-3.163-.21-6.093-1.96-8.756-.03-.135-.03-.281-.09-.405-.54-1.057-12-1.092-14.14-1.395-1.29-.258-2.47-.741-3.66-1.282-6.5-2.945-9.14-9.213-10.19-15.92-.3-1.874-.23-4.057-.95-5.818-.1-.242-.21-.48-.31-.72-1.98-2.157-4.47-3.768-5.27-6.675.69-5.378 4.35-4.383 7.49-7.582.15-.162.31-.329.46-.494.08-4.893-2.63-9.057-.94-14.023l.61-.161z"/>
  <path d="M1036.82 387.843c1.39-.802 1.45-1.031 3-.74.68 1.012 1.26 1.93 2.26 2.666l3.42-.453.85.948c-1.48 2.89-4.54 3.486-7.19 4.947-.49-2.74-1.14-4.855-2.34-7.368z"/>
  <path fill="#191B1E" d="M1052.3 404.713c5.77-.176 14.25-1.835 19.68-.656l-.15.803c-2.31 1.517-5.25 2.934-8.07 3.056-.03-.135-.03-.281-.09-.405-.54-1.057-12-1.092-14.14-1.395l1.87-.225.9-1.178z"/>
  <path fill="#0F1E21" d="M1036.77 353.441c1.61 2.707 2 5.62 1.97 8.735 2.87-2.722 5.49-6.409 9.96-6.35 4.46.058 4.3 5.976 12.87 5.361 1.65-.023 3.11-.49 4.33.68l-.35 1.277-9.22.901c.87 2.779.29 6.884-.99 9.471-.96 1.939-2.6 3.76-4.69 4.479-1.73.597-3.52.33-5.13-.512-4.15-2.186-3.61-5.664-6.29-8.53-3.05 2.015-5.8 3.546-7.52 6.924l.05 1.318 2.72 2.197c1.33 1.064 2.46 2.141 2.73 3.911.23 1.468.03 3.128-.39 4.54 1.2 2.513 1.85 4.628 2.34 7.368 3.07 4.766 5.41 7.835 11.24 9.115q.95.207 1.9.387l-.9 1.178-1.87.225c-1.29-.258-2.47-.741-3.66-1.282-6.5-2.945-9.14-9.213-10.19-15.92-.3-1.874-.23-4.057-.95-5.818-.1-.242-.21-.48-.31-.72-1.98-2.157-4.47-3.768-5.27-6.675.69-5.378 4.35-4.383 7.49-7.582.15-.162.31-.329.46-.494.08-4.893-2.63-9.057-.94-14.023l.61-.161z"/>
  <path fill="#BAE0C8" d="M1047.41 358.318c1.18-.019 2.11-.014 3.19.518 1.99.982 2.96 2.816 3.5 4.898.8 3.097.67 7.277-1.2 9.998-.9 1.306-2.28 2.363-3.9 2.484-2.62.195-4.4-1.61-6.23-3.198.27-4.293-2.62-6.866-.08-11.342 1.5-.871 1.39-.915 3.06-.504 1.29 1.39 1.54 2.193 1.82 4.07.03.193.05.387.08.58l.9.036c.97-1.28 1.58-2.004 1.45-3.686-.15-1.778-1.27-2.822-2.59-3.854z"/>
  <path d="M1156.42 739.665l1.92.113c.13.322.35.767.43 1.128.89 3.922-8.08 72.691-9.13 82.267-2.78 25.208-4.73 50.61-7.96 75.754-.33 2.52-.49 4.81-1.78 7.062-12.06.294-23.54.329-35.6-.685-.45-.073-1.05-.471-1.47-.679-3.45-13.072.23-30.304 1.2-43.82q3.17-41.627 6.86-83.212c.7-8.253 3.09-21.977 1.94-29.769 13.86-.59 30.45-3.758 43.59-8.159zm-117.09-1.355c6.87-.137 21.48 5.476 29.23 6.995 13.68 2.686 28.12 2.965 42.01 2.803.33.533.47.675.6 1.377.83 4.486-2.09 28.628-2.56 34.403l-5.02 58.294c-1.21 15.36-1.95 30.852-3.77 46.152-.29 2.472-.42 4.595-1.94 6.674.24.637.27.632.37 1.426.28 2.267-.17 6.205-1.9 7.832-5.26 4.957-30.63 2.42-38.38 2.114.47-1.007.43-1.741.31-2.83l-18.95-165.24z"/>
  <path fill="#fff" d="M1031.03 494.265l.33-.966c1.41-4.345 1.35-10.404 1.86-15.029 1.95-17.774 7.97-33.984 24.57-42.905 15.58-8.374 37.64-13.386 54.8-8.067 12.25 3.797 18.4 15.877 23.93 26.619 5.19 10.096 20.15 49.134 18.59 58.666l-8.27.2c-10.99-1.092-63.44 3.863-69.02-.041 1.81-6.152-2.63-46.346-5.57-52.034l-.8-.211c-1.14 3.068 2.04 18.453 2.51 22.493 2.73 23.741 7.6 81.555.31 102.531-1.93 5.539-5.53 10.5-10.96 13.016-6.85 3.176-14.58 1.478-21.28-1.169-19.05-7.517-54.797-40.399-63.094-59.044 1.845-7.051 5.749-15.45 12.142-19.509.9-.572 2.773-1.501 3.864-1.232 4.053 1.001 32.808 23.379 34.448 27.675.11.273.12.572.18.859.16.269.32.535.47.809 1.06 1.977 1.08 5.016 1.33 7.239l.98-.562c.65-2.87-.15-28.119-1.49-30.892l-1.61-.007c.37-4.303.45-9.793-.33-14.032.59-.309 1.12-.764 1.65-1.164.85-4.269.63-8.906.46-13.243z"/>
  <path fill="#606063" d="M1031.03 494.265c1.37 4.705 1.85 23.902-.17 28.446l-1.61-.007c.37-4.303.45-9.793-.33-14.032.59-.309 1.12-.764 1.65-1.164.85-4.269.63-8.906.46-13.243z"/>
  <path fill="#fff" d="M1077.82 512.742c5.58 3.904 58.03-1.051 69.02.041 2.67 1.59 5.69 1.075 8.69 1.166 2.38 3.003 4.39 11.249 4.15 15.201-.04.576-.13.896-.26 1.486 6.89 15.505 25.39 185.404 21.83 196.697-.13.422-.34.741-.55 1.131-11.34 9.588-54.04 16.779-69.57 17.822-8.55.573-17.06.221-25.59-.493-24.74-2.073-48.13-10.293-71.38-18.543 2.52-18.101 21.32-123.903 18.27-131.671 10.17 3.585 20.87 9.806 31.68 4.703 5.93-2.799 9.82-8.229 11.97-14.288 3.19-8.99 5.94-42.777 2.9-51.307 1.23-3.923.1-17.834-1.16-21.945z"/>
  <path d="M1077.82 512.742c5.58 3.904 58.03-1.051 69.02.041 2.67 1.59 5.69 1.075 8.69 1.166 2.38 3.003 4.39 11.249 4.15 15.201-.04.576-.13.896-.26 1.486-1.99-1.383-71.58 2.634-79.37 3.839-.36.056-.72.137-1.07.212 1.23-3.923.1-17.834-1.16-21.945z"/>
  <path fill="#BAE0C8" d="M976.437 538.166c13.033 22.128 32.863 40.967 53.923 55.476.52.365.35.244.75.884 1.51 9.253-7.37 58.018-9.31 70.672-3.25 21.062-6.02 42.277-9.72 63.26 7.99 3.27 16.99 5.214 24.68 8.921 1.34 2.496 9.93 80.861 9.18 83.344-.12.401-.27.794-.41 1.19-9.51 1.684-19.03 5.09-28.27 7.895l-45.748 13.91q-76.833 22.669-153.243 46.728l-1.021-.853.3-205.743.068-64.794c-.008-10.642-.743-21.688-.058-32.267.131-2.014.064-2.522 1.576-3.836l106.064-28.988c14.931-4.167 37.904-9.329 51.239-15.799z"/>
</svg>
